<svg xmlns="http://www.w3.org/2000/svg" width="21" height="32" viewBox="0 0 21 32" fill="none">
  <path d="M14.3808 4.53159C12.8652 4.36375 11.2263 5.06867 9.97508 5.82394C8.72385 5.06867 7.08491 4.36375 5.56934 4.53159L5.6222 4.56515C6.00991 4.6155 7.54311 4.69942 9.58738 6.05891C9.07631 6.39459 8.63573 6.73026 8.26565 6.9988C7.86032 6.61277 7.49024 6.88132 7.47262 6.94845C7.63122 6.96523 7.77221 7.0995 7.93082 7.26734C7.70172 7.43518 7.54311 7.56945 7.43737 7.6198C7.12016 7.78764 6.9968 7.48553 6.75008 7.65337C6.37999 7.88834 6.92631 8.30794 7.04967 8.32472C7.20827 8.3415 7.68409 8.3415 8.33614 7.73729C8.35377 7.73729 8.35377 7.75407 8.37139 7.75407C8.74147 8.02261 9.16442 7.95548 9.25254 7.7205C9.09393 7.73729 8.93533 7.68694 8.67098 7.43518C9.12918 7.01559 9.56975 6.64634 9.9927 6.34423C10.4333 6.66313 10.8915 7.03237 11.3673 7.48553C11.1206 7.68694 10.962 7.73729 10.821 7.70372C10.8915 7.93869 11.3144 8.0394 11.7021 7.77086C12.3189 8.32472 12.7771 8.32472 12.9357 8.30794C13.0415 8.30794 13.5878 7.87156 13.2353 7.63659C12.9886 7.48553 12.8653 7.77086 12.548 7.60302C12.4599 7.56945 12.3189 7.45196 12.1427 7.31769C12.3013 7.14986 12.4775 6.9988 12.6362 6.9988C12.5833 6.93167 12.2308 6.64634 11.7726 7.06594C11.4025 6.78061 10.9267 6.42815 10.3628 6.05891C12.4071 4.69942 13.9755 4.63229 14.3632 4.58194L14.3808 4.53159Z" fill="#415364"/>
  <path d="M8.19449 1.54411C7.85965 1.77908 7.68342 2.16511 7.6658 2.29938L7.71867 2.33295C7.98302 2.19868 8.19449 2.06441 8.38834 2.01406C8.26498 2.21546 8.17687 2.50078 8.15925 2.92038L8.19449 2.95395C8.38834 2.65184 8.65269 2.34973 8.98752 2.13154C8.75843 2.5847 8.88179 3.2057 8.93466 3.39033L8.9699 3.42389C9.199 2.60149 9.58671 2.29938 9.76294 2.23224L9.69244 5.00157H10.3092L10.2388 2.23224C10.415 2.31616 10.8027 2.61827 11.0318 3.42389L11.067 3.39033C11.1199 3.18892 11.2433 2.5847 11.0142 2.13154C11.3666 2.34973 11.631 2.65184 11.8248 2.95395L11.8601 2.92038C11.8424 2.50078 11.7367 2.21546 11.631 2.01406C11.8248 2.06441 12.0363 2.19868 12.3006 2.33295L12.3359 2.29938C12.3183 2.16511 12.1244 1.7623 11.8072 1.54411C12.0187 1.51054 12.2478 1.54411 12.5474 1.59446L12.5826 1.56089C12.4945 1.44341 12.1068 1.1413 11.6838 1.05738C11.7367 1.02381 11.9834 0.939892 12.283 0.923108L12.3183 0.889541C12.1068 0.688135 11.6838 0.587433 11.5252 0.587433C11.5957 0.520297 11.772 0.419595 11.9129 0.386027L11.8777 0.35246C11.5076 0.201405 11.1375 0.234973 10.8908 0.335676C10.9261 0.251757 10.9789 0.151054 11.067 0H11.0142C10.7674 0.0335676 10.4326 0.234973 10.1859 0.419595C10.1683 0.386027 10.0978 0.083919 10.0273 0H9.95679C9.8863 0.083919 9.8158 0.386027 9.79818 0.419595C9.55146 0.234973 9.21662 0.0335676 8.9699 0H8.91703C9.02277 0.13427 9.07564 0.234973 9.09326 0.335676C8.84654 0.251757 8.47646 0.201405 8.10638 0.35246L8.07113 0.386027C8.21211 0.419595 8.40597 0.520297 8.45884 0.587433C8.30023 0.587433 7.87728 0.688136 7.63056 0.872757L7.6658 0.906325C7.96539 0.923109 8.21211 1.00703 8.26498 1.0406C7.85965 1.1413 7.45433 1.42662 7.36621 1.54411L7.40146 1.57768C7.75392 1.54411 7.98301 1.51054 8.19449 1.54411Z" fill="#415364"/>
  <path d="M14.5212 9.73462L14.4683 9.78497C16.6183 12.8061 16.2306 18.9154 16.2306 19.8888V29.0528H14.997V25.4107C14.997 23.833 14.1688 21.9868 11.7192 20.8958L11.6663 20.9462C13.411 22.0204 13.8339 23.833 13.8339 25.4107V29.0528H8.10645V30.043H17.429V19.8888C17.429 18.9154 17.4642 12.2858 14.5212 9.73462Z" fill="#415364"/>
  <path d="M10.6261 11.8157C10.6085 10.8087 10.3089 8.81143 10.0445 8.224H9.95642C9.7097 8.82822 9.42773 10.8255 9.42773 11.8157V27.8443H10.6261V11.8157Z" fill="#415364"/>
  <path d="M14.1515 5.90784L14.0986 5.95819C19.5618 9.9863 19.0683 16.1459 19.0683 19.6538V30.0261H20.2667V19.6538C20.2138 17.2201 20.672 9.73454 14.1515 5.90784Z" fill="#415364"/>
  <path d="M3.54254 17.4718C3.2077 17.4718 2.94336 17.7236 2.94336 18.0257C2.94336 18.3278 3.2077 18.5795 3.54254 18.5795C3.87738 18.5795 4.14172 18.3278 4.14172 18.0257C4.14172 17.7236 3.87738 17.4718 3.54254 17.4718Z" fill="#415364"/>
  <path d="M3.54254 18.8986C3.2077 18.8986 2.94336 19.1503 2.94336 19.4524C2.94336 19.7545 3.2077 20.0063 3.54254 20.0063C3.87738 20.0063 4.14172 19.7545 4.14172 19.4524C4.14172 19.1503 3.87738 18.8986 3.54254 18.8986Z" fill="#415364"/>
  <path d="M2.94304 29.0527H1.19836V21.97C1.19836 20.7783 1.83279 20.6944 2.29099 20.6944H2.94304V29.0527ZM4.1414 20.4091H1.81517C1.16312 20.4091 0.105738 20.644 0 21.7853V30.0262H4.12378V20.4091H4.1414Z" fill="#415364"/>
  <path d="M1.19832 19.9056V19.6538C1.19832 16.1292 0.704874 9.98636 6.168 5.94146L6.11513 5.89111C-0.405374 9.71782 0.0528241 17.2034 0.0175781 19.637V20.4427H0.0704471C0.352415 20.1405 0.881104 19.9559 1.19832 19.9056Z" fill="#415364"/>
  <path d="M5.74519 9.73462C3.80666 11.4298 3.20748 14.6691 3.03125 17.1027C3.17223 17.0524 3.33084 17.0188 3.48945 17.0188C3.6833 17.0188 3.85953 17.0524 4.01814 17.1363C4.07101 14.8201 4.40584 11.7655 5.79806 9.78497L5.74519 9.73462Z" fill="#415364"/>
  <path d="M8.63469 20.879C6.16747 21.9532 5.35681 23.8162 5.35681 25.3939V29.7073C5.35681 30.899 4.88099 31.7717 3.29492 31.906L3.31254 31.9731C5.56829 32.1913 6.44944 31.05 6.44944 29.6905V25.3771C6.44944 23.7994 6.97813 21.9868 8.70518 20.9126L8.63469 20.879Z" fill="#415364"/>
</svg>