<svg width="40" height="40" viewBox="0 0 40 40" fill="none" xmlns="http://www.w3.org/2000/svg">
<path opacity="0.4" d="M21.3193 8.60742C22.1733 8.37295 23.1474 8.35988 24.0879 8.39941L25.0117 8.4502L25.1777 8.46094C26.2032 8.52427 27.183 8.95365 27.9746 9.68848L28.1299 9.83887C29.4067 11.1273 30.6728 12.1054 32.4707 12.1055H36.6162V26.6152H34.7354C32.6292 26.6152 31.5248 26.6144 30.5986 26.1943L30.416 26.1045C29.9326 25.8492 29.5122 25.4824 29.0332 24.9355C28.5537 24.3881 28.0167 23.6629 27.2988 22.6924L23.4307 17.4688C23.2238 17.1885 23.0072 16.9099 22.7637 16.6914C22.522 16.4746 22.251 16.3144 21.9346 16.2695C21.932 16.2691 21.9293 16.269 21.9268 16.2686H21.9248L21.9102 16.3672C22.233 16.4221 22.581 16.6027 22.9131 16.999L23.0547 17.1826C23.9713 18.4722 27.1089 22.6318 28.5918 24.5869L25.6592 27.5146L25.6504 27.5234C24.3151 28.8138 23.3162 29.779 22.4385 30.4473C21.6716 31.0311 20.9999 31.3855 20.2812 31.5322L19.9697 31.583H19.9688C19.8936 31.5924 19.8169 31.5991 19.7402 31.6055H19.7295C18.8844 31.6661 18.0715 31.4481 17.0752 30.959C16.3268 30.5916 15.4775 30.0726 14.4355 29.4082L13.3262 28.6953L13.3174 28.6904C11.9169 27.7877 11.1227 27.2752 10.333 26.9756L9.99316 26.8594L9.85938 26.8193H9.8584C8.9371 26.5605 7.96251 26.5605 6.03418 26.5605H3.38184V11.7158H8.10742C9.25937 11.7157 10.3639 11.1805 11.21 10.2266L11.376 10.0303C12.51 8.61627 14.1513 8.06806 15.6855 8.55859L15.9912 8.66992L18.3115 9.63379V9.63477L18.6846 9.80469V9.80371L18.8623 9.90234L15.7764 13.5811L15.8516 13.6465L18.2178 10.9834C19.0852 10.0076 19.9036 9.08895 21.0791 8.68164L21.3193 8.60742ZM15.5713 17.4229L15.4873 17.4775C15.9253 18.188 16.6425 18.6734 17.585 18.5957L17.5801 18.4961C17.0064 18.5116 16.4317 18.3014 15.9668 17.877L15.7744 17.6826C15.7009 17.5999 15.6336 17.5128 15.5713 17.4229ZM20.5703 16.6934C20.3901 16.8107 20.2123 16.944 20.0381 17.083L19.5264 17.5078C19.306 17.6949 19.093 17.876 18.8887 18.0293L18.6855 18.167L18.7334 18.2549C19.3145 17.9667 19.9505 17.4868 20.6338 16.7695L20.5703 16.6934Z" fill="#3EB9B5" stroke="#3EB9B5" stroke-width="0.1"/>
<path d="M34.7355 27.9151H36.6605C37.3505 27.9151 37.9105 27.3551 37.9105 26.6651C37.9105 25.9751 37.3505 25.4151 36.6605 25.4151H34.7305C32.5572 25.4151 31.6489 25.4018 30.9705 25.0434C30.2409 24.6586 29.5795 23.7643 28.2608 21.981L24.3899 16.7537C23.9086 16.1036 22.7876 14.5894 20.9139 15.1934C20.0785 15.4636 19.3767 16.0585 18.7559 16.5847L18.7455 16.5934C18.7304 16.6063 18.7152 16.6191 18.7002 16.6319C18.5087 16.7944 18.3277 16.948 18.1639 17.0701C17.6855 17.4284 17.0839 17.3551 16.6672 16.8851C16.1005 16.2468 16.1005 15.1684 16.6672 14.5301L19.1105 11.7801C19.9455 10.8401 20.6672 10.0301 21.6322 9.76345C22.5773 9.50435 23.8219 9.57956 24.9224 9.64606L25.1005 9.65676C25.8989 9.7051 26.6705 10.0685 27.2755 10.6818C28.6255 12.0435 30.1889 13.3035 32.4689 13.3035H36.6639C37.3539 13.3035 37.9139 12.7435 37.9139 12.0535C37.9139 11.3635 37.3539 10.8035 36.6639 10.8035H32.4689C31.1755 10.8035 30.2022 10.0834 29.0522 8.92345C28.0155 7.87345 26.6672 7.24677 25.2539 7.1601L25.0798 7.14954C23.7853 7.07134 22.3174 6.98266 20.9722 7.35179C20.1435 7.57975 19.47 7.98081 18.8793 8.46468C18.8568 8.45369 18.8338 8.44331 18.8104 8.43355L16.4887 7.46854C14.3354 6.57354 11.9304 7.26021 10.362 9.21521C9.74204 9.98854 8.94037 10.4152 8.10703 10.4152H3.33203C2.64203 10.4152 2.08203 10.9752 2.08203 11.6652C2.08203 12.3552 2.64203 12.9152 3.33203 12.9152H8.10703C9.69037 12.9152 11.222 12.1369 12.312 10.7802C13.1804 9.69686 14.4137 9.31352 15.5304 9.77685L17.0036 10.3892L14.8022 12.8684C13.3889 14.4584 13.3889 16.9518 14.8022 18.5434C16.0939 19.9968 18.1405 20.2151 19.6689 19.0668C19.9055 18.8901 20.1405 18.6901 20.3672 18.4968C20.8122 18.1184 21.3172 17.6901 21.6872 17.5701C21.7289 17.5568 21.7489 17.5551 21.7489 17.5551C21.8255 17.5785 21.9972 17.7151 22.3855 18.2418L26.2664 23.4821C26.5441 23.8572 26.7986 24.201 27.0369 24.5163L24.8187 26.6619C22.3537 29.0435 21.1154 30.2386 19.8204 30.3936C19.7629 30.4001 19.7055 30.405 19.648 30.41L19.6454 30.4102C18.3461 30.5035 16.8871 29.563 13.974 27.6853L13.9583 27.6752C12.3199 26.6194 11.4147 26.0362 10.3354 25.7102L10.1854 25.6652C9.10536 25.3619 8.08036 25.3619 6.03536 25.3619H3.3337C2.6437 25.3619 2.0837 25.9219 2.0837 26.6119C2.0837 27.3019 2.6437 27.8619 3.3337 27.8619H6.03536C7.842 27.8619 8.7537 27.8619 9.4987 28.0685L9.61702 28.1035C10.3554 28.3268 11.1104 28.8119 12.622 29.7869L12.6276 29.7905C15.7009 31.7716 17.4749 32.9152 19.4504 32.9152L19.452 32.9169C19.5754 32.9169 19.7004 32.9135 19.8254 32.9019H19.8537C19.9465 32.8936 20.0409 32.8851 20.1254 32.8752C22.2487 32.6219 23.7787 31.1435 26.5654 28.4502L28.6619 26.4225C29.0252 26.763 29.3938 27.0344 29.8089 27.2534C31.0622 27.9151 32.3672 27.9151 34.7355 27.9151Z" fill="#3EB9B5"/>
</svg>
