<svg xmlns="http://www.w3.org/2000/svg" width="40" height="30" viewBox="0 0 40 30" fill="none">
  <g opacity="0.4">
    <path d="M14.1666 9.16667C14.1666 11.4679 12.3011 13.3333 9.99992 13.3333C7.69873 13.3333 5.83325 11.4679 5.83325 9.16667C5.83325 6.86548 7.69873 5 9.99992 5C12.3011 5 14.1666 6.86548 14.1666 9.16667Z" fill="#3EB9B5"/>
    <path d="M34.1666 9.16667C34.1666 11.4679 32.3011 13.3333 29.9999 13.3333C27.6987 13.3333 25.8333 11.4679 25.8333 9.16667C25.8333 6.86548 27.6987 5 29.9999 5C32.3011 5 34.1666 6.86548 34.1666 9.16667Z" fill="#3EB9B5"/>
    <path d="M12.8926 20.5315C13.1069 20.4056 13.3036 20.29 13.4729 20.1853C17.4663 17.716 22.5335 17.716 26.5269 20.1853C26.6963 20.29 26.893 20.4056 27.1072 20.5315C29.047 21.6714 32.4245 23.6561 29.9754 26.079C28.647 27.3934 27.1674 28.3333 25.3072 28.3333H14.6926C12.8325 28.3333 11.3529 27.3934 10.0244 26.079C7.57537 23.6561 10.9529 21.6714 12.8926 20.5315Z" fill="#3EB9B5"/>
    <path d="M14.1666 9.16667C14.1666 11.4679 12.3011 13.3333 9.99992 13.3333C7.69873 13.3333 5.83325 11.4679 5.83325 9.16667C5.83325 6.86548 7.69873 5 9.99992 5C12.3011 5 14.1666 6.86548 14.1666 9.16667Z" stroke="#3EB9B5" stroke-width="1.5" stroke-linecap="round" stroke-linejoin="round"/>
    <path d="M34.1666 9.16667C34.1666 11.4679 32.3011 13.3333 29.9999 13.3333C27.6987 13.3333 25.8333 11.4679 25.8333 9.16667C25.8333 6.86548 27.6987 5 29.9999 5C32.3011 5 34.1666 6.86548 34.1666 9.16667Z" stroke="#3EB9B5" stroke-width="1.5" stroke-linecap="round" stroke-linejoin="round"/>
    <path d="M12.8926 20.5315C13.1069 20.4056 13.3036 20.29 13.4729 20.1853C17.4663 17.716 22.5335 17.716 26.5269 20.1853C26.6963 20.29 26.893 20.4056 27.1072 20.5315C29.047 21.6714 32.4245 23.6561 29.9754 26.079C28.647 27.3934 27.1674 28.3333 25.3072 28.3333H14.6926C12.8325 28.3333 11.3529 27.3934 10.0244 26.079C7.57537 23.6561 10.9529 21.6714 12.8926 20.5315Z" stroke="#3EB9B5" stroke-width="1.5" stroke-linecap="round" stroke-linejoin="round"/>
  </g>
  <path fill-rule="evenodd" clip-rule="evenodd" d="M12.9165 7.50033C12.9165 3.58831 16.0878 0.416992 19.9998 0.416992C23.9119 0.416992 27.0832 3.58831 27.0832 7.50033C27.0832 11.4123 23.9119 14.5837 19.9998 14.5837C16.0878 14.5837 12.9165 11.4123 12.9165 7.50033ZM19.9998 2.91699C17.4685 2.91699 15.4165 4.96902 15.4165 7.50033C15.4165 10.0316 17.4685 12.0837 19.9998 12.0837C22.5311 12.0837 24.5832 10.0316 24.5832 7.50033C24.5832 4.96902 22.5311 2.91699 19.9998 2.91699Z" fill="#3EB9B5"/>
  <path fill-rule="evenodd" clip-rule="evenodd" d="M12.8157 19.1225C17.212 16.4041 22.7882 16.4041 27.1845 19.1225C27.3141 19.2026 27.4782 19.2986 27.6667 19.409C28.5205 19.9086 29.876 20.7017 30.8008 21.6418C31.3817 22.2322 31.961 23.0371 32.0667 24.0406C32.1797 25.1142 31.724 26.1079 30.8547 26.968C29.4187 28.3887 27.6398 29.5837 25.3074 29.5837L14.6928 29.5837C12.3604 29.5837 10.5815 28.3887 9.14544 26.968C8.27617 26.1079 7.8205 25.1142 7.9335 24.0406C8.03913 23.0371 8.61846 22.2322 9.19933 21.6418C10.1242 20.7017 11.4795 19.9087 12.3333 19.4091C12.5219 19.2987 12.6861 19.2026 12.8157 19.1225ZM25.8697 21.2488C22.2791 19.0286 17.721 19.0286 14.1305 21.2488C13.915 21.3821 13.6839 21.5183 13.4454 21.6589C12.5923 22.162 11.6452 22.7204 10.9815 23.3951C10.5732 23.8101 10.4397 24.113 10.4198 24.3023C10.4072 24.4215 10.4132 24.7055 10.9037 25.1908C12.1246 26.3987 13.3049 27.0837 14.6928 27.0837L25.3074 27.0837C26.6953 27.0837 27.8756 26.3987 29.0964 25.1908C29.5869 24.7055 29.5929 24.4215 29.5804 24.3023C29.5605 24.113 29.427 23.8101 29.0187 23.3951C28.355 22.7204 27.4079 22.162 26.5548 21.659C26.3164 21.5184 26.0852 21.3821 25.8697 21.2488Z" fill="#3EB9B5"/>
  <path d="M3.74991 9.16699C3.74991 6.17545 6.17503 3.75033 9.16658 3.75033C9.85693 3.75033 10.4166 4.30997 10.4166 5.00033C10.4166 5.69068 9.85693 6.25033 9.16658 6.25033C7.55575 6.25033 6.24991 7.55616 6.24991 9.16699C6.24991 10.7778 7.55575 12.0837 9.16658 12.0837C9.85693 12.0837 10.4166 12.6433 10.4166 13.3337C10.4166 14.024 9.85693 14.5837 9.16658 14.5837C6.17503 14.5837 3.74991 12.1585 3.74991 9.16699Z" fill="#3EB9B5"/>
  <path d="M8.22062 15.4221C8.90816 15.3599 9.51596 15.8668 9.57816 16.5544C9.64036 17.2419 9.13342 17.8497 8.44587 17.9119C7.37869 18.0085 6.30425 18.4207 5.3203 19.1784C5.16177 19.3005 4.99722 19.4214 4.83126 19.5434C4.26525 19.9594 3.68294 20.3874 3.26754 20.9132C3.02091 21.2254 2.93277 21.4601 2.91877 21.6257C2.90809 21.752 2.92609 21.9743 3.21304 22.3278C4.03869 23.3451 4.71066 23.7503 5.37651 23.7503C6.06686 23.7503 6.62651 24.31 6.62651 25.0003C6.62651 25.6907 6.06686 26.2503 5.37651 26.2503C3.54468 26.2503 2.23002 25.0838 1.27193 23.9033C0.646002 23.1321 0.354042 22.2861 0.427653 21.4152C0.497941 20.5836 0.88834 19.892 1.30581 19.3635C1.95916 18.5365 2.92849 17.8313 3.4963 17.4182C3.61587 17.3312 3.71775 17.2571 3.795 17.1976C5.13549 16.1654 6.65641 15.5636 8.22062 15.4221Z" fill="#3EB9B5"/>
  <path d="M28.7498 5.00033C28.7498 4.30997 29.3095 3.75033 29.9998 3.75033C32.9914 3.75033 35.4165 6.17545 35.4165 9.16699C35.4165 12.1585 32.9914 14.5837 29.9998 14.5837C29.3095 14.5837 28.7498 14.024 28.7498 13.3337C28.7498 12.6433 29.3095 12.0837 29.9998 12.0837C31.6107 12.0837 32.9165 10.7778 32.9165 9.16699C32.9165 7.55616 31.6107 6.25033 29.9998 6.25033C29.3095 6.25033 28.7498 5.69068 28.7498 5.00033Z" fill="#3EB9B5"/>
  <path d="M30.4216 16.5544C30.4838 15.8668 31.0916 15.3599 31.7791 15.4221C33.3433 15.5636 34.8643 16.1654 36.2048 17.1976C36.282 17.2571 36.3837 17.3311 36.5032 17.418C37.0711 17.8311 38.0406 18.5365 38.6939 19.3635C39.1114 19.892 39.5018 20.5836 39.5721 21.4152C39.6457 22.2861 39.3537 23.1321 38.7278 23.9033C37.7697 25.0838 36.4551 26.2503 34.6232 26.2503C33.9329 26.2503 33.3732 25.6907 33.3732 25.0003C33.3732 24.31 33.9329 23.7503 34.6232 23.7503C35.2891 23.7503 35.9611 23.3451 36.7867 22.3278C37.0737 21.9743 37.0917 21.752 37.081 21.6257C37.067 21.4601 36.9788 21.2254 36.7322 20.9132C36.3168 20.3874 35.7345 19.9594 35.1685 19.5434C35.0026 19.4214 34.8379 19.3004 34.6794 19.1784C33.6955 18.4207 32.6211 18.0085 31.5539 17.9119C30.8663 17.8497 30.3594 17.2419 30.4216 16.5544Z" fill="#3EB9B5"/>
</svg>