<svg width="34" height="38" viewBox="0 0 34 38" fill="none" xmlns="http://www.w3.org/2000/svg">
<path opacity="0.4" d="M21.8771 3.85139L10.7892 9.17387C10.3719 9.37421 9.94053 9.50111 9.5 9.55413V20.1119C9.94053 20.1649 10.3719 20.2918 10.7892 20.4921L21.8771 25.8146C24.4224 27.0364 25.695 27.6473 27.114 27.1712C28.5329 26.695 29.0199 25.6732 29.994 23.6297C32.6687 18.0183 32.6687 11.6478 29.994 6.03628C29.0199 3.99277 28.5329 2.97102 27.114 2.49484C25.695 2.01867 24.4224 2.62958 21.8771 3.85139Z" fill="#3EB9B5" stroke="#3EB9B5" stroke-width="1.5" stroke-linecap="round" stroke-linejoin="round"/>
<path fill-rule="evenodd" clip-rule="evenodd" d="M26.1451 28.5847C24.7584 28.5847 23.3483 27.9081 21.3383 26.9431L12.2797 22.5935C13.197 25.8145 14.7554 27.2458 16.3382 28.2829C17.4598 29.0179 18.1716 30.2245 18.2416 31.5095C18.3066 32.6995 17.8148 33.8196 16.8898 34.5829L14.4049 36.6312C14.1751 36.8211 13.8921 36.9161 13.6107 36.9162C13.336 36.9161 13.0629 36.826 12.8348 36.6462C7.34334 32.2914 7.36817 29.6081 7.42816 23.1236L7.43104 22.7968C7.43447 22.411 7.43797 22.0168 7.44034 21.6074C7.30566 21.6323 7.18802 21.6503 7.07173 21.6632C5.44173 21.8498 3.9067 21.3865 2.75337 20.3598C1.48003 19.2248 0.750032 17.4881 0.75003 15.5948L0.750032 14.0748C0.750031 12.1815 1.48003 10.4448 2.75337 9.30982C3.9067 8.28149 5.44169 7.81977 7.08003 8.00644C7.39003 8.03977 7.71673 8.11303 8.37006 8.25969C9.02006 8.40636 9.65332 8.33477 10.2517 8.04811L21.3367 2.72649L21.34 2.7247C24.005 1.4447 25.6134 0.673117 27.5134 1.31145C29.4347 1.95635 30.1065 3.36599 31.1229 5.49877C33.9513 11.4304 33.9517 18.2364 31.1234 24.1681C30.107 26.3008 29.4347 27.7115 27.5134 28.3564C27.0467 28.513 26.5967 28.5847 26.1451 28.5847ZM10.75 19.1256C10.9463 19.1931 11.1399 19.2723 11.33 19.363L22.4183 24.6865C24.9167 25.8848 25.825 26.2848 26.7167 25.9848C27.595 25.6898 27.9101 25.0981 28.8667 23.0898C31.3684 17.8414 31.3684 11.8197 28.8667 6.57138C27.9101 4.56304 27.595 3.97136 26.7167 3.67636C25.825 3.37636 24.9167 3.77641 22.4217 4.97307L22.42 4.9747L11.3334 10.2981C11.1421 10.3899 10.9474 10.4697 10.75 10.5377L10.75 19.1256ZM8.25003 18.888L8.25003 10.7728C8.10769 10.7525 7.96539 10.7264 7.82335 10.6948L7.78722 10.6866C7.28215 10.5731 6.97592 10.5043 6.80333 10.4864C5.85 10.3764 5.04999 10.6081 4.41832 11.1715C3.67666 11.8331 3.25166 12.8897 3.25166 14.0714L3.25166 15.5914C3.25166 16.7731 3.67666 17.8298 4.41832 18.4915C5.04999 19.0548 5.85003 19.2847 6.79503 19.1764C6.97836 19.1564 7.29673 19.0847 7.82173 18.9664C7.96436 18.9342 8.1072 18.9081 8.25003 18.888ZM13.6066 34.0495C9.92603 30.9455 9.8732 29.2373 9.92478 23.4716C10.8367 26.5687 12.4213 28.7056 14.9682 30.3729C15.4282 30.6746 15.7199 31.1496 15.7465 31.6462C15.7615 31.9246 15.6965 32.3246 15.2998 32.6529L13.6066 34.0495Z" fill="#3EB9B5"/>
</svg>
