<svg width="36" height="36" viewBox="0 0 36 36" fill="none" xmlns="http://www.w3.org/2000/svg">
<path opacity="0.4" d="M11.3333 1.83301C13.7044 1.83301 15.4327 1.83418 16.7532 2.01172C18.0591 2.18733 18.8911 2.52755 19.5149 3.15137C20.1387 3.77518 20.4789 4.60709 20.6545 5.91309C20.8321 7.23359 20.8333 8.96185 20.8333 11.333L20.8333 34.166L13.8079 34.166C13.9337 34.0619 14.0563 33.9527 14.175 33.8389L14.5042 33.5049C14.9454 33.0319 15.1685 32.5286 15.1663 32.0088C15.164 31.4993 14.9458 31.0547 14.6663 30.6895C14.1216 29.9778 13.2191 29.4104 12.6418 29.043H12.6409L12.2952 28.8193C9.75138 27.1154 6.53894 27.0617 3.95337 28.6592L3.70532 28.8193L3.35767 29.043C2.98223 29.2819 2.46627 29.6069 2.00122 30.0029C1.83592 28.7054 1.83325 27.0007 1.83325 24.666L1.83325 11.333C1.83325 8.96185 1.83443 7.23359 2.01196 5.91309C2.18757 4.60707 2.52779 3.77518 3.15161 3.15137C3.77543 2.52755 4.60732 2.18733 5.91333 2.01172C7.23384 1.83418 8.96209 1.83301 11.3333 1.83301ZM8.00024 17.5C5.88316 17.5 4.16626 19.2159 4.16626 21.333C4.16626 23.4502 5.88316 25.166 8.00024 25.166C10.1172 25.1658 11.8333 23.45 11.8333 21.333C11.8333 19.216 10.1172 17.5002 8.00024 17.5Z" fill="#3EB9B5" stroke="#3EB9B5"/>
<path d="M25.9166 16.333C25.9166 15.6427 26.4762 15.083 27.1666 15.083H28.8333C29.5236 15.083 30.0833 15.6427 30.0833 16.333C30.0833 17.0234 29.5236 17.583 28.8333 17.583H27.1666C26.4762 17.583 25.9166 17.0234 25.9166 16.333Z" fill="#3EB9B5"/>
<path d="M25.9166 22.9997C25.9166 22.3093 26.4762 21.7497 27.1666 21.7497H28.8333C29.5236 21.7497 30.0833 22.3093 30.0833 22.9997C30.0833 23.69 29.5236 24.2497 28.8333 24.2497H27.1666C26.4762 24.2497 25.9166 23.69 25.9166 22.9997Z" fill="#3EB9B5"/>
<path fill-rule="evenodd" clip-rule="evenodd" d="M11.2418 0.0830086L11.4247 0.0830086C13.704 0.0829769 15.5412 0.0829513 16.9861 0.277217C18.4863 0.478912 19.7494 0.910402 20.7526 1.91359C21.7558 2.91678 22.1873 4.1799 22.389 5.68009C22.5493 6.87166 22.5773 8.32998 22.5822 10.083L28.0866 10.083C29.584 10.083 30.8327 10.0829 31.824 10.2162C32.8703 10.3569 33.815 10.6663 34.5741 11.4254C35.3333 12.1845 35.6427 13.1292 35.7834 14.1756C35.9167 15.1669 35.9166 16.4156 35.9166 17.913V28.0863C35.9166 29.5838 35.9167 30.8325 35.7834 31.8238C35.6427 32.8701 35.3333 33.8148 34.5741 34.5739C33.815 35.333 32.8704 35.6425 31.824 35.7832C30.8327 35.9164 29.584 35.9164 28.0866 35.9163H21.3333C20.6429 35.9163 20.0833 35.3567 20.0833 34.6663L20.0833 11.333C20.0833 8.94065 20.0806 7.27213 19.9113 6.01322C19.7469 4.79026 19.4462 4.14265 18.9849 3.68137C18.5236 3.22009 17.876 2.91935 16.653 2.75492C15.3941 2.58567 13.7256 2.58301 11.3333 2.58301C8.94089 2.58301 7.27237 2.58567 6.01346 2.75492C4.7905 2.91935 4.14288 3.22009 3.68161 3.68136C3.22033 4.14263 2.91959 4.79025 2.75517 6.01321C2.58591 7.27213 2.58326 8.94065 2.58326 11.333L2.58326 14.6663C2.58326 15.3567 2.02361 15.9163 1.33326 15.9163C0.6429 15.9163 0.0832528 15.3567 0.0832528 14.6663L0.0832528 11.2416C0.083221 8.96227 0.0831954 7.12502 0.277461 5.68009C0.479155 4.17991 0.910645 2.91679 1.91384 1.9136C2.91703 0.910401 4.18016 0.478911 5.68034 0.277217C7.12526 0.0829513 8.96251 0.0829769 11.2418 0.0830086ZM22.5833 12.583L22.5833 33.4163H27.9999C29.6066 33.4163 30.6858 33.4137 31.4909 33.3055C32.26 33.202 32.5892 33.0233 32.8064 32.8061C33.0236 32.5889 33.2023 32.2597 33.3057 31.4907C33.4139 30.6856 33.4166 29.6063 33.4166 27.9997V17.9997C33.4166 16.393 33.4139 15.3137 33.3057 14.5087C33.2023 13.7396 33.0236 13.4104 32.8064 13.1932C32.5892 12.976 32.26 12.7973 31.4909 12.6939C30.6858 12.5857 29.6066 12.583 27.9999 12.583L22.5833 12.583Z" fill="#3EB9B5"/>
<path d="M5.91659 7.99968C5.91659 7.30932 6.47623 6.74968 7.16659 6.74968H8.83325C9.52361 6.74968 10.0833 7.30932 10.0833 7.99968C10.0833 8.69003 9.52361 9.24968 8.83325 9.24968H7.16659C6.47623 9.24968 5.91659 8.69003 5.91659 7.99968Z" fill="#3EB9B5"/>
<path d="M12.5833 7.99968C12.5833 7.30932 13.1429 6.74968 13.8333 6.74968H15.4999C16.1903 6.74968 16.7499 7.30932 16.7499 7.99968C16.7499 8.69003 16.1903 9.24968 15.4999 9.24968H13.8333C13.1429 9.24968 12.5833 8.69003 12.5833 7.99968Z" fill="#3EB9B5"/>
<path d="M5.91659 12.9997C5.91659 12.3093 6.47623 11.7497 7.16659 11.7497H8.83325C9.52361 11.7497 10.0833 12.3093 10.0833 12.9997C10.0833 13.69 9.52361 14.2497 8.83325 14.2497H7.16659C6.47623 14.2497 5.91659 13.69 5.91659 12.9997Z" fill="#3EB9B5"/>
<path d="M12.5833 12.9997C12.5833 12.3093 13.1429 11.7497 13.8333 11.7497H15.4999C16.1903 11.7497 16.7499 12.3093 16.7499 12.9997C16.7499 13.69 16.1903 14.2497 15.4999 14.2497H13.8333C13.1429 14.2497 12.5833 13.69 12.5833 12.9997Z" fill="#3EB9B5"/>
<path fill-rule="evenodd" clip-rule="evenodd" d="M8.03888 16.6764C5.50856 16.6764 3.45565 18.7263 3.45565 21.2571C3.45565 23.788 5.50852 25.8379 8.03888 25.8379C10.5693 25.8379 12.6221 23.788 12.6221 21.2571C12.6221 18.7263 10.5692 16.6764 8.03888 16.6764ZM5.95565 21.2571C5.95565 20.1089 6.88744 19.1764 8.03888 19.1764C9.19034 19.1764 10.1221 20.1089 10.1221 21.2571C10.1221 22.4055 9.1903 23.3379 8.03888 23.3379C6.88748 23.3379 5.95565 22.4055 5.95565 21.2571Z" fill="#3EB9B5"/>
<path fill-rule="evenodd" clip-rule="evenodd" d="M8.03935 26.7041C5.64534 26.7017 2.42209 27.888 0.398278 31.0013C0.0997899 31.4606 -0.0730901 32.1829 0.315193 32.8709C0.592742 33.3627 1.097 34.0025 1.65404 34.5361C1.93795 34.808 2.26445 35.0804 2.61387 35.2998C2.94864 35.51 3.39014 35.7261 3.8901 35.7793C5.01996 35.8993 7.91553 35.915 8.03038 35.9156L8.0332 35.9157L8.04952 35.9156C8.15304 35.915 10.9727 35.8996 12.1041 35.7793C12.6036 35.7262 13.0448 35.5094 13.3784 35.2998C13.7271 35.0807 14.0535 34.8086 14.3375 34.5368C14.8946 34.0039 15.4009 33.3636 15.6791 32.8706C16.0671 32.1828 15.8944 31.4608 15.5959 31.0013C13.5783 27.8975 10.4439 26.7067 8.03935 26.7041ZM3.38337 32.7307C3.13155 32.4895 2.9078 32.2294 2.74042 32.0085C4.2483 29.9628 6.46532 29.2026 8.03689 29.2041C9.59865 29.2058 11.7479 29.9548 13.2538 32.0078C13.0863 32.2284 12.8619 32.4887 12.6093 32.7304C12.406 32.9249 12.2129 33.0796 12.0484 33.1829C11.9005 33.2759 11.83 33.2943 11.83 33.2943C10.8526 33.3965 8.23447 33.4144 8.04027 33.4156C7.84254 33.4144 5.12425 33.3963 4.15427 33.2933L4.1631 33.2941C4.1631 33.2941 4.09202 33.2759 3.9431 33.1825C3.77877 33.0793 3.58617 32.925 3.38337 32.7307Z" fill="#3EB9B5"/>
</svg>
