<svg width="40" height="40" viewBox="0 0 40 40" fill="none" xmlns="http://www.w3.org/2000/svg">
<g opacity="0.4">
<path d="M16.6654 3.33301L23.332 3.33301C26.3574 3.33301 26.6654 4.87457 26.6654 7.49967C26.6654 10.1248 26.3574 11.6663 23.332 11.6663L16.6654 11.6663C13.64 11.6663 13.332 10.1248 13.332 7.49967C13.332 4.87457 13.64 3.33301 16.6654 3.33301Z" fill="#3EB9B5"/>
<path d="M3.33203 32.4997C3.33203 30.5355 3.33203 29.5534 3.94223 28.9432C4.55242 28.333 5.53451 28.333 7.4987 28.333C9.46288 28.333 10.445 28.333 11.0552 28.9432C11.6654 29.5534 11.6654 30.5355 11.6654 32.4997C11.6654 34.4639 11.6654 35.446 11.0552 36.0561C10.445 36.6663 9.46288 36.6663 7.4987 36.6663C5.53451 36.6663 4.55242 36.6663 3.94223 36.0561C3.33203 35.446 3.33203 34.4639 3.33203 32.4997Z" fill="#3EB9B5"/>
<path d="M28.9422 28.9432C28.332 29.5534 28.332 30.5355 28.332 32.4997C28.332 34.4639 28.332 35.446 28.9422 36.0561C29.5524 36.6663 30.5345 36.6663 32.4987 36.6663C34.4629 36.6663 35.445 36.6663 36.0552 36.0561C36.6654 35.446 36.6654 34.4639 36.6654 32.4997C36.6654 30.5355 36.6654 29.5534 36.0552 28.9432C35.445 28.333 34.4629 28.333 32.4987 28.333C30.5345 28.333 29.5524 28.333 28.9422 28.9432Z" fill="#3EB9B5"/>
<path d="M16.6654 3.33301L23.332 3.33301C26.3574 3.33301 26.6654 4.87457 26.6654 7.49967C26.6654 10.1248 26.3574 11.6663 23.332 11.6663L16.6654 11.6663C13.64 11.6663 13.332 10.1248 13.332 7.49967C13.332 4.87457 13.64 3.33301 16.6654 3.33301Z" stroke="#3EB9B5" stroke-width="1.5"/>
<path d="M3.33203 32.4997C3.33203 30.5355 3.33203 29.5534 3.94223 28.9432C4.55242 28.333 5.53451 28.333 7.4987 28.333C9.46288 28.333 10.445 28.333 11.0552 28.9432C11.6654 29.5534 11.6654 30.5355 11.6654 32.4997C11.6654 34.4639 11.6654 35.446 11.0552 36.0561C10.445 36.6663 9.46288 36.6663 7.4987 36.6663C5.53451 36.6663 4.55242 36.6663 3.94223 36.0561C3.33203 35.446 3.33203 34.4639 3.33203 32.4997Z" stroke="#3EB9B5" stroke-width="1.5"/>
<path d="M28.9422 28.9432C28.332 29.5534 28.332 30.5355 28.332 32.4997C28.332 34.4639 28.332 35.446 28.9422 36.0561C29.5524 36.6663 30.5345 36.6663 32.4987 36.6663C34.4629 36.6663 35.445 36.6663 36.0552 36.0561C36.6654 35.446 36.6654 34.4639 36.6654 32.4997C36.6654 30.5355 36.6654 29.5534 36.0552 28.9432C35.445 28.333 34.4629 28.333 32.4987 28.333C30.5345 28.333 29.5524 28.333 28.9422 28.9432Z" stroke="#3EB9B5" stroke-width="1.5"/>
</g>
<path fill-rule="evenodd" clip-rule="evenodd" d="M12.8104 3.75968C13.5991 2.52324 14.964 2.08301 16.6654 2.08301L23.332 2.08301C25.0334 2.08301 26.3983 2.52324 27.187 3.75968C27.8677 4.82673 27.9154 6.24116 27.9154 7.49967C27.9154 8.75819 27.8677 10.1726 27.187 11.2397C26.3983 12.4761 25.0334 12.9163 23.332 12.9163H21.2487V15.5613C23.6376 16.1256 25.4154 18.2717 25.4154 20.833C25.4154 20.9096 25.4138 20.9859 25.4106 21.0617L32.9374 27.0832C33.7046 27.0845 34.3868 27.0945 34.9512 27.1704C35.6572 27.2653 36.363 27.4833 36.9391 28.0593C37.5151 28.6354 37.733 29.3412 37.8279 30.0471C37.9155 30.6984 37.9154 31.5063 37.9154 32.4206V32.5787C37.9154 33.493 37.9155 34.301 37.8279 34.9522C37.733 35.6582 37.5151 36.364 36.9391 36.94C36.363 37.5161 35.6572 37.734 34.9512 37.8289C34.3 37.9165 33.492 37.9164 32.5778 37.9164H32.4197C31.5054 37.9164 30.6974 37.9165 30.0462 37.8289C29.3402 37.734 28.6344 37.5161 28.0583 36.94C27.4823 36.364 27.2644 35.6582 27.1695 34.9522C27.0819 34.301 27.082 33.493 27.082 32.5787V32.4206C27.082 31.5064 27.0819 30.6984 27.1695 30.0471C27.2644 29.3412 27.4823 28.6354 28.0583 28.0593C28.4183 27.6994 28.8289 27.4793 29.2585 27.3416L24.632 23.6404C23.6822 25.2047 21.9625 26.2497 19.9987 26.2497C18.035 26.2497 16.3153 25.2047 15.3654 23.6404L10.7389 27.3416C11.1686 27.4793 11.5791 27.6994 11.9391 28.0593C12.5151 28.6354 12.733 29.3412 12.828 30.0471C12.9155 30.6984 12.9154 31.5064 12.9154 32.4206V32.5787C12.9154 33.493 12.9155 34.301 12.828 34.9522C12.733 35.6582 12.5151 36.364 11.9391 36.94C11.363 37.5161 10.6572 37.734 9.95125 37.8289C9.3 37.9165 8.49204 37.9164 7.5778 37.9164H7.41966C6.50543 37.9164 5.69742 37.9165 5.04616 37.8289C4.34023 37.734 3.63441 37.5161 3.05835 36.94C2.48229 36.364 2.26437 35.6582 2.16946 34.9522C2.0819 34.301 2.08196 33.493 2.08204 32.5787V32.4206C2.08196 31.5064 2.0819 30.6984 2.16946 30.0471C2.26437 29.3412 2.48229 28.6354 3.05835 28.0593C3.63441 27.4833 4.34023 27.2653 5.04616 27.1704C5.61067 27.0945 6.2929 27.0845 7.06004 27.0832L14.5868 21.0618C14.5836 20.9859 14.582 20.9097 14.582 20.833C14.582 18.2717 16.3598 16.1256 18.7487 15.5613V12.9163H16.6654C14.964 12.9163 13.5991 12.4761 12.8104 11.2397C12.1297 10.1726 12.082 8.75819 12.082 7.49967C12.082 6.24116 12.1297 4.82673 12.8104 3.75968ZM23.332 10.4163C24.656 10.4163 24.9578 10.0858 25.0794 9.89517C25.309 9.53517 25.4154 8.86626 25.4154 7.49967C25.4154 6.13309 25.309 5.46418 25.0794 5.10418C24.9578 4.91356 24.656 4.58301 23.332 4.58301L16.6654 4.58301C15.3414 4.58301 15.0396 4.91356 14.918 5.10418C14.6884 5.46418 14.582 6.13309 14.582 7.49967C14.582 8.86626 14.6884 9.53517 14.918 9.89517C15.0396 10.0858 15.3414 10.4163 16.6654 10.4163L23.332 10.4163ZM7.4899 29.583C6.4776 29.583 5.84261 29.5859 5.37928 29.6481C4.95057 29.7058 4.86025 29.793 4.82612 29.8271C4.79198 29.8612 4.70481 29.9515 4.64717 30.3803C4.58469 30.8449 4.58204 31.4823 4.58204 32.4997C4.58204 33.5171 4.58469 34.1544 4.64717 34.6191C4.70481 35.0478 4.79198 35.1381 4.82612 35.1723C4.86025 35.2064 4.95057 35.2936 5.37928 35.3512C5.84395 35.4137 6.48128 35.4163 7.49871 35.4163C8.51614 35.4163 9.15346 35.4137 9.61813 35.3512C10.0468 35.2936 10.1372 35.2064 10.1713 35.1723C10.2054 35.1381 10.2926 35.0478 10.3502 34.6191C10.4127 34.1544 10.4154 33.5171 10.4154 32.4997C10.4154 31.4823 10.4127 30.8449 10.3502 30.3803C10.2926 29.9515 10.2054 29.8612 10.1713 29.8271C10.1372 29.793 10.0468 29.7058 9.61813 29.6481C9.15506 29.5859 8.52051 29.583 7.50917 29.583C7.50275 29.5831 7.49632 29.5831 7.4899 29.583ZM32.4883 29.583C31.4769 29.583 30.8424 29.5859 30.3793 29.6481C29.9506 29.7058 29.8603 29.793 29.8261 29.8271C29.792 29.8612 29.7048 29.9515 29.6472 30.3803C29.5847 30.8449 29.582 31.4823 29.582 32.4997C29.582 33.5171 29.5847 34.1544 29.6472 34.6191C29.7048 35.0478 29.792 35.1381 29.8261 35.1723C29.8603 35.2064 29.9506 35.2936 30.3793 35.3512C30.844 35.4137 31.4813 35.4163 32.4987 35.4163C33.5161 35.4163 34.1535 35.4137 34.6181 35.3512C35.0468 35.2936 35.1372 35.2064 35.1713 35.1723C35.2054 35.1381 35.2926 35.0478 35.3502 34.6191C35.4127 34.1544 35.4154 33.5171 35.4154 32.4997C35.4154 31.4823 35.4127 30.8449 35.3502 30.3803C35.2926 29.9515 35.2054 29.8612 35.1713 29.8271C35.1372 29.793 35.0468 29.7058 34.6181 29.6481C34.1548 29.5859 33.5198 29.583 32.5076 29.583C32.5012 29.5831 32.4947 29.5831 32.4883 29.583ZM19.9987 17.9163C18.3879 17.9163 17.082 19.2222 17.082 20.833C17.082 22.4438 18.3879 23.7497 19.9987 23.7497C21.6095 23.7497 22.9154 22.4438 22.9154 20.833C22.9154 19.2222 21.6095 17.9163 19.9987 17.9163Z" fill="#3EB9B5"/>
</svg>
