<svg width="40" height="40" viewBox="0 0 40 40" fill="none" xmlns="http://www.w3.org/2000/svg">
<path opacity="0.4" d="M23.6846 32.6943L23.6133 33.0645C23.4306 34.0178 23.3397 34.4683 23.1992 34.7881L23.1357 34.918C22.8801 35.3884 22.4879 35.7528 22.0244 35.9639L21.8213 36.0449C21.4841 36.161 21.0716 36.168 20.0029 36.168C19.0683 36.168 18.6358 36.163 18.3164 36.084L18.1855 36.0449H18.1846C17.7018 35.8787 17.2814 35.5525 16.9883 35.1133L16.8711 34.918C16.7361 34.6694 16.6517 34.3643 16.5303 33.7676L16.3936 33.0645L16.3223 32.6943H23.6846ZM20.001 9.66699C25.6934 9.66699 30.335 14.4325 30.335 20.3437C30.3349 22.7842 28.9132 26.0208 26.6582 29.2275L25.9561 28.291L25.8057 28.0908L14.6123 28.0908L14.4668 28.2363L13.3975 29.3027C11.1123 26.0676 9.66807 22.7491 9.66797 20.3438C9.66797 14.4326 14.3088 9.66717 20.001 9.66699Z" fill="#3EB9B5" stroke="#3EB9B5"/>
<path d="M21.2526 3.33301C21.2526 2.64265 20.693 2.08301 20.0026 2.08301C19.3122 2.08301 18.7526 2.64265 18.7526 3.33301V4.99967C18.7526 5.69003 19.3122 6.24967 20.0026 6.24967C20.693 6.24967 21.2526 5.69003 21.2526 4.99967V3.33301Z" fill="#3EB9B5"/>
<path d="M20.0026 10.4163C14.7463 10.4163 10.4193 14.8235 10.4193 20.3428C10.4193 21.8272 10.7331 23.2315 11.2937 24.4916C11.5743 25.1223 11.2904 25.8612 10.6597 26.1418C10.0289 26.4224 9.29009 26.1385 9.00949 25.5078C8.3087 23.9325 7.91927 22.1824 7.91927 20.3428C7.91927 13.5169 13.2927 7.91634 20.0026 7.91634C26.7126 7.91634 32.0859 13.5169 32.0859 20.3428C32.0859 22.1825 31.6964 23.9325 30.9957 25.5077C30.7151 26.1385 29.9763 26.4224 29.3455 26.1418C28.7148 25.8612 28.4309 25.1224 28.7115 24.4916C29.2721 23.2315 29.5859 21.8272 29.5859 20.3428C29.5859 14.8235 25.2589 10.4163 20.0026 10.4163Z" fill="#3EB9B5"/>
<path fill-rule="evenodd" clip-rule="evenodd" d="M25.9573 26.4417C27.0824 26.4417 28.1478 27.3943 27.9891 28.6909C27.8011 30.2246 27.1446 32.0787 25.3813 33.0266C25.2334 34.3777 24.8984 35.5879 24.1083 36.4787C23.1165 37.5971 21.6772 37.932 20.0195 37.915C18.2098 37.9453 16.7597 37.52 15.7948 36.3485C15.0346 35.4255 14.7313 34.2065 14.5805 32.9413C13.8425 32.4749 13.2809 31.9279 12.8758 31.2701C12.3753 30.4575 12.1808 29.5822 12.0784 28.7303C11.9251 27.4558 12.9526 26.4425 14.132 26.4421L25.9573 26.4417ZM17.1871 33.4256C17.3186 34.0668 17.4969 34.4828 17.7245 34.7591C18.0074 35.1026 18.5537 35.4417 19.9922 35.4151C20.0049 35.4149 20.0175 35.4148 20.0301 35.415C21.4094 35.4313 21.9535 35.1406 22.2379 34.82C22.4653 34.5635 22.6622 34.1437 22.7976 33.4256H17.1871ZM23.9795 30.9256C24.7357 30.6133 25.1958 29.9237 25.4137 28.9417L14.639 28.942C14.722 29.368 14.8381 29.689 15.0045 29.9591C15.1957 30.2696 15.504 30.5938 16.0773 30.9256L23.9795 30.9256Z" fill="#3EB9B5"/>
<path d="M33.7526 19.9997C33.7526 19.3093 34.3122 18.7497 35.0026 18.7497H36.6693C37.3596 18.7497 37.9193 19.3093 37.9193 19.9997C37.9193 20.69 37.3596 21.2497 36.6693 21.2497H35.0026C34.3122 21.2497 33.7526 20.69 33.7526 19.9997Z" fill="#3EB9B5"/>
<path d="M3.33594 18.7497C2.64558 18.7497 2.08594 19.3093 2.08594 19.9997C2.08594 20.69 2.64558 21.2497 3.33594 21.2497H5.0026C5.69296 21.2497 6.2526 20.69 6.2526 19.9997C6.2526 19.3093 5.69296 18.7497 5.0026 18.7497H3.33594Z" fill="#3EB9B5"/>
<path d="M32.6705 7.33194C33.1586 7.82009 33.1586 8.61155 32.6705 9.0997L31.492 10.2782C31.0038 10.7664 30.2123 10.7664 29.7242 10.2782C29.236 9.79005 29.236 8.99859 29.7242 8.51044L30.9027 7.33194C31.3908 6.84378 32.1823 6.84378 32.6705 7.33194Z" fill="#3EB9B5"/>
<path d="M9.10263 7.33194C8.61448 6.84378 7.82302 6.84378 7.33487 7.33194C6.84671 7.82009 6.84671 8.61155 7.33487 9.0997L8.51338 10.2782C9.00154 10.7664 9.79299 10.7664 10.2812 10.2782C10.7693 9.79007 10.7693 8.99861 10.2812 8.51045L9.10263 7.33194Z" fill="#3EB9B5"/>
</svg>
