<svg width="40" height="40" viewBox="0 0 40 40" fill="none" xmlns="http://www.w3.org/2000/svg">
<path opacity="0.4" d="M6.58887 21.7168L11.7256 21.7168C12.5602 21.7168 13.1791 21.717 13.6523 21.8135C14.0626 21.8971 14.3602 22.0517 14.5908 22.3418L14.6855 22.4746C14.9298 22.8552 14.9833 23.1762 14.9111 23.5371C14.8561 23.812 14.7281 24.1108 14.5508 24.4775L14.3574 24.8691C13.3429 26.9063 11.3938 28.2832 9.15723 28.2832C7.06049 28.2831 5.21643 27.073 4.1582 25.2432L3.95703 24.8691C3.68005 24.3127 3.47768 23.9037 3.4043 23.5371C3.34111 23.2213 3.37397 22.9365 3.54688 22.6152L3.62988 22.4746C3.87276 22.0977 4.19424 21.909 4.66309 21.8135C5.13626 21.7171 5.75458 21.7168 6.58887 21.7168ZM28.2559 21.7168H33.3926C34.2272 21.7168 34.8461 21.717 35.3193 21.8135C35.7876 21.909 36.1088 22.0973 36.3516 22.4736V22.4746C36.5959 22.8553 36.6494 23.1762 36.5771 23.5371C36.5221 23.812 36.395 24.1108 36.2178 24.4775L36.0244 24.8691C35.0099 26.9064 33.0608 28.2832 30.8242 28.2832C28.7274 28.2832 26.8835 27.073 25.8252 25.2432L25.624 24.8691C25.347 24.3127 25.1437 23.9037 25.0703 23.5371C25.0072 23.2213 25.0409 22.9365 25.2139 22.6152L25.2959 22.4746C25.5388 22.0976 25.8603 21.9091 26.3291 21.8135C26.8024 21.717 27.4213 21.7168 28.2559 21.7168ZM19.9912 3.38281C21.3434 3.38299 22.4404 4.48073 22.4404 5.83301C22.4404 7.18529 21.3434 8.28303 19.9912 8.2832C18.6388 8.2832 17.541 7.18539 17.541 5.83301C17.541 4.48062 18.6388 3.38281 19.9912 3.38281Z" fill="#3EB9B5" stroke="#3EB9B5" stroke-width="0.1"/>
<path fill-rule="evenodd" clip-rule="evenodd" d="M23.2451 7.70238C23.5629 7.15181 23.7448 6.51333 23.7448 5.83301C23.7448 3.76467 22.0631 2.08301 19.9948 2.08301C17.9265 2.08301 16.2448 3.76467 16.2448 5.83301C16.2448 6.51333 16.4267 7.15181 16.7445 7.70238C15.524 8.17547 14.3616 8.92236 13.3248 9.94306C11.9231 11.3231 10.1765 12.083 8.40812 12.083H6.66146C5.97146 12.083 5.41146 12.643 5.41146 13.333C5.41146 14.023 5.97146 14.583 6.66146 14.583H7.1428L4.12816 20.6123C3.4904 20.7898 2.95556 21.1282 2.54045 21.773C1.65545 23.1514 2.21041 24.2663 2.79875 25.448C4.06875 27.998 6.50711 29.583 9.16211 29.583C11.8171 29.583 14.2571 27.998 15.5271 25.448C16.1154 24.268 16.6704 23.1513 15.7838 21.7713C15.3707 21.1304 14.839 20.7926 14.2052 20.6146L10.9951 14.1943C12.483 13.741 13.8823 12.9007 15.0781 11.723C16.1768 10.642 17.4409 9.97132 18.7448 9.71082L18.7448 35.4163L14.9948 35.4163C14.3048 35.4163 13.7448 35.9763 13.7448 36.6663C13.7448 37.3563 14.3048 37.9163 14.9948 37.9163L24.9948 37.9163C25.6848 37.9163 26.2448 37.3563 26.2448 36.6663C26.2448 35.9763 25.6848 35.4163 24.9948 35.4163H21.2448L21.2448 9.71082C22.5487 9.97132 23.8128 10.642 24.9115 11.723C26.1094 12.9039 27.5115 13.7448 29.0024 14.1971L25.7948 20.6123C25.1571 20.7898 24.6222 21.1282 24.2071 21.773C23.3221 23.1514 23.8771 24.2663 24.4654 25.448C25.7354 27.998 28.1738 29.583 30.8288 29.583C33.4838 29.583 35.9238 27.998 37.1938 25.448C37.7821 24.268 38.3371 23.1513 37.4504 21.7713C37.0373 21.1304 36.5056 20.7926 35.8719 20.6146L32.8561 14.583H33.3281C34.0181 14.583 34.5781 14.023 34.5781 13.333C34.5781 12.643 34.0181 12.083 33.3281 12.083H31.5815C29.8131 12.083 28.0665 11.3231 26.6648 9.94306C25.628 8.92236 24.4656 8.17547 23.2451 7.70238ZM18.7448 5.83301C18.7448 5.14301 19.3048 4.58301 19.9948 4.58301C20.6848 4.58301 21.2448 5.14301 21.2448 5.83301C21.2448 6.52301 20.6848 7.08301 19.9948 7.08301C19.3048 7.08301 18.7448 6.52301 18.7448 5.83301ZM9.16442 16.128L11.3086 20.4163L7.02031 20.4163L9.16442 16.128ZM28.687 20.4163H32.9752L30.8311 16.128L28.687 20.4163ZM26.3105 23.1247C26.4371 22.9263 27.1004 22.9163 28.2604 22.9163H33.3988C34.5588 22.9163 35.2221 22.9264 35.3488 23.123C35.4071 23.213 35.4137 23.2513 35.4137 23.2513C35.427 23.3908 35.1572 23.9327 34.9591 24.3307L34.9571 24.3346C34.1121 26.0296 32.5321 27.083 30.8304 27.083C29.1287 27.083 27.5488 26.0296 26.7038 24.3346C26.5054 23.9363 26.2337 23.3896 26.2471 23.2513C26.2471 23.2513 26.2538 23.213 26.3105 23.1247ZM6.59375 22.9163C5.43375 22.9163 4.77047 22.9263 4.6438 23.1247C4.58713 23.213 4.5804 23.2513 4.5804 23.2513C4.56707 23.3896 4.83878 23.9363 5.03711 24.3346C5.88211 26.0296 7.46207 27.083 9.16374 27.083C10.8654 27.083 12.4454 26.0296 13.2904 24.3346L13.2923 24.3308C13.4905 23.9328 13.7604 23.3909 13.7471 23.2513C13.7471 23.2513 13.7405 23.213 13.6821 23.123C13.5555 22.9264 12.8921 22.9163 11.7321 22.9163L6.59375 22.9163Z" fill="#3EB9B5"/>
</svg>
