<svg width="40" height="40" viewBox="0 0 40 40" fill="none" xmlns="http://www.w3.org/2000/svg">
<path opacity="0.4" d="M15 3.83301L25 3.83301C27.3711 3.83301 29.0994 3.83418 30.4199 4.01172C31.7259 4.18733 32.5578 4.52755 33.1816 5.15137C33.8055 5.77518 34.1457 6.60709 34.3213 7.91309C34.4988 9.23359 34.5 10.9618 34.5 13.333L34.5 27.833L5.5 27.833L5.5 13.333C5.5 10.9618 5.50117 9.23359 5.67871 7.91309C5.85432 6.60707 6.19454 5.77518 6.81836 5.15137C7.44218 4.52755 8.27407 4.18733 9.58008 4.01172C10.9006 3.83418 12.6288 3.83301 15 3.83301Z" fill="#3EB9B5" stroke="#3EB9B5"/>
<path fill-rule="evenodd" clip-rule="evenodd" d="M25.0902 2.08301L14.9072 2.08301C12.6279 2.08298 10.7907 2.08295 9.34578 2.27722C7.8456 2.47891 6.58248 2.9104 5.57928 3.91359C4.57609 4.91679 4.1446 6.17991 3.9429 7.68009C3.74864 9.12504 3.74866 10.9622 3.7487 13.2416L3.7487 27.083H3.33203C2.64168 27.083 2.08203 27.6427 2.08203 28.333C2.08203 29.0234 2.64168 29.583 3.33203 29.583L18.7487 29.583V30.9588L11.0224 35.5945C10.4305 35.9496 10.2385 36.7175 10.5937 37.3095C10.9489 37.9014 11.7167 38.0934 12.3087 37.7382L18.7487 33.8743V36.6663C18.7487 37.3567 19.3083 37.9163 19.9987 37.9163C20.6891 37.9163 21.2487 37.3567 21.2487 36.6663V33.8739L27.6891 37.7382C28.2811 38.0934 29.0489 37.9014 29.4041 37.3095C29.7593 36.7175 29.5673 35.9497 28.9753 35.5945L21.2487 30.9584V29.583L36.6654 29.583C37.3557 29.583 37.9154 29.0234 37.9154 28.333C37.9154 27.6427 37.3557 27.083 36.6654 27.083H36.2487L36.2487 13.2416C36.2487 10.9622 36.2488 9.12504 36.0545 7.68009C35.8528 6.1799 35.4213 4.91678 34.4181 3.91358C33.4149 2.9104 32.1518 2.47891 30.6516 2.27722C29.2066 2.08295 27.3694 2.08298 25.0902 2.08301ZM20.0007 27.083L33.7487 27.083L33.7487 13.333C33.7487 10.9406 33.746 9.27213 33.5768 8.01321C33.4124 6.79026 33.1116 6.14264 32.6503 5.68137C32.189 5.22009 31.5414 4.91934 30.3185 4.75492C29.0595 4.58567 27.391 4.58301 24.9987 4.58301L14.9987 4.58301C12.6063 4.58301 10.9378 4.58567 9.6789 4.75492C8.45594 4.91935 7.80832 5.22009 7.34705 5.68136C6.88578 6.14263 6.58503 6.79025 6.42061 8.01321C6.25135 9.27213 6.2487 10.9406 6.2487 13.333L6.2487 27.083L19.9967 27.083C19.9974 27.083 19.998 27.083 19.9987 27.083C19.9994 27.083 20 27.083 20.0007 27.083Z" fill="#3EB9B5"/>
</svg>
