<svg width="36" height="36" viewBox="0 0 36 36" fill="none" xmlns="http://www.w3.org/2000/svg">
<path d="M17.1504 19.2523C17.0347 19.2504 16.9008 19.2504 16.7357 19.2504C16.0453 19.2504 15.4857 18.6907 15.4857 18.0004C15.4857 17.31 16.0453 16.7504 16.7357 16.7504L16.7931 16.7503C17.1349 16.7502 17.5046 16.7501 17.8166 16.792C18.1822 16.8412 18.6492 16.9676 19.0422 17.3605C19.4352 17.7535 19.5615 18.2205 19.6107 18.5861C19.6526 18.8981 19.6525 19.2678 19.6524 19.6096L19.6523 26.3337C19.6523 27.024 19.0927 27.5837 18.4023 27.5837C17.712 27.5837 17.1523 27.024 17.1523 26.3337L17.1523 19.667C17.1523 19.5019 17.1523 19.368 17.1504 19.2523Z" fill="#3EB9B5"/>
<path d="M17.9857 11.3337C17.0652 11.3337 16.319 12.0799 16.319 13.0003C16.319 13.9208 17.0652 14.667 17.9857 14.667H18.0006C18.9211 14.667 19.6673 13.9208 19.6673 13.0003C19.6673 12.0799 18.9211 11.3337 18.0006 11.3337H17.9857Z" fill="#3EB9B5"/>
<path fill-rule="evenodd" clip-rule="evenodd" d="M15.2687 1.35866C17.0428 0.769769 18.9546 0.769769 20.7287 1.35866C22.4955 1.94512 23.8827 3.33601 25.2763 5.29024C26.6653 7.238 28.2 9.95376 30.1784 13.4545L30.2561 13.5919C32.2348 17.0932 33.7695 19.8088 34.726 22.0111C35.687 24.2241 36.1657 26.1349 35.7838 27.9705C35.3992 29.8188 34.451 31.4995 33.07 32.7698C31.6924 34.037 29.8166 34.5716 27.4547 34.8284C25.1061 35.0837 22.034 35.0837 18.08 35.0837H17.9175C13.9634 35.0837 10.8913 35.0837 8.54274 34.8284C6.18081 34.5716 4.30501 34.037 2.92739 32.7698C1.5464 31.4995 0.598164 29.8188 0.21362 27.9705C-0.168305 26.1349 0.310365 24.2241 1.27146 22.0111C2.22789 19.8088 3.76262 17.0932 5.74133 13.5919L5.819 13.4545C7.79738 9.95377 9.33216 7.23799 10.7211 5.29024C12.1147 3.33601 13.5019 1.94512 15.2687 1.35866ZM19.9411 3.73136C18.6784 3.3122 17.319 3.3122 16.0563 3.73136C15.063 4.06108 14.0644 4.90783 12.7566 6.74176C11.4533 8.56938 9.98201 11.1694 7.95646 14.7535C5.93105 18.3375 4.46244 20.9395 3.56454 23.007C2.66508 25.0781 2.43975 26.3969 2.6612 27.4613C2.94055 28.8039 3.62794 30.0174 4.6199 30.9298C5.39896 31.6465 6.6129 32.1038 8.81293 32.343C11.0103 32.5819 13.9464 32.5837 17.9987 32.5837C22.051 32.5837 24.9871 32.5819 27.1845 32.343C29.3845 32.1038 30.5985 31.6465 31.3775 30.9298C32.3695 30.0174 33.0569 28.8039 33.3362 27.4613C33.5577 26.3969 33.3323 25.0781 32.4329 23.007C31.535 20.9395 30.0664 18.3375 28.041 14.7535C26.0154 11.1694 24.5441 8.56938 23.2408 6.74176C21.933 4.90783 20.9345 4.06108 19.9411 3.73136Z" fill="#3EB9B5"/>
</svg>
