<svg width="40" height="40" viewBox="0 0 40 40" fill="none" xmlns="http://www.w3.org/2000/svg">
<circle opacity="0.4" cx="9.16667" cy="9.16667" r="4.16667" fill="#3EB9B5" stroke="#3EB9B5" stroke-width="1.5"/>
<path fill-rule="evenodd" clip-rule="evenodd" d="M9.16667 3.75C6.17512 3.75 3.75 6.17512 3.75 9.16667C3.75 12.1582 6.17512 14.5833 9.16667 14.5833C12.1582 14.5833 14.5833 12.1582 14.5833 9.16667C14.5833 6.17512 12.1582 3.75 9.16667 3.75ZM6.25 9.16667C6.25 7.55583 7.55583 6.25 9.16667 6.25C10.7775 6.25 12.0833 7.55583 12.0833 9.16667C12.0833 10.7775 10.7775 12.0833 9.16667 12.0833C7.55583 12.0833 6.25 10.7775 6.25 9.16667Z" fill="#3EB9B5"/>
<path d="M20.7828 25.7828C21.271 25.2946 22.0623 25.2946 22.5505 25.7828L25.8333 29.0655L29.1161 25.7828C29.6043 25.2946 30.3956 25.2946 30.8838 25.7828C31.372 26.271 31.372 27.0623 30.8838 27.5505L27.6011 30.8333L30.8838 34.1161C31.372 34.6043 31.372 35.3956 30.8838 35.8838C30.3956 36.372 29.6043 36.372 29.1161 35.8838L25.8333 32.6011L22.5505 35.8838C22.0623 36.372 21.271 36.372 20.7828 35.8838C20.2946 35.3956 20.2946 34.6043 20.7828 34.1161L24.0655 30.8333L20.7828 27.5505C20.2946 27.0623 20.2946 26.271 20.7828 25.7828Z" fill="#3EB9B5"/>
<path d="M29.0788 7.48843C29.5453 6.97967 30.3362 6.9455 30.8448 7.41212L34.8022 11.0416C35.1234 11.3361 35.4518 11.6371 35.6883 11.9215C35.9565 12.2438 36.25 12.7085 36.25 13.3333C36.25 13.9582 35.9565 14.4228 35.6883 14.7452C35.4515 15.0299 35.124 15.3302 34.8023 15.6251L30.8448 19.2545C30.3362 19.7212 29.5453 19.687 29.0788 19.1783C28.6122 18.6695 28.6463 17.8788 29.1552 17.4121L32.1652 14.6515C19.4391 15.2777 13.0533 20.116 9.8001 24.7748C6.29109 29.7998 6.25111 34.8624 6.24992 35.0133L6.2499 35.0163C6.2409 35.7067 5.674 36.2588 4.9837 36.2498C4.29341 36.2408 3.74111 35.674 3.75011 34.9837L3.75177 34.8835C3.75311 34.8258 3.75553 34.748 3.75997 34.6518C3.76885 34.4593 3.7858 34.1932 3.81833 33.8638C3.88335 33.2055 4.01085 32.293 4.26155 31.2113C4.76237 29.0505 5.75973 26.1942 7.7504 23.3435C11.5354 17.9232 18.7503 12.7484 32.3038 12.1424L29.1552 9.25455C28.6463 8.78793 28.6122 7.99722 29.0788 7.48843Z" fill="#3EB9B5"/>
</svg>
