<svg xmlns="http://www.w3.org/2000/svg" width="36" height="36" viewBox="0 0 36 36" fill="none">
  <path opacity="0.4" d="M9.30151 1.89551C9.29269 1.9694 9.29125 2.04522 9.29663 2.12207L9.3103 2.23828C9.47448 3.22332 9.60436 4.00843 9.78589 4.61816C9.94823 5.16334 10.1642 5.6141 10.5183 5.97461L10.6785 6.12305C11.1302 6.50571 11.6653 6.6753 12.3103 6.75586C12.9416 6.83468 13.7374 6.83398 14.7361 6.83398H17.9314C18.9299 6.83398 19.725 6.83466 20.3562 6.75586C20.9209 6.68536 21.4012 6.54702 21.8152 6.25684L21.988 6.12305C22.4397 5.74042 22.6951 5.24106 22.8806 4.61816C23.0167 4.16097 23.1238 3.60503 23.238 2.94043L23.3562 2.23828C23.3756 2.1218 23.3771 2.00714 23.364 1.89648C25.784 2.01586 27.2067 2.3582 28.2087 3.2627L28.4294 3.47656C29.1799 4.26658 29.5837 5.31933 29.7908 6.94043C29.9993 8.57347 29.9998 10.7072 29.9998 13.6152V20.8379C29.5961 20.8517 29.1945 20.9442 28.8201 21.1191L28.5867 21.2412C28.3164 21.3972 28.0615 21.6264 27.7263 21.9561L27.3611 22.3203L21.8474 27.833C20.9688 28.7116 20.6882 29.8902 20.4978 30.9541L20.4207 31.4014C20.3935 31.5601 20.3672 31.7158 20.3396 31.8682L20.2517 32.3164C20.1323 32.8751 20.0294 33.3499 20.0056 33.7236C19.9964 33.869 19.998 34.0176 20.0203 34.1631C19.6401 34.1638 19.2449 34.167 18.8337 34.167H13.8337C11.069 34.167 9.04803 34.166 7.50269 33.9473C6.07002 33.7445 5.11051 33.3629 4.38062 32.668L4.23804 32.5244C3.48758 31.7345 3.08379 30.6824 2.87671 29.0615C2.66813 27.4285 2.66675 25.2947 2.66675 22.3867V13.6152C2.66675 10.7072 2.66813 8.57347 2.87671 6.94043C3.07087 5.42048 3.43761 4.40046 4.10132 3.62793L4.23804 3.47656C5.25067 2.41089 6.69992 2.02395 9.30151 1.89551Z" fill="#3EB9B5" stroke="#3EB9B5"/>
  <path fill-rule="evenodd" clip-rule="evenodd" d="M13.736 0.0830086H18.9304C20.3331 0.0829908 21.5888 0.0829749 22.7079 0.117491C22.8663 0.0793589 23.0347 0.0717444 23.2055 0.100211C23.2671 0.110471 23.3268 0.125065 23.3845 0.14363C24.1231 0.178553 24.7968 0.233586 25.4091 0.320309C27.1485 0.566622 28.5756 1.09002 29.6978 2.27193C30.8112 3.44471 31.2964 4.92096 31.5262 6.72129C31.7499 8.4736 31.7499 10.7115 31.7498 13.5322V16.3423C31.7498 17.0327 31.1902 17.5923 30.4998 17.5923C29.8095 17.5923 29.2498 17.0327 29.2498 16.3423V13.6214C29.2498 10.6914 29.2474 8.61338 29.0463 7.03782C28.849 5.49188 28.4799 4.62009 27.8848 3.99329C27.2984 3.3756 26.4963 2.9992 25.0586 2.79561C24.7425 2.75084 24.4046 2.7155 24.0415 2.6876C23.9028 3.51668 23.7748 4.24194 23.5995 4.83076C23.3916 5.5292 23.0778 6.18204 22.4729 6.69451C21.8679 7.20701 21.1723 7.40924 20.4492 7.49952C19.778 7.58331 18.9532 7.58326 18.0049 7.58321H14.6619C13.7136 7.58326 12.8887 7.58331 12.2176 7.49952C11.4945 7.40923 10.7989 7.20701 10.1939 6.69453C9.58899 6.18205 9.27516 5.52919 9.06722 4.83076C8.89192 4.24193 8.76401 3.51665 8.62523 2.68757C8.26198 2.71547 7.92394 2.75083 7.60769 2.79561C6.17004 2.9992 5.36798 3.3756 4.78158 3.99326C4.18648 4.62006 3.81735 5.49186 3.62001 7.03783C3.4189 8.61338 3.41651 10.6914 3.41651 13.6214V22.3988C3.41651 25.3289 3.4189 27.4069 3.62001 28.9824C3.81735 30.5284 4.18647 31.4002 4.78159 32.027C5.70145 32.9959 7.1168 33.3442 10.5264 33.4166C11.2166 33.4313 11.7642 34.0027 11.7496 34.6929C11.7349 35.3831 11.1635 35.9307 10.4733 35.9161C7.16587 35.8458 4.69188 35.5635 2.96855 33.7483C1.85511 32.5755 1.36994 31.0993 1.14013 29.299C0.916461 27.5467 0.91648 25.3088 0.916504 22.4881V13.5322C0.91648 10.7115 0.916461 8.4736 1.14013 6.72128C1.36994 4.92095 1.85509 3.44473 2.96854 2.27195C4.09067 1.09001 5.5178 0.566621 7.25715 0.320309C7.86969 0.233567 8.54355 0.178528 9.28228 0.143606C9.33994 0.125053 9.39967 0.110466 9.4612 0.100211C9.63198 0.0717472 9.80045 0.0793573 9.9588 0.11748C11.0778 0.0829749 12.3334 0.0829908 13.736 0.0830086ZM18.8332 2.58301C19.8301 2.58301 20.7209 2.58339 21.5217 2.59346C21.4063 3.26751 21.3142 3.74537 21.2035 4.11741C21.0703 4.56478 20.9513 4.70701 20.8569 4.787C20.7625 4.86695 20.6027 4.96095 20.1395 5.01878C19.6416 5.08093 18.9746 5.0832 17.931 5.0832H14.7357C13.6921 5.0832 13.0251 5.08093 12.5273 5.01878C12.0641 4.96095 11.9043 4.86695 11.8099 4.78698C11.7155 4.707 11.5965 4.56479 11.4633 4.11741C11.3525 3.74536 11.2605 3.26751 11.145 2.59346C11.9458 2.58339 12.8364 2.58301 13.8332 2.58301H18.8332Z" fill="#3EB9B5"/>
  <path d="M8.4165 16.333C8.4165 15.6427 8.97615 15.083 9.6665 15.083H22.9998C23.6902 15.083 24.2498 15.6427 24.2498 16.333C24.2498 17.0234 23.6902 17.583 22.9998 17.583H9.6665C8.97615 17.583 8.4165 17.0234 8.4165 16.333Z" fill="#3EB9B5"/>
  <path d="M8.4165 24.6663C8.4165 23.976 8.97615 23.4163 9.6665 23.4163H16.3332C17.0235 23.4163 17.5832 23.976 17.5832 24.6663C17.5832 25.3567 17.0235 25.9163 16.3332 25.9163H9.6665C8.97615 25.9163 8.4165 25.3567 8.4165 24.6663Z" fill="#3EB9B5"/>
  <path d="M14.6665 33.4163C13.9761 33.4163 13.4165 33.976 13.4165 34.6663C13.4165 35.3567 13.9761 35.9163 14.6665 35.9163H16.3332C17.0235 35.9163 17.5832 35.3567 17.5832 34.6663C17.5832 33.976 17.0235 33.4163 16.3332 33.4163H14.6665Z" fill="#3EB9B5"/>
  <path fill-rule="evenodd" clip-rule="evenodd" d="M27.6617 20.9989C29.1264 19.7775 30.8817 19.9035 32.1037 20.6372C32.3762 20.8603 33.0257 21.4236 33.4843 21.8857C33.716 22.1192 33.9522 22.369 34.1517 22.603C34.3112 22.7901 34.5309 23.0616 34.6708 23.345C34.9937 23.94 35.1033 24.6339 35.0796 25.2467C35.0556 25.8681 34.8873 26.5828 34.4671 27.1561L27.4342 34.2411C26.6715 34.8282 25.3779 35.2951 24.0783 35.4447C23.3809 35.5891 22.6355 35.7418 22.0126 35.814C21.6937 35.8509 21.3499 35.8741 21.0293 35.8492C20.7611 35.8284 20.2475 35.7591 19.8347 35.3836C19.4095 34.9968 19.3045 34.4943 19.2736 34.1954C19.2405 33.8757 19.2681 33.5466 19.3052 33.2664C19.358 32.8681 19.5555 31.9158 19.652 31.4533C19.7616 30.7158 19.901 30.0583 20.0692 29.5017C20.2165 29.0141 20.4033 28.5439 20.6506 28.1578C20.6673 28.1339 20.6929 28.0964 20.723 28.0521C20.8145 27.9179 20.948 27.722 21.0024 27.6584C21.1516 27.4839 21.353 27.2673 21.5823 27.0286C22.0449 26.5469 26.9668 21.6839 27.6617 20.9989ZM29.3046 22.8848C28.4891 23.7141 27.4172 24.765 26.3794 25.7823C25.9499 26.2034 25.5262 26.6188 25.129 27.0103C24.6473 27.4851 23.9109 28.2704 23.359 28.8588C23.1149 29.1191 22.9069 29.341 22.773 29.4804C22.7114 29.566 22.5933 29.7909 22.4623 30.2244C22.3367 30.6402 22.2185 31.1826 22.1206 31.8487L21.8264 33.3179L23.7487 32.9658C24.7282 32.8608 25.549 32.5188 25.8789 32.2823C26.7253 31.5147 31.6799 26.5127 32.4691 25.6483C32.5102 25.5727 32.5716 25.4034 32.5814 25.15C32.5926 24.8607 32.529 24.6355 32.4702 24.5313C32.434 24.4889 32.381 24.425 32.3186 24.3498C32.1332 24.1263 31.8649 23.8029 31.7096 23.6464C31.339 23.2729 30.9561 22.9211 30.7438 22.7392C30.323 22.5173 29.7978 22.4984 29.3046 22.8848Z" fill="#3EB9B5"/>
</svg>