<svg width="36" height="36" viewBox="0 0 36 36" fill="none" xmlns="http://www.w3.org/2000/svg">
<g opacity="0.4">
<path d="M17.9987 18.8337L17.9987 19.667L4.66536 19.667V18.8337C4.66536 15.691 4.66536 14.1196 5.64168 13.1433C6.61799 12.167 8.18933 12.167 11.332 12.167C14.4747 12.167 16.0461 12.167 17.0224 13.1433C17.9987 14.1196 17.9987 15.691 17.9987 18.8337Z" fill="#3EB9B5"/>
<path d="M14.6654 24.667L17.9987 34.667H4.66536L1.33203 24.667L14.6654 24.667Z" fill="#3EB9B5"/>
<path d="M26.332 23.0003C28.173 23.0003 29.6654 21.5079 29.6654 19.667C29.6654 17.826 28.173 16.3337 26.332 16.3337C24.4911 16.3337 22.9987 17.826 22.9987 19.667C22.9987 21.5079 24.4911 23.0003 26.332 23.0003Z" fill="#3EB9B5"/>
<path d="M17.9987 18.8337L17.9987 19.667L4.66536 19.667V18.8337C4.66536 15.691 4.66536 14.1196 5.64168 13.1433C6.61799 12.167 8.18933 12.167 11.332 12.167C14.4747 12.167 16.0461 12.167 17.0224 13.1433C17.9987 14.1196 17.9987 15.691 17.9987 18.8337Z" stroke="#3EB9B5" stroke-width="1.5"/>
<path d="M14.6654 24.667L17.9987 34.667H4.66536L1.33203 24.667L14.6654 24.667Z" stroke="#3EB9B5" stroke-width="1.5"/>
<path d="M26.332 23.0003C28.173 23.0003 29.6654 21.5079 29.6654 19.667C29.6654 17.826 28.173 16.3337 26.332 16.3337C24.4911 16.3337 22.9987 17.826 22.9987 19.667C22.9987 21.5079 24.4911 23.0003 26.332 23.0003Z" stroke="#3EB9B5" stroke-width="1.5"/>
</g>
<path fill-rule="evenodd" clip-rule="evenodd" d="M6.7487 4.66634C6.7487 2.13504 8.80073 0.0830078 11.332 0.0830078C13.8633 0.0830078 15.9154 2.13504 15.9154 4.66634C15.9154 7.19765 13.8633 9.24967 11.332 9.24967C8.80073 9.24967 6.7487 7.19765 6.7487 4.66634ZM11.332 2.58301C10.1814 2.58301 9.2487 3.51575 9.2487 4.66634C9.2487 5.81693 10.1814 6.74967 11.332 6.74967C12.4826 6.74967 13.4154 5.81693 13.4154 4.66634C13.4154 3.51575 12.4826 2.58301 11.332 2.58301Z" fill="#3EB9B5"/>
<path d="M11.2454 10.9163H11.4187C12.9162 10.9163 14.1649 10.9163 15.1562 11.0495C16.2025 11.1902 17.1472 11.4997 17.9063 12.2588C18.6654 13.0179 18.9748 13.9626 19.1155 15.0089C19.2488 16.0002 19.2488 17.2489 19.2487 18.7463L19.2487 19.6663C19.2487 20.3567 18.6891 20.9163 17.9987 20.9163C17.3083 20.9163 16.7487 20.3567 16.7487 19.6663V18.833C16.7487 17.2263 16.746 16.1471 16.6378 15.342C16.5344 14.5729 16.3557 14.2437 16.1385 14.0265C15.9213 13.8093 15.5922 13.6306 14.823 13.5272C14.018 13.419 12.9387 13.4163 11.332 13.4163C9.72535 13.4163 8.64608 13.419 7.84102 13.5272C7.07192 13.6306 6.74276 13.8093 6.52556 14.0265C6.30837 14.2437 6.12966 14.5729 6.02626 15.342C5.91802 16.1471 5.91537 17.2263 5.91537 18.833V19.6663C5.91537 20.3567 5.35572 20.9163 4.66537 20.9163C3.97501 20.9163 3.41537 20.3567 3.41537 19.6663L3.41537 18.7463C3.41532 17.2489 3.41528 16.0002 3.54855 15.0089C3.68923 13.9626 3.99868 13.0179 4.7578 12.2588C5.51691 11.4997 6.46158 11.1902 7.5079 11.0495C8.4992 10.9163 9.74792 10.9163 11.2454 10.9163Z" fill="#3EB9B5"/>
<path fill-rule="evenodd" clip-rule="evenodd" d="M0.317988 23.9355C0.552927 23.6095 0.930236 23.4163 1.33204 23.4163L14.6654 23.4163C15.2034 23.4163 15.6811 23.7606 15.8512 24.2711L18.8997 33.4163H24.6654C25.3557 33.4163 25.9154 33.976 25.9154 34.6663C25.9154 35.3567 25.3557 35.9163 24.6654 35.9163L4.66537 35.9163C4.12734 35.9163 3.64966 35.5721 3.47952 35.0616L0.146186 25.0616C0.0191246 24.6804 0.0830485 24.2614 0.317988 23.9355ZM16.2644 33.4163L13.7644 25.9163L3.06632 25.9163L5.56632 33.4163L16.2644 33.4163Z" fill="#3EB9B5"/>
<path fill-rule="evenodd" clip-rule="evenodd" d="M26.332 15.083C23.8007 15.083 21.7487 17.135 21.7487 19.6663C21.7487 22.1976 23.8007 24.2497 26.332 24.2497C28.8633 24.2497 30.9154 22.1976 30.9154 19.6663C30.9154 17.135 28.8633 15.083 26.332 15.083ZM24.2487 19.6663C24.2487 18.5157 25.1814 17.583 26.332 17.583C27.4826 17.583 28.4154 18.5157 28.4154 19.6663C28.4154 20.8169 27.4826 21.7497 26.332 21.7497C25.1814 21.7497 24.2487 20.8169 24.2487 19.6663Z" fill="#3EB9B5"/>
<path d="M21.332 25.9163C20.6417 25.9163 20.082 26.476 20.082 27.1663C20.082 27.8567 20.6417 28.4163 21.332 28.4163L31.332 28.4163C32.4826 28.4163 33.4154 29.3491 33.4154 30.4997V31.333C33.4154 32.4836 32.4826 33.4163 31.332 33.4163H29.6654C28.975 33.4163 28.4154 33.976 28.4154 34.6663C28.4154 35.3567 28.975 35.9163 29.6654 35.9163H31.332C33.8633 35.9163 35.9154 33.8643 35.9154 31.333V30.4997C35.9154 27.9684 33.8633 25.9163 31.332 25.9163L21.332 25.9163Z" fill="#3EB9B5"/>
</svg>
