<svg width="40" height="40" viewBox="0 0 40 40" fill="none" xmlns="http://www.w3.org/2000/svg">
<path opacity="0.4" d="M13.3326 29.9585C9.4848 29.848 7.18531 29.443 5.59188 27.9595C3.40017 25.919 3.40017 22.6349 3.40017 16.0666C3.40017 15.0706 3.37944 14.2221 3.36085 13.4611C3.32882 12.1498 3.30313 11.0984 3.40075 10L33.024 10C33.0299 10.0656 33.0357 10.131 33.0415 10.1962C33.1897 11.8597 33.332 13.457 33.332 16.0666C33.332 18.3549 33.332 20.2446 33.2394 21.8219C32.2645 21.6667 30.9777 21.6667 29.1654 21.6667L20.832 21.6667C17.7073 21.6667 16.1449 21.6667 15.0496 22.4624C14.6959 22.7194 14.3848 23.0305 14.1278 23.3842C13.332 24.4795 13.332 26.0419 13.332 29.1667C13.332 29.4425 13.332 29.7062 13.3326 29.9585Z" fill="#3EB9B5" stroke="#3EB9B5" stroke-width="1.5"/>
<path fill-rule="evenodd" clip-rule="evenodd" d="M16.57 2.08301L20.094 2.08301C23.1558 2.08298 25.583 2.08296 27.483 2.34249C29.4407 2.60991 31.0238 3.17365 32.2703 4.44004C33.514 5.70367 34.0652 7.30401 34.3271 9.28352C34.5821 11.21 34.5821 13.6727 34.582 16.7869V16.8797C34.582 17.5701 34.0224 18.1297 33.332 18.1297C32.6417 18.1297 32.082 17.5701 32.082 16.8797C32.082 14.5739 32.0807 12.743 31.9959 11.2497L4.6682 11.2497C4.58335 12.743 4.58203 14.5739 4.58203 16.8797C4.58203 20.1075 4.58461 22.4045 4.81531 24.1479C5.04152 25.8574 5.46663 26.8455 6.17553 27.5657C6.74617 28.1455 7.47971 28.531 8.60196 28.7792C9.27603 28.9282 9.70162 29.5955 9.55254 30.2696C9.40347 30.9437 8.73617 31.3693 8.06211 31.2202C6.6027 30.8974 5.38848 30.33 4.39378 29.3194C3.15006 28.0558 2.59886 26.4554 2.33691 24.4759C2.08199 22.5494 2.08201 20.0868 2.08203 16.9726V16.7869C2.08201 13.6726 2.08199 11.21 2.33691 9.28352C2.59886 7.30401 3.15006 5.70367 4.39378 4.44004C5.64022 3.17365 7.22335 2.60991 9.18104 2.34249C11.081 2.08296 13.5082 2.08298 16.57 2.08301ZM4.95856 8.74968L31.7055 8.74968C31.459 7.55236 31.0688 6.7833 30.4885 6.19372C29.7824 5.47623 28.8178 5.04804 27.1447 4.81949C25.4335 4.58575 23.1773 4.58301 19.9987 4.58301L16.6654 4.58301C13.4868 4.58301 11.2306 4.58575 9.5194 4.81949C7.84624 5.04804 6.88171 5.47623 6.17553 6.19372C5.59523 6.7833 5.20509 7.55236 4.95856 8.74968Z" fill="#3EB9B5"/>
<path d="M26.6826 27.6132C26.1597 27.1625 26.1012 26.3732 26.5519 25.8503C27.0026 25.3273 27.7919 25.2688 28.3148 25.7195L29.8943 27.0809C30.1756 27.3232 30.4744 27.5806 30.693 27.8275C30.9401 28.1066 31.2487 28.5496 31.2487 29.1664C31.2487 29.7831 30.9401 30.2261 30.693 30.5052C30.4744 30.7521 30.1756 31.0095 29.8943 31.2518L28.3148 32.6132C27.7919 33.0639 27.0026 33.0054 26.5519 32.4825C26.1012 31.9595 26.1597 31.1703 26.6826 30.7195L28.2158 29.398C28.3177 29.3102 28.4056 29.2344 28.4832 29.1664C28.4056 29.0984 28.3177 29.0226 28.2158 28.9347L26.6826 27.6132Z" fill="#3EB9B5"/>
<path d="M23.4455 25.8503C23.8962 26.3732 23.8377 27.1625 23.3148 27.6132L21.7816 28.9347C21.6797 29.0226 21.5918 29.0984 21.5142 29.1664C21.5918 29.2344 21.6797 29.3102 21.7816 29.398L23.3148 30.7195C23.8377 31.1703 23.8962 31.9595 23.4455 32.4825C22.9948 33.0054 22.2055 33.0639 21.6826 32.6132L20.1031 31.2518C19.8218 31.0095 19.523 30.7521 19.3044 30.5052C19.0573 30.2261 18.7487 29.7831 18.7487 29.1664C18.7487 28.5496 19.0573 28.1066 19.3044 27.8275C19.523 27.5806 19.8218 27.3232 20.1031 27.0809L21.6826 25.7195C22.2055 25.2688 22.9948 25.3273 23.4455 25.8503Z" fill="#3EB9B5"/>
<path fill-rule="evenodd" clip-rule="evenodd" d="M20.7614 20.4163L29.236 20.4163C30.7383 20.4163 31.9666 20.4163 32.9523 20.5231C33.9767 20.6341 34.8863 20.8723 35.6825 21.4508C36.1424 21.7849 36.5468 22.1893 36.8809 22.6492C37.4594 23.4454 37.6976 24.355 37.8086 25.3794C37.9154 26.3651 37.9154 27.5934 37.9154 29.0957V29.237C37.9154 30.7393 37.9154 31.9676 37.8086 32.9533C37.6976 33.9777 37.4594 34.8873 36.8809 35.6835C36.5468 36.1434 36.1424 36.5478 35.6825 36.8819C34.8863 37.4604 33.9767 37.6986 32.9523 37.8096C31.9666 37.9164 30.7384 37.9164 29.236 37.9163H20.7614C19.259 37.9164 18.0308 37.9164 17.0451 37.8096C16.0206 37.6986 15.1111 37.4604 14.3149 36.8819C13.855 36.5478 13.4506 36.1434 13.1165 35.6835C12.538 34.8873 12.2998 33.9777 12.1888 32.9533C12.082 31.9676 12.082 30.7393 12.082 29.2369V29.0957C12.082 27.5934 12.082 26.3651 12.1888 25.3794C12.2998 24.355 12.538 23.4454 13.1165 22.6492C13.4506 22.1893 13.855 21.7849 14.3149 21.4508C15.1111 20.8723 16.0206 20.6341 17.0451 20.5231C18.0308 20.4163 19.2591 20.4163 20.7614 20.4163ZM17.3144 23.0085C16.5026 23.0965 16.0834 23.2561 15.7843 23.4734C15.5367 23.6533 15.319 23.871 15.1391 24.1186C14.9218 24.4177 14.7622 24.837 14.6742 25.6487C14.5837 26.4838 14.582 27.5761 14.582 29.1663C14.582 30.7566 14.5837 31.8488 14.6742 32.684C14.7622 33.4957 14.9218 33.915 15.1391 34.2141C15.319 34.4617 15.5367 34.6794 15.7843 34.8593C16.0834 35.0766 16.5026 35.2362 17.3144 35.3241C18.1495 35.4146 19.2418 35.4163 20.832 35.4163H29.1654C30.7556 35.4163 31.8479 35.4146 32.683 35.3241C33.4948 35.2362 33.914 35.0766 34.2131 34.8593C34.4607 34.6794 34.6784 34.4617 34.8583 34.2141C35.0756 33.915 35.2352 33.4957 35.3232 32.684C35.4137 31.8488 35.4154 30.7566 35.4154 29.1663C35.4154 27.5761 35.4137 26.4838 35.3232 25.6487C35.2352 24.837 35.0756 24.4177 34.8583 24.1186C34.6784 23.871 34.4607 23.6533 34.2131 23.4734C33.914 23.2561 33.4948 23.0965 32.683 23.0085C31.8479 22.9181 30.7556 22.9163 29.1654 22.9163L20.832 22.9163C19.2418 22.9163 18.1495 22.9181 17.3144 23.0085Z" fill="#3EB9B5"/>
</svg>
