<svg width="18" height="18" viewBox="0 0 18 18" fill="none" xmlns="http://www.w3.org/2000/svg">
<path opacity="0.4" d="M16.9166 9.62998V9.20205C16.9166 7.76089 16.9166 6.60572 16.8513 5.66602H1.14849C1.08325 6.60572 1.08325 7.76089 1.08325 9.20205V9.62998C1.08325 13.2611 1.08325 15.0766 2.12668 16.2046C3.17012 17.3327 4.84949 17.3327 8.20825 17.3327H9.79158C13.1503 17.3327 14.8297 17.3327 15.8732 16.2046C16.9166 15.0766 16.9166 13.2611 16.9166 9.62998Z" fill="#4D6D89"/>
<path d="M4.83325 9.83268C4.83325 9.37245 5.20635 8.99935 5.66659 8.99935H5.67406C6.1343 8.99935 6.5074 9.37245 6.5074 9.83268C6.5074 10.2929 6.1343 10.666 5.67406 10.666H5.66659C5.20635 10.666 4.83325 10.2929 4.83325 9.83268Z" fill="#4D6D89"/>
<path d="M8.16285 9.83268C8.16285 9.37245 8.53594 8.99935 8.99618 8.99935H9.00366C9.46389 8.99935 9.83699 9.37245 9.83699 9.83268C9.83699 10.2929 9.46389 10.666 9.00366 10.666H8.99618C8.53594 10.666 8.16285 10.2929 8.16285 9.83268Z" fill="#4D6D89"/>
<path d="M11.4924 9.83268C11.4924 9.37245 11.8655 8.99935 12.3258 8.99935H12.3333C12.7935 8.99935 13.1666 9.37245 13.1666 9.83268C13.1666 10.2929 12.7935 10.666 12.3333 10.666H12.3258C11.8655 10.666 11.4924 10.2929 11.4924 9.83268Z" fill="#4D6D89"/>
<path d="M4.83325 13.166C4.83325 12.7058 5.20635 12.3327 5.66659 12.3327H5.67406C6.1343 12.3327 6.5074 12.7058 6.5074 13.166C6.5074 13.6263 6.1343 13.9993 5.67406 13.9993H5.66659C5.20635 13.9993 4.83325 13.6263 4.83325 13.166Z" fill="#4D6D89"/>
<path d="M8.16285 13.166C8.16285 12.7058 8.53594 12.3327 8.99618 12.3327H9.00366C9.46389 12.3327 9.83699 12.7058 9.83699 13.166C9.83699 13.6263 9.46389 13.9993 9.00366 13.9993H8.99618C8.53594 13.9993 8.16285 13.6263 8.16285 13.166Z" fill="#4D6D89"/>
<path fill-rule="evenodd" clip-rule="evenodd" d="M3.99992 0.0410156C4.3451 0.0410156 4.62492 0.320838 4.62492 0.666016V0.970928C5.57164 0.874325 6.73661 0.874336 8.15762 0.874349H9.84222C11.2632 0.874336 12.4282 0.874325 13.3749 0.970928V0.666016C13.3749 0.320838 13.6547 0.0410156 13.9999 0.0410156C14.3451 0.0410156 14.6249 0.320838 14.6249 0.666016V1.19501C15.2956 1.38508 15.8612 1.69401 16.332 2.20298C16.9802 2.9038 17.2684 3.78928 17.4064 4.89894C17.5416 5.98627 17.5416 7.37975 17.5416 9.15774V9.67429C17.5416 11.4523 17.5416 12.8458 17.4064 13.9331C17.2684 15.0427 16.9802 15.9282 16.332 16.629C15.6773 17.3368 14.8393 17.6577 13.7905 17.8102C12.7755 17.9577 11.4786 17.9577 9.84222 17.9577H8.15762C6.52121 17.9577 5.22435 17.9577 4.20932 17.8102C3.16056 17.6577 2.32254 17.3368 1.66787 16.629C1.01961 15.9282 0.731459 15.0427 0.593459 13.9331C0.458236 12.8458 0.458243 11.4523 0.458252 9.67432V9.15771C0.458243 7.37974 0.458236 5.98627 0.593459 4.89894C0.731459 3.78928 1.01961 2.9038 1.66787 2.20298C2.13867 1.69401 2.70429 1.38508 3.37492 1.19501V0.666016C3.37492 0.320838 3.65474 0.0410156 3.99992 0.0410156ZM3.99992 2.95768C3.71423 2.95768 3.47331 2.766 3.39875 2.50422C3.05933 2.63927 2.80161 2.81815 2.5855 3.05179C2.19195 3.47724 1.95869 4.06048 1.83543 5.04102H16.1644C16.0411 4.06048 15.8079 3.47724 15.4143 3.05179C15.1982 2.81815 14.9405 2.63928 14.6011 2.50422C14.5265 2.766 14.2856 2.95768 13.9999 2.95768C13.6547 2.95768 13.3749 2.67786 13.3749 2.33268V2.22817C12.4907 2.12565 11.3479 2.12435 9.79159 2.12435H8.20825C6.6519 2.12435 5.50909 2.12565 4.62492 2.22817V2.33268C4.62492 2.67786 4.3451 2.95768 3.99992 2.95768ZM16.2591 6.29102C16.2911 7.08842 16.2916 8.04169 16.2916 9.20205V9.62998C16.2916 11.4619 16.2904 12.7776 16.1659 13.7788C16.0431 14.7667 15.8095 15.353 15.4143 15.7802C15.0256 16.2005 14.5022 16.4436 13.6107 16.5732C12.696 16.7061 11.49 16.7077 9.79159 16.7077H8.20825C6.50982 16.7077 5.30388 16.7061 4.38912 16.5732C3.49765 16.4436 2.97426 16.2005 2.5855 15.7802C2.19032 15.353 1.95676 14.7667 1.8339 13.7788C1.70939 12.7776 1.70825 11.4619 1.70825 9.62998V9.20205C1.70825 8.04169 1.70871 7.08842 1.74069 6.29102H16.2591Z" fill="#4D6D89"/>
</svg>
