<svg width="12" height="8" viewBox="0 0 12 8" fill="none" xmlns="http://www.w3.org/2000/svg">
<path d="M0.166016 3.99967C0.166017 4.24871 0.276452 4.47975 0.381029 4.65324C0.49388 4.84045 0.645645 5.03373 0.812138 5.22219C1.14613 5.60023 1.58193 6.00622 2.00484 6.37347C2.43023 6.74287 2.85416 7.08301 3.17085 7.33019C3.32946 7.45399 3.46177 7.55495 3.55471 7.62516C3.60119 7.66027 3.63785 7.68772 3.66307 7.70651L3.69211 7.7281L3.69982 7.7338L3.7025 7.73578C3.92483 7.89955 4.23812 7.85229 4.4019 7.62996C4.56566 7.40763 4.5182 7.09465 4.29589 6.93087L4.28741 6.92459L4.26071 6.90475C4.2371 6.88715 4.20215 6.86098 4.15748 6.82724C4.06813 6.75974 3.94003 6.66201 3.78614 6.54189C3.47783 6.30125 3.06844 5.97265 2.6605 5.61842C2.25009 5.26202 1.85256 4.88947 1.56156 4.56009C1.54315 4.53926 1.52534 4.51878 1.50813 4.49868L11.3327 4.49868C11.6088 4.49868 11.8327 4.27482 11.8327 3.99868C11.8327 3.72253 11.6088 3.49868 11.3327 3.49868L1.50982 3.49868C1.5265 3.47921 1.54375 3.45939 1.56156 3.43924C1.85256 3.10986 2.25009 2.73731 2.6605 2.38091C3.06844 2.02668 3.47783 1.69808 3.78614 1.45744C3.94003 1.33732 4.06813 1.23959 4.15748 1.17209C4.20215 1.13835 4.23709 1.11219 4.2607 1.09458L4.28741 1.07474L4.29589 1.06846C4.5182 0.904682 4.56566 0.591696 4.40189 0.369372C4.23812 0.147037 3.92483 0.0997772 3.7025 0.263552L3.69982 0.265525L3.69211 0.271228L3.66307 0.292817C3.63785 0.311614 3.60119 0.339062 3.55471 0.374175C3.46177 0.444382 3.32945 0.54534 3.17085 0.669137C2.85416 0.91632 2.43023 1.25646 2.00484 1.62586C1.58193 1.99311 1.14613 2.3991 0.812137 2.77714C0.645645 2.9656 0.493879 3.15888 0.381028 3.34609C0.27708 3.51854 0.167344 3.74786 0.166027 3.99518" fill="#3EB9B5"/>
</svg>
