<svg width="12" height="8" viewBox="0 0 12 8" fill="none" xmlns="http://www.w3.org/2000/svg">
<path d="M11.834 3.99967C11.834 4.24871 11.7235 4.47975 11.619 4.65324C11.5061 4.84045 11.3544 5.03373 11.1879 5.22219C10.8539 5.60023 10.4181 6.00622 9.99516 6.37347C9.56977 6.74287 9.14584 7.08301 8.82915 7.33019C8.67054 7.45399 8.53823 7.55495 8.44529 7.62516C8.39881 7.66027 8.36215 7.68772 8.33693 7.70651L8.30789 7.7281L8.30018 7.7338L8.2975 7.73578C8.07517 7.89955 7.76188 7.85229 7.5981 7.62996C7.43434 7.40763 7.4818 7.09465 7.70411 6.93087L7.71259 6.92459L7.73929 6.90475C7.7629 6.88715 7.79785 6.86098 7.84252 6.82724C7.93187 6.75974 8.05997 6.66201 8.21386 6.54189C8.52217 6.30125 8.93156 5.97265 9.3395 5.61842C9.74991 5.26202 10.1474 4.88947 10.4384 4.56009C10.4568 4.53926 10.4747 4.51878 10.4919 4.49868L0.667306 4.49868C0.391164 4.49868 0.167306 4.27482 0.167306 3.99868C0.167306 3.72253 0.391164 3.49868 0.667306 3.49868L10.4902 3.49868C10.4735 3.47921 10.4562 3.45939 10.4384 3.43924C10.1474 3.10986 9.74991 2.73731 9.3395 2.38091C8.93156 2.02668 8.52217 1.69808 8.21386 1.45744C8.05997 1.33732 7.93187 1.23959 7.84252 1.17209C7.79785 1.13835 7.76291 1.11219 7.7393 1.09458L7.71259 1.07474L7.70411 1.06846C7.4818 0.904682 7.43434 0.591696 7.59811 0.369372C7.76188 0.147037 8.07517 0.0997772 8.2975 0.263552L8.30018 0.265525L8.30789 0.271228L8.33693 0.292817C8.36215 0.311614 8.39881 0.339062 8.44529 0.374175C8.53823 0.444382 8.67055 0.54534 8.82915 0.669137C9.14584 0.91632 9.56977 1.25646 9.99516 1.62586C10.4181 1.99311 10.8539 2.3991 11.1879 2.77714C11.3544 2.9656 11.5061 3.15888 11.619 3.34609C11.7229 3.51854 11.8327 3.74786 11.834 3.99518" fill="#3EB9B5"/>
</svg>
