<svg width="16" height="16" viewBox="0 0 16 16" fill="none" xmlns="http://www.w3.org/2000/svg">
<path d="M4.6665 3.16602C4.6665 3.99444 3.99493 4.66602 3.1665 4.66602C2.33808 4.66602 1.6665 3.99444 1.6665 3.16602C1.6665 2.33759 2.33808 1.66602 3.1665 1.66602C3.99493 1.66602 4.6665 2.33759 4.6665 3.16602Z" fill="white"/>
<path d="M2.99984 5.99935C2.3713 5.99935 2.05703 5.99935 1.86177 6.19461C1.6665 6.38987 1.6665 6.70414 1.6665 7.33268L1.6665 12.9993C1.6665 13.6279 1.6665 13.9422 1.86177 14.1374C2.05703 14.3327 2.3713 14.3327 2.99984 14.3327H3.33317C3.96171 14.3327 4.27598 14.3327 4.47124 14.1374C4.6665 13.9422 4.6665 13.6279 4.6665 12.9993L4.6665 7.33268C4.6665 6.70414 4.6665 6.38987 4.47124 6.19461C4.27598 5.99935 3.96171 5.99935 3.33317 5.99935H2.99984Z" fill="white"/>
<path d="M7.33317 5.99935H7.88387C8.30388 5.99935 8.51388 5.99935 8.66984 6.09059C8.7686 6.14837 8.85082 6.23059 8.9086 6.32935C8.99985 6.4853 8.99986 6.69531 8.99987 7.11532C9.5176 6.43474 10.3098 5.99951 11.1977 5.99951C12.7574 5.99951 14.3332 7.34265 14.3332 8.99951L14.3323 12.6664C14.3322 13.2948 14.3321 13.609 14.1368 13.8042C13.9416 13.9994 13.6274 13.9994 12.999 13.9994H12.6665C12.0379 13.9994 11.7237 13.9994 11.5284 13.8042C11.3331 13.6089 11.3331 13.2946 11.3331 12.6661L11.3331 9.66609C11.3331 9.11381 10.9117 8.66609 10.3917 8.66609C9.35191 8.66609 8.99987 9.56153 8.99987 10.6661L8.99985 12.9994C8.99984 13.6279 8.99984 13.9422 8.80458 14.1374C8.60932 14.3327 8.29505 14.3327 7.66652 14.3327H7.33317C6.70463 14.3327 6.39036 14.3327 6.1951 14.1374C5.99984 13.9422 5.99984 13.6279 5.99984 12.9993L5.99984 7.33268C5.99984 6.70414 5.99984 6.38987 6.1951 6.19461C6.39036 5.99935 6.70463 5.99935 7.33317 5.99935Z" fill="white"/>
</svg>
