<svg width="30" height="30" viewBox="0 0 30 30" fill="none" xmlns="http://www.w3.org/2000/svg">
<g opacity="0.4">
<path d="M1.79478 9.0943C2.16279 10.9187 2.77312 12.7184 4.03715 14.9226L7.44562 11.0074C8.69013 9.57786 9.31242 8.86306 9.40392 7.98547C9.49544 7.10787 9.03405 6.28011 8.11124 4.62457L6.94699 2.53588C6.4313 1.61071 5.43159 1.36786 4.5595 2.07864C2.49607 3.76043 1.25049 6.39612 1.79478 9.0943Z" fill="white"/>
<path d="M20.9054 28.2049C19.081 27.8369 17.2813 27.2265 15.0771 25.9625L18.9923 22.554C20.4218 21.3094 21.1366 20.6872 22.0142 20.5957C22.8918 20.5042 23.7195 20.9656 25.3751 21.8884L27.4638 23.0526C28.389 23.5684 28.6318 24.5681 27.921 25.4401C26.2393 27.5036 23.6035 28.7492 20.9054 28.2049Z" fill="white"/>
</g>
<path fill-rule="evenodd" clip-rule="evenodd" d="M7.8202 2.0493C7.44635 1.37859 6.84461 0.870939 6.08903 0.714772C5.32556 0.556976 4.55816 0.789739 3.92745 1.30379C1.63897 3.16899 0.181856 6.15737 0.814251 9.29234C1.20297 11.2194 1.8506 13.1207 3.16941 15.4203C5.81619 20.0354 9.95895 24.1805 14.5795 26.8303C16.8791 28.1491 18.7804 28.7967 20.7073 29.1854C23.8423 29.8178 26.8307 28.3607 28.6959 26.0722C29.21 25.4415 29.4427 24.6741 29.2849 23.9106C29.1288 23.1551 28.6211 22.5534 27.9504 22.1795L25.8139 20.9886C25.0269 20.5499 24.3647 20.1807 23.7889 19.9397C23.1783 19.6839 22.576 19.5319 21.9103 19.6014C21.2444 19.6709 20.6865 19.9437 20.1417 20.3199C19.6281 20.6746 19.0563 21.1725 18.3768 21.7641L14.9648 24.7346C11.0995 22.3763 7.62091 18.8962 5.26512 15.035L8.23559 11.6229C8.8272 10.9434 9.32505 10.3716 9.67973 9.85801C10.056 9.31322 10.3288 8.7553 10.3983 8.08949C10.4677 7.42368 10.3158 6.82146 10.0601 6.21077C9.81899 5.63508 9.44983 4.97283 9.01115 4.1859L7.8202 2.0493ZM21.1028 27.2249C19.7355 26.9491 18.3828 26.5309 16.8276 25.7646L19.6487 23.3086C20.3805 22.6714 20.868 22.249 21.2783 21.9657C21.6676 21.6967 21.9059 21.6127 22.1176 21.5906C22.3295 21.5686 22.5799 21.6017 23.0164 21.7843C23.4763 21.977 24.0404 22.2898 24.888 22.7622L26.9767 23.9265C27.2311 24.0683 27.3075 24.2242 27.3263 24.3155C27.3436 24.3989 27.3424 24.5673 27.1456 24.8087C25.6472 26.647 23.3643 27.6811 21.1028 27.2249ZM6.69113 10.351L4.23515 13.1721C3.46885 11.6169 3.0506 10.2643 2.77476 8.89686C2.31859 6.63546 3.35264 4.35243 5.19101 2.85409C5.43239 2.65735 5.60088 2.65615 5.68423 2.67338C5.77544 2.69223 5.93141 2.76859 6.07325 3.02305L7.23749 5.11173C7.70991 5.95925 8.02273 6.52348 8.21531 6.98332C8.39809 7.4198 8.43115 7.67026 8.40905 7.88205C8.38697 8.09384 8.30295 8.33209 8.03404 8.72148C7.75075 9.13167 7.32824 9.61922 6.69113 10.351ZM18.8159 0.705522C18.2852 0.552394 17.7309 0.858419 17.5779 1.38905C17.4247 1.91969 17.7308 2.47398 18.2613 2.62711C22.6475 3.89285 26.1065 7.35178 27.3725 11.7378C27.5256 12.2684 28.08 12.5744 28.6105 12.4213C29.1412 12.2681 29.4472 11.7138 29.294 11.1832C27.8376 6.1369 23.8623 2.16181 18.8159 0.705522ZM18.0575 7.18834C17.5491 6.97248 16.962 7.20957 16.7461 7.71792C16.5303 8.22626 16.7673 8.81336 17.2757 9.02924C18.9349 9.73382 20.2659 11.0647 20.9704 12.7239C21.1863 13.2322 21.7733 13.4693 22.2817 13.2534C22.7901 13.0376 23.0272 12.4504 22.8113 11.9421C21.9041 9.80601 20.1936 8.09545 18.0575 7.18834Z" fill="white"/>
</svg>
