<svg width="28" height="30" viewBox="0 0 28 30" fill="none" xmlns="http://www.w3.org/2000/svg">
<path opacity="0.4" d="M14.6656 22.9993H20.1656C22.5003 22.9993 23.6683 22.9993 24.5523 22.5327C25.2497 22.1593 25.8203 21.586 26.1936 20.8793C26.6656 19.9993 26.6656 18.8393 26.6656 16.506C26.6656 12.6127 26.6656 10.6661 25.8789 9.18607C25.6469 8.7594 25.3682 8.34607 25.0509 7.98607C23.7589 6.6394 22.0336 6.01263 21.3323 5.8793C20.0456 5.66596 18.3456 5.66602 15.8323 5.66602H10.4883C13.7509 7.79935 14.6656 10.146 14.6656 16.3327V22.9993Z" fill="white"/>
<path d="M9.33203 11.9993H6.66536C6.11336 11.9993 5.66536 11.5513 5.66536 10.9993C5.66536 10.4473 6.11336 9.99935 6.66536 9.99935H9.33203C9.88403 9.99935 10.332 10.4473 10.332 10.9993C10.332 11.5513 9.88403 11.9993 9.33203 11.9993Z" fill="white"/>
<path fill-rule="evenodd" clip-rule="evenodd" d="M21.332 10.666C20.78 10.666 20.332 10.218 20.332 9.66602V6.76202C19.2223 6.66471 17.7878 6.66471 15.832 6.66471H13.1692C14.4233 7.80904 15.292 9.36703 15.5721 11.1355C15.6667 11.7328 15.6667 12.3781 15.6667 13.6646V21.9967H20.1654C22.332 21.9967 23.4187 21.9966 24.084 21.646C24.604 21.3673 25.0294 20.9394 25.3094 20.41C25.6654 19.746 25.6654 18.6621 25.6654 16.5036C25.6654 12.7816 25.6654 10.9126 24.9961 9.65273C24.7908 9.2754 24.556 8.934 24.3013 8.64466C23.936 8.23 23.9761 7.59802 24.3908 7.23268C24.8054 6.86735 25.4374 6.90737 25.8027 7.3207C26.1561 7.72204 26.4787 8.18735 26.7587 8.70469C27.6667 10.4126 27.6667 12.4472 27.6667 16.5013C27.6667 18.9943 27.6667 20.2461 27.076 21.3474C26.6134 22.2247 25.9028 22.9394 25.0241 23.41C23.9162 23.9953 22.6629 23.9953 20.1673 23.9953L20.1654 23.9993H15.6654V28.3327C15.6654 28.8847 15.2174 29.3327 14.6654 29.3327C14.1134 29.3327 13.6654 28.8847 13.6654 28.3327V23.9993H7.83203C5.33603 23.9993 4.08275 23.9993 2.98008 23.4167C2.09741 22.9433 1.38539 22.2286 0.920052 21.346C0.332052 20.25 0.332031 18.9993 0.332031 16.506C0.332031 12.4513 0.332068 10.4167 1.23607 8.71667C1.95207 7.382 3.04005 6.29532 4.38138 5.57266C6.07866 4.66602 8.11325 4.66602 12.165 4.66602H15.832C17.7362 4.66602 19.1649 4.66603 20.332 4.75646V4.33268C20.332 2.31135 21.9774 0.666016 23.9987 0.666016C24.5507 0.666016 24.9987 1.11402 24.9987 1.66602C24.9987 2.21802 24.5507 2.66602 23.9987 2.66602C23.08 2.66602 22.332 3.41402 22.332 4.33268V5.8471C22.3326 5.86686 22.3326 5.88673 22.332 5.90668V9.66602C22.332 10.218 21.884 10.666 21.332 10.666ZM13.6667 21.9967V13.6614C13.6667 12.4832 13.6667 11.8908 13.5962 11.4501C13.2122 9.02208 11.3268 7.13013 8.90281 6.7368C8.81116 6.72565 8.71599 6.71445 8.61315 6.70329C7.09588 6.76458 6.0958 6.92325 5.32669 7.33398C4.33336 7.86865 3.528 8.67274 3 9.65807C2.33203 10.914 2.33203 12.7832 2.33203 16.5042C2.33203 18.6628 2.33208 19.746 2.68542 20.4047C2.96808 20.9394 3.39342 21.3674 3.91875 21.6487C4.57875 21.9967 5.66536 21.9967 7.83203 21.9967H13.6667Z" fill="white"/>
</svg>
