<svg width="26" height="30" viewBox="0 0 26 30" fill="none" xmlns="http://www.w3.org/2000/svg">
<path opacity="0.4" fill-rule="evenodd" clip-rule="evenodd" d="M13.0015 28.3327C13.8059 28.3327 14.5787 28.03 15.157 27.4886C15.5608 27.1106 15.9748 26.7288 16.3936 26.3427C21.4813 21.6517 27.2814 16.3038 24.088 8.8389C22.2168 4.46489 17.7252 1.66602 13.0015 1.66602C8.27779 1.66602 3.78618 4.46489 1.91502 8.8389C-1.26542 16.2735 4.47067 21.5818 9.53077 26.2644C9.97661 26.677 10.4172 27.0847 10.846 27.4886C11.4242 28.03 12.1971 28.3327 13.0015 28.3327ZM13 18.3327C15.5773 18.3327 17.6667 16.2433 17.6667 13.666C17.6667 11.0887 15.5773 8.99935 13 8.99935C10.4227 8.99935 8.33333 11.0887 8.33333 13.666C8.33333 16.2433 10.4227 18.3327 13 18.3327Z" fill="white"/>
<path fill-rule="evenodd" clip-rule="evenodd" d="M13.0007 7.99935C9.87104 7.99935 7.33398 10.5364 7.33398 13.666C7.33398 16.7956 9.87104 19.3327 13.0007 19.3327C16.1303 19.3327 18.6673 16.7956 18.6673 13.666C18.6673 10.5364 16.1303 7.99935 13.0007 7.99935ZM9.33398 13.666C9.33398 11.641 10.9756 9.99935 13.0007 9.99935C15.0257 9.99935 16.6673 11.641 16.6673 13.666C16.6673 15.6911 15.0257 17.3327 13.0007 17.3327C10.9756 17.3327 9.33398 15.6911 9.33398 13.666Z" fill="white"/>
<path fill-rule="evenodd" clip-rule="evenodd" d="M13.0021 0.666016C7.9005 0.666016 3.0334 3.68339 0.99618 8.44559C-0.89976 12.8775 0.126618 16.6491 2.26362 19.8787C4.0157 22.5266 6.57113 24.8898 8.87656 27.0217C9.31612 27.4282 9.7468 27.8265 10.1609 28.2165L10.1631 28.2186C10.9298 28.9365 11.9482 29.3327 13.0021 29.3327C14.0559 29.3327 15.0743 28.9365 15.841 28.2186C16.2324 27.8521 16.6381 27.4783 17.052 27.097C19.3825 24.9497 21.9739 22.5621 23.7443 19.8805C25.8788 16.6476 26.9015 12.8721 25.0079 8.44559C22.9707 3.68339 18.1036 0.666016 13.0021 0.666016ZM2.83499 9.23221C4.54008 5.24639 8.6562 2.66602 13.0021 2.66602C17.3479 2.66602 21.464 5.24639 23.1691 9.23221C24.7318 12.8852 23.9433 15.9492 22.0753 18.7786C20.4519 21.2374 18.0738 23.4316 15.7362 25.5885C15.3126 25.9793 14.8903 26.3689 14.4741 26.7586C14.0843 27.1236 13.5569 27.3327 13.0021 27.3327C12.4476 27.3327 11.9206 27.1239 11.5309 26.7595C11.0876 26.3419 10.6374 25.925 10.1859 25.5069C7.87803 23.3697 5.53765 21.2024 3.93154 18.7751C2.06171 15.9492 1.27026 12.8899 2.83499 9.23221Z" fill="white"/>
</svg>
