<svg width="24" height="24" viewBox="0 0 24 24" fill="none" xmlns="http://www.w3.org/2000/svg">
<path opacity="0.4" d="M2.01477 13.4794C2.07977 16.5394 2.11278 18.0694 3.24378 19.2094C4.37478 20.3394 5.94878 20.3794 9.09778 20.4594C11.0378 20.5094 12.9597 20.5094 14.8997 20.4594C18.0487 20.3794 19.6227 20.3394 20.7537 19.2094C21.8847 18.0694 21.9177 16.5394 21.9827 13.4794C22.0037 12.4894 22.0037 11.5094 21.9827 10.5194C21.9177 7.45943 21.8847 5.92945 20.7537 4.78945C19.6227 3.65945 18.0487 3.61945 14.8997 3.53945C12.9597 3.48945 11.0378 3.48945 9.09778 3.53945C5.94878 3.61945 4.37478 3.65945 3.24378 4.78945C2.11278 5.92945 2.07977 7.45943 2.01477 10.5194C1.99377 11.5094 1.99377 12.4894 2.01477 13.4794Z" fill="#8097AA"/>
<path d="M9.56098 10.8844C10.541 11.4614 11.27 11.7504 11.999 11.7504C12.729 11.7504 13.458 11.4624 14.439 10.8844L17.381 9.14438C17.738 8.93438 17.856 8.47442 17.645 8.11742C17.435 7.76042 16.975 7.64236 16.618 7.85336L13.677 9.59242C12.203 10.4594 11.795 10.4594 10.323 9.59242L7.38099 7.85238C7.02499 7.64138 6.56494 7.76035 6.35394 8.11635C6.14294 8.47235 6.26201 8.9324 6.61801 9.1434L9.56098 10.8844Z" fill="#8097AA"/>
<path fill-rule="evenodd" clip-rule="evenodd" d="M9.07972 21.2084C10.0617 21.2334 11.0307 21.2465 11.9997 21.2465C12.9687 21.2465 13.9378 21.2334 14.9198 21.2084L14.9211 21.2084C18.1583 21.1264 19.9419 21.0812 21.2867 19.7374C22.6287 18.3844 22.6657 16.6484 22.7327 13.4954C22.7537 12.4884 22.7537 11.5104 22.7327 10.5034C22.6657 7.35042 22.6287 5.6134 21.2837 4.2584C19.9407 2.9174 18.1568 2.87145 14.9188 2.78945C12.9538 2.73945 11.0437 2.73945 9.07874 2.78945L9.07739 2.78949C5.84024 2.87147 4.05656 2.91664 2.71175 4.26045C1.36975 5.61345 1.33275 7.34944 1.26575 10.5024C1.24475 11.5094 1.24475 12.4874 1.26575 13.4944C1.33275 16.6474 1.36977 18.3845 2.71477 19.7395C4.05777 21.0805 5.84171 21.1264 9.07972 21.2084ZM3.77679 18.6794C2.85579 17.7524 2.82677 16.4074 2.76477 13.4624C2.74377 12.4764 2.74377 11.5184 2.76477 10.5334C2.82677 7.5884 2.85576 6.24446 3.77376 5.31846C4.69268 4.39953 6.0785 4.36441 9.11598 4.28742C11.056 4.23742 12.9418 4.2374 14.8808 4.2874C17.9188 4.3644 19.3048 4.40041 20.2218 5.31641C21.1428 6.24341 21.1717 7.5884 21.2337 10.5334C21.2547 11.5194 21.2547 12.4774 21.2337 13.4624C21.1717 16.4074 21.1427 17.7514 20.2247 18.6774C19.3059 19.5963 17.9203 19.6314 14.8835 19.7084L14.8818 19.7084C12.9428 19.7584 11.0568 19.7584 9.1178 19.7084C6.0798 19.6314 4.69379 19.5954 3.77679 18.6794Z" fill="#8097AA"/>
</svg>
