<svg width="20" height="20" viewBox="0 0 20 20" fill="none" xmlns="http://www.w3.org/2000/svg">
<path opacity="0.4" d="M18.2941 1.79884C16.2975 -0.351258 1.2796 4.91576 1.292 6.83874C1.30606 9.01937 7.15691 9.69023 8.77861 10.1452C9.75383 10.4188 10.015 10.6992 10.2399 11.7219C11.2583 16.3533 11.7696 18.6568 12.9349 18.7083C14.7925 18.7904 20.2426 3.89716 18.2941 1.79884Z" fill="white"/>
<path fill-rule="evenodd" clip-rule="evenodd" d="M9.24015 11.0766C9.25835 11.0915 9.27344 11.106 9.28656 11.1202C9.36852 11.2085 9.4599 11.376 9.56843 11.8695C10.0735 14.1663 10.4653 15.9484 10.8824 17.1568C11.0904 17.7595 11.3244 18.2812 11.6208 18.6658C11.9301 19.0673 12.3508 19.3707 12.9046 19.3951C13.2493 19.4104 13.536 19.2529 13.7326 19.1069C13.9397 18.953 14.1345 18.7466 14.3151 18.521C14.6782 18.0675 15.0596 17.4399 15.4391 16.7146C16.2018 15.2571 17.0094 13.3029 17.6927 11.2925C18.3757 9.28284 18.9449 7.18671 19.2191 5.44458C19.3558 4.57577 19.4235 3.76889 19.3859 3.09303C19.3502 2.45209 19.2137 1.77879 18.7979 1.33101C18.3694 0.869572 17.6976 0.696734 17.0557 0.634872C16.3814 0.56987 15.5736 0.613101 14.704 0.727158C12.96 0.955913 10.853 1.48543 8.82902 2.13694C6.80373 2.78886 4.82954 3.57326 3.35106 4.32475C2.61525 4.69876 1.97706 5.0772 1.51311 5.44069C1.28208 5.62169 1.07128 5.81666 0.912703 6.02417C0.761457 6.22209 0.602326 6.50369 0.604515 6.84316C0.61026 7.73423 1.21709 8.36398 1.86333 8.78668C2.52293 9.21813 3.38198 9.54324 4.23597 9.79791C5.09913 10.0553 6.00683 10.2548 6.78717 10.4165C6.97612 10.4556 7.15534 10.4921 7.32382 10.5265C7.8717 10.6381 8.30614 10.7267 8.5929 10.8071C8.84464 10.8778 9.00396 10.9387 9.10965 10.9933C9.15055 11.0264 9.19436 11.0542 9.24015 11.0766ZM1.96675 6.91768C1.96661 6.918 1.96673 6.91768 1.96675 6.91768L1.96759 6.91587C1.96718 6.91669 1.96691 6.9173 1.96675 6.91768ZM2.00522 6.85905C1.99592 6.87122 1.98869 6.88145 1.98313 6.8898C2.00715 7.08291 2.15602 7.33512 2.616 7.63599C3.10806 7.95785 3.81572 8.23775 4.62891 8.48025C5.43293 8.72002 6.29289 8.90985 7.06613 9.07007C7.23188 9.10441 7.39577 9.13777 7.55524 9.17024C8.11741 9.2847 8.62478 9.38799 8.96433 9.48326C9.11524 9.5256 9.26255 9.57113 9.40429 9.62409L12.2642 6.76419C12.5327 6.4957 12.968 6.4957 13.2365 6.76419C13.5049 7.03267 13.5049 7.46798 13.2365 7.73646L10.5083 10.4646C10.7121 10.789 10.8221 11.1684 10.9113 11.5742C11.4247 13.9088 11.7977 15.5942 12.1822 16.7082C12.375 17.2669 12.551 17.6202 12.71 17.8266C12.7987 17.9417 12.8631 17.9884 12.9065 18.0076L12.9127 18.0031C12.9885 17.9468 13.0994 17.8396 13.2417 17.6617C13.5246 17.3083 13.8586 16.7694 14.2208 16.0772C14.9416 14.6997 15.723 12.8149 16.3908 10.85C17.0589 8.88425 17.603 6.86877 17.8608 5.23083C17.99 4.40961 18.043 3.70933 18.013 3.16941C17.981 2.59457 17.8616 2.34344 17.7903 2.26664C17.7196 2.19056 17.4854 2.05766 16.9238 2.00353C16.3948 1.95254 15.7018 1.98307 14.8829 2.09048C13.2499 2.30467 11.2288 2.80895 9.25033 3.4458C7.27312 4.08225 5.37038 4.84078 3.97409 5.5505C3.27253 5.9071 2.72388 6.23884 2.36111 6.52306C2.17877 6.66591 2.06625 6.77919 2.00522 6.85905Z" fill="white"/>
</svg>
