<svg width="40" height="40" viewBox="0 0 40 40" fill="none" xmlns="http://www.w3.org/2000/svg">
<g opacity="0.4">
<path d="M16.6667 3.33301H23.3334C26.4761 3.33301 28.0474 3.33301 29.0237 4.30932C30 5.28563 30 6.85698 30 9.99967H10C10 6.85698 10 5.28563 10.9764 4.30932C11.9527 3.33301 13.524 3.33301 16.6667 3.33301Z" fill="#3EB9B5"/>
<path d="M4.22748 19.3962C3.33337 20.8191 3.33337 22.7682 3.33337 26.6663C3.33337 30.5645 3.33337 32.5136 4.22748 33.9365C4.69373 34.6786 5.32116 35.306 6.06319 35.7722C7.48615 36.6663 9.43523 36.6663 13.3334 36.6663H26.6667C30.5649 36.6663 32.5139 36.6663 33.9369 35.7722C34.6789 35.306 35.3064 34.6786 35.7726 33.9365C36.6667 32.5136 36.6667 30.5645 36.6667 26.6663C36.6667 22.7682 36.6667 20.8191 35.7726 19.3962C35.3064 18.6541 34.6789 18.0267 33.9369 17.5605C32.5139 16.6663 30.5649 16.6663 26.6667 16.6663H13.3334C9.43523 16.6663 7.48615 16.6663 6.06319 17.5605C5.32116 18.0267 4.69373 18.6541 4.22748 19.3962Z" fill="#3EB9B5"/>
</g>
<path d="M16.25 23.333C16.25 22.6427 15.6904 22.083 15 22.083C14.3097 22.083 13.75 22.6427 13.75 23.333C13.75 25.8643 15.8021 27.9163 18.3334 27.9163H21.6667C24.198 27.9163 26.25 25.8643 26.25 23.333C26.25 22.6427 25.6904 22.083 25 22.083C24.3097 22.083 23.75 22.6427 23.75 23.333C23.75 24.4836 22.8173 25.4163 21.6667 25.4163H18.3334C17.1828 25.4163 16.25 24.4836 16.25 23.333Z" fill="#3EB9B5"/>
<path fill-rule="evenodd" clip-rule="evenodd" d="M16.58 2.08301H23.42C24.9175 2.08296 26.1662 2.08292 27.1575 2.2162C28.2038 2.35687 29.1485 2.66632 29.9076 3.42544C30.6667 4.18456 30.9762 5.12922 31.1169 6.17555C31.2275 6.99845 31.2463 7.99872 31.2494 9.17142C31.3767 9.22109 31.5021 9.27701 31.6258 9.34006C32.645 9.85937 33.4737 10.688 33.993 11.7072C34.3248 12.3585 34.4594 13.0558 34.5225 13.8279C34.5812 14.5463 34.5833 15.4241 34.5834 16.4904L34.6019 16.502C35.503 17.0682 36.2649 17.8301 36.831 18.7311C37.4241 19.6751 37.6783 20.7364 37.7991 21.9824C37.9167 23.1953 37.9167 24.7074 37.9167 26.6012V26.7315C37.9167 28.6253 37.9167 30.1374 37.7991 31.3503C37.6783 32.5963 37.4241 33.6576 36.831 34.6016C36.2649 35.5026 35.503 36.2645 34.6019 36.8306C33.658 37.4238 32.5966 37.6779 31.3507 37.7987C30.1378 37.9164 28.6257 37.9164 26.7318 37.9163H13.2682C11.3744 37.9164 9.8623 37.9164 8.64943 37.7987C7.40344 37.6779 6.34208 37.4238 5.39815 36.8306C4.49712 36.2645 3.73523 35.5026 3.16908 34.6016C2.57597 33.6576 2.32182 32.5963 2.20098 31.3503C2.08335 30.1374 2.08336 28.6253 2.08337 26.7315V26.6012C2.08336 24.7074 2.08335 23.1953 2.20098 21.9824C2.32182 20.7364 2.57597 19.6751 3.16908 18.7311C3.73523 17.8301 4.49712 17.0682 5.39815 16.502L5.41671 16.4904C5.41678 15.4241 5.41893 14.5463 5.47763 13.8279C5.54071 13.0558 5.67527 12.3585 6.00709 11.7072C6.5264 10.688 7.35505 9.85937 8.37426 9.34006C8.498 9.27701 8.62341 9.22108 8.75067 9.17141C8.75383 7.99871 8.77259 6.99845 8.88323 6.17555C9.0239 5.12922 9.33335 4.18456 10.0925 3.42544C10.8516 2.66632 11.7963 2.35687 12.8426 2.2162C13.8339 2.08292 15.0826 2.08296 16.58 2.08301ZM28.6392 6.50867C28.7171 7.08844 28.7403 7.81043 28.7472 8.76922C28.16 8.74966 27.4875 8.74967 26.7191 8.74968H13.281C12.5126 8.74967 11.8401 8.74966 11.2529 8.76922C11.2598 7.81043 11.283 7.08844 11.3609 6.50867C11.4643 5.73956 11.643 5.4104 11.8602 5.19321C12.0774 4.97601 12.4066 4.79731 13.1757 4.69391C13.9808 4.58567 15.06 4.58301 16.6667 4.58301H23.3334C24.9401 4.58301 26.0193 4.58567 26.8244 4.69391C27.5935 4.79731 27.9227 4.97601 28.1399 5.19321C28.357 5.4104 28.5357 5.73956 28.6392 6.50867ZM32.0814 15.6248C32.0774 14.9708 32.0657 14.4592 32.0308 14.0315C31.9803 13.414 31.8878 13.0823 31.7655 12.8422C31.4858 12.2934 31.0397 11.8472 30.4908 11.5676C30.2508 11.4453 29.9191 11.3527 29.3016 11.3023C28.6695 11.2506 27.8541 11.2497 26.6667 11.2497H13.3334C12.146 11.2497 11.3306 11.2506 10.6985 11.3023C10.081 11.3527 9.7493 11.4453 9.50924 11.5676C8.96043 11.8472 8.51424 12.2934 8.23461 12.8422C8.11229 13.0823 8.01978 13.414 7.96933 14.0315C7.93438 14.4592 7.92264 14.9708 7.91869 15.6248C8.15515 15.588 8.39855 15.5583 8.64943 15.5339C9.86231 15.4163 11.3744 15.4163 13.2683 15.4163H26.7318C28.6257 15.4163 30.1378 15.4163 31.3507 15.5339C31.6015 15.5583 31.8449 15.588 32.0814 15.6248ZM6.72823 18.6189C7.20726 18.3179 7.83192 18.125 8.89075 18.0223C9.96882 17.9177 11.3596 17.9163 13.3334 17.9163H26.6667C28.6405 17.9163 30.0313 17.9177 31.1093 18.0223C32.1682 18.125 32.7928 18.3179 33.2719 18.6189C33.8549 18.9852 34.3479 19.4782 34.7142 20.0612C35.0152 20.5402 35.2081 21.1649 35.3108 22.2237C35.4153 23.3018 35.4167 24.6926 35.4167 26.6663C35.4167 28.6401 35.4153 30.0309 35.3108 31.109C35.2081 32.1678 35.0152 32.7925 34.7142 33.2715C34.3479 33.8545 33.8549 34.3475 33.2719 34.7138C32.7928 35.0148 32.1682 35.2077 31.1093 35.3104C30.0313 35.415 28.6405 35.4163 26.6667 35.4163H13.3334C11.3596 35.4163 9.96882 35.415 8.89075 35.3104C7.83192 35.2077 7.20726 35.0148 6.72823 34.7138C6.14521 34.3475 5.65222 33.8545 5.28589 33.2715C4.98489 32.7925 4.79199 32.1678 4.6893 31.109C4.58475 30.0309 4.58338 28.6401 4.58338 26.6663C4.58338 24.6926 4.58475 23.3018 4.6893 22.2237C4.79199 21.1649 4.98489 20.5402 5.28589 20.0612C5.65222 19.4782 6.14521 18.9852 6.72823 18.6189Z" fill="#3EB9B5"/>
</svg>
