<svg width="48" height="52" viewBox="0 0 48 52" fill="none" xmlns="http://www.w3.org/2000/svg">
<path d="M33.8926 22.9914C34.8084 22.6825 35.3004 21.6896 34.9915 20.7738C34.6826 19.858 33.6897 19.366 32.7739 19.6749C31.0394 20.26 29.3601 21.3848 27.8654 22.6332C26.354 23.8956 24.9371 25.3646 23.7301 26.7426C22.7183 27.8977 21.8388 29.0063 21.158 29.9049C20.4917 29.0815 19.83 28.5108 19.214 28.1197C18.5307 27.6858 17.7991 27.3609 16.9999 27.3609C16.0334 27.3609 15.2499 28.1444 15.2499 29.1109C15.2499 30.0363 15.9681 30.7939 16.8776 30.8567C17.0417 30.8979 17.1963 30.9845 17.3379 31.0744C17.7958 31.3651 18.6253 32.0828 19.5338 33.8133C19.8209 34.3601 20.3749 34.7151 20.9916 34.7474C21.6081 34.7798 22.1963 34.4845 22.5391 33.9709L22.5414 33.9675L22.5529 33.9504L22.6031 33.8765C22.6484 33.8101 22.717 33.7103 22.8072 33.5813C22.9877 33.3232 23.2542 32.949 23.5926 32.4924C24.2707 31.5775 25.2313 30.3406 26.3629 29.0487C27.4977 27.7531 28.7831 26.427 30.109 25.3195C31.4516 24.1981 32.7447 23.3785 33.8926 22.9914Z" fill="#3EB9B5"/>
<path fill-rule="evenodd" clip-rule="evenodd" d="M25.7808 1.25787C24.6365 0.802065 23.3633 0.802065 22.219 1.25787C21.4987 1.54477 20.9438 2.02589 20.4601 2.53415C19.9968 3.02106 19.4816 3.66277 18.8848 4.40613L18.8404 4.46147C18.0525 5.44273 17.904 5.59092 17.7708 5.67473C17.5854 5.79144 17.3766 5.85959 17.1624 5.87509C17.0125 5.88594 16.808 5.85519 15.5845 5.52399L15.5173 5.50578C14.6111 5.26045 13.8293 5.04879 13.1795 4.92919C12.5027 4.80465 11.7819 4.74039 11.0421 4.92461C9.80056 5.23382 8.7357 6.02349 8.07134 7.11454C7.67875 7.75927 7.51866 8.45816 7.42779 9.14127C7.34064 9.7964 7.29932 10.6041 7.25132 11.5422L7.24781 11.6107C7.18442 12.8488 7.15196 13.0617 7.09226 13.2145C7.0055 13.4364 6.86579 13.6296 6.68871 13.7775C6.57106 13.8757 6.38842 13.9702 5.23295 14.4156L5.16881 14.4403C4.3021 14.7744 3.5544 15.0626 2.9646 15.3471C2.34945 15.6437 1.73774 16.0122 1.25063 16.586C0.404568 17.5825 -0.00752831 18.8772 0.100051 20.1788C0.161668 20.9243 0.438281 21.578 0.761709 22.1801C1.07153 22.7568 1.50584 23.4288 2.00994 24.2087L2.0469 24.2659C2.71061 25.293 2.80669 25.4807 2.84741 25.6373C2.90908 25.8745 2.90908 26.1242 2.84741 26.3614C2.80669 26.518 2.71061 26.7057 2.0469 27.7327L2.00997 27.7899C1.50585 28.5699 1.07154 29.2419 0.76171 29.8186C0.438282 30.4206 0.161668 31.0744 0.100051 31.8199C-0.00752831 33.1215 0.404567 34.4162 1.25063 35.4127C1.73774 35.9865 2.34945 36.355 2.9646 36.6516C3.55442 36.9361 4.30207 37.2243 5.16882 37.5584L5.23295 37.5831C6.38842 38.0285 6.57106 38.123 6.68871 38.2212C6.86579 38.3691 7.0055 38.5623 7.09226 38.7842C7.15196 38.937 7.18442 39.1499 7.24781 40.388L7.25131 40.4564C7.29931 41.3946 7.34064 42.2023 7.42779 42.8574C7.51866 43.5405 7.67875 44.2394 8.07134 44.8842C8.7357 45.9752 9.80056 46.7649 11.0421 47.0741C11.7819 47.2583 12.5027 47.194 13.1795 47.0695C13.8294 46.9499 14.6111 46.7382 15.5173 46.4929L15.5845 46.4747C16.808 46.1435 17.0125 46.1128 17.1624 46.1236C17.3766 46.1391 17.5854 46.2073 17.7708 46.324C17.904 46.4078 18.0525 46.556 18.8404 47.5372L18.8848 47.5926C19.4816 48.336 19.9968 48.9777 20.4601 49.4646C20.9438 49.9728 21.4987 50.4539 22.219 50.7408C23.3633 51.1966 24.6365 51.1966 25.7808 50.7408C26.5011 50.4539 27.056 49.9728 27.5397 49.4645C28.003 48.9777 28.5182 48.336 29.115 47.5927L29.1595 47.5372C29.9473 46.556 30.0959 46.4078 30.229 46.324C30.4145 46.2073 30.6232 46.1391 30.8374 46.1236C30.9873 46.1128 31.1918 46.1435 32.4153 46.4747L32.4825 46.4929C33.3886 46.7382 34.1705 46.9499 34.8204 47.0695C35.4971 47.194 36.218 47.2583 36.9577 47.0741C38.1993 46.7649 39.2641 45.9752 39.9285 44.8842C40.3211 44.2394 40.4812 43.5405 40.572 42.8574C40.6592 42.2023 40.7005 41.3947 40.7485 40.4566L40.752 40.388C40.8154 39.1499 40.8479 38.937 40.9076 38.7842C40.9943 38.5623 41.134 38.3691 41.3111 38.2212C41.4288 38.123 41.6114 38.0285 42.7669 37.5831L42.831 37.5584C43.6978 37.2243 44.4454 36.9361 45.0352 36.6516C45.6504 36.355 46.2621 35.9865 46.7492 35.4127C47.5953 34.4162 48.0074 33.1215 47.8998 31.8199C47.8382 31.0744 47.5616 30.4206 47.2381 29.8186C46.9283 29.242 46.494 28.57 45.99 27.7901L45.9529 27.7327C45.2892 26.7057 45.1932 26.518 45.1524 26.3614C45.0908 26.1242 45.0908 25.8745 45.1524 25.6373C45.1932 25.4807 45.2892 25.293 45.9529 24.2659L45.9899 24.2087C46.494 23.4288 46.9283 22.7567 47.2381 22.1801C47.5616 21.5781 47.8382 20.9243 47.8998 20.1788C48.0074 18.8772 47.5953 17.5825 46.7492 16.586C46.2621 16.0122 45.6504 15.6437 45.0352 15.3471C44.4454 15.0626 43.6977 14.7744 42.831 14.4403L42.7669 14.4156C41.6114 13.9702 41.4288 13.8757 41.3111 13.7775C41.134 13.6296 40.9943 13.4364 40.9076 13.2145C40.8479 13.0617 40.8154 12.8488 40.752 11.6107L40.7485 11.5423C40.7005 10.6041 40.6592 9.79638 40.572 9.14127C40.4812 8.45817 40.3211 7.75927 39.9285 7.11454C39.2641 6.02349 38.1993 5.23382 36.9577 4.92461C36.218 4.74039 35.4971 4.80465 34.8204 4.92919C34.1705 5.0488 33.3887 5.26046 32.4825 5.50579L32.4153 5.52399C31.1918 5.85519 30.9873 5.88594 30.8374 5.87509C30.6232 5.85959 30.4145 5.79144 30.229 5.67473C30.0959 5.59092 29.9473 5.44273 29.1595 4.46147L29.115 4.4061C28.5182 3.66276 28.003 3.02105 27.5397 2.53415C27.056 2.02589 26.5011 1.54477 25.7808 1.25787ZM23.5141 4.50942C23.8268 4.38488 24.173 4.38488 24.4857 4.50942C24.5227 4.52415 24.6638 4.58916 25.0042 4.94691C25.3535 5.31398 25.7765 5.83838 26.4303 6.65273L26.5593 6.81368C27.1346 7.53259 27.6667 8.19758 28.3647 8.63685C29.0338 9.05803 29.7958 9.30887 30.5848 9.36596C31.4092 9.42562 32.2376 9.19989 33.1278 8.95732L33.3298 8.90239C34.3223 8.63374 34.9633 8.46166 35.4539 8.37139C35.9336 8.28311 36.0802 8.31299 36.1119 8.32088C36.4497 8.405 36.7488 8.62225 36.9391 8.93484C36.964 8.97565 37.0381 9.11786 37.1026 9.6028C37.1687 10.0998 37.2041 10.7638 37.2566 11.7897L37.2667 11.9912C37.312 12.9021 37.3534 13.7358 37.6478 14.4888C37.9476 15.2556 38.4351 15.9356 39.0674 16.4637C39.6901 16.9838 40.473 17.2842 41.3183 17.6085L41.508 17.6814C42.457 18.0472 43.0693 18.2847 43.5148 18.4995C43.9494 18.7092 44.0551 18.8205 44.0811 18.8512C44.3216 19.1344 44.4432 19.5089 44.4117 19.8905C44.4076 19.9399 44.3835 20.0981 44.1549 20.5236C43.9202 20.9605 43.5648 21.513 43.0133 22.3663L42.9053 22.5331C42.4157 23.2883 41.9668 23.9805 41.7651 24.7565C41.5532 25.5713 41.5532 26.4274 41.7651 27.2422C41.9668 28.0182 42.4157 28.7104 42.9053 29.4656L43.0133 29.6324C43.5648 30.4857 43.9202 31.0382 44.1549 31.4751C44.3835 31.9006 44.4076 32.0588 44.4117 32.1082C44.4432 32.4898 44.3216 32.8643 44.0811 33.1475C44.0551 33.1782 43.9494 33.2895 43.5148 33.4992C43.0693 33.714 42.457 33.9515 41.508 34.3173L41.3183 34.3902C40.473 34.7146 39.6901 35.0149 39.0674 35.535C38.4351 36.0631 37.9476 36.7431 37.6478 37.5099C37.3534 38.263 37.312 39.0965 37.2667 40.0075L37.2566 40.209C37.2041 41.2349 37.1687 41.8989 37.1026 42.3959C37.0381 42.8808 36.964 43.023 36.9391 43.0639C36.7488 43.3764 36.4497 43.5937 36.1119 43.6778C36.0802 43.6857 35.9336 43.7156 35.4539 43.6273C34.9633 43.537 34.3223 43.365 33.3298 43.0963L33.1278 43.0414C32.2376 42.7988 31.4092 42.5731 30.5848 42.6327C29.7958 42.6898 29.0338 42.9407 28.3647 43.3619C27.6668 43.8011 27.1346 44.4661 26.5593 45.185L26.4303 45.346C25.7765 46.1603 25.3535 46.6847 25.0042 47.0518C24.6638 47.4095 24.5227 47.4745 24.4857 47.4893C24.173 47.6138 23.8268 47.6138 23.5141 47.4893C23.4772 47.4745 23.336 47.4095 22.9956 47.0518C22.6463 46.6847 22.2234 46.1603 21.5695 45.346L21.4406 45.185C20.8653 44.4661 20.3331 43.8011 19.6352 43.3619C18.966 42.9407 18.204 42.6898 17.415 42.6327C16.5906 42.5731 15.7622 42.7988 14.872 43.0414L14.67 43.0963C13.6776 43.365 13.0365 43.537 12.546 43.6273C12.0663 43.7156 11.9196 43.6857 11.8879 43.6778C11.5501 43.5937 11.2511 43.3764 11.0607 43.0639C11.0359 43.023 10.9617 42.8808 10.8972 42.3959C10.8311 41.8989 10.7958 41.2349 10.7432 40.209L10.7331 40.0075C10.6878 39.0966 10.6464 38.2629 10.352 37.5099C10.0523 36.7431 9.56471 36.0631 8.9324 35.535C8.30972 35.0149 7.52689 34.7146 6.6816 34.3903L6.49183 34.3173C5.54283 33.9515 4.93056 33.714 4.48507 33.4992C4.05041 33.2895 3.94478 33.1782 3.91873 33.1475C3.67827 32.8643 3.55662 32.4898 3.58816 32.1082C3.59224 32.0588 3.6163 31.9006 3.84493 31.4751C4.07961 31.0382 4.43507 30.4857 4.9865 29.6324L5.09459 29.4655C5.58418 28.7104 6.03301 28.0181 6.23477 27.2422C6.44663 26.4274 6.44663 25.5713 6.23477 24.7565C6.03301 23.9806 5.58418 23.2883 5.09459 22.5332L4.9865 22.3663C4.43507 21.513 4.07961 20.9605 3.84493 20.5236C3.6163 20.0981 3.59224 19.9399 3.58816 19.8905C3.55662 19.5089 3.67827 19.1344 3.91873 18.8512C3.94478 18.8205 4.05041 18.7092 4.48507 18.4995C4.93056 18.2847 5.54283 18.0472 6.49183 17.6814L6.68157 17.6085C7.52688 17.2841 8.30972 16.9838 8.9324 16.4637C9.56471 15.9356 10.0523 15.2556 10.352 14.4888C10.6464 13.7357 10.6878 12.9021 10.7331 11.9912L10.7432 11.7897C10.7958 10.7638 10.8311 10.0998 10.8972 9.60281C10.9617 9.11786 11.0359 8.97565 11.0607 8.93484C11.2511 8.62225 11.5501 8.405 11.8879 8.32088C11.9196 8.31299 12.0663 8.28311 12.546 8.37139C13.0365 8.46166 13.6776 8.63374 14.67 8.90239L14.872 8.95732C15.7622 9.19989 16.5906 9.42562 17.415 9.36596C18.204 9.30887 18.966 9.05803 19.6352 8.63685C20.3331 8.19758 20.8653 7.53259 21.4406 6.81368L21.5695 6.65273C22.2234 5.83838 22.6463 5.31398 22.9956 4.94691C23.336 4.58916 23.4772 4.52415 23.5141 4.50942Z" fill="#3EB9B5"/>
</svg>
