<svg width="40" height="40" viewBox="0 0 40 40" fill="none" xmlns="http://www.w3.org/2000/svg">
<g opacity="0.4">
<path d="M23.9113 5.20654C23.3334 6.14956 23.3334 7.43325 23.3334 10.0007C23.3334 12.568 23.3334 13.8517 23.9113 14.7948C24.2346 15.3224 24.6783 15.7661 25.2059 16.0894C26.1489 16.6673 27.4326 16.6673 30 16.6673C32.5674 16.6673 33.8511 16.6673 34.7942 16.0894C35.3218 15.7661 35.7655 15.3224 36.0888 14.7948C36.6667 13.8517 36.6667 12.568 36.6667 10.0007C36.6667 7.43325 36.6667 6.14956 36.0888 5.20654C35.7655 4.67887 35.3218 4.23522 34.7942 3.91187C33.8511 3.33398 32.5674 3.33398 30 3.33398C27.4326 3.33398 26.1489 3.33398 25.2059 3.91187C24.6783 4.23522 24.2346 4.67887 23.9113 5.20654Z" fill="#3EB9B5"/>
<path d="M3.91126 25.2065C3.33337 26.1496 3.33337 27.4333 3.33337 30.0007C3.33337 32.568 3.33337 33.8517 3.91126 34.7948C4.23461 35.3224 4.67826 35.7661 5.20593 36.0894C6.14895 36.6673 7.43264 36.6673 10 36.6673C12.5674 36.6673 13.8511 36.6673 14.7942 36.0894C15.3218 35.7661 15.7655 35.3224 16.0888 34.7948C16.6667 33.8517 16.6667 32.568 16.6667 30.0007C16.6667 27.4333 16.6667 26.1496 16.0888 25.2065C15.7655 24.6789 15.3218 24.2352 14.7942 23.9119C13.8511 23.334 12.5674 23.334 10 23.334C7.43264 23.334 6.14895 23.334 5.20593 23.9119C4.67826 24.2352 4.23461 24.6789 3.91126 25.2065Z" fill="#3EB9B5"/>
</g>
<path fill-rule="evenodd" clip-rule="evenodd" d="M30.061 2.08399H29.9391C28.7072 2.08396 27.6947 2.08395 26.8755 2.16183C26.0243 2.24277 25.2537 2.41654 24.5528 2.84607C23.8569 3.27249 23.2719 3.85755 22.8455 4.55342C22.4159 5.25434 22.2422 6.02491 22.1612 6.87614C22.0833 7.69529 22.0834 8.70781 22.0834 9.93972V10.0616C22.0834 11.2935 22.0833 12.306 22.1612 13.1252C22.2422 13.9764 22.4159 14.747 22.8455 15.4479C23.2719 16.1438 23.8569 16.7288 24.5528 17.1552C25.2537 17.5848 26.0243 17.7585 26.8755 17.8395C27.6947 17.9174 28.7072 17.9173 29.9391 17.9173H30.061C31.2929 17.9173 32.3054 17.9174 33.1246 17.8395C33.9758 17.7585 34.7464 17.5848 35.4473 17.1552C36.1431 16.7288 36.7282 16.1438 37.1546 15.4479C37.5842 14.747 37.7579 13.9764 37.8389 13.1252C37.9167 12.306 37.9167 11.2935 37.9167 10.0616V9.93972C37.9167 8.70782 37.9167 7.69529 37.8389 6.87614C37.7579 6.02491 37.5842 5.25434 37.1546 4.55342C36.7282 3.85755 36.1431 3.27249 35.4473 2.84607C34.7464 2.41654 33.9758 2.24277 33.1246 2.16183C32.3054 2.08395 31.2929 2.08396 30.061 2.08399ZM25.8591 4.97767C26.1011 4.82931 26.4439 4.71414 27.1122 4.65061C27.799 4.5853 28.6921 4.58399 30 4.58399C31.3079 4.58399 32.2011 4.5853 32.8879 4.65061C33.5562 4.71414 33.8989 4.82931 34.141 4.97767C34.5005 5.19795 34.8027 5.50019 35.023 5.85966C35.1714 6.10176 35.2865 6.44454 35.3501 7.11277C35.4154 7.7996 35.4167 8.69275 35.4167 10.0007C35.4167 11.3086 35.4154 12.2017 35.3501 12.8885C35.2865 13.5568 35.1714 13.8995 35.023 14.1416C34.8027 14.5011 34.5005 14.8034 34.141 15.0236C33.8989 15.172 33.5562 15.2872 32.8879 15.3507C32.2011 15.416 31.3079 15.4173 30 15.4173C28.6921 15.4173 27.799 15.416 27.1122 15.3507C26.4439 15.2872 26.1011 15.172 25.8591 15.0236C25.4996 14.8034 25.1973 14.5011 24.9771 14.1416C24.8287 13.8995 24.7135 13.5568 24.65 12.8885C24.5847 12.2017 24.5834 11.3086 24.5834 10.0007C24.5834 8.69275 24.5847 7.7996 24.65 7.11277C24.7135 6.44454 24.8287 6.10176 24.9771 5.85966C25.1973 5.50019 25.4996 5.19795 25.8591 4.97767Z" fill="#3EB9B5"/>
<path fill-rule="evenodd" clip-rule="evenodd" d="M9.93913 2.08399H10.061C11.2929 2.08396 12.3054 2.08395 13.1246 2.16183C13.9758 2.24277 14.7464 2.41654 15.4473 2.84607C16.1431 3.27249 16.7282 3.85755 17.1546 4.55342C17.5842 5.25434 17.7579 6.02491 17.8389 6.87614C17.9167 7.69528 17.9167 8.70779 17.9167 9.93967V10.0616C17.9167 11.2935 17.9167 12.306 17.8389 13.1252C17.7579 13.9764 17.5842 14.747 17.1546 15.4479C16.7282 16.1438 16.1431 16.7288 15.4473 17.1552C14.7464 17.5848 13.9758 17.7585 13.1246 17.8395C12.3054 17.9174 11.2929 17.9173 10.061 17.9173H9.93911C8.70723 17.9173 7.69467 17.9174 6.87553 17.8395C6.0243 17.7585 5.25373 17.5848 4.55281 17.1552C3.85694 16.7288 3.27188 16.1438 2.84546 15.4479C2.41593 14.747 2.24216 13.9764 2.16122 13.1252C2.08334 12.306 2.08335 11.2935 2.08337 10.0616V9.93974C2.08335 8.70784 2.08334 7.69529 2.16122 6.87614C2.24216 6.02491 2.41593 5.25434 2.84546 4.55342C3.27188 3.85755 3.85694 3.27249 4.55281 2.84607C5.25373 2.41654 6.0243 2.24277 6.87553 2.16183C7.69468 2.08395 8.70723 2.08396 9.93913 2.08399ZM7.11216 4.65061C6.44393 4.71414 6.10115 4.82931 5.85905 4.97767C5.49958 5.19795 5.19734 5.50019 4.97706 5.85966C4.8287 6.10176 4.71353 6.44454 4.65 7.11277C4.58469 7.7996 4.58338 8.69275 4.58338 10.0007C4.58338 11.3086 4.58469 12.2017 4.65 12.8885C4.71353 13.5568 4.8287 13.8995 4.97706 14.1416C5.19734 14.5011 5.49958 14.8034 5.85905 15.0236C6.10115 15.172 6.44393 15.2872 7.11216 15.3507C7.79899 15.416 8.69214 15.4173 10 15.4173C11.3079 15.4173 12.2011 15.416 12.8879 15.3507C13.5562 15.2872 13.8989 15.172 14.141 15.0236C14.5005 14.8034 14.8027 14.5011 15.023 14.1416C15.1714 13.8995 15.2866 13.5568 15.3501 12.8885C15.4154 12.2017 15.4167 11.3086 15.4167 10.0007C15.4167 8.69275 15.4154 7.7996 15.3501 7.11277C15.2866 6.44454 15.1714 6.10176 15.023 5.85966C14.8027 5.50019 14.5005 5.19795 14.141 4.97767C13.8989 4.82931 13.5562 4.71414 12.8879 4.65061C12.2011 4.5853 11.3079 4.58399 10 4.58399C8.69214 4.58399 7.79899 4.5853 7.11216 4.65061Z" fill="#3EB9B5"/>
<path fill-rule="evenodd" clip-rule="evenodd" d="M9.93913 22.084C8.70725 22.084 7.69467 22.0839 6.87553 22.1618C6.0243 22.2428 5.25373 22.4165 4.55281 22.8461C3.85694 23.2725 3.27188 23.8576 2.84546 24.5534C2.41593 25.2543 2.24216 26.0249 2.16122 26.8761C2.08334 27.6953 2.08335 28.7078 2.08337 29.9397V30.0616C2.08335 31.2935 2.08334 32.306 2.16122 33.1252C2.24216 33.9764 2.41593 34.747 2.84546 35.4479C3.27188 36.1437 3.85694 36.7288 4.55281 37.1552C5.25373 37.5848 6.0243 37.7585 6.87553 37.8395C7.69468 37.9174 8.70721 37.9173 9.93911 37.9173H10.061C11.2929 37.9173 12.3054 37.9174 13.1246 37.8395C13.9758 37.7585 14.7464 37.5848 15.4473 37.1552C16.1431 36.7288 16.7282 36.1437 17.1546 35.4479C17.5842 34.747 17.7579 33.9764 17.8389 33.1252C17.9167 32.306 17.9167 31.2935 17.9167 30.0616V29.9397C17.9167 28.7078 17.9167 27.6953 17.8389 26.8761C17.7579 26.0249 17.5842 25.2543 17.1546 24.5534C16.7282 23.8576 16.1431 23.2725 15.4473 22.8461C14.7464 22.4165 13.9758 22.2428 13.1246 22.1618C12.3054 22.0839 11.2929 22.084 10.061 22.084H9.93913ZM5.85905 24.9777C6.10115 24.8293 6.44393 24.7141 7.11216 24.6506C7.79899 24.5853 8.69214 24.584 10 24.584C11.3079 24.584 12.2011 24.5853 12.8879 24.6506C13.5562 24.7141 13.8989 24.8293 14.141 24.9777C14.5005 25.198 14.8027 25.5002 15.023 25.8597C15.1714 26.1018 15.2866 26.4445 15.3501 27.1128C15.4154 27.7996 15.4167 28.6927 15.4167 30.0007C15.4167 31.3086 15.4154 32.2017 15.3501 32.8885C15.2866 33.5568 15.1714 33.8995 15.023 34.1416C14.8027 34.5011 14.5005 34.8034 14.141 35.0236C13.8989 35.172 13.5562 35.2872 12.8879 35.3507C12.2011 35.416 11.3079 35.4173 10 35.4173C8.69214 35.4173 7.79899 35.416 7.11216 35.3507C6.44393 35.2872 6.10115 35.172 5.85905 35.0236C5.49958 34.8034 5.19734 34.5011 4.97706 34.1416C4.8287 33.8995 4.71353 33.5568 4.65 32.8885C4.58469 32.2017 4.58338 31.3086 4.58338 30.0007C4.58338 28.6927 4.58469 27.7996 4.65 27.1128C4.71353 26.4445 4.8287 26.1018 4.97706 25.8597C5.19734 25.5002 5.49958 25.198 5.85905 24.9777Z" fill="#3EB9B5"/>
<path fill-rule="evenodd" clip-rule="evenodd" d="M33.1246 22.1618C32.3054 22.0839 31.2929 22.084 30.061 22.084H29.9391C28.7072 22.084 27.6947 22.0839 26.8755 22.1618C26.0243 22.2428 25.2537 22.4165 24.5528 22.8461C23.8569 23.2725 23.2719 23.8576 22.8455 24.5534C22.4159 25.2543 22.2422 26.0249 22.1612 26.8761C22.0833 27.6953 22.0834 28.7078 22.0834 29.9397V30.0616C22.0834 31.2935 22.0833 32.306 22.1612 33.1252C22.2422 33.9764 22.4159 34.747 22.8455 35.4479C23.2719 36.1437 23.8569 36.7288 24.5528 37.1552C25.2537 37.5848 26.0243 37.7585 26.8755 37.8395C27.6947 37.9174 28.7072 37.9173 29.9391 37.9173H30.061C31.2929 37.9173 32.3054 37.9174 33.1246 37.8395C33.9758 37.7585 34.7464 37.5848 35.4473 37.1552C36.1431 36.7288 36.7282 36.1437 37.1546 35.4479C37.5842 34.747 37.7579 33.9764 37.8389 33.1252C37.9167 32.306 37.9167 31.2935 37.9167 30.0616V29.9397C37.9167 28.7078 37.9167 27.6953 37.8389 26.8761C37.7579 26.0249 37.5842 25.2543 37.1546 24.5534C36.7282 23.8576 36.1431 23.2725 35.4473 22.8461C34.7464 22.4165 33.9758 22.2428 33.1246 22.1618ZM25.8591 24.9777C26.1011 24.8293 26.4439 24.7141 27.1122 24.6506C27.799 24.5853 28.6921 24.584 30 24.584C31.3079 24.584 32.2011 24.5853 32.8879 24.6506C33.5562 24.7141 33.8989 24.8293 34.141 24.9777C34.5005 25.198 34.8027 25.5002 35.023 25.8597C35.1714 26.1018 35.2865 26.4445 35.3501 27.1128C35.4154 27.7996 35.4167 28.6927 35.4167 30.0007C35.4167 31.3086 35.4154 32.2017 35.3501 32.8885C35.2865 33.5568 35.1714 33.8995 35.023 34.1416C34.8027 34.5011 34.5005 34.8034 34.141 35.0236C33.8989 35.172 33.5562 35.2872 32.8879 35.3507C32.2011 35.416 31.3079 35.4173 30 35.4173C28.6921 35.4173 27.799 35.416 27.1122 35.3507C26.4439 35.2872 26.1011 35.172 25.8591 35.0236C25.4996 34.8034 25.1973 34.5011 24.9771 34.1416C24.8287 33.8995 24.7135 33.5568 24.65 32.8885C24.5847 32.2017 24.5834 31.3086 24.5834 30.0007C24.5834 28.6927 24.5847 27.7996 24.65 27.1128C24.7135 26.4445 24.8287 26.1018 24.9771 25.8597C25.1973 25.5002 25.4996 25.198 25.8591 24.9777Z" fill="#3EB9B5"/>
</svg>
