<svg width="46" height="46" viewBox="0 0 46 46" fill="none" xmlns="http://www.w3.org/2000/svg">
<path opacity="0.4" d="M20.6205 18.8373L32.8328 6.625L39.3744 13.1666L27.162 25.3789C24.723 27.8179 23.5035 29.0375 22.0174 29.8679C20.5313 30.6983 17.0222 31.5338 13.6666 32.3328C14.4656 28.9772 15.3011 25.4681 16.1315 23.982C16.9619 22.4959 18.1815 21.2764 20.6205 18.8373Z" fill="#3EB9B5"/>
<path d="M23 0.250001H22.8671C18.03 0.249968 14.2213 0.249942 11.2455 0.650029C8.19211 1.06054 5.75498 1.92091 3.83794 3.83794C1.92091 5.75498 1.06054 8.19211 0.650029 11.2455C0.249942 14.2213 0.249968 18.03 0.250001 22.8671V23.1329C0.249968 27.97 0.249942 31.7787 0.650029 34.7545C1.06054 37.8079 1.92091 40.245 3.83794 42.1621C5.75498 44.0791 8.19211 44.9395 11.2455 45.35C14.2213 45.7501 18.0301 45.75 22.8671 45.75H23.1329C27.97 45.75 31.7787 45.7501 34.7545 45.35C37.8079 44.9395 40.245 44.0791 42.1621 42.1621C44.0791 40.245 44.9395 37.8079 45.35 34.7545C45.7501 31.7787 45.75 27.97 45.75 23.1329V23C45.75 22.0335 44.9665 21.25 44 21.25C43.0335 21.25 42.25 22.0335 42.25 23C42.25 27.9992 42.2463 31.5726 41.8812 34.2882C41.5229 36.9534 40.8455 38.5288 39.6872 39.6872C38.5288 40.8455 36.9534 41.5228 34.2882 41.8812C31.5726 42.2463 27.9992 42.25 23 42.25C18.0008 42.25 14.4274 42.2463 11.7118 41.8812C9.04659 41.5228 7.47116 40.8455 6.31282 39.6872C5.15447 38.5288 4.47715 36.9534 4.11882 34.2882C3.75372 31.5726 3.75 27.9992 3.75 23C3.75 18.0008 3.75372 14.4274 4.11882 11.7118C4.47715 9.04659 5.15447 7.47116 6.31282 6.31282C7.47116 5.15447 9.04659 4.47715 11.7118 4.11882C14.4274 3.75372 18.0008 3.75 23 3.75C23.9665 3.75 24.75 2.9665 24.75 2C24.75 1.0335 23.9665 0.250001 23 0.250001Z" fill="#3EB9B5"/>
<path fill-rule="evenodd" clip-rule="evenodd" d="M43.8827 2.11736C41.3929 -0.372456 37.3561 -0.372453 34.8662 2.11737L19.1954 17.7882C16.9353 20.0477 15.554 21.4287 14.6039 23.1289C14.074 24.0773 13.611 25.5158 13.2014 26.9878C12.78 28.502 12.3652 30.2444 11.9692 31.9076L11.9643 31.928C11.8235 32.5192 11.9996 33.1411 12.4293 33.5708C12.859 34.0005 13.4809 34.1765 14.072 34.0357L14.0923 34.0309C15.7556 33.6349 17.498 33.2201 19.0123 32.7986C20.4843 32.389 21.9227 31.9261 22.8711 31.3961C24.5713 30.4461 25.9523 29.0648 28.2119 26.8046L43.8827 11.1338C46.3725 8.64397 46.3725 4.60718 43.8827 2.11736ZM37.3411 4.59224C38.4641 3.46925 40.2848 3.46925 41.4078 4.59224C42.5308 5.71522 42.5308 7.53593 41.4078 8.65892L39.3745 10.6923L35.3078 6.62558L37.3411 4.59224ZM32.8329 9.10045L36.8996 13.1671L25.9247 24.142C23.4184 26.6483 22.3892 27.6561 21.1638 28.3408C20.6261 28.6413 19.5669 29.0113 18.074 29.4268C17.436 29.6043 16.7517 29.7816 16.0412 29.9588C16.2185 29.2483 16.3957 28.564 16.5733 27.9261C16.9887 26.4331 17.3587 25.374 17.6592 24.8362C18.344 23.6109 19.3518 22.5816 21.858 20.0754L32.8329 9.10045Z" fill="#3EB9B5"/>
</svg>
