<svg width="56" height="56" viewBox="0 0 56 56" fill="none" xmlns="http://www.w3.org/2000/svg">
<path opacity="0.4" d="M5.83325 27.9993C5.83325 34.599 5.83325 37.8988 7.8835 39.9491C9.93376 41.9993 13.2336 41.9993 19.8333 41.9993H36.1666C42.7663 41.9993 46.0661 41.9993 48.1163 39.9491C50.1666 37.8988 50.1666 34.599 50.1666 27.9993V18.666C50.1666 12.0664 50.1666 8.76652 48.1163 6.71627C46.0661 4.66602 42.7663 4.66602 36.1666 4.66602H19.8333C13.2336 4.66602 9.93376 4.66602 7.8835 6.71627C5.83325 8.76652 5.83325 12.0664 5.83325 18.666V27.9993Z" fill="#3EB9B5"/>
<path d="M29.7499 16.3327C29.7499 15.3662 28.9664 14.5827 27.9999 14.5827C27.0334 14.5827 26.2499 15.3662 26.2499 16.3327V30.3327C26.2499 31.2992 27.0334 32.0827 27.9999 32.0827C28.9664 32.0827 29.7499 31.2992 29.7499 30.3327V16.3327Z" fill="#3EB9B5"/>
<path d="M20.4166 23.3327C20.4166 22.3662 19.6331 21.5827 18.6666 21.5827C17.7001 21.5827 16.9166 22.3662 16.9166 23.3327V30.3327C16.9166 31.2992 17.7001 32.0827 18.6666 32.0827C19.6331 32.0827 20.4166 31.2992 20.4166 30.3327V23.3327Z" fill="#3EB9B5"/>
<path d="M39.0833 25.666C39.0833 24.6995 38.2998 23.916 37.3333 23.916C36.3668 23.916 35.5833 24.6995 35.5833 25.666V30.3327C35.5833 31.2992 36.3668 32.0827 37.3333 32.0827C38.2998 32.0827 39.0833 31.2992 39.0833 30.3327V25.666Z" fill="#3EB9B5"/>
<path fill-rule="evenodd" clip-rule="evenodd" d="M19.7052 2.91602H36.2946C39.4857 2.91597 42.0578 2.91593 44.0807 3.18791C46.1809 3.47028 47.9493 4.07436 49.3538 5.47883C50.7582 6.88331 51.3623 8.65168 51.6447 10.7519C51.9167 12.7749 51.9166 15.3469 51.9166 18.538V28.1274C51.9166 31.3184 51.9167 33.8905 51.6447 35.9134C51.3623 38.0137 50.7582 39.7821 49.3538 41.1865C47.9493 42.591 46.1809 43.1951 44.0807 43.4775C42.0577 43.7494 39.4857 43.7494 36.2946 43.7494H29.7499V46.0836C31.0728 46.0907 32.1691 46.1491 33.1887 46.5715C34.3751 47.0629 35.2865 47.976 36.438 49.1297L37.4036 50.0956C38.087 50.779 38.087 51.8871 37.4036 52.5705C36.7202 53.2539 35.6121 53.2539 34.9287 52.5705L34.1624 51.8041C32.7126 50.3544 32.3105 49.9961 31.8493 49.805C31.4693 49.6476 31.0373 49.5989 29.7499 49.5866V51.3327C29.7499 52.2992 28.9664 53.0827 27.9999 53.0827C27.0334 53.0827 26.2499 52.2992 26.2499 51.3327V49.5866C24.9619 49.5989 24.5299 49.6476 24.1497 49.8051C23.6885 49.9962 23.2864 50.3545 21.8366 51.8045L21.0708 52.5704C20.3874 53.2538 19.2794 53.2539 18.5959 52.5705C17.9124 51.8872 17.9124 50.7791 18.5957 50.0957L19.5608 49.1302C20.7124 47.9763 21.6238 47.063 22.8102 46.5715C23.8301 46.1491 24.9267 46.0907 26.2499 46.0836V43.7494H19.7052C16.5142 43.7494 13.9421 43.7494 11.9192 43.4775C9.81892 43.1951 8.05054 42.591 6.64607 41.1865C5.2416 39.7821 4.63751 38.0137 4.35514 35.9134C4.08317 33.8905 4.08321 31.3185 4.08325 28.1274V18.538C4.08321 15.347 4.08317 12.7748 4.35514 10.7519C4.63751 8.65168 5.2416 6.88331 6.64607 5.47883C8.05054 4.07436 9.81892 3.47028 11.9192 3.18791C13.9421 2.91593 16.5142 2.91597 19.7052 2.91602ZM36.1666 40.2494H28.0039L27.9999 40.2493L27.9959 40.2494H19.8333C16.484 40.2494 14.148 40.2456 12.3855 40.0087C10.6734 39.7785 9.76673 39.3574 9.12094 38.7117C8.47516 38.0659 8.05412 37.1592 7.82393 35.4471C7.58697 33.6846 7.58326 31.3487 7.58326 27.9994V18.666C7.58326 15.3167 7.58697 12.9808 7.82393 11.2183C8.05412 9.50616 8.47516 8.59949 9.12094 7.95371C9.76673 7.30793 10.6734 6.88689 12.3855 6.6567C14.148 6.41974 16.484 6.41602 19.8333 6.41602H36.1666C39.5159 6.41602 41.8518 6.41974 43.6143 6.6567C45.3265 6.88689 46.2331 7.30793 46.8789 7.95371C47.5247 8.59949 47.9457 9.50616 48.1759 11.2183C48.4129 12.9808 48.4166 15.3167 48.4166 18.666V27.9994C48.4166 31.3487 48.4129 33.6846 48.1759 35.4471C47.9457 37.1592 47.5247 38.0659 46.8789 38.7117C46.2331 39.3574 45.3265 39.7785 43.6143 40.0087C41.8518 40.2456 39.5159 40.2494 36.1666 40.2494Z" fill="#3EB9B5"/>
</svg>
