<svg width="25" height="24" viewBox="0 0 25 24" fill="none" xmlns="http://www.w3.org/2000/svg">
<g clip-path="url(#clip0_492_1925)">
<path d="M6.5835 18.1112L10.396 14.3225L12.896 16.8225L17.9585 11.7662V14.625H19.2085V9.625H14.2085V10.875H17.066L12.896 15.0462L10.396 12.5462L5.7235 17.25L6.5835 18.1112ZM4.3535 24C3.77766 24 3.29725 23.8075 2.91225 23.4225C2.52725 23.0375 2.33433 22.5567 2.3335 21.98V6.02C2.3335 5.44417 2.52641 4.96375 2.91225 4.57875C3.29808 4.19375 3.7785 4.00083 4.3535 4H20.3147C20.8897 4 21.3702 4.19292 21.756 4.57875C22.1418 4.96458 22.3343 5.445 22.3335 6.02V21.9812C22.3335 22.5562 22.141 23.0367 21.756 23.4225C21.371 23.8083 20.8902 24.0008 20.3135 24H4.3535ZM4.3535 22.75H20.3147C20.5064 22.75 20.6827 22.67 20.8435 22.51C21.0043 22.35 21.0843 22.1733 21.0835 21.98V6.02C21.0835 5.8275 21.0035 5.65083 20.8435 5.49C20.6835 5.32917 20.5068 5.24917 20.3135 5.25H4.3535C4.161 5.25 3.98433 5.33 3.8235 5.49C3.66266 5.65 3.58266 5.82667 3.5835 6.02V21.9812C3.5835 22.1729 3.6635 22.3492 3.8235 22.51C3.9835 22.6708 4.15975 22.7508 4.35225 22.75" fill="url(#paint0_linear_492_1925)"/>
</g>
<defs>
<linearGradient id="paint0_linear_492_1925" x1="-38.8389" y1="46.4837" x2="19.4315" y2="-7.93118" gradientUnits="userSpaceOnUse">
<stop offset="0.588191" stop-color="#2C65AA"/>
<stop offset="0.893191" stop-color="#3FB6B4"/>
</linearGradient>
<clipPath id="clip0_492_1925">
<rect width="24" height="24" fill="white" transform="translate(0.333496)"/>
</clipPath>
</defs>
</svg>
