<svg width="25" height="24" viewBox="0 0 25 24" fill="none" xmlns="http://www.w3.org/2000/svg">
<g clip-path="url(#clip0_492_7189)">
<path fill-rule="evenodd" clip-rule="evenodd" d="M12.6668 8.25C12.8326 8.25 12.9915 8.31585 13.1087 8.43306C13.226 8.55027 13.2918 8.70924 13.2918 8.875V13.6163L14.7243 12.1825C14.8417 12.0651 15.0008 11.9992 15.1668 11.9992C15.3328 11.9992 15.4919 12.0651 15.6093 12.1825C15.7267 12.2999 15.7926 12.459 15.7926 12.625C15.7926 12.791 15.7267 12.9501 15.6093 13.0675L13.1093 15.5675C13.0512 15.6257 12.9823 15.6719 12.9063 15.7034C12.8304 15.7349 12.749 15.7511 12.6668 15.7511C12.5846 15.7511 12.5032 15.7349 12.4273 15.7034C12.3513 15.6719 12.2824 15.6257 12.2243 15.5675L9.72431 13.0675C9.6662 13.0094 9.6201 12.9404 9.58865 12.8645C9.5572 12.7886 9.54102 12.7072 9.54102 12.625C9.54102 12.5428 9.5572 12.4614 9.58865 12.3855C9.6201 12.3096 9.6662 12.2406 9.72431 12.1825C9.84166 12.0651 10.0008 11.9992 10.1668 11.9992C10.249 11.9992 10.3304 12.0154 10.4063 12.0468C10.4822 12.0783 10.5512 12.1244 10.6093 12.1825L12.0418 13.6163V8.875C12.0418 8.70924 12.1077 8.55027 12.2249 8.43306C12.3421 8.31585 12.501 8.25 12.6668 8.25Z" fill="url(#paint0_linear_492_7189)"/>
<path d="M6.41699 2H18.917C19.58 2 20.2159 2.26339 20.6848 2.73223C21.1536 3.20107 21.417 3.83696 21.417 4.5V19.5C21.417 20.163 21.1536 20.7989 20.6848 21.2678C20.2159 21.7366 19.58 22 18.917 22H6.41699C5.75395 22 5.11807 21.7366 4.64923 21.2678C4.18038 20.7989 3.91699 20.163 3.91699 19.5V18.25H5.16699V19.5C5.16699 19.8315 5.29869 20.1495 5.53311 20.3839C5.76753 20.6183 6.08547 20.75 6.41699 20.75H18.917C19.2485 20.75 19.5665 20.6183 19.8009 20.3839C20.0353 20.1495 20.167 19.8315 20.167 19.5V4.5C20.167 4.16848 20.0353 3.85054 19.8009 3.61612C19.5665 3.3817 19.2485 3.25 18.917 3.25H6.41699C6.08547 3.25 5.76753 3.3817 5.53311 3.61612C5.29869 3.85054 5.16699 4.16848 5.16699 4.5V5.75H3.91699V4.5C3.91699 3.83696 4.18038 3.20107 4.64923 2.73223C5.11807 2.26339 5.75395 2 6.41699 2Z" fill="url(#paint1_linear_492_7189)"/>
<path d="M3.91699 8.25V7.625C3.91699 7.45924 3.98284 7.30027 4.10005 7.18306C4.21726 7.06585 4.37623 7 4.54199 7C4.70775 7 4.86672 7.06585 4.98393 7.18306C5.10114 7.30027 5.16699 7.45924 5.16699 7.625V8.25H5.79199C5.95775 8.25 6.11672 8.31585 6.23393 8.43306C6.35114 8.55027 6.41699 8.70924 6.41699 8.875C6.41699 9.04076 6.35114 9.19973 6.23393 9.31694C6.11672 9.43415 5.95775 9.5 5.79199 9.5H3.29199C3.12623 9.5 2.96726 9.43415 2.85005 9.31694C2.73284 9.19973 2.66699 9.04076 2.66699 8.875C2.66699 8.70924 2.73284 8.55027 2.85005 8.43306C2.96726 8.31585 3.12623 8.25 3.29199 8.25H3.91699ZM3.91699 12V11.375C3.91699 11.2092 3.98284 11.0503 4.10005 10.9331C4.21726 10.8158 4.37623 10.75 4.54199 10.75C4.70775 10.75 4.86672 10.8158 4.98393 10.9331C5.10114 11.0503 5.16699 11.2092 5.16699 11.375V12H5.79199C5.95775 12 6.11672 12.0658 6.23393 12.1831C6.35114 12.3003 6.41699 12.4592 6.41699 12.625C6.41699 12.7908 6.35114 12.9497 6.23393 13.0669C6.11672 13.1842 5.95775 13.25 5.79199 13.25H3.29199C3.12623 13.25 2.96726 13.1842 2.85005 13.0669C2.73284 12.9497 2.66699 12.7908 2.66699 12.625C2.66699 12.4592 2.73284 12.3003 2.85005 12.1831C2.96726 12.0658 3.12623 12 3.29199 12H3.91699ZM3.91699 15.75V15.125C3.91699 14.9592 3.98284 14.8003 4.10005 14.6831C4.21726 14.5658 4.37623 14.5 4.54199 14.5C4.70775 14.5 4.86672 14.5658 4.98393 14.6831C5.10114 14.8003 5.16699 14.9592 5.16699 15.125V15.75H5.79199C5.95775 15.75 6.11672 15.8158 6.23393 15.9331C6.35114 16.0503 6.41699 16.2092 6.41699 16.375C6.41699 16.5408 6.35114 16.6997 6.23393 16.8169C6.11672 16.9342 5.95775 17 5.79199 17H3.29199C3.12623 17 2.96726 16.9342 2.85005 16.8169C2.73284 16.6997 2.66699 16.5408 2.66699 16.375C2.66699 16.2092 2.73284 16.0503 2.85005 15.9331C2.96726 15.8158 3.12623 15.75 3.29199 15.75H3.91699Z" fill="url(#paint2_linear_492_7189)"/>
</g>
<defs>
<linearGradient id="paint0_linear_492_7189" x1="-3.32861" y1="24.1837" x2="17.9066" y2="7.65692" gradientUnits="userSpaceOnUse">
<stop offset="0.588191" stop-color="#2C65AA"/>
<stop offset="0.893191" stop-color="#3FB6B4"/>
</linearGradient>
<linearGradient id="paint1_linear_492_7189" x1="-32.1089" y1="44.4837" x2="25.1265" y2="-2.28365" gradientUnits="userSpaceOnUse">
<stop offset="0.588191" stop-color="#2C65AA"/>
<stop offset="0.893191" stop-color="#3FB6B4"/>
</linearGradient>
<linearGradient id="paint2_linear_492_7189" x1="-5.05284" y1="28.2418" x2="13.1663" y2="21.8617" gradientUnits="userSpaceOnUse">
<stop offset="0.588191" stop-color="#2C65AA"/>
<stop offset="0.893191" stop-color="#3FB6B4"/>
</linearGradient>
<clipPath id="clip0_492_7189">
<rect width="20" height="20" fill="white" transform="translate(2.66699 2)"/>
</clipPath>
</defs>
</svg>
