<svg width="40" height="40" viewBox="0 0 40 40" fill="none" xmlns="http://www.w3.org/2000/svg">
<g clip-path="url(#clip0_492_6114)">
<g clip-path="url(#clip1_492_6114)">
<g clip-path="url(#clip2_492_6114)">
<g clip-path="url(#clip3_492_6114)">
<path d="M36.5 18.5H34.9235C34.5732 15.0593 33.0463 11.8448 30.6008 9.39922C28.1552 6.95366 24.9407 5.42684 21.5 5.0765V3.5C21.5 3.10218 21.342 2.72064 21.0607 2.43934C20.7794 2.15804 20.3978 2 20 2C19.6022 2 19.2206 2.15804 18.9393 2.43934C18.658 2.72064 18.5 3.10218 18.5 3.5V5.0765C15.0593 5.42684 11.8448 6.95366 9.39922 9.39922C6.95366 11.8448 5.42684 15.0593 5.0765 18.5H3.5C3.10218 18.5 2.72064 18.658 2.43934 18.9393C2.15804 19.2206 2 19.6022 2 20C2 20.3978 2.15804 20.7794 2.43934 21.0607C2.72064 21.342 3.10218 21.5 3.5 21.5H5.0765C5.42684 24.9407 6.95366 28.1552 9.39922 30.6008C11.8448 33.0463 15.0593 34.5732 18.5 34.9235V36.5C18.5 36.8978 18.658 37.2794 18.9393 37.5607C19.2206 37.842 19.6022 38 20 38C20.3978 38 20.7794 37.842 21.0607 37.5607C21.342 37.2794 21.5 36.8978 21.5 36.5V34.9235C24.9407 34.5732 28.1552 33.0463 30.6008 30.6008C33.0463 28.1552 34.5732 24.9407 34.9235 21.5H36.5C36.8978 21.5 37.2794 21.342 37.5607 21.0607C37.842 20.7794 38 20.3978 38 20C38 19.6022 37.842 19.2206 37.5607 18.9393C37.2794 18.658 36.8978 18.5 36.5 18.5ZM21.5 31.8965V30.5C21.5 30.1022 21.342 29.7206 21.0607 29.4393C20.7794 29.158 20.3978 29 20 29C19.6022 29 19.2206 29.158 18.9393 29.4393C18.658 29.7206 18.5 30.1022 18.5 30.5V31.8965C15.8603 31.56 13.407 30.3564 11.5253 28.4747C9.6436 26.593 8.44003 24.1397 8.1035 21.5H9.5C9.89782 21.5 10.2794 21.342 10.5607 21.0607C10.842 20.7794 11 20.3978 11 20C11 19.6022 10.842 19.2206 10.5607 18.9393C10.2794 18.658 9.89782 18.5 9.5 18.5H8.1035C8.44003 15.8603 9.6436 13.407 11.5253 11.5253C13.407 9.6436 15.8603 8.44003 18.5 8.1035V9.5C18.5 9.89782 18.658 10.2794 18.9393 10.5607C19.2206 10.842 19.6022 11 20 11C20.3978 11 20.7794 10.842 21.0607 10.5607C21.342 10.2794 21.5 9.89782 21.5 9.5V8.1035C24.1397 8.44003 26.593 9.6436 28.4747 11.5253C30.3564 13.407 31.56 15.8603 31.8965 18.5H30.5C30.1022 18.5 29.7206 18.658 29.4393 18.9393C29.158 19.2206 29 19.6022 29 20C29 20.3978 29.158 20.7794 29.4393 21.0607C29.7206 21.342 30.1022 21.5 30.5 21.5H31.8965C31.56 24.1397 30.3564 26.593 28.4747 28.4747C26.593 30.3564 24.1397 31.56 21.5 31.8965Z" fill="url(#paint0_linear_492_6114)"/>
<path d="M20 15.5C19.11 15.5 18.24 15.7639 17.4999 16.2584C16.7599 16.7529 16.1831 17.4557 15.8425 18.2779C15.5019 19.1002 15.4128 20.005 15.5865 20.8779C15.7601 21.7508 16.1887 22.5526 16.818 23.182C17.4474 23.8113 18.2492 24.2399 19.1221 24.4135C19.995 24.5872 20.8998 24.4981 21.7221 24.1575C22.5443 23.8169 23.2471 23.2401 23.7416 22.5001C24.2361 21.76 24.5 20.89 24.5 20C24.5 18.8065 24.0259 17.6619 23.182 16.818C22.3381 15.9741 21.1935 15.5 20 15.5ZM20 21.5C19.7033 21.5 19.4133 21.412 19.1666 21.2472C18.92 21.0824 18.7277 20.8481 18.6142 20.574C18.5007 20.2999 18.4709 19.9983 18.5288 19.7074C18.5867 19.4164 18.7296 19.1491 18.9393 18.9393C19.1491 18.7296 19.4164 18.5867 19.7074 18.5288C19.9983 18.4709 20.2999 18.5006 20.574 18.6142C20.8481 18.7277 21.0824 18.92 21.2472 19.1666C21.412 19.4133 21.5 19.7033 21.5 20C21.5 20.3978 21.342 20.7794 21.0607 21.0607C20.7794 21.342 20.3978 21.5 20 21.5Z" fill="url(#paint1_linear_492_6114)"/>
</g>
</g>
</g>
</g>
<defs>
<linearGradient id="paint0_linear_492_6114" x1="-72.1103" y1="78.4706" x2="32.7764" y2="-19.4761" gradientUnits="userSpaceOnUse">
<stop offset="0.588191" stop-color="#2C65AA"/>
<stop offset="0.893191" stop-color="#3FB6B4"/>
</linearGradient>
<linearGradient id="paint1_linear_492_6114" x1="-3.02759" y1="34.6177" x2="23.1941" y2="10.131" gradientUnits="userSpaceOnUse">
<stop offset="0.588191" stop-color="#2C65AA"/>
<stop offset="0.893191" stop-color="#3FB6B4"/>
</linearGradient>
<clipPath id="clip0_492_6114">
<rect width="40" height="40" fill="white"/>
</clipPath>
<clipPath id="clip1_492_6114">
<rect width="40" height="40" fill="white"/>
</clipPath>
<clipPath id="clip2_492_6114">
<rect width="40" height="40" fill="white"/>
</clipPath>
<clipPath id="clip3_492_6114">
<rect width="36" height="36" fill="white" transform="translate(2 2)"/>
</clipPath>
</defs>
</svg>
