<svg width="24" height="24" viewBox="0 0 24 24" fill="none" xmlns="http://www.w3.org/2000/svg">
<g clip-path="url(#clip0_492_3774)">
<g clip-path="url(#clip1_492_3774)">
<path d="M23.625 17.9159V15.0835L22.2266 14.7254C22.1171 14.371 21.9757 14.0287 21.8048 13.7035L22.5397 12.4627L20.5373 10.4598L19.296 11.1952C18.9713 11.0238 18.6289 10.8824 18.2745 10.7729L17.916 9.37491H15.0836L14.7255 10.7733C14.3711 10.8828 14.0287 11.0242 13.704 11.1955L12.4628 10.4602L12.375 10.5487V9.37491H11.25C10.9339 9.37491 10.6301 9.24066 10.4171 9.00629C10.2011 8.76891 10.0995 8.46104 10.1302 8.13854C10.1846 7.57041 10.7048 7.12491 11.3145 7.12491H12.375V3.74991C12.375 3.12966 11.8702 2.62491 11.25 2.62491H8.25V2.31441C8.25 1.32216 7.50675 0.474286 6.558 0.383911C6.03 0.332161 5.50387 0.507661 5.11387 0.862411C4.72388 1.21679 4.5 1.72304 4.5 2.24991V2.62491H1.5C0.87975 2.62491 0.375 3.12966 0.375 3.74991V7.12491H1.4355C2.04525 7.12491 2.56538 7.57041 2.61975 8.13816C2.6505 8.46066 2.54888 8.76891 2.33288 9.00591C2.11988 9.24066 1.81613 9.37491 1.5 9.37491H0.375V12.7499C0.375 13.3702 0.87975 13.8749 1.5 13.8749H5.25V12.8144C5.25 12.2047 5.69513 11.6842 6.26325 11.6302C6.5865 11.6028 6.89437 11.7014 7.13138 11.9174C7.36575 12.13 7.5 12.4334 7.5 12.7499V13.8749H11.1154C10.9819 14.149 10.8641 14.4318 10.7734 14.7258L9.375 15.0839V17.9163L10.7734 18.2744C10.8829 18.6288 11.0243 18.9712 11.1952 19.2963L10.4602 20.5372L12.4628 22.54L13.704 21.8047C14.0287 21.976 14.3711 22.1174 14.7255 22.2269L15.084 23.6249H17.9164L18.2745 22.2265C18.6289 22.117 18.9713 21.9757 19.296 21.8043L20.5373 22.5397L22.5397 20.5368L21.8048 19.2959C21.9761 18.9712 22.1171 18.6288 22.2266 18.274L23.625 17.9159ZM7.63613 11.3624C7.24613 11.0077 6.71887 10.831 6.192 10.8839C5.24325 10.9743 4.5 11.8222 4.5 12.8144V13.1249H1.5C1.29338 13.1249 1.125 12.9569 1.125 12.7499V10.1249H1.5C2.02725 10.1249 2.53275 9.90104 2.88788 9.51066C3.24225 9.12066 3.417 8.59454 3.36637 8.06691C3.27562 7.11816 2.42775 6.37491 1.4355 6.37491H1.125V3.74991C1.125 3.54291 1.29338 3.37491 1.5 3.37491H5.25V2.24991C5.25 1.93341 5.38425 1.63004 5.61862 1.41704C5.856 1.20141 6.16313 1.10129 6.48675 1.12979C7.05487 1.18416 7.5 1.70466 7.5 2.31441V3.37491H11.25C11.4566 3.37491 11.625 3.54291 11.625 3.74991V6.37491H11.3145C10.3223 6.37491 9.47438 7.11816 9.38363 8.06729C9.33337 8.59454 9.50775 9.12104 9.86213 9.51104C10.2172 9.90104 10.7227 10.1249 11.25 10.1249H11.625V11.2987L10.4606 12.463L10.8525 13.1249H8.25V12.7499C8.25 12.223 8.02613 11.7168 7.63613 11.3624ZM21.6206 17.6549L21.5636 17.8664C21.4451 18.3067 21.2715 18.7267 21.0476 19.1148L20.9381 19.3049L21.5974 20.4179L20.418 21.5977L19.305 20.938L19.1152 21.0475C18.7267 21.2714 18.3064 21.445 17.8661 21.5635L17.6546 21.6205L17.334 22.8749H15.6664L15.3454 21.6205L15.1339 21.5635C14.6936 21.445 14.2736 21.2714 13.8848 21.0475L13.695 20.938L12.582 21.5977L11.4026 20.4179L12.0619 19.3049L11.9524 19.1148C11.7285 18.7267 11.5549 18.3067 11.4364 17.8664L11.3794 17.6549L10.125 17.3339V15.6663L11.3794 15.3453L11.4364 15.1338C11.5549 14.6935 11.7285 14.2735 11.9524 13.8854L12.0619 13.6953L11.4026 12.5823L12.582 11.4025L13.695 12.0622L13.8848 11.9527C14.2733 11.7288 14.6936 11.5552 15.1339 11.4367L15.3454 11.3797L15.666 10.1249H17.3336L17.6546 11.3793L17.8661 11.4363C18.3064 11.5548 18.7264 11.7284 19.1152 11.9523L19.305 12.0618L20.418 11.4022L21.5974 12.5819L20.9381 13.6949L21.0476 13.885C21.2715 14.2732 21.4451 14.6932 21.5636 15.1334L21.6206 15.3449L22.875 15.6659V17.3335L21.6206 17.6549Z" fill="url(#paint0_linear_492_3774)"/>
<path d="M16.5 13.5C14.8459 13.5 13.5 14.8459 13.5 16.5C13.5 18.1541 14.8459 19.5 16.5 19.5C17.1525 19.5 17.775 19.2911 18.3 18.8962L17.8492 18.297C17.4551 18.5932 16.9886 18.75 16.5 18.75C15.2591 18.75 14.25 17.7409 14.25 16.5C14.25 15.2591 15.2591 14.25 16.5 14.25C17.7409 14.25 18.75 15.2591 18.75 16.5C18.75 16.9886 18.5936 17.4551 18.297 17.8496L18.8966 18.3C19.2911 17.7746 19.5 17.1525 19.5 16.5C19.5 14.8459 18.1541 13.5 16.5 13.5Z" fill="url(#paint1_linear_492_3774)"/>
<path d="M16.5 12C14.0186 12 12 14.0186 12 16.5C12 18.9814 14.0186 21 16.5 21C18.9814 21 21 18.9814 21 16.5C21 14.0186 18.9814 12 16.5 12ZM16.5 20.25C14.4323 20.25 12.75 18.5677 12.75 16.5C12.75 14.4323 14.4323 12.75 16.5 12.75C18.5677 12.75 20.25 14.4323 20.25 16.5C20.25 18.5677 18.5677 20.25 16.5 20.25Z" fill="url(#paint2_linear_492_3774)"/>
</g>
</g>
<defs>
<linearGradient id="paint0_linear_492_3774" x1="-47.4879" y1="49.7621" x2="20.2512" y2="-13.4952" gradientUnits="userSpaceOnUse">
<stop offset="0.588191" stop-color="#2C65AA"/>
<stop offset="0.893191" stop-color="#3FB6B4"/>
</linearGradient>
<linearGradient id="paint1_linear_492_3774" x1="1.14828" y1="26.2451" x2="18.6294" y2="9.92065" gradientUnits="userSpaceOnUse">
<stop offset="0.588191" stop-color="#2C65AA"/>
<stop offset="0.893191" stop-color="#3FB6B4"/>
</linearGradient>
<linearGradient id="paint2_linear_492_3774" x1="-6.52759" y1="31.1176" x2="19.6941" y2="6.63097" gradientUnits="userSpaceOnUse">
<stop offset="0.588191" stop-color="#2C65AA"/>
<stop offset="0.893191" stop-color="#3FB6B4"/>
</linearGradient>
<clipPath id="clip0_492_3774">
<rect width="24" height="24" fill="white"/>
</clipPath>
<clipPath id="clip1_492_3774">
<rect width="24" height="24" fill="white"/>
</clipPath>
</defs>
</svg>
