<svg width="24" height="24" viewBox="0 0 24 24" fill="none" xmlns="http://www.w3.org/2000/svg">
<g clip-path="url(#clip0_492_9846)">
<path d="M11.998 2C8.98997 2 7.03997 4.019 4.73397 4.755C3.79597 5.055 3.32697 5.204 3.13697 5.415C2.94697 5.625 2.89197 5.934 2.78097 6.55C1.59097 13.146 4.19097 19.244 10.391 21.618C11.056 21.873 11.389 22 12.001 22C12.613 22 12.947 21.872 13.613 21.617C19.812 19.244 22.409 13.146 21.219 6.55C21.108 5.934 21.052 5.625 20.862 5.414C20.672 5.203 20.204 5.054 19.266 4.755C16.959 4.019 15.006 2 11.998 2Z" stroke="url(#paint0_linear_492_9846)" stroke-width="1.5" stroke-linecap="round" stroke-linejoin="round"/>
<path d="M10.2499 9.95848C10.2499 9.89848 10.2579 9.55248 10.2599 9.11848C10.2599 8.72048 10.2259 8.33848 10.4159 7.98848C11.1259 6.57448 13.1659 6.71848 13.6699 8.15848C13.7569 8.39548 13.7629 8.77048 13.7599 9.11848C13.7569 9.56148 13.7659 9.95848 13.7659 9.95848M10.3369 10.3795C9.25689 10.3795 8.71689 11.1595 8.59689 11.6395C8.47689 12.1195 8.47689 13.8595 8.54889 14.5795C8.78889 15.4795 9.38889 15.8515 9.97689 15.9715C10.5169 16.0195 12.7969 16.0015 13.4569 16.0015C14.4169 16.0195 15.1369 15.6595 15.4369 14.5795C15.4969 14.2195 15.5569 12.2395 15.4069 11.6395C15.0889 10.6795 14.2969 10.3795 13.6969 10.3795H10.3369Z" stroke="url(#paint1_linear_492_9846)" stroke-width="1.5" stroke-linecap="round" stroke-linejoin="round"/>
</g>
<defs>
<linearGradient id="paint0_linear_492_9846" x1="-36.6141" y1="44.4837" x2="21.3766" y2="-6.96274" gradientUnits="userSpaceOnUse">
<stop offset="0.588191" stop-color="#2C65AA"/>
<stop offset="0.893191" stop-color="#3FB6B4"/>
</linearGradient>
<linearGradient id="paint1_linear_492_9846" x1="-5.91322" y1="26.1278" x2="19.0917" y2="7.97271" gradientUnits="userSpaceOnUse">
<stop offset="0.588191" stop-color="#2C65AA"/>
<stop offset="0.893191" stop-color="#3FB6B4"/>
</linearGradient>
<clipPath id="clip0_492_9846">
<rect width="24" height="24" fill="white"/>
</clipPath>
</defs>
</svg>
