<svg width="24" height="24" viewBox="0 0 24 24" fill="none" xmlns="http://www.w3.org/2000/svg">
<path d="M18.1841 15.158L16.6216 12.033C16.5157 11.8212 16.2992 11.6875 16.0625 11.6875H15.4375H9.21802L9.49924 5.7796C9.49989 5.7661 9.49735 5.75334 9.49714 5.74001C9.49678 5.71569 9.49655 5.6915 9.49331 5.66716C9.49069 5.64756 9.48572 5.62892 9.48133 5.60991C9.47662 5.58942 9.47242 5.56903 9.46554 5.54885C9.45823 5.52743 9.44845 5.50744 9.43895 5.48709C9.43265 5.47359 9.42876 5.45957 9.42142 5.44635L8.37467 3.5625H15.6253L14.7572 5.125H11.0625C10.7173 5.125 10.4375 5.40485 10.4375 5.75C10.4375 6.09515 10.7173 6.375 11.0625 6.375H14.529L14.709 10.1546C14.7249 10.4894 15.0013 10.75 15.3328 10.75C15.3427 10.75 15.353 10.7497 15.363 10.7494C15.7077 10.7329 15.974 10.4399 15.9575 10.0954L15.7577 5.89833L17.2339 3.24115C17.3413 3.04736 17.3384 2.81146 17.2261 2.62042C17.1138 2.42969 16.9089 2.3125 16.6875 2.3125H7.3125C7.0911 2.3125 6.88617 2.42969 6.77387 2.62042C6.66156 2.81146 6.65866 3.04736 6.76609 3.24115L8.2423 5.89832L7.96661 11.6875H7.9375C7.70084 11.6875 7.48432 11.8212 7.37842 12.033L5.81592 15.158C5.71918 15.3517 5.7294 15.5818 5.84339 15.7662C5.95722 15.9502 6.15833 16.0625 6.375 16.0625H9.38507L11.4176 21.2889C11.511 21.5291 11.7423 21.6875 12 21.6875C12.2577 21.6875 12.489 21.5291 12.5824 21.2889L13.9193 17.8514C14.0444 17.5298 13.8851 17.1675 13.5634 17.0424C13.2415 16.9173 12.8795 17.0766 12.7544 17.3986L12 19.3383L10.7262 16.0625H14.1875H17.625C17.8417 16.0625 18.0428 15.9502 18.1566 15.7662C18.2706 15.5818 18.2808 15.3517 18.1841 15.158ZM14.1875 14.8125H9.8125H7.3862L8.3237 12.9375H8.5625H15.4375H15.6763L16.6138 14.8125H14.1875Z" fill="url(#paint0_linear_492_5537)"/>
<defs>
<linearGradient id="paint0_linear_492_5537" x1="-19.9828" y1="43.4685" x2="30.0387" y2="13.3319" gradientUnits="userSpaceOnUse">
<stop offset="0.588191" stop-color="#2C65AA"/>
<stop offset="0.893191" stop-color="#3FB6B4"/>
</linearGradient>
</defs>
</svg>
