<svg width="24" height="24" viewBox="0 0 24 24" fill="none" xmlns="http://www.w3.org/2000/svg">
<path d="M12 16.4187L15.7875 19.0687C15.9109 19.1578 16.0596 19.205 16.2117 19.2035C16.3639 19.2019 16.5115 19.1517 16.6331 19.0602C16.7547 18.9687 16.8437 18.8407 16.8873 18.6949C16.9308 18.5491 16.9265 18.3931 16.875 18.25L15.5375 13.8125L19.2188 11.0125C19.337 10.9234 19.4245 10.7997 19.4691 10.6586C19.5138 10.5175 19.5135 10.366 19.4681 10.2252C19.4227 10.0843 19.3347 9.96105 19.2161 9.87253C19.0975 9.78401 18.9542 9.73462 18.8063 9.73121L14.1875 9.63746L12.6688 5.26246C12.6197 5.12346 12.5288 5.0031 12.4084 4.91796C12.2881 4.83283 12.1443 4.78711 11.9969 4.78711C11.8495 4.78711 11.7057 4.83283 11.5854 4.91796C11.4651 5.0031 11.3741 5.12346 11.325 5.26246L9.80629 9.63746L5.18754 9.73121C5.03959 9.73462 4.89638 9.78401 4.77778 9.87253C4.65918 9.96105 4.57109 10.0843 4.52574 10.2252C4.48039 10.366 4.48002 10.5175 4.5247 10.6586C4.56937 10.7997 4.65687 10.9234 4.77504 11.0125L8.45629 13.8125L7.12504 18.25C7.07571 18.3928 7.07304 18.5476 7.11744 18.692C7.16184 18.8364 7.251 18.963 7.37204 19.0534C7.49308 19.1438 7.63973 19.1935 7.79081 19.1951C7.9419 19.1967 8.08958 19.1503 8.21254 19.0625L12 16.4187Z" stroke="url(#paint0_linear_492_7302)" stroke-width="2" stroke-linecap="round" stroke-linejoin="round"/>
<defs>
<linearGradient id="paint0_linear_492_7302" x1="-26.4104" y1="35.4101" x2="15.674" y2="-5.51037" gradientUnits="userSpaceOnUse">
<stop offset="0.588191" stop-color="#2C65AA"/>
<stop offset="0.893191" stop-color="#3FB6B4"/>
</linearGradient>
</defs>
</svg>
