<svg width="24" height="24" viewBox="0 0 24 24" fill="none" xmlns="http://www.w3.org/2000/svg">
<g clip-path="url(#clip0_492_4222)">
<path fill-rule="evenodd" clip-rule="evenodd" d="M4.59623 14.5469L3.01129 14.0378C2.63213 13.9159 2.375 13.5633 2.375 13.165V10.835C2.375 10.4367 2.63213 10.0841 3.01129 9.96225L4.59623 9.45306C5.07823 9.29822 5.34344 8.78195 5.18859 8.29995C5.15756 8.20338 5.11072 8.11262 5.04997 8.03138L4.37314 7.12624C4.10026 6.7613 4.13687 6.25132 4.45908 5.92911L5.92911 4.45908C6.25132 4.13687 6.7613 4.10026 7.12624 4.37314L8.03138 5.04997C8.43683 5.35315 9.01128 5.27024 9.31445 4.8648C9.3752 4.78356 9.42204 4.69281 9.45306 4.59623L9.96225 3.01129C10.0841 2.63213 10.4367 2.375 10.835 2.375H13.165C13.5633 2.375 13.9159 2.63213 14.0378 3.01129L14.5469 4.59623C14.7018 5.07823 15.2181 5.34344 15.7 5.18859C15.7966 5.15756 15.8874 5.11072 15.9686 5.04997L16.8738 4.37314C17.2387 4.10026 17.7487 4.13687 18.0709 4.45908L19.5409 5.92911C19.8631 6.25132 19.8997 6.7613 19.6269 7.12624L18.95 8.03138C18.6469 8.43683 18.7298 9.01128 19.1352 9.31445C19.2164 9.3752 19.3072 9.42204 19.4038 9.45306L20.9887 9.96225C21.3679 10.0841 21.625 10.4367 21.625 10.835V13.165C21.625 13.5633 21.3679 13.9159 20.9887 14.0378L19.4038 14.5469C18.9218 14.7018 18.6566 15.2181 18.8114 15.7C18.8424 15.7966 18.8893 15.8874 18.95 15.9686L19.6269 16.8738C19.8997 17.2387 19.8631 17.7487 19.5409 18.0709L18.0709 19.5409C17.7487 19.8631 17.2387 19.8997 16.8738 19.6269L15.9686 18.95C15.5632 18.6469 14.9887 18.7298 14.6855 19.1352C14.6248 19.2164 14.578 19.3072 14.5469 19.4038L14.0378 20.9887C13.9159 21.3679 13.5633 21.625 13.165 21.625H10.835C10.4367 21.625 10.0841 21.3679 9.96225 20.9887L9.45306 19.4038C9.29822 18.9218 8.78195 18.6566 8.29995 18.8114C8.20338 18.8424 8.11262 18.8893 8.03138 18.95L7.12624 19.6269C6.7613 19.8997 6.25132 19.8631 5.92911 19.5409L4.45908 18.0709C4.13687 17.7487 4.10026 17.2387 4.37314 16.8738L5.04997 15.9686C5.35315 15.5632 5.27024 14.9887 4.8648 14.6855C4.78356 14.6248 4.69281 14.578 4.59623 14.5469ZM13.9445 10.0555C12.8706 8.98151 11.1294 8.98151 10.0555 10.0555C8.98151 11.1294 8.98151 12.8706 10.0555 13.9445C11.1294 15.0185 12.8706 15.0185 13.9445 13.9445C15.0185 12.8706 15.0185 11.1294 13.9445 10.0555Z" stroke="url(#paint0_linear_492_4222)" stroke-width="2" stroke-linecap="round" stroke-linejoin="round"/>
</g>
<defs>
<linearGradient id="paint0_linear_492_4222" x1="-37.2534" y1="43.2655" x2="18.8318" y2="-9.10876" gradientUnits="userSpaceOnUse">
<stop offset="0.588191" stop-color="#2C65AA"/>
<stop offset="0.893191" stop-color="#3FB6B4"/>
</linearGradient>
<clipPath id="clip0_492_4222">
<rect width="22" height="22" fill="white" transform="translate(1 1)"/>
</clipPath>
</defs>
</svg>
