<svg width="36" height="36" viewBox="0 0 36 36" fill="none" xmlns="http://www.w3.org/2000/svg">
<path opacity="0.4" d="M2.16663 18.0003C2.16663 10.5364 2.16663 6.80447 4.48536 4.48573C6.8041 2.16699 10.5361 2.16699 18 2.16699C25.4639 2.16699 29.1958 2.16699 31.5146 4.48573C33.8333 6.80447 33.8333 10.5364 33.8333 18.0003C33.8333 25.4642 33.8333 29.1962 31.5146 31.5149C29.1958 33.8337 25.4639 33.8337 18 33.8337C10.5361 33.8337 6.8041 33.8337 4.48536 31.5149C2.16663 29.1962 2.16663 25.4642 2.16663 18.0003Z" fill="#3EB9B5"/>
<path d="M19.25 9.66699C19.25 8.97664 18.6903 8.41699 18 8.41699C17.3096 8.41699 16.75 8.97664 16.75 9.66699V26.3337C16.75 27.024 17.3096 27.5837 18 27.5837C18.6903 27.5837 19.25 27.024 19.25 26.3337V9.66699Z" fill="#3EB9B5"/>
<path d="M10.9166 19.667C10.9166 18.9766 10.357 18.417 9.66663 18.417C8.97627 18.417 8.41663 18.9766 8.41663 19.667V26.3337C8.41663 27.024 8.97627 27.5837 9.66663 27.5837C10.357 27.5837 10.9166 27.024 10.9166 26.3337V19.667Z" fill="#3EB9B5"/>
<path d="M26.3333 15.0837C27.0236 15.0837 27.5833 15.6433 27.5833 16.3337V26.3337C27.5833 27.024 27.0237 27.5837 26.3333 27.5837C25.6429 27.5837 25.0833 27.024 25.0833 26.3337V16.3337C25.0833 15.6433 25.6429 15.0837 26.3333 15.0837Z" fill="#3EB9B5"/>
<path fill-rule="evenodd" clip-rule="evenodd" d="M18.0953 0.916993H17.9047C14.2535 0.91697 11.3857 0.916953 9.14667 1.21798C6.85224 1.52646 5.03181 2.17152 3.60148 3.60185C2.17115 5.03218 1.52609 6.8526 1.21762 9.14703C0.916586 11.3861 0.916604 14.2539 0.916626 17.905V18.0956C0.916604 21.7468 0.916586 24.6146 1.21762 26.8536C1.52609 29.1481 2.17115 30.9685 3.60148 32.3988C5.03181 33.8291 6.85224 34.4742 9.14667 34.7827C11.3857 35.0837 14.2535 35.0837 17.9046 35.0837H18.0952C21.7464 35.0837 24.6142 35.0837 26.8533 34.7827C29.1477 34.4742 30.9681 33.8291 32.3984 32.3988C33.8288 30.9685 34.4738 29.1481 34.7823 26.8536C35.0833 24.6146 35.0833 21.7468 35.0833 18.0957V17.905C35.0833 14.2539 35.0833 11.3861 34.7823 9.14703C34.4738 6.8526 33.8288 5.03218 32.3984 3.60185C30.9681 2.17152 29.1477 1.52646 26.8533 1.21798C24.6142 0.916953 21.7464 0.91697 18.0953 0.916993ZM5.36925 5.36961C6.25766 4.48121 7.46258 3.9669 9.47978 3.69569C11.533 3.41965 14.2327 3.41699 18 3.41699C21.7673 3.41699 24.467 3.41965 26.5201 3.69569C28.5373 3.9669 29.7423 4.48121 30.6307 5.36961C31.5191 6.25802 32.0334 7.46294 32.3046 9.48015C32.5806 11.5333 32.5833 14.233 32.5833 18.0003C32.5833 21.7676 32.5806 24.4673 32.3046 26.5205C32.0334 28.5377 31.5191 29.7426 30.6307 30.631C29.7423 31.5194 28.5373 32.0338 26.5201 32.305C24.467 32.581 21.7673 32.5837 18 32.5837C14.2327 32.5837 11.533 32.581 9.47978 32.305C7.46258 32.0338 6.25766 31.5194 5.36925 30.631C4.48084 29.7426 3.96653 28.5377 3.69532 26.5205C3.41928 24.4673 3.41663 21.7676 3.41663 18.0003C3.41663 14.233 3.41928 11.5333 3.69532 9.48015C3.96653 7.46294 4.48084 6.25802 5.36925 5.36961Z" fill="#3EB9B5"/>
</svg>
