<svg width="44" height="52" viewBox="0 0 44 52" fill="none" xmlns="http://www.w3.org/2000/svg">
<path opacity="0.4" d="M42.4134 28.3569C41.6192 30.3077 37.96 34.1709 29.5879 34.1709C28.8846 34.1709 27.0397 34.8784 27.1352 38.7121C27.1741 42.1771 25.9112 49.032 20.6128 49.3276C19.5629 49.3327 18.4215 49.3327 17.1742 49.3327C12.9764 49.3327 10.8775 49.3327 9.20115 48.7442C6.50618 47.7982 4.38042 45.7975 3.37525 43.261C2.75 41.6833 2.75 39.7078 2.75 35.7569L2.75 14.3327C2.75 12.1643 2.75 11.0801 2.92934 10.1785C3.6658 6.47606 6.56005 3.58181 10.2625 2.84535C11.1641 2.66602 12.2483 2.66602 14.4167 2.66602L24.3864 2.66602C31.9958 2.66602 35.8006 2.66602 38.4428 4.52763C39.1999 5.06102 39.872 5.69358 40.4387 6.40609C42.4167 8.89292 42.4167 12.4739 42.4167 19.6357V25.5751C42.4167 26.5714 42.4167 27.4959 42.4134 28.3569Z" fill="#3EB9B5"/>
<path d="M12.6667 21.9161C11.7003 21.9161 10.9167 22.6996 10.9167 23.6661C10.9167 24.6326 11.7002 25.4161 12.6667 25.4161H19.6667C20.6332 25.4161 21.4167 24.6326 21.4167 23.6661C21.4167 22.6996 20.6332 21.9161 19.6667 21.9161H12.6667Z" fill="#3EB9B5"/>
<path d="M12.6667 12.5828C11.7003 12.5828 10.9167 13.3663 10.9167 14.3328C10.9167 15.2993 11.7002 16.0828 12.6667 16.0828L29.0001 16.0828C29.9666 16.0828 30.7501 15.2993 30.7501 14.3328C30.7501 13.3663 29.9666 12.5828 29.0001 12.5828H12.6667Z" fill="#3EB9B5"/>
<path fill-rule="evenodd" clip-rule="evenodd" d="M21.8747 0.916016H23.9043C27.6233 0.915998 30.552 0.915985 32.8755 1.15815C35.2479 1.40541 37.1987 1.92125 38.8675 3.09705C39.7584 3.72471 40.5528 4.47159 41.2251 5.31674C42.4964 6.91523 43.0573 8.79487 43.3242 11.0633C43.5835 13.2669 43.5834 16.0377 43.5834 19.5235V25.6388C43.5834 29.0417 43.5834 31.6826 43.4428 33.8137C43.3004 35.974 43.0081 37.732 42.3661 39.352C40.4105 44.2867 36.2926 48.1395 31.1235 49.9541C27.9062 51.0835 23.9583 51.0832 17.0392 51.0827L16.1928 51.0827C12.3775 51.0835 9.99983 51.084 8.03825 50.3954C4.89043 49.2904 2.36682 46.9382 1.16509 43.9057C0.757549 42.8774 0.582565 41.7856 0.4987 40.5141C0.416731 39.2714 0.41674 37.7419 0.416749 35.8184V21.1939C0.416705 16.9119 0.416669 13.5093 0.797403 10.844C1.19107 8.08823 2.02211 5.8663 3.87189 4.12534C5.70667 2.39849 8.02318 1.63549 10.8991 1.27157C13.7094 0.915963 17.3062 0.915985 21.8747 0.916016ZM11.3385 4.74388C8.81354 5.06339 7.34041 5.66722 6.27066 6.67404C5.21592 7.66675 4.5947 9.01154 4.26223 11.339C3.92094 13.7281 3.91675 16.8804 3.91675 21.3327V35.7569C3.91675 37.7555 3.91763 39.1697 3.99111 40.2837C4.06356 41.3821 4.2012 42.0669 4.41891 42.6163C5.22752 44.6568 6.95543 46.3059 9.19754 47.093C10.5213 47.5577 12.2451 47.5827 16.591 47.5827C17.3389 47.5827 18.045 47.5824 18.7128 47.5811C21.9425 47.4681 24.526 44.8143 24.526 41.5571C24.526 41.2138 24.5109 40.8447 24.4917 40.4303L24.4845 40.2767C24.4675 39.9153 24.4491 39.5218 24.4409 39.1295C24.4225 38.2426 24.4505 37.2077 24.7182 36.2087C25.2396 34.2628 26.7595 32.7428 28.7055 32.2214C29.7045 31.9537 30.7394 31.9257 31.6263 31.9441C32.0186 31.9523 32.4119 31.9708 32.7733 31.9878L32.927 31.995C33.3414 32.0142 33.7105 32.0293 34.0538 32.0293C37.3829 32.0293 40.0816 29.3306 40.0816 26.0015C40.0816 25.9746 40.0822 25.9479 40.0834 25.9213C40.0834 25.807 40.0834 25.6916 40.0834 25.5751V19.6357C40.0834 16.0124 40.0806 13.4476 39.8482 11.4723C39.6206 9.53802 39.1924 8.38379 38.4858 7.49545C38.0246 6.91556 37.4749 6.39732 36.8517 5.95822C35.8783 5.2724 34.6056 4.85743 32.5126 4.63929C30.3918 4.41825 27.6455 4.41602 23.8031 4.41602H22.0001C17.2787 4.41602 13.9035 4.41932 11.3385 4.74388ZM39.9571 33.4807C38.334 34.7635 36.2833 35.5293 34.0538 35.5293C33.6204 35.5293 33.178 35.5104 32.7648 35.4912L32.6065 35.4838C32.2409 35.4666 31.8967 35.4505 31.5536 35.4434C30.7588 35.4269 30.1228 35.4651 29.6113 35.6022C28.8732 35.7999 28.2967 36.3765 28.0989 37.1146C27.9619 37.626 27.9236 38.262 27.9402 39.0569C27.9473 39.3999 27.9634 39.744 27.9806 40.1096L27.988 40.2681C28.0071 40.6812 28.026 41.1236 28.026 41.5571C28.026 43.7564 27.2808 45.7817 26.0292 47.3942C27.6466 47.2616 28.8699 47.0358 29.9643 46.6516C34.2276 45.155 37.5498 42.0053 39.1123 38.0625C39.5645 36.9215 39.8194 35.5705 39.9504 33.5834C39.9527 33.5493 39.9549 33.5151 39.9571 33.4807Z" fill="#3EB9B5"/>
</svg>
