<svg width="42" height="43" viewBox="0 0 42 43" fill="none" xmlns="http://www.w3.org/2000/svg">
<g opacity="0.4">
<path d="M11.6667 8.00065C11.6667 10.578 9.57737 12.6673 7.00004 12.6673C4.42271 12.6673 2.33337 10.578 2.33337 8.00065C2.33337 5.42332 4.42271 3.33398 7.00004 3.33398C9.57737 3.33398 11.6667 5.42332 11.6667 8.00065Z" fill="#3EB9B5"/>
<path d="M11.6667 36.0006C11.6667 38.578 9.57737 40.6673 7.00004 40.6673C4.42271 40.6673 2.33337 38.578 2.33337 36.0006C2.33337 33.4233 4.42271 31.334 7.00004 31.334C9.57737 31.334 11.6667 33.4233 11.6667 36.0006Z" fill="#3EB9B5"/>
<path d="M35 40.6673C37.5774 40.6673 39.6667 38.578 39.6667 36.0006C39.6667 33.4233 37.5774 31.334 35 31.334C32.4227 31.334 30.3334 33.4233 30.3334 36.0006C30.3334 38.578 32.4227 40.6673 35 40.6673Z" fill="#3EB9B5"/>
</g>
<path fill-rule="evenodd" clip-rule="evenodd" d="M25.7198 3.42189C26.4128 2.74825 26.4286 1.64032 25.7549 0.947262C25.0813 0.254204 23.9734 0.238462 23.2803 0.912101C23.0674 1.11907 22.6431 1.45886 22.0098 1.95631L21.87 2.06609C21.305 2.50959 20.6422 3.02986 20.0096 3.56591C19.3316 4.14038 18.6274 4.78339 18.08 5.42616C17.8056 5.74827 17.535 6.11134 17.326 6.50191C17.1244 6.87861 16.9167 7.39766 16.9167 8.00033C16.9167 8.60299 17.1244 9.12205 17.326 9.49874C17.535 9.88932 17.8056 10.2524 18.08 10.5745C18.6274 11.2173 19.3316 11.8603 20.0096 12.4347C20.6421 12.9708 21.3049 13.491 21.8699 13.9345L22.0098 14.0443C22.6431 14.5418 23.0674 14.8816 23.2803 15.0886C23.9734 15.7622 25.0813 15.7464 25.7549 15.0534C26.4286 14.3603 26.4128 13.2524 25.7198 12.5788C25.3427 12.2123 24.7428 11.7404 24.1718 11.2919L24.0389 11.1875C23.4655 10.7374 22.8524 10.2561 22.2722 9.76447L22.2564 9.75101C24.9472 9.75523 26.9145 9.78485 28.4478 9.991C30.1599 10.2212 31.0666 10.6422 31.7124 11.288C32.3581 11.9338 32.7792 12.8405 33.0094 14.5526C33.2463 16.3151 33.25 18.651 33.25 22.0003V29.8252C30.5568 30.5869 28.5834 33.0632 28.5834 36.0003C28.5834 39.5442 31.4562 42.417 35 42.417C38.5439 42.417 41.4167 39.5442 41.4167 36.0003C41.4167 33.0632 39.4433 30.5869 36.75 29.8252L36.75 21.8723C36.7501 18.6813 36.7501 16.1091 36.4782 14.0862C36.1958 11.986 35.5917 10.2176 34.1872 8.81314C32.7828 7.40866 31.0144 6.80458 28.9141 6.52221C27.135 6.28301 24.9311 6.25421 22.255 6.25078L22.2722 6.23619C22.8524 5.74459 23.4655 5.26325 24.0388 4.81313L24.1718 4.70877C24.7428 4.26024 25.3427 3.78837 25.7198 3.42189ZM32.0834 36.0003C32.0834 34.3895 33.3892 33.0837 35 33.0837C36.6109 33.0837 37.9167 34.3895 37.9167 36.0003C37.9167 37.6112 36.6109 38.917 35 38.917C33.3892 38.917 32.0834 37.6112 32.0834 36.0003Z" fill="#3EB9B5"/>
<path fill-rule="evenodd" clip-rule="evenodd" d="M13.4167 8.00033C13.4167 10.9375 11.4433 13.4137 8.75004 14.1755L8.75004 29.8252C11.4433 30.5869 13.4167 33.0632 13.4167 36.0003C13.4167 39.5442 10.5439 42.417 7.00004 42.417C3.45621 42.417 0.583374 39.5442 0.583374 36.0003C0.583374 33.0632 2.55679 30.5869 5.25004 29.8252L5.25004 14.1755C2.55679 13.4137 0.583374 10.9375 0.583374 8.00033C0.583374 4.4565 3.45621 1.58366 7.00004 1.58366C10.5439 1.58366 13.4167 4.4565 13.4167 8.00033ZM7.00004 5.08366C5.38921 5.08366 4.08337 6.3895 4.08337 8.00033C4.08337 9.61116 5.38921 10.917 7.00004 10.917C8.61087 10.917 9.91671 9.61116 9.91671 8.00033C9.91671 6.3895 8.61087 5.08366 7.00004 5.08366ZM7.00004 33.0837C5.38921 33.0837 4.08337 34.3895 4.08337 36.0003C4.08337 37.6112 5.38921 38.917 7.00004 38.917C8.61087 38.917 9.91671 37.6112 9.91671 36.0003C9.91671 34.3895 8.61087 33.0837 7.00004 33.0837Z" fill="#3EB9B5"/>
</svg>
