<svg width="48" height="52" viewBox="0 0 48 52" fill="none" xmlns="http://www.w3.org/2000/svg">
<path opacity="0.4" d="M23.9958 2.66699C16.9777 2.66699 12.4271 7.37797 7.04537 9.0951C4.85711 9.79329 3.76297 10.1424 3.32018 10.6345C2.87738 11.1266 2.74772 11.8457 2.48839 13.284C-0.286613 28.6743 5.7788 42.9029 20.2441 48.4411C21.7983 49.0362 22.5754 49.3337 24.0035 49.3337C25.4316 49.3336 26.2087 49.0361 27.7628 48.4411C42.2271 42.9029 48.2868 28.6743 45.511 13.284C45.2515 11.8455 45.1218 11.1262 44.6789 10.6341C44.236 10.142 43.142 9.7931 40.9539 9.09529C35.57 7.37833 31.0143 2.66699 23.9958 2.66699Z" fill="#3EB9B5"/>
<path d="M25.7498 14.3337C25.7498 13.3672 24.9663 12.5837 23.9998 12.5837C23.0333 12.5837 22.2498 13.3672 22.2498 14.3337V19.0003C22.2498 19.9668 23.0333 20.7503 23.9998 20.7503C24.9663 20.7503 25.7498 19.9668 25.7498 19.0003V14.3337Z" fill="#3EB9B5"/>
<path fill-rule="evenodd" clip-rule="evenodd" d="M23.9956 0.916992C20.0726 0.916992 16.8833 2.24218 14.1017 3.68327C13.2611 4.11875 12.4802 4.54951 11.734 4.96114C9.90831 5.96829 8.29015 6.86093 6.51316 7.4279L6.45381 7.44684C5.41014 7.77982 4.54497 8.05585 3.88947 8.31272C3.27249 8.55448 2.53925 8.88578 2.019 9.46398C1.55168 9.98335 1.3116 10.5664 1.15241 11.1241C1.00791 11.6304 0.897267 12.2444 0.778768 12.902L0.765894 12.9734C-2.12263 28.9934 4.19368 44.17 19.6181 50.0754L19.6948 50.1048C21.2109 50.6855 22.2507 51.0837 24.0033 51.0837C25.7558 51.0836 26.7955 50.6854 28.3115 50.1048L28.3883 50.0754C43.8122 44.1697 50.1222 28.9927 47.2329 12.9733L47.22 12.9018C47.1015 12.2441 46.9908 11.6301 46.8462 11.1238C46.687 10.566 46.4469 9.98286 45.9794 9.46347C45.4591 8.8853 44.7259 8.55409 44.1089 8.3124C43.4533 8.05562 42.5882 7.77972 41.5445 7.44692L41.4853 7.42802C39.7073 6.86102 38.0878 5.96817 36.2607 4.96087C35.5142 4.54931 34.733 4.11861 33.8922 3.68325C31.1091 2.24221 27.9186 0.916992 23.9956 0.916992ZM13.715 7.87087C14.3986 7.4937 15.0654 7.12582 15.7117 6.79098C18.3053 5.44729 20.9004 4.41699 23.9956 4.41699C27.091 4.41699 29.6875 5.44744 32.2829 6.79131C32.9295 7.12616 33.5966 7.49398 34.2806 7.87111C36.2192 8.94006 38.2934 10.0838 40.4219 10.7626C41.5398 11.1191 42.2954 11.361 42.8323 11.5713C43.1857 11.7097 43.3394 11.7972 43.3889 11.8263C43.4074 11.8635 43.4395 11.9404 43.4807 12.0845C43.5714 12.4022 43.6525 12.8407 43.7885 13.5946C46.4509 28.3559 40.6415 41.636 27.1368 46.8068C25.5866 47.4003 25.0775 47.5836 24.0032 47.5837C22.9289 47.5837 22.4198 47.4003 20.8695 46.8068C7.36339 41.6358 1.54887 28.3552 4.21035 13.5945C4.34625 12.8408 4.42737 12.4023 4.51801 12.0847C4.55914 11.9407 4.59127 11.8638 4.60978 11.8265C4.65928 11.7975 4.81294 11.71 5.16644 11.5715C5.70339 11.361 6.45903 11.119 7.57704 10.7623C9.70472 10.0834 11.7776 8.93976 13.715 7.87087ZM43.376 11.8026C43.3729 11.7978 43.3713 11.7959 43.3713 11.7961C43.3712 11.7963 43.3718 11.7973 43.373 11.7989C43.3738 11.7999 43.3748 11.8012 43.376 11.8026Z" fill="#3EB9B5"/>
</svg>
