<svg width="46" height="46" viewBox="0 0 46 46" fill="none" xmlns="http://www.w3.org/2000/svg">
<path opacity="0.4" d="M2 21.0464V24.9536C2 27.8869 2 29.3536 2.25563 30.6569C3.64629 37.7475 9.44243 40.9126 16.1193 42.7959C18.8936 43.5785 20.2808 43.9698 21.4032 43.9972C26.2272 44.1152 29.8283 40.4462 30 36.125V9.87502C29.8283 5.55383 26.2272 1.88476 21.4032 2.00277C20.2808 2.03023 18.8937 2.4215 16.1193 3.20406C9.44243 5.08738 3.64629 8.25252 2.25563 15.3431C2 16.6464 2 18.1131 2 21.0464Z" fill="#3EB9B5"/>
<path d="M31.7486 36.1946C31.787 35.2288 31.0352 34.4148 30.0695 34.3765C29.1038 34.3381 28.2898 35.0899 28.2514 36.0556C28.117 39.436 25.2997 42.3422 21.446 42.2479C20.6018 42.2273 19.4837 41.9268 16.5944 41.1118C10.0627 39.2694 5.16185 36.3822 3.97293 30.3202C3.75796 29.2242 3.75002 27.9625 3.75002 24.9537L3.75002 21.0465C3.75002 18.0377 3.75796 16.776 3.97293 15.6799C5.16185 9.61798 10.0627 6.73073 16.5944 4.88836C19.4837 4.07338 20.6018 3.77291 21.446 3.75226C25.2997 3.65799 28.117 6.56411 28.2514 9.94455C28.2898 10.9103 29.1038 11.6621 30.0695 11.6237C31.0352 11.5853 31.787 10.7713 31.7486 9.80556C31.5395 4.5436 27.1547 0.111557 21.3604 0.253309C20.0142 0.286243 18.4316 0.732979 15.9489 1.43382L15.6442 1.5198C8.82218 3.44408 2.13076 6.88714 0.538366 15.0063C0.249695 16.4782 0.249812 18.1028 0.25001 20.8284L0.25001 25.1718C0.249812 27.8974 0.249694 29.522 0.538365 30.9938C2.13076 39.113 8.82218 42.5561 15.6442 44.4804L15.9489 44.5664C18.4316 45.2672 20.0142 45.7139 21.3604 45.7469C27.1548 45.8886 31.5395 41.4565 31.7486 36.1946Z" fill="#3EB9B5"/>
<path d="M25.3864 18.4216C26.0795 17.7479 26.0952 16.64 25.4216 15.9469C24.748 15.2539 23.64 15.2381 22.947 15.9118C22.734 16.1187 22.3098 16.4585 21.6765 16.956L21.5367 17.0658C20.9717 17.5092 20.3088 18.0296 19.6762 18.5656C18.9983 19.1401 18.2941 19.7831 17.7466 20.4258C17.4723 20.7479 17.2017 21.111 16.9927 21.5016C16.7911 21.8783 16.5834 22.3973 16.5834 23C16.5834 23.6027 16.7911 24.1217 16.9927 24.4984C17.2017 24.889 17.4723 25.2521 17.7466 25.5742C18.2941 26.2169 18.9983 26.8599 19.6762 27.4344C20.3088 27.9705 20.9716 28.4907 21.5366 28.9342L21.6765 29.044C22.3098 29.5415 22.734 29.8813 22.947 30.0882C23.64 30.7619 24.748 30.7461 25.4216 30.0531C26.0952 29.36 26.0795 28.2521 25.3864 27.5784C25.0094 27.212 24.4095 26.7401 23.8384 26.2916L23.7055 26.1872C23.1322 25.7371 22.519 25.2557 21.9389 24.7641L21.9222 24.75H44C44.9665 24.75 45.75 23.9665 45.75 23C45.75 22.0335 44.9665 21.25 44 21.25H21.9222L21.9389 21.2359C22.519 20.7443 23.1322 20.2629 23.7055 19.8128L23.8384 19.7084C24.4095 19.2599 25.0094 18.788 25.3864 18.4216Z" fill="#3EB9B5"/>
</svg>
