<svg width="52" height="34" viewBox="0 0 52 34" fill="none" xmlns="http://www.w3.org/2000/svg">
<path opacity="0.4" d="M30.9135 27.0586C36.1864 20.9467 41.2768 16.8005 47.671 10.9288C49.5849 9.17126 49.8805 6.09064 48.3791 3.90805C46.7835 1.58841 43.7514 1.12476 41.6991 2.96885C35.8421 8.23185 31.2853 13.2993 26.9628 18.7156C26.7359 18.9998 26.6225 19.1419 26.5048 19.2219C26.2063 19.4248 25.8333 19.427 25.5328 19.2275C25.4144 19.1489 25.3007 19.0095 25.0735 18.7308L22.7702 15.9055C20.6686 13.3277 16.899 13.6131 15.1443 16.4828C13.9164 18.491 14.0983 21.1525 15.5858 22.94L19.1977 27.2805C21.8992 30.5271 23.25 32.1503 24.8716 32.1662C26.4932 32.1821 27.9666 30.4743 30.9135 27.0586Z" fill="#3EB9B5"/>
<path fill-rule="evenodd" clip-rule="evenodd" d="M49.821 2.9186C47.6781 -0.196616 43.4333 -0.93975 40.5296 1.66951C34.7735 6.84173 30.2567 11.8275 26.0084 17.1103L24.1266 14.8021C21.2424 11.2643 16.0186 11.7007 13.6514 15.5722C12.0391 18.209 12.266 21.6887 14.2407 24.0617L17.9307 28.4961C19.2148 30.0394 20.2883 31.3295 21.2503 32.2209C22.2441 33.1417 23.394 33.9042 24.8545 33.9185C26.3425 33.9331 27.5384 33.1347 28.5713 32.1979C29.5907 31.2734 30.7536 29.9254 32.1609 28.2942L32.2386 28.2041C36.1909 23.623 40.0097 20.1938 44.4707 16.188C45.8617 14.939 47.3154 13.6337 48.8547 12.2201C51.4418 9.84445 51.7924 5.78449 49.821 2.9186ZM42.8689 4.27289C44.0696 3.19397 45.889 3.37814 46.9374 4.9022C47.9687 6.40147 47.7282 8.50276 46.4874 9.64212C45.0155 10.9937 43.6027 12.2621 42.2335 13.4914C37.731 17.5335 33.6994 21.1528 29.5885 25.9178C28.0839 27.6618 27.0607 28.8429 26.22 29.6053C25.3742 30.3724 25.0225 30.42 24.8889 30.4187C24.7278 30.4171 24.3915 30.3599 23.6291 29.6535C22.8544 28.9357 21.9257 27.8252 20.5429 26.1635L16.9311 21.823C15.9308 20.6209 15.7938 18.7777 16.6374 17.3981C17.7796 15.5301 20.0949 15.3958 21.4139 17.0137L23.7172 19.8389L23.7639 19.8968C23.9185 20.0897 24.2078 20.4507 24.565 20.6878C25.4585 21.2809 26.6029 21.2737 27.4887 20.6715C27.7262 20.5101 27.8973 20.3279 28.006 20.2046C28.1063 20.0907 28.2153 19.954 28.3136 19.8309L28.3306 19.8095C32.6064 14.4519 37.0978 9.45856 42.8689 4.27289Z" fill="#3EB9B5"/>
<path d="M33.3039 0.174413C31.5471 -0.135247 29.7049 0.360743 28.2658 1.68205C26.0873 3.68224 24.0888 5.65572 22.2155 7.63106C21.5504 8.33233 21.5797 9.43998 22.281 10.1051C22.9823 10.7701 24.0899 10.7408 24.755 10.0395C26.5734 8.12213 28.5144 6.20529 30.6329 4.2602C31.2668 3.67817 32.0085 3.50003 32.6963 3.62127C33.6481 3.78905 34.5558 3.15345 34.7235 2.20163C34.8913 1.2498 34.2557 0.342189 33.3039 0.174413Z" fill="#3EB9B5"/>
<path d="M4.96208 17.3837C5.86904 15.8681 7.47064 15.5578 8.66136 16.2259C9.50427 16.6987 10.5709 16.3988 11.0438 15.5559C11.5167 14.713 11.2168 13.6463 10.3738 13.1734C7.46104 11.5393 3.79726 12.5142 1.95876 15.5865C0.386654 18.2136 0.605355 21.6772 2.53557 24.0474L6.14766 28.4827C7.40377 30.0251 8.45476 31.3157 9.39713 32.2079C10.368 33.1271 11.5061 33.9038 12.9629 33.9184C14.2559 33.9314 15.316 33.3153 16.2194 32.5571C16.9597 31.9358 17.0562 30.8319 16.4348 30.0916C15.8135 29.3513 14.7097 29.2548 13.9694 29.8762C13.3452 30.4001 13.0824 30.4194 12.998 30.4186C12.8677 30.4173 12.5513 30.3744 11.8034 29.6663C11.0463 28.9495 10.138 27.8398 8.78436 26.1777L5.24944 21.8372C4.26813 20.6322 4.13065 18.7731 4.96208 17.3837Z" fill="#3EB9B5"/>
</svg>
