<svg width="52" height="49" viewBox="0 0 52 49" fill="none" xmlns="http://www.w3.org/2000/svg">
<path opacity="0.4" fill-rule="evenodd" clip-rule="evenodd" d="M26 48.6667C38.8866 48.6667 49.3333 38.22 49.3333 25.3333C49.3333 12.4467 38.8866 2 26 2C13.1133 2 2.66663 12.4467 2.66663 25.3333C2.66663 38.22 13.1133 48.6667 26 48.6667ZM26 26.5C27.933 26.5 29.5 24.933 29.5 23C29.5 21.067 27.933 19.5 26 19.5C24.067 19.5 22.5 21.067 22.5 23C22.5 24.933 24.067 26.5 26 26.5Z" fill="#3EB9B5"/>
<path fill-rule="evenodd" clip-rule="evenodd" d="M26 3.75C14.0488 3.75 4.41663 13.2504 4.41663 24.9011C4.41663 31.376 7.38432 37.1778 12.0786 41.0648C12.8062 41.6673 13.1871 41.9752 13.4923 42.1506C13.686 42.262 13.734 42.254 13.7679 42.2483L13.7775 42.2469C13.871 42.2352 13.9026 42.2203 13.9124 42.2157C13.9251 42.2096 13.973 42.1858 14.0709 42.0965C14.3144 41.8742 14.633 41.4763 15.2579 40.6284C15.8313 39.8504 16.9269 39.6845 17.7049 40.258C18.4829 40.8314 18.6488 41.9269 18.0753 42.7049C17.5008 43.4844 16.9763 44.1833 16.4302 44.6817C15.7844 45.2711 15.0848 45.6108 14.2112 45.7199C13.2605 45.8386 12.4636 45.5964 11.7477 45.1848C11.1517 44.8421 10.5388 44.3343 9.93019 43.83L9.84639 43.7606C4.39404 39.2458 0.916626 32.4756 0.916626 24.9011C0.916626 11.256 12.1778 0.25 26 0.25C39.8221 0.25 51.0833 11.256 51.0833 24.9011C51.0833 32.4756 47.6059 39.2458 42.1535 43.7606L42.0697 43.83C41.4611 44.3343 40.8482 44.8421 40.2523 45.1848C39.5363 45.5964 38.7394 45.8386 37.7887 45.7199C36.9151 45.6108 36.2155 45.2711 35.5697 44.6817C35.0236 44.1833 34.4991 43.4844 33.9246 42.7049C33.3512 41.9269 33.517 40.8314 34.295 40.258C35.073 39.6845 36.1686 39.8504 36.742 40.6284C37.3669 41.4763 37.6855 41.8742 37.9291 42.0965C38.0269 42.1858 38.0748 42.2096 38.0875 42.2157C38.0973 42.2202 38.1289 42.2352 38.2225 42.2469L38.232 42.2483C38.2659 42.254 38.314 42.262 38.5077 42.1506C38.8128 41.9752 39.1937 41.6673 39.9213 41.0648C44.6156 37.1778 47.5833 31.376 47.5833 24.9011C47.5833 18.6069 44.7721 12.9403 40.3027 9.06026L30.8544 20.6082C30.8174 20.6534 30.7787 20.6962 30.7384 20.7367C31.0663 21.422 31.25 22.1896 31.25 23C31.25 25.8995 28.8995 28.25 26 28.25C23.1005 28.25 20.75 25.8995 20.75 23C20.75 20.1005 23.1005 17.75 26 17.75C26.8072 17.75 27.572 17.9322 28.2553 18.2577L37.4785 6.98489C34.1571 4.93642 30.2233 3.75 26 3.75ZM24.25 23C24.25 22.0335 25.0335 21.25 26 21.25C26.9665 21.25 27.75 22.0335 27.75 23C27.75 23.9665 26.9665 24.75 26 24.75C25.0335 24.75 24.25 23.9665 24.25 23Z" fill="#3EB9B5"/>
</svg>
