<svg width="56" height="56" viewBox="0 0 56 56" fill="none" xmlns="http://www.w3.org/2000/svg">
<path opacity="0.4" d="M5.90319 33.5864C5.407 36.7435 7.62537 38.9348 10.3415 40.0269C20.7546 44.2137 35.2455 44.2137 45.6586 40.0269C48.3747 38.9348 50.5931 36.7435 50.0969 33.5864C49.792 31.6462 48.2841 30.0306 47.167 28.453C45.7037 26.3612 45.5583 24.0797 45.5581 21.6523C45.5581 12.2716 37.6971 4.66699 28 4.66699C18.303 4.66699 10.442 12.2716 10.442 21.6523C10.4418 24.0797 10.2964 26.3612 8.83313 28.453C7.716 30.0306 6.20814 31.6462 5.90319 33.5864Z" fill="#3EB9B5"/>
<path fill-rule="evenodd" clip-rule="evenodd" d="M28.0015 2.91699C17.3932 2.91699 8.69355 11.2507 8.69347 21.6521C8.69325 24.0488 8.52746 25.8365 7.40342 27.4459C7.19742 27.7366 6.97931 28.0259 6.74045 28.3427L6.54922 28.5967C6.24276 29.0046 5.91216 29.4518 5.60284 29.9223C4.9899 30.8544 4.38442 31.9879 4.17588 33.3147C3.49397 37.6534 6.63978 40.4241 9.69013 41.6505C20.5221 46.0058 35.4809 46.0058 46.3129 41.6505C49.3632 40.4241 52.509 37.6534 51.8271 33.3147C51.6186 31.9879 51.0131 30.8544 50.4002 29.9223C50.0909 29.4518 49.7603 29.0046 49.4538 28.5967L49.2627 28.343C49.024 28.0263 48.8056 27.7366 48.5997 27.446C47.4755 25.8365 47.3098 24.0491 47.3095 21.6523C47.3095 11.2508 38.6099 2.91699 28.0015 2.91699ZM12.1935 21.6523C12.1935 13.2923 19.2158 6.41699 28.0015 6.41699C36.7872 6.41699 43.8095 13.2923 43.8095 21.6523C43.8098 24.1083 43.9345 26.883 45.7345 29.4561L45.7402 29.4643C45.9805 29.8036 46.2399 30.1476 46.4833 30.4703L46.6555 30.6989C46.9555 31.0983 47.2303 31.472 47.4757 31.8452C47.9723 32.6003 48.2732 33.2447 48.3696 33.8581C48.6801 35.8336 47.3891 37.4455 45.0072 38.4032C35.013 42.4216 20.99 42.4216 10.9958 38.4032C8.61388 37.4455 7.32296 35.8336 7.63344 33.8581C7.72984 33.2447 8.03076 32.6003 8.52727 31.8452C8.77267 31.472 9.04756 31.0983 9.34755 30.6989L9.51976 30.4703C9.76309 30.1476 10.0226 29.8036 10.2628 29.4643L10.2686 29.4561C12.0685 26.883 12.1932 24.1083 12.1935 21.6523Z" fill="#3EB9B5"/>
<path d="M22.0803 47.6213C21.3187 47.0263 20.2189 47.1615 19.624 47.9231C19.029 48.6848 19.1642 49.7846 19.9258 50.3795C22.0982 52.0764 24.9326 53.0837 28.0031 53.0837C31.0736 53.0837 33.9079 52.0764 36.0803 50.3795C36.842 49.7846 36.9772 48.6848 36.3822 47.9231C35.7873 47.1615 34.6875 47.0263 33.9258 47.6213C32.3829 48.8264 30.311 49.5837 28.0031 49.5837C25.6951 49.5837 23.6232 48.8264 22.0803 47.6213Z" fill="#3EB9B5"/>
</svg>
