<svg width="56" height="56" viewBox="0 0 56 56" fill="none" xmlns="http://www.w3.org/2000/svg">
<path opacity="0.4" d="M9.33317 38.4994C9.33317 42.3653 12.4672 45.4994 16.3332 45.4994C16.3332 48.721 18.9448 51.3327 22.1665 51.3327C25.3882 51.3327 27.9998 48.721 27.9998 45.4994V10.4993C27.9998 7.27769 25.3882 4.66602 22.1665 4.66602C18.9448 4.66602 16.3332 7.27769 16.3332 10.4993C12.4672 10.4993 9.33317 13.6334 9.33317 17.4993C9.33317 18.8262 9.70235 20.0669 10.3436 21.1242C7.11013 21.7426 4.6665 24.5856 4.6665 27.9994C4.6665 31.4131 7.11013 34.2561 10.3436 34.8745C9.70235 35.9318 9.33317 37.1725 9.33317 38.4994Z" fill="#3EB9B5"/>
<path fill-rule="evenodd" clip-rule="evenodd" d="M2.9165 27.9993C2.9165 31.5106 4.98355 34.5366 7.96682 35.9305C7.71736 36.7436 7.58317 37.6066 7.58317 38.4993C7.58317 42.7927 10.6753 46.3638 14.754 47.1072C15.4914 50.5231 18.53 53.0827 22.1665 53.0827C26.3547 53.0827 29.7498 49.6875 29.7498 45.4993V10.4993C29.7498 6.31119 26.3547 2.91602 22.1665 2.91602C18.53 2.91602 15.4914 5.47562 14.754 8.89148C10.6753 9.63493 7.58317 13.206 7.58317 17.4993C7.58317 18.3921 7.71736 19.2551 7.96682 20.0682C4.98355 21.4621 2.9165 24.4881 2.9165 27.9993ZM18.0832 10.4993C18.0832 8.24419 19.9113 6.41602 22.1665 6.41602C24.4217 6.41602 26.2498 8.24419 26.2498 10.4993V45.4993C26.2498 47.7545 24.4217 49.5827 22.1665 49.5827C19.9113 49.5827 18.0832 47.7545 18.0832 45.4993C18.0832 44.5328 17.2997 43.7493 16.3332 43.7493C13.4337 43.7493 11.0832 41.3988 11.0832 38.4993C11.0832 37.5014 11.3599 36.5734 11.8399 35.782C12.465 34.7514 13.434 33.9537 14.583 33.5476C15.4943 33.2255 15.9719 32.2257 15.6498 31.3145C15.3277 30.4032 14.3279 29.9256 13.4167 30.2477C11.9374 30.7705 10.6429 31.6781 9.65167 32.8494C7.75209 32.0593 6.4165 30.1839 6.4165 27.9993C6.4165 25.441 8.2482 23.3067 10.6724 22.843C11.2353 22.7353 11.7099 22.3588 11.9427 21.8351C12.1755 21.3113 12.1371 20.7068 11.8399 20.2167C11.3599 19.4253 11.0832 18.4973 11.0832 17.4993C11.0832 15.1184 12.6681 13.1076 14.8405 12.4646C15.2855 14.1266 16.2808 15.5632 17.6155 16.5657C18.3883 17.1461 19.4853 16.9902 20.0657 16.2175C20.6462 15.4447 20.4903 14.3477 19.7175 13.7672C18.7218 13.0193 18.0832 11.8341 18.0832 10.4993Z" fill="#3EB9B5"/>
<path d="M44.9165 7.58211C42.9835 7.58211 41.4165 9.14912 41.4165 11.0821C41.4165 11.3956 41.4577 11.6995 41.5351 11.9887L38.9416 14.5821H34.9998C34.0333 14.5821 33.2498 15.3656 33.2498 16.3321C33.2498 17.2986 34.0333 18.0821 34.9998 18.0821H39.6665C40.1306 18.0821 40.5757 17.8977 40.9039 17.5695L44.0099 14.4636C44.2991 14.5409 44.603 14.5821 44.9165 14.5821C46.8495 14.5821 48.4165 13.0151 48.4165 11.0821C48.4165 9.14912 46.8495 7.58211 44.9165 7.58211Z" fill="#3EB9B5"/>
<path d="M33.2498 39.6654C33.2498 38.6989 34.0333 37.9154 34.9998 37.9154H39.6665C40.1306 37.9154 40.5757 38.0998 40.9039 38.428L44.0099 41.534C44.2991 41.4567 44.603 41.4154 44.9165 41.4154C46.8495 41.4154 48.4165 42.9824 48.4165 44.9154C48.4165 46.8484 46.8495 48.4154 44.9165 48.4154C42.9835 48.4154 41.4165 46.8484 41.4165 44.9154C41.4165 44.6019 41.4577 44.298 41.5351 44.0089L38.9416 41.4154H34.9998C34.0333 41.4154 33.2498 40.6319 33.2498 39.6654Z" fill="#3EB9B5"/>
<path d="M44.9165 24.4988C43.621 24.4988 42.4899 25.2026 41.8847 26.2488H34.9998C34.0333 26.2488 33.2498 27.0323 33.2498 27.9988C33.2498 28.9653 34.0333 29.7488 34.9998 29.7488H41.8847C42.4899 30.7949 43.621 31.4988 44.9165 31.4988C46.8495 31.4988 48.4165 29.9318 48.4165 27.9988C48.4165 26.0658 46.8495 24.4988 44.9165 24.4988Z" fill="#3EB9B5"/>
</svg>
