<svg width="24" height="24" viewBox="0 0 24 24" fill="none" xmlns="http://www.w3.org/2000/svg">
<g clip-path="url(#clip0_456_8223)">
<path d="M12 20.9375C11.2707 20.9375 10.5712 20.6478 10.0555 20.132C9.53973 19.6163 9.25 18.9168 9.25 18.1875C9.25 18.0052 9.32243 17.8303 9.45136 17.7014C9.5803 17.5724 9.75516 17.5 9.9375 17.5H14.0625C14.2448 17.5 14.4197 17.5724 14.5486 17.7014C14.6776 17.8303 14.75 18.0052 14.75 18.1875C14.75 18.9168 14.4603 19.6163 13.9445 20.132C13.4288 20.6478 12.7293 20.9375 12 20.9375ZM10.8106 18.875C10.9315 19.0834 11.105 19.2563 11.3137 19.3766C11.5225 19.4968 11.7591 19.5601 12 19.5601C12.2409 19.5601 12.4775 19.4968 12.6863 19.3766C12.895 19.2563 13.0685 19.0834 13.1894 18.875H10.8106Z" fill="url(#paint0_linear_456_8223)"/>
<path d="M13.375 5.8125H10.625C10.4427 5.8125 10.2678 5.74007 10.1389 5.61114C10.0099 5.4822 9.9375 5.30734 9.9375 5.125C9.9375 4.57799 10.1548 4.05339 10.5416 3.66659C10.9284 3.2798 11.453 3.0625 12 3.0625C12.547 3.0625 13.0716 3.2798 13.4584 3.66659C13.8452 4.05339 14.0625 4.57799 14.0625 5.125C14.0625 5.30734 13.9901 5.4822 13.8611 5.61114C13.7322 5.74007 13.5573 5.8125 13.375 5.8125Z" fill="url(#paint1_linear_456_8223)"/>
<path d="M19.5625 18.875H4.4375C4.25517 18.875 4.0803 18.8026 3.95137 18.6736C3.82243 18.5447 3.75 18.3698 3.75 18.1875C3.7494 17.4111 3.93666 16.646 4.29581 15.9577C4.65496 15.2693 5.17533 14.678 5.8125 14.2344V10.625C5.81247 8.9911 6.4587 7.4235 7.61017 6.2643C8.76164 5.10509 10.3249 4.44839 11.9588 4.4375H12.0344C13.6754 4.4375 15.2492 5.0894 16.4096 6.24978C17.57 7.41016 18.2219 8.98397 18.2219 10.625V14.2344C18.8527 14.6818 19.3664 15.2747 19.7194 15.9629C20.0725 16.651 20.2545 17.4141 20.25 18.1875C20.25 18.3698 20.1776 18.5447 20.0486 18.6736C19.9197 18.8026 19.7448 18.875 19.5625 18.875ZM5.19375 17.5H18.8063C18.7089 17.0234 18.5114 16.5728 18.227 16.1782C17.9426 15.7835 17.5776 15.4537 17.1563 15.2106C17.0513 15.1501 16.9643 15.0628 16.9039 14.9578C16.8436 14.8528 16.812 14.7336 16.8125 14.6125V10.625C16.8125 9.34865 16.3055 8.12457 15.403 7.22205C14.5004 6.31953 13.2764 5.8125 12 5.8125C10.7236 5.8125 9.49957 6.31953 8.59705 7.22205C7.69453 8.12457 7.1875 9.34865 7.1875 10.625V14.6125C7.18798 14.7336 7.15644 14.8528 7.09608 14.9578C7.03571 15.0628 6.94867 15.1501 6.84375 15.2106C6.42239 15.4537 6.05743 15.7835 5.77299 16.1782C5.48855 16.5728 5.29112 17.0234 5.19375 17.5Z" fill="url(#paint2_linear_456_8223)"/>
</g>
<defs>
<linearGradient id="paint0_linear_456_8223" x1="-2.07241" y1="24.8019" x2="7.20799" y2="10.9357" gradientUnits="userSpaceOnUse">
<stop offset="0.588191" stop-color="#2C65AA"/>
<stop offset="0.893191" stop-color="#3FB6B4"/>
</linearGradient>
<linearGradient id="paint1_linear_456_8223" x1="1.44569" y1="8.904" x2="9.04122" y2="-1.73544" gradientUnits="userSpaceOnUse">
<stop offset="0.588191" stop-color="#2C65AA"/>
<stop offset="0.893191" stop-color="#3FB6B4"/>
</linearGradient>
<linearGradient id="paint2_linear_456_8223" x1="-30.2174" y1="35.1054" x2="11.856" y2="-9.79719" gradientUnits="userSpaceOnUse">
<stop offset="0.588191" stop-color="#2C65AA"/>
<stop offset="0.893191" stop-color="#3FB6B4"/>
</linearGradient>
<clipPath id="clip0_456_8223">
<rect width="22" height="22" fill="white" transform="translate(1 1)"/>
</clipPath>
</defs>
</svg>
