<svg width="30" height="36" viewBox="0 0 30 36" fill="none" xmlns="http://www.w3.org/2000/svg">
<g opacity="0.4">
<path d="M28.3332 34.6673V26.334C28.3332 23.1913 28.3332 21.6199 27.3569 20.6436C26.3805 19.6673 24.8092 19.6673 21.6665 19.6673L14.9998 34.6673L28.3332 34.6673Z" fill="#3EB9B5"/>
<path d="M1.6665 34.6673H14.9998L8.33317 19.6673C5.19047 19.6673 3.61913 19.6673 2.64281 20.6436C1.6665 21.6199 1.6665 23.1913 1.6665 26.334L1.6665 34.6673Z" fill="#3EB9B5"/>
<path d="M20.8332 7.16732L20.8332 8.83398C20.8332 12.0556 18.2215 14.6673 14.9998 14.6673C11.7782 14.6673 9.1665 12.0556 9.1665 8.83398V7.16732C9.1665 3.94566 11.7782 1.33398 14.9998 1.33398C18.2215 1.33398 20.8332 3.94566 20.8332 7.16732Z" fill="#3EB9B5"/>
</g>
<path d="M8.24651 18.4173L8.33318 18.4173C8.82716 18.4173 9.27481 18.7082 9.47544 19.1596L13.1787 27.492L13.7126 23.2212L12.2151 20.2263C12.0214 19.8388 12.0421 19.3787 12.2699 19.0102C12.4976 18.6416 12.9 18.4173 13.3332 18.4173H16.6665C17.0997 18.4173 17.5021 18.6416 17.7298 19.0102C17.9576 19.3787 17.9783 19.8388 17.7845 20.2263L16.2871 23.2212L16.821 27.492L20.5242 19.1596C20.7249 18.7082 21.1725 18.4173 21.6665 18.4173L21.7532 18.4173C23.2506 18.4173 24.4993 18.4172 25.4906 18.5505C26.537 18.6912 27.4816 19.0006 28.2408 19.7597C28.9999 20.5189 29.3093 21.4635 29.45 22.5099C29.5833 23.5012 29.5832 24.7499 29.5832 26.2473V34.6673C29.5832 35.3577 29.0235 35.9173 28.3332 35.9173C27.6428 35.9173 27.0832 35.3577 27.0832 34.6673V26.334C27.0832 24.7273 27.0805 23.648 26.9723 22.843C26.8689 22.0739 26.6902 21.7447 26.473 21.5275C26.2558 21.3103 25.9266 21.1316 25.1575 21.0282C24.4963 20.9393 23.65 20.9216 22.4785 20.9182L16.1421 35.175C15.9415 35.6264 15.4938 35.9173 14.9998 35.9173C14.5059 35.9173 14.0582 35.6264 13.8576 35.175L7.52121 20.9182C6.34966 20.9216 5.50342 20.9393 4.84216 21.0282C4.07306 21.1316 3.7439 21.3103 3.5267 21.5275C3.30951 21.7447 3.13081 22.0739 3.0274 22.843C2.91916 23.648 2.91651 24.7273 2.91651 26.334L2.91651 34.6673C2.91651 35.3577 2.35687 35.9173 1.66651 35.9173C0.976153 35.9173 0.416509 35.3577 0.416509 34.6673L0.416506 26.2473C0.416459 24.7499 0.416419 23.5011 0.549695 22.5099C0.690369 21.4635 0.99982 20.5189 1.75894 19.7597C2.51805 19.0006 3.46272 18.6912 4.50904 18.5505C5.50035 18.4172 6.74904 18.4173 8.24651 18.4173Z" fill="#3EB9B5"/>
<path fill-rule="evenodd" clip-rule="evenodd" d="M14.9998 0.0839844C11.0878 0.0839844 7.91651 3.2553 7.91651 7.16732V8.83398C7.91651 12.746 11.0878 15.9173 14.9998 15.9173C18.9119 15.9173 22.0832 12.746 22.0832 8.83398L22.0832 7.16732C22.0832 3.2553 18.9119 0.0839844 14.9998 0.0839844ZM10.4165 7.16732C10.4165 4.63601 12.4685 2.58398 14.9998 2.58398C17.5311 2.58398 19.5832 4.63601 19.5832 7.16732L19.5832 8.83398C19.5832 11.3653 17.5311 13.4173 14.9998 13.4173C12.4685 13.4173 10.4165 11.3653 10.4165 8.83398V7.16732Z" fill="#3EB9B5"/>
</svg>
