<svg width="24" height="24" viewBox="0 0 24 24" fill="none" xmlns="http://www.w3.org/2000/svg">
<g clip-path="url(#clip0_456_1582)">
<path fill-rule="evenodd" clip-rule="evenodd" d="M19.3125 3H6.9375C6.00544 3 5.25 3.75488 5.25 4.6875V5.8125H4.6875C3.75544 5.8125 3 6.56737 3 7.5V18.75C3 19.9926 4.00744 21 5.25 21H18.75C19.9926 21 21 19.9926 21 18.75V4.6875C21 3.75488 20.244 3 19.3125 3ZM19.875 18.75C19.875 19.3699 19.3699 19.875 18.75 19.875H5.25C4.62956 19.875 4.125 19.3699 4.125 18.75V7.5C4.125 7.1895 4.377 6.9375 4.6875 6.9375H5.25V18.1875C5.25 18.4986 5.50144 18.75 5.8125 18.75C6.12356 18.75 6.375 18.4986 6.375 18.1875V4.6875C6.375 4.377 6.627 4.125 6.9375 4.125H19.3125C19.6224 4.125 19.875 4.377 19.875 4.6875V18.75Z" fill="url(#paint0_linear_456_1582)"/>
<path fill-rule="evenodd" clip-rule="evenodd" d="M18.4688 11.4395H7.78125C7.626 11.4395 7.5 11.5655 7.5 11.7207C7.5 11.876 7.626 12.002 7.78125 12.002H18.4688C18.6234 12.002 18.75 11.876 18.75 11.7207C18.75 11.5655 18.6234 11.4395 18.4688 11.4395Z" fill="url(#paint1_linear_456_1582)"/>
<path fill-rule="evenodd" clip-rule="evenodd" d="M18.4688 15H7.78125C7.626 15 7.5 15.126 7.5 15.2812C7.5 15.4365 7.626 15.5625 7.78125 15.5625H18.4688C18.6234 15.5625 18.75 15.4365 18.75 15.2812C18.75 15.126 18.6234 15 18.4688 15Z" fill="url(#paint2_linear_456_1582)"/>
<path fill-rule="evenodd" clip-rule="evenodd" d="M18.4688 13.127H7.78125C7.626 13.127 7.5 13.2535 7.5 13.4082C7.5 13.564 7.626 13.6895 7.78125 13.6895H18.4688C18.6234 13.6895 18.75 13.564 18.75 13.4082C18.75 13.2535 18.6234 13.127 18.4688 13.127Z" fill="url(#paint3_linear_456_1582)"/>
<path fill-rule="evenodd" clip-rule="evenodd" d="M18.4688 16.6875H7.78125C7.626 16.6875 7.5 16.8141 7.5 16.9688C7.5 17.1246 7.626 17.25 7.78125 17.25H18.4688C18.6234 17.25 18.75 17.1246 18.75 16.9688C18.75 16.8141 18.6234 16.6875 18.4688 16.6875Z" fill="url(#paint4_linear_456_1582)"/>
<path fill-rule="evenodd" clip-rule="evenodd" d="M8.0625 10.3122H12C12.3111 10.3122 12.5625 10.0608 12.5625 9.7497V5.81445C12.5625 5.50339 12.3111 5.25195 12 5.25195H8.0625C7.75144 5.25195 7.5 5.50339 7.5 5.81445V9.7497C7.5 10.0602 7.75144 10.3122 8.0625 10.3122ZM8.625 6.3747H11.4375V9.1872H8.625V6.3747Z" fill="url(#paint5_linear_456_1582)"/>
</g>
<defs>
<linearGradient id="paint0_linear_456_1582" x1="-34.0552" y1="41.2353" x2="18.3882" y2="-7.73806" gradientUnits="userSpaceOnUse">
<stop offset="0.588191" stop-color="#2C65AA"/>
<stop offset="0.893191" stop-color="#3FB6B4"/>
</linearGradient>
<linearGradient id="paint1_linear_456_1582" x1="-15.6595" y1="12.6343" x2="-15.4841" y2="9.35831" gradientUnits="userSpaceOnUse">
<stop offset="0.588191" stop-color="#2C65AA"/>
<stop offset="0.893191" stop-color="#3FB6B4"/>
</linearGradient>
<linearGradient id="paint2_linear_456_1582" x1="-15.6595" y1="16.1949" x2="-15.4841" y2="12.9189" gradientUnits="userSpaceOnUse">
<stop offset="0.588191" stop-color="#2C65AA"/>
<stop offset="0.893191" stop-color="#3FB6B4"/>
</linearGradient>
<linearGradient id="paint3_linear_456_1582" x1="-15.6595" y1="14.3218" x2="-15.4841" y2="11.0458" gradientUnits="userSpaceOnUse">
<stop offset="0.588191" stop-color="#2C65AA"/>
<stop offset="0.893191" stop-color="#3FB6B4"/>
</linearGradient>
<linearGradient id="paint4_linear_456_1582" x1="-15.6595" y1="17.8824" x2="-15.4841" y2="14.6064" gradientUnits="userSpaceOnUse">
<stop offset="0.588191" stop-color="#2C65AA"/>
<stop offset="0.893191" stop-color="#3FB6B4"/>
</linearGradient>
<linearGradient id="paint5_linear_456_1582" x1="-2.92177" y1="16.0009" x2="11.8218" y2="2.22668" gradientUnits="userSpaceOnUse">
<stop offset="0.588191" stop-color="#2C65AA"/>
<stop offset="0.893191" stop-color="#3FB6B4"/>
</linearGradient>
<clipPath id="clip0_456_1582">
<rect width="18" height="18" fill="white" transform="translate(3 3)"/>
</clipPath>
</defs>
</svg>
