<svg width="56" height="56" viewBox="0 0 56 56" fill="none" xmlns="http://www.w3.org/2000/svg">
<path opacity="0.4" d="M32.6665 33.8333C32.6665 30.611 35.2798 28 38.4998 28C41.7198 28 44.3332 30.611 44.3332 33.8333C44.3332 34.209 44.3097 34.5754 44.2397 34.93C43.9131 36.645 42.9798 38.2224 42.6531 39.9327L41.9998 43.1667L47.8332 44.7207C49.8865 45.1757 51.3332 46.9933 51.3332 49.0933C51.3332 50.33 50.3299 51.3333 49.0933 51.3333H27.9064C26.6697 51.3333 25.6665 50.33 25.6665 49.0933C25.6665 46.9933 27.1132 45.1757 29.1665 44.7207L34.9998 43.1667L34.3465 39.9327C34.0199 38.2224 33.0866 36.645 32.7599 34.93C32.7133 34.5754 32.6665 34.209 32.6665 33.8333Z" fill="#3EB9B5"/>
<path d="M18.6665 53.0827C11.8205 53.0827 8.04983 53.0827 5.48317 50.5207C2.9165 47.961 2.9165 44.1857 2.9165 37.3327V18.666C2.9165 11.813 2.9165 8.04001 5.48317 5.47801C8.0475 2.91602 11.8205 2.91602 18.6665 2.91602H25.6665C32.5125 2.91602 36.2832 2.91602 38.8498 5.47801C41.4165 8.03768 41.4165 11.813 41.4165 18.666V20.9993C41.4165 21.9653 40.6325 22.7493 39.6665 22.7493C38.7005 22.7493 37.9165 21.9653 37.9165 20.9993V18.666C37.9165 12.5581 37.9165 9.49128 36.3766 7.95604C34.8343 6.41604 31.7705 6.41602 25.6665 6.41602H18.6665C12.5625 6.41602 9.49641 6.41604 7.95641 7.95604C6.4165 9.49361 6.4165 12.5593 6.4165 18.6649V37.3327C6.4165 43.4406 6.4165 46.5074 7.95641 48.0427C9.49875 49.5827 12.5625 49.5827 18.6665 49.5827C19.6325 49.5827 20.4165 50.3667 20.4165 51.3327C20.4165 52.2987 19.6325 53.0827 18.6665 53.0827Z" fill="#3EB9B5"/>
<path fill-rule="evenodd" clip-rule="evenodd" d="M27.9064 53.0827C25.7061 53.0827 23.9165 51.293 23.9165 49.0927C23.9165 46.162 25.9022 43.67 28.7488 43.0213L32.9582 41.899L32.6314 40.2797C32.4937 39.561 32.2161 38.833 31.9198 38.063C31.5815 37.181 31.2339 36.2687 31.0402 35.2583L31.0238 35.1603C30.9748 34.794 30.9165 34.3366 30.9165 33.835C30.9165 29.6536 34.3185 26.2516 38.4998 26.2516C42.6812 26.2516 46.0832 29.6536 46.0832 33.835C46.0832 34.3716 46.0412 34.8407 45.9572 35.2723C45.7658 36.271 45.4182 37.1834 45.0799 38.0654L45.0664 38.1005C44.7774 38.8575 44.5038 39.574 44.3728 40.2634L44.0415 41.9014L48.2508 43.0237C51.0975 43.6724 53.0832 46.1644 53.0832 49.0951C53.0832 51.2954 51.2936 53.085 49.0933 53.085L27.9064 53.0827ZM35.2286 44.916L29.5445 46.428C28.2915 46.7057 27.4165 47.8023 27.4165 49.0927C27.4165 49.3633 27.6357 49.5827 27.9064 49.5827H49.0933C49.3639 49.5827 49.5832 49.3633 49.5832 49.0927C49.5832 47.8023 48.7081 46.7057 47.4551 46.428L47.3829 46.4093L41.7711 44.9137L35.2286 44.916ZM36.4324 41.416H40.5695L40.9382 39.5867C41.1271 38.5979 41.4746 37.6906 41.8104 36.8137C42.1068 36.0414 42.3873 35.3097 42.5203 34.605C42.5623 34.388 42.5832 34.1406 42.5832 33.835C42.5832 31.5833 40.7515 29.7516 38.4998 29.7516C36.2482 29.7516 34.4165 31.5833 34.4165 33.835C34.4165 34.0916 34.4537 34.3857 34.4887 34.6493C34.6264 35.34 34.8994 36.0564 35.1887 36.8124L35.1946 36.8278C35.5288 37.7026 35.8737 38.6056 36.0662 39.6054L36.4324 41.416Z" fill="#3EB9B5"/>
<path d="M19.1589 25.0826H19.2498L19.2453 25.0849C19.8589 25.0849 20.4305 24.7606 20.7478 24.2309C22.4232 21.4263 26.0398 16.6126 28.6158 15.6373C29.5211 15.2943 29.9762 14.2839 29.6332 13.3809C29.2902 12.4756 28.2799 12.0206 27.3769 12.3636C24.2409 13.5513 21.0862 17.4946 19.2662 20.1009C17.9666 18.6239 16.7649 18.4722 16.3309 18.4722C15.3649 18.4722 14.5809 19.2562 14.5809 20.2222C14.5809 21.1112 15.2412 21.8462 16.0998 21.9582C16.2422 22.0282 16.8933 22.4226 17.6609 24.0722C17.9363 24.6602 18.5126 25.0499 19.1589 25.0826Z" fill="#3EB9B5"/>
<path d="M23.3332 34.416H13.9998C13.0338 34.416 12.2498 33.632 12.2498 32.666C12.2498 31.7 13.0338 30.916 13.9998 30.916H23.3332C24.2992 30.916 25.0832 31.7 25.0832 32.666C25.0832 33.632 24.2992 34.416 23.3332 34.416Z" fill="#3EB9B5"/>
<path d="M13.9998 41.416H23.3332C24.2992 41.416 25.0832 40.632 25.0832 39.666C25.0832 38.7 24.2992 37.916 23.3332 37.916H13.9998C13.0338 37.916 12.2498 38.7 12.2498 39.666C12.2498 40.632 13.0338 41.416 13.9998 41.416Z" fill="#3EB9B5"/>
</svg>
