<svg width="48" height="48" viewBox="0 0 48 48" fill="none" xmlns="http://www.w3.org/2000/svg">
<path opacity="0.4" d="M24.552 35.7113C32.3602 35.1991 38.5799 28.9741 39.0917 21.1593C39.1919 19.63 39.1919 18.0462 39.0917 16.5169C38.5799 8.70204 32.3602 2.47712 24.552 1.96491C21.8881 1.79016 19.1068 1.79052 16.4484 1.96491C8.64008 2.47712 2.42039 8.70204 1.90861 16.5169C1.80846 18.0462 1.80846 19.63 1.90861 21.1593C2.09501 24.0055 3.37057 26.6409 4.87226 28.8662C5.74418 30.424 5.16875 32.3684 4.26056 34.0668C3.60573 35.2914 3.27831 35.9037 3.5412 36.346C3.80409 36.7883 4.39131 36.8024 5.56576 36.8306C7.88834 36.8864 9.45451 36.2367 10.6977 35.332C11.4028 34.8189 11.7553 34.5623 11.9983 34.5328C12.2413 34.5034 12.7195 34.6977 13.6756 35.0863C14.535 35.4356 15.5329 35.6512 16.4484 35.7113C19.1068 35.8857 21.8881 35.886 24.552 35.7113Z" fill="#3EB9B5"/>
<path d="M17.5835 13.5007C17.5835 12.0526 18.9406 10.584 20.5002 10.584C22.2574 10.584 23.4168 11.8559 23.4168 13.1118C23.4168 13.5825 23.2687 14.0282 22.9951 14.418C22.7062 14.8295 22.3427 15.2579 21.9102 15.7505L21.6984 15.9911C21.3364 16.4016 20.9357 16.8559 20.5701 17.3165C19.7152 18.3935 18.7502 19.8601 18.7502 21.6673C18.7502 22.6338 19.5337 23.4173 20.5002 23.4173C21.4667 23.4173 22.2502 22.6338 22.2502 21.6673C22.2502 21.112 22.5514 20.45 23.3115 19.4925C23.6154 19.1095 23.9443 18.7364 24.3051 18.327L24.5406 18.0595C24.9753 17.5643 25.4513 17.0108 25.8598 16.4289C26.522 15.4854 26.9168 14.3442 26.9168 13.1118C26.9168 9.64249 23.8975 7.08398 20.5002 7.08398C16.9051 7.08398 14.0835 10.2236 14.0835 13.5007C14.0835 14.4672 14.867 15.2507 15.8335 15.2507C16.8 15.2507 17.5835 14.4672 17.5835 13.5007Z" fill="#3EB9B5"/>
<path d="M20.5002 25.1673C19.2115 25.1673 18.1668 26.212 18.1668 27.5007C18.1668 28.7893 19.2115 29.834 20.5002 29.834H20.5211C21.8098 29.834 22.8545 28.7893 22.8545 27.5007C22.8545 26.212 21.8098 25.1673 20.5211 25.1673H20.5002Z" fill="#3EB9B5"/>
<path fill-rule="evenodd" clip-rule="evenodd" d="M24.6665 0.218665C21.9263 0.0389078 19.0685 0.0392743 16.3338 0.218665C7.64808 0.788437 0.731449 7.71249 0.162351 16.4025C0.057211 18.008 0.057211 19.6682 0.162351 21.2736C0.375118 24.5226 1.80554 27.4338 3.37208 29.7713C3.7294 30.476 3.57552 31.6367 2.71734 33.2416L2.67104 33.3281C2.38446 33.8636 2.08607 34.4211 1.91124 34.9041C1.72384 35.4217 1.49699 36.3318 2.03684 37.2401C2.52616 38.0634 3.30256 38.3516 3.8834 38.4626C4.35612 38.5528 4.92749 38.5662 5.42905 38.5779L5.52373 38.5801C8.24971 38.6456 10.1892 37.8663 11.7274 36.747C11.9372 36.5943 12.0965 36.4787 12.2226 36.3896C12.4178 36.4644 12.6716 36.5673 13.0167 36.7076C14.0636 37.133 15.2469 37.3862 16.3338 37.4575C19.0685 37.6369 21.9263 37.6373 24.6665 37.4575C33.3522 36.8878 40.2689 29.9637 40.838 21.2736C40.9431 19.6682 40.9431 18.008 40.838 16.4025C40.2689 7.71249 33.3522 0.788437 24.6665 0.218665ZM16.5629 3.71116C19.1452 3.54177 21.8499 3.54142 24.4374 3.71116C31.3682 4.16581 36.891 9.6916 37.3455 16.6313C37.4406 18.0844 37.4406 19.5918 37.3455 21.0449C36.891 27.9846 31.3682 33.5104 24.4374 33.965C21.8499 34.1348 19.1452 34.1344 16.5629 33.965C15.8189 33.9162 15.0065 33.7383 14.3346 33.4651L14.292 33.4478C13.8504 33.2683 13.4562 33.1081 13.1431 32.9995L13.1325 32.9958C12.8955 32.9135 12.3569 32.7265 11.7875 32.7956C11.2359 32.8625 10.7927 33.1399 10.5794 33.2761C10.3271 33.4373 10.0256 33.6567 9.70636 33.8891L9.66798 33.917C8.73536 34.5957 7.56608 35.1101 5.70176 35.083L5.80377 34.892C6.74116 33.1391 7.7519 30.4281 6.39934 28.0115C6.37558 27.969 6.35007 27.9276 6.32285 27.8872C4.90531 25.7867 3.81265 23.4543 3.65487 21.0449C3.5597 19.5918 3.5597 18.0844 3.65487 16.6313C4.10934 9.6916 9.63209 4.16581 16.5629 3.71116Z" fill="#3EB9B5"/>
<path d="M44.0555 18.9034C44.9379 18.509 45.9729 18.9046 46.3673 19.787C47.1883 21.6238 47.7 23.6294 47.838 25.7363C47.9432 27.3418 47.9432 29.0019 47.838 30.6074C47.6253 33.8563 46.1948 36.7675 44.6283 39.1051C44.271 39.8098 44.4248 40.9705 45.283 42.5754L45.3293 42.6619C45.6159 43.1974 45.9143 43.7549 46.0891 44.2378C46.2765 44.7555 46.5034 45.6655 45.9635 46.5739C45.4742 47.3972 44.6978 47.6854 44.117 47.7963C43.6442 47.8866 43.0728 47.9 42.5713 47.9117L42.4766 47.9139C39.7507 47.9794 37.8111 47.2001 36.273 46.0807C36.0632 45.9281 35.9038 45.8124 35.7777 45.7234C35.5826 45.7982 35.3288 45.9011 34.9837 46.0413C33.9368 46.4668 32.7535 46.72 31.6666 46.7913C28.9319 46.9707 26.0741 46.971 23.3339 46.7913C19.5553 46.5434 16.2612 45.0931 13.5508 42.849C12.8064 42.2326 12.7026 41.1295 13.3189 40.385C13.9353 39.6406 15.0385 39.5368 15.7829 40.1532C17.9743 41.9676 20.5794 43.1031 23.563 43.2988C26.1505 43.4685 28.8552 43.4682 31.4375 43.2988C32.1815 43.25 32.9938 43.072 33.6658 42.7989L33.7084 42.7816C34.15 42.6021 34.5441 42.4419 34.8572 42.3333L34.8678 42.3296C35.1048 42.2473 35.6435 42.0603 36.2129 42.1294C36.7644 42.1963 37.2076 42.4737 37.4209 42.6099C37.673 42.7709 37.9742 42.9901 38.2932 43.2222L38.3324 43.2508C39.265 43.9295 40.4343 44.4439 42.2986 44.4167L42.1966 44.2258C41.2592 42.4728 40.2485 39.7619 41.601 37.3452C41.6248 37.3028 41.6503 37.2613 41.6775 37.221C43.0951 35.1204 44.1877 32.788 44.3455 30.3787C44.4407 28.9255 44.4407 27.4182 44.3455 25.965C44.2351 24.279 43.8262 22.6789 43.1719 21.2152C42.7775 20.3328 43.1731 19.2978 44.0555 18.9034Z" fill="#3EB9B5"/>
</svg>
