<svg width="36" height="26" viewBox="0 0 36 26" fill="none" xmlns="http://www.w3.org/2000/svg">
<path opacity="0.4" d="M21.5094 20.1843C25.2758 15.8186 28.9118 12.857 33.4791 8.66298C34.8462 7.40762 35.0573 5.20718 33.9849 3.64819C32.8452 1.99131 30.6794 1.66012 29.2135 2.97733C25.0298 6.73662 21.7751 10.3563 18.6875 14.225C18.5255 14.428 18.4445 14.5295 18.3604 14.5867C18.1472 14.7316 17.8807 14.7331 17.6661 14.5907C17.5815 14.5345 17.5003 14.4349 17.338 14.2358L15.6928 12.2178C14.1916 10.3765 11.4991 10.5803 10.2457 12.6302C9.36864 14.0646 9.49862 15.9656 10.5611 17.2424L13.141 20.3428C15.0707 22.6618 16.0355 23.8212 17.1938 23.8326C18.3521 23.844 19.4045 22.6241 21.5094 20.1843Z" fill="#3EB9B5"/>
<path fill-rule="evenodd" clip-rule="evenodd" d="M35.015 2.94144C33.4844 0.716284 30.4524 0.185474 28.3783 2.04923C24.2668 5.74367 21.0405 9.30497 18.006 13.0784L16.6619 11.4296C14.6017 8.90266 10.8705 9.21437 9.17957 11.9798C8.02795 13.8632 8.19003 16.3486 9.60051 18.0437L12.2362 21.2111C13.1534 22.3134 13.9202 23.2349 14.6074 23.8716C15.3172 24.5294 16.1386 25.074 17.1818 25.0842C18.2447 25.0946 19.0988 24.5243 19.8366 23.8552C20.5648 23.1949 21.3955 22.232 22.4006 21.0669L22.4561 21.0025C25.2792 17.7303 28.0069 15.2809 31.1934 12.4196C32.1869 11.5274 33.2253 10.595 34.3248 9.58536C36.1727 7.88847 36.4232 4.9885 35.015 2.94144ZM30.0492 3.90879C30.9069 3.13813 32.2065 3.26968 32.9553 4.3583C33.692 5.42921 33.5202 6.93012 32.6339 7.74396C31.5825 8.7094 30.5734 9.61537 29.5954 10.4934C26.3793 13.3806 23.4996 15.9659 20.5632 19.3694C19.4885 20.6152 18.7577 21.4588 18.1572 22.0034C17.553 22.5513 17.3018 22.5853 17.2063 22.5843C17.0913 22.5832 16.8511 22.5424 16.3065 22.0378C15.7532 21.5251 15.0898 20.7319 14.1021 19.5449L11.5222 16.4446C10.8077 15.586 10.7099 14.2694 11.3124 13.2839C12.1283 11.9497 13.7821 11.8537 14.7242 13.0093L16.3695 15.0274L16.4028 15.0687C16.5132 15.2065 16.7199 15.4644 16.975 15.6338C17.6132 16.0574 18.4306 16.0522 19.0634 15.6221C19.233 15.5068 19.3552 15.3767 19.4328 15.2886C19.5046 15.2072 19.5824 15.1096 19.6526 15.0217L19.6648 15.0064C22.7189 11.1795 25.927 7.61284 30.0492 3.90879Z" fill="#3EB9B5"/>
<path d="M23.2171 0.981305C21.9623 0.76012 20.6464 1.1144 19.6185 2.05819C18.0624 3.48689 16.6349 4.89653 15.2968 6.30748C14.8217 6.80839 14.8427 7.59957 15.3436 8.07463C15.8445 8.54968 16.6357 8.52872 17.1107 8.02781C18.4096 6.65825 19.796 5.28907 21.3092 3.89973C21.762 3.48399 22.2918 3.35675 22.7831 3.44335C23.463 3.56319 24.1113 3.10919 24.2311 2.42932C24.351 1.74944 23.897 1.10114 23.2171 0.981305Z" fill="#3EB9B5"/>
<path d="M2.97293 13.2737C3.62076 12.1911 4.76476 11.9695 5.61528 12.4466C6.21735 12.7844 6.97926 12.5701 7.31704 11.9681C7.65481 11.366 7.44056 10.6041 6.83848 10.2663C4.7579 9.09906 2.14092 9.79545 0.827707 11.9899C-0.295229 13.8664 -0.139014 16.3405 1.23971 18.0334L3.81977 21.2015C4.717 22.3033 5.4677 23.2251 6.14083 23.8624C6.83429 24.5189 7.64723 25.0737 8.6878 25.0842C9.61137 25.0934 10.3686 24.6534 11.0139 24.1118C11.5427 23.668 11.6116 22.8795 11.1678 22.3507C10.7239 21.8219 9.93549 21.753 9.4067 22.1969C8.96085 22.5711 8.77319 22.5849 8.71286 22.5843C8.61982 22.5834 8.39382 22.5527 7.85961 22.047C7.31879 21.5349 6.67002 20.7423 5.70313 19.5551L3.17819 16.4547C2.47726 15.594 2.37906 14.2661 2.97293 13.2737Z" fill="#3EB9B5"/>
</svg>
