<svg width="52" height="52" viewBox="0 0 52 52" fill="none" xmlns="http://www.w3.org/2000/svg">
<path opacity="0.4" d="M27.9318 12.0016C28.1903 11.2711 28.3309 10.485 28.3309 9.66602C28.3309 5.80002 25.1969 2.66602 21.3309 2.66602C17.4649 2.66602 14.3309 5.80002 14.3309 9.66602C14.3309 10.485 14.4716 11.2711 14.73 12.0016C9.39891 12.021 6.55386 12.2103 4.71452 14.0496C2.87536 15.8888 2.686 18.7334 2.6665 24.0635C3.39569 23.8061 4.18029 23.666 4.9976 23.666C8.86359 23.666 11.9976 26.8 11.9976 30.666C11.9976 34.532 8.86359 37.666 4.9976 37.666C4.18029 37.666 3.39569 37.5259 2.6665 37.2685C2.686 42.5986 2.87536 45.4433 4.71452 47.2824C6.55368 49.1216 9.39835 49.3109 14.7285 49.3304C14.471 48.6013 14.3309 47.8167 14.3309 46.9993C14.3309 43.1334 17.4649 39.9993 21.3309 39.9993C25.1969 39.9993 28.3309 43.1334 28.3309 46.9993C28.3309 47.8167 28.1909 48.6013 27.9334 49.3304C33.2635 49.3109 36.1082 49.1216 37.9473 47.2824C39.7867 45.4431 39.9759 42.598 39.9954 37.2669C40.7258 37.5254 41.5119 37.666 42.3309 37.666C46.1969 37.666 49.3309 34.532 49.3309 30.666C49.3309 26.8 46.1969 23.666 42.3309 23.666C41.5119 23.666 40.7258 23.8067 39.9954 24.0651C39.9759 18.734 39.7867 15.8889 37.9473 14.0496C36.108 12.2103 33.263 12.021 27.9318 12.0016Z" fill="#3EB9B5"/>
<path fill-rule="evenodd" clip-rule="evenodd" d="M12.5809 9.66602C12.5809 4.83352 16.4984 0.916016 21.3309 0.916016C26.1634 0.916016 30.0809 4.83352 30.0809 9.66602C30.0809 9.87021 30.0739 10.0729 30.0601 10.2739C31.7806 10.3092 33.2717 10.3969 34.5489 10.619C36.3756 10.9368 37.9274 11.5548 39.1848 12.8122C40.4422 14.0695 41.0601 15.6213 41.3779 17.448C41.6001 18.7252 41.6878 20.2163 41.7231 21.9369C41.924 21.923 42.1267 21.916 42.3309 21.916C47.1634 21.916 51.0809 25.8335 51.0809 30.666C51.0809 35.4985 47.1634 39.416 42.3309 39.416C42.1267 39.416 41.924 39.409 41.7231 39.3952C41.6878 41.1157 41.6001 42.6068 41.3779 43.884C41.0601 45.7107 40.4422 47.2625 39.1848 48.5199C37.9275 49.7771 36.3759 50.3951 34.5495 50.7129C32.7737 51.0219 30.5844 51.0708 27.9398 51.0804C27.3707 51.0825 26.8361 50.8077 26.5066 50.3437C26.1771 49.8797 26.0938 49.2845 26.2832 48.7478C26.4755 48.2032 26.5809 47.6154 26.5809 46.9993C26.5809 44.0998 24.2304 41.7493 21.3309 41.7493C18.4314 41.7493 16.0809 44.0998 16.0809 46.9993C16.0809 47.6154 16.1863 48.2032 16.3786 48.7478C16.5681 49.2845 16.4848 49.8797 16.1553 50.3437C15.8257 50.8077 15.2912 51.0825 14.7221 51.0804C12.0775 51.0708 9.88816 51.0219 8.11239 50.7129C6.28593 50.3951 4.73432 49.7771 3.47708 48.5199C2.21984 47.2626 1.60184 45.711 1.28404 43.8846C0.975062 42.1088 0.926189 39.9195 0.916516 37.2749C0.914434 36.7058 1.18922 36.1712 1.65322 35.8417C2.11722 35.5122 2.71248 35.4289 3.24912 35.6183C3.79377 35.8106 4.38149 35.916 4.9976 35.916C7.89709 35.916 10.2476 33.5655 10.2476 30.666C10.2476 27.7665 7.89709 25.416 4.9976 25.416C4.38148 25.416 3.79376 25.5214 3.24912 25.7137C2.71248 25.9032 2.11722 25.8199 1.65322 25.4903C1.18922 25.1608 0.914434 24.6262 0.916516 24.0571C0.926189 21.4125 0.975062 19.2232 1.28404 17.4475C1.60184 15.621 2.21984 14.0694 3.47708 12.8122C4.73445 11.5548 6.28624 10.9368 8.11293 10.619C9.39012 10.3969 10.8812 10.3092 12.6018 10.2739C12.588 10.0729 12.5809 9.87021 12.5809 9.66602ZM21.3309 4.41602C18.4314 4.41602 16.0809 6.76652 16.0809 9.66602C16.0809 10.2834 16.1868 10.8722 16.3798 11.4178C16.569 11.9524 16.4874 12.5455 16.1609 13.0092C15.8344 13.4728 15.3035 13.7495 14.7364 13.7516C12.0504 13.7614 10.1519 13.8169 8.71278 14.0672C7.32433 14.3088 6.53393 14.7051 5.95196 15.287C5.37004 15.869 4.97378 16.6593 4.73223 18.0475C4.55413 19.071 4.47461 20.327 4.44001 21.9336C4.6245 21.9219 4.81042 21.916 4.9976 21.916C9.83009 21.916 13.7476 25.8335 13.7476 30.666C13.7476 35.4985 9.83009 39.416 4.9976 39.416C4.81042 39.416 4.6245 39.4101 4.44001 39.3985C4.47461 41.005 4.55413 42.261 4.73223 43.2846C4.97378 44.6728 5.37004 45.4631 5.95195 46.045C6.53387 46.6269 7.32418 47.0232 8.71237 47.2647C9.73596 47.4428 10.9919 47.5223 12.5985 47.5569C12.5868 47.3724 12.5809 47.1865 12.5809 46.9993C12.5809 42.1669 16.4984 38.2493 21.3309 38.2493C26.1634 38.2493 30.0809 42.1669 30.0809 46.9993C30.0809 47.1865 30.075 47.3724 30.0634 47.5569C31.6699 47.5223 32.9259 47.4428 33.9495 47.2647C35.3377 47.0232 36.128 46.6269 36.7099 46.045C37.2919 45.463 37.6882 44.6726 37.9297 43.2842C38.1801 41.845 38.2356 39.9466 38.2454 37.2605C38.2474 36.6935 38.5242 36.1626 38.9878 35.8361C39.4514 35.5096 40.0445 35.428 40.5791 35.6171C41.1247 35.8102 41.7136 35.916 42.3309 35.916C45.2304 35.916 47.5809 33.5655 47.5809 30.666C47.5809 27.7665 45.2304 25.416 42.3309 25.416C41.7136 25.416 41.1247 25.5218 40.5791 25.7149C40.0445 25.904 39.4514 25.8224 38.9878 25.496C38.5242 25.1695 38.2474 24.6386 38.2454 24.0715C38.2356 21.3855 38.1801 19.487 37.9297 18.0479C37.6882 16.6594 37.2919 15.869 36.7099 15.287C36.1279 14.7051 35.3375 14.3088 33.9491 14.0672C32.5099 13.8169 30.6115 13.7614 27.9254 13.7516C27.3584 13.7495 26.8275 13.4728 26.501 13.0092C26.1745 12.5455 26.0929 11.9524 26.2821 11.4178C26.4751 10.8722 26.5809 10.2834 26.5809 9.66602C26.5809 6.76652 24.2304 4.41602 21.3309 4.41602Z" fill="#3EB9B5"/>
</svg>
