<svg width="56" height="56" viewBox="0 0 56 56" fill="none" xmlns="http://www.w3.org/2000/svg">
<path opacity="0.4" d="M30.3335 4.66602V15.6092C30.3335 17.3361 30.3335 18.1995 29.7779 18.5344C29.754 18.5489 29.7295 18.5624 29.7046 18.5751C29.1259 18.8699 28.3706 18.4256 26.8601 17.5371C25.7309 16.8729 25.1663 16.5408 24.5433 16.5295C24.5145 16.529 24.4858 16.529 24.457 16.5295C23.834 16.5408 23.2694 16.8729 22.1402 17.5371C20.6297 18.4256 19.8745 18.8699 19.2957 18.5751C19.2708 18.5624 19.2463 18.5489 19.2224 18.5344C18.6668 18.1995 18.6668 17.3361 18.6668 15.6092V4.80885C14.9798 5.04828 12.616 5.68834 10.9049 7.39944C8.1712 10.1331 8.1712 14.5329 8.1712 23.3324V44.0483C8.07258 44.5825 8.08837 45.0849 8.1712 45.4991V44.0483C8.53558 42.0744 10.4617 39.6658 16.3379 39.6658C23.8045 39.6658 40.449 39.5547 47.8379 39.4991V23.3324C47.8379 14.5329 47.8379 10.1331 45.1042 7.39944C42.4936 4.78887 38.3636 4.67131 30.3335 4.66602Z" fill="#3EB9B5"/>
<path fill-rule="evenodd" clip-rule="evenodd" d="M29.2981 2.91602H26.7015C22.4134 2.91598 19.0169 2.91595 16.3588 3.27333C13.6231 3.64113 11.4089 4.41607 9.66274 6.16225C7.91656 7.90843 7.14162 10.1226 6.77382 12.8583C6.41644 15.5165 6.41647 18.9129 6.4165 23.201V45.4993C6.4165 49.6875 9.81168 53.0827 13.9998 53.0827H47.8332C48.7997 53.0827 49.5832 52.2992 49.5832 51.3327C49.5832 50.3662 48.7997 49.5827 47.8332 49.5827C45.578 49.5827 43.7498 47.7545 43.7498 45.4993C43.7498 43.2442 45.578 41.416 47.8332 41.416C48.7997 41.416 49.5832 40.6325 49.5832 39.666C49.5832 39.6394 49.5826 39.613 49.5814 39.5866C49.5813 39.5853 49.5813 39.584 49.5812 39.5827C49.5815 39.5758 49.5818 39.5689 49.5821 39.562C49.5828 39.5412 49.5832 39.5203 49.5832 39.4993V23.2011C49.5832 18.913 49.5832 15.5164 49.2259 12.8583C48.8581 10.1226 48.0831 7.90843 46.3369 6.16225C44.5908 4.41607 42.3765 3.64113 39.6409 3.27333C36.9827 2.91595 33.5862 2.91598 29.2981 2.91602ZM41.442 41.416H13.9998C11.7459 41.416 9.91852 43.2422 9.91651 45.4956V45.4993C9.9165 47.7545 11.7447 49.5827 13.9998 49.5827H41.442C40.6873 48.404 40.2498 47.0028 40.2498 45.4993C40.2498 43.9959 40.6873 42.5947 41.442 41.416ZM13.9998 37.916C12.4964 37.916 11.0952 38.3535 9.91651 39.1081V23.3327C9.91651 18.8834 9.92022 15.7225 10.2426 13.3247C10.5582 10.9771 11.1501 9.62461 12.1376 8.63712C13.1251 7.64964 14.4776 7.05774 16.8252 6.74212L16.9166 6.73003L16.9175 15.6084C16.9175 17.6174 16.9175 19.0898 18.1892 19.9415C18.3455 20.0605 18.5018 20.1444 18.6535 20.2027C20.0255 20.8141 21.2925 20.0721 23.0192 19.0594L23.0425 19.0454L23.0598 19.035C23.6097 18.7056 24.2815 18.303 24.5032 18.2684C24.7272 18.3057 25.4108 18.7141 25.9638 19.0454L25.9872 19.0594C27.2779 19.8167 28.3124 20.4235 29.3262 20.4245C29.666 20.4241 30.0036 20.3564 30.3482 20.2027C30.4998 20.1444 30.6562 20.0605 30.8125 19.9415C32.0842 19.0898 32.0842 17.6198 32.0842 15.6084L32.0832 6.42066C35.0524 6.43518 37.3374 6.49513 39.1745 6.74212C41.5221 7.05774 42.8746 7.64964 43.8621 8.63712C44.8495 9.62461 45.4414 10.9771 45.7571 13.3247C46.0795 15.7225 46.0832 18.8834 46.0832 23.3327V37.916H13.9998ZM28.5832 6.41602H26.8332C24.3127 6.41602 22.2057 6.41721 20.4166 6.47685L20.4175 15.6084C20.4175 15.9118 20.4175 16.2291 20.4222 16.5184C20.6835 16.3714 20.9728 16.2011 21.2458 16.0401C22.4382 15.3261 23.3015 14.8104 24.3935 14.7684H24.6082C25.6996 14.8081 26.5626 15.3255 27.7562 16.0413L28.0025 16.185C28.1983 16.2996 28.3953 16.4148 28.5795 16.5184C28.5842 16.2315 28.5842 15.9121 28.5842 15.6089L28.5832 6.41602Z" fill="#3EB9B5"/>
</svg>
