<svg width="56" height="56" viewBox="0 0 56 56" fill="none" xmlns="http://www.w3.org/2000/svg">
<g opacity="0.4">
<path d="M19.8332 19.8333C19.8332 23.055 17.2215 25.6667 13.9998 25.6667C10.7782 25.6667 8.1665 23.055 8.1665 19.8333C8.1665 16.6117 10.7782 14 13.9998 14C17.2215 14 19.8332 16.6117 19.8332 19.8333Z" fill="#3EB9B5"/>
<path d="M47.8332 19.8333C47.8332 23.055 45.2215 25.6667 41.9998 25.6667C38.7782 25.6667 36.1665 23.055 36.1665 19.8333C36.1665 16.6117 38.7782 14 41.9998 14C45.2215 14 47.8332 16.6117 47.8332 19.8333Z" fill="#3EB9B5"/>
<path d="M18.0496 35.7441C18.3496 35.5679 18.6249 35.4061 18.862 35.2594C24.4528 31.8024 31.5468 31.8024 37.1376 35.2594C37.3748 35.4061 37.6501 35.5679 37.95 35.7441C40.6657 37.3399 45.3942 40.1185 41.9655 43.5107C40.1057 45.3507 38.0343 46.6667 35.43 46.6667H20.5696C17.9654 46.6667 15.894 45.3507 14.0341 43.5107C10.6055 40.1185 15.334 37.3399 18.0496 35.7441Z" fill="#3EB9B5"/>
</g>
<path fill-rule="evenodd" clip-rule="evenodd" d="M18.083 17.5007C18.083 12.0238 22.5229 7.58398 27.9997 7.58398C33.4765 7.58398 37.9163 12.0238 37.9163 17.5007C37.9163 22.9775 33.4765 27.4173 27.9997 27.4173C22.5229 27.4173 18.083 22.9775 18.083 17.5007ZM27.9997 11.084C24.4558 11.084 21.583 13.9568 21.583 17.5007C21.583 21.0445 24.4558 23.9173 27.9997 23.9173C31.5435 23.9173 34.4163 21.0445 34.4163 17.5007C34.4163 13.9568 31.5435 11.084 27.9997 11.084Z" fill="#3EB9B5"/>
<path fill-rule="evenodd" clip-rule="evenodd" d="M17.9419 33.7717C24.0967 29.9659 31.9034 29.9659 38.0582 33.7717C38.2396 33.8838 38.4693 34.0183 38.7333 34.1727C39.9286 34.8722 41.8263 35.9826 43.1211 37.2987C43.9343 38.1253 44.7454 39.2522 44.8932 40.6571C45.0514 42.1601 44.4135 43.5513 43.1965 44.7554C41.1861 46.7444 38.6956 48.4173 35.4302 48.4173H20.5698C17.3044 48.4173 14.814 46.7444 12.8035 44.7554C11.5865 43.5513 10.9486 42.1601 11.1068 40.6571C11.2547 39.2522 12.0657 38.1253 12.879 37.2987C14.1737 35.9826 16.0712 34.8723 17.2665 34.1729C17.5306 34.0184 17.7604 33.8839 17.9419 33.7717ZM36.2174 36.7485C31.1907 33.6402 24.8094 33.6403 19.7826 36.7485C19.4809 36.9351 19.1573 37.1259 18.8235 37.3227C17.6291 38.0269 16.3031 38.8088 15.374 39.7533C14.8023 40.3343 14.6155 40.7584 14.5876 41.0234C14.57 41.1903 14.5784 41.5879 15.2651 42.2673C16.9744 43.9583 18.6267 44.9173 20.5698 44.9173H35.4302C37.3733 44.9173 39.0257 43.9583 40.7349 42.2673C41.4216 41.5879 41.43 41.1903 41.4125 41.0234C41.3846 40.7584 41.1977 40.3343 40.6261 39.7533C39.6969 38.8088 38.371 38.027 37.1767 37.3228C36.8428 37.1259 36.5192 36.9351 36.2174 36.7485Z" fill="#3EB9B5"/>
<path d="M5.24978 19.834C5.24978 15.6458 8.64495 12.2507 12.8331 12.2507C13.7996 12.2507 14.5831 13.0342 14.5831 14.0007C14.5831 14.9672 13.7996 15.7507 12.8331 15.7507C10.5779 15.7507 8.74978 17.5788 8.74978 19.834C8.74978 22.0891 10.5779 23.9173 12.8331 23.9173C13.7996 23.9173 14.5831 24.7008 14.5831 25.6673C14.5831 26.6338 13.7996 27.4173 12.8331 27.4173C8.64495 27.4173 5.24978 24.0221 5.24978 19.834Z" fill="#3EB9B5"/>
<path d="M11.5088 28.5911C12.4713 28.504 13.3222 29.2137 13.4093 30.1763C13.4964 31.1389 12.7867 31.9898 11.8241 32.0769C10.3301 32.212 8.82585 32.7892 7.44833 33.8499C7.22638 34.0208 6.996 34.1902 6.76366 34.3609C5.97126 34.9433 5.15602 35.5425 4.57445 36.2787C4.22917 36.7158 4.10578 37.0443 4.08618 37.2762C4.07123 37.4531 4.09643 37.7642 4.49816 38.2592C5.65407 39.6834 6.59482 40.2507 7.52701 40.2507C8.49351 40.2507 9.27701 41.0342 9.27701 42.0007C9.27701 42.9672 8.49351 43.7507 7.52701 43.7507C4.96246 43.7507 3.12193 42.1175 1.7806 40.4648C0.904305 39.3851 0.495561 38.2007 0.598617 36.9814C0.69702 35.8172 1.24358 34.849 1.82804 34.1091C2.74273 32.9512 4.09979 31.964 4.89472 31.3857C5.06213 31.2639 5.20475 31.1601 5.3129 31.0768C7.18959 29.6317 9.31887 28.7892 11.5088 28.5911Z" fill="#3EB9B5"/>
<path d="M40.2497 14.0007C40.2497 13.0342 41.0332 12.2507 41.9997 12.2507C46.1878 12.2507 49.583 15.6458 49.583 19.834C49.583 24.0221 46.1878 27.4173 41.9997 27.4173C41.0332 27.4173 40.2497 26.6338 40.2497 25.6673C40.2497 24.7008 41.0332 23.9173 41.9997 23.9173C44.2548 23.9173 46.083 22.0891 46.083 19.834C46.083 17.5788 44.2548 15.7507 41.9997 15.7507C41.0332 15.7507 40.2497 14.9672 40.2497 14.0007Z" fill="#3EB9B5"/>
<path d="M42.5901 30.1763C42.6772 29.2137 43.5281 28.504 44.4907 28.5911C46.6806 28.7892 48.8099 29.6317 50.6865 31.0768C50.7947 31.1601 50.9371 31.2637 51.1044 31.3855C51.8994 31.9638 53.2567 32.9512 54.1714 34.1091C54.7559 34.849 55.3024 35.8172 55.4008 36.9814C55.5039 38.2007 55.0951 39.3851 54.2188 40.4648C52.8775 42.1175 51.037 43.7507 48.4724 43.7507C47.5059 43.7507 46.7224 42.9672 46.7224 42.0007C46.7224 41.0342 47.5059 40.2507 48.4724 40.2507C49.4046 40.2507 50.3454 39.6834 51.5013 38.2592C51.903 37.7642 51.9282 37.4531 51.9133 37.2762C51.8937 37.0443 51.7703 36.7158 51.425 36.2787C50.8434 35.5425 50.0282 34.9433 49.2358 34.3609C49.0035 34.1902 48.773 34.0208 48.5511 33.8499C47.1736 32.7892 45.6694 32.212 44.1753 32.0769C43.2128 31.9898 42.503 31.1389 42.5901 30.1763Z" fill="#3EB9B5"/>
</svg>
