<svg width="32" height="36" viewBox="0 0 32 36" fill="none" xmlns="http://www.w3.org/2000/svg">
<path opacity="0.4" d="M8.52286 3.83398C8.5034 3.97007 8.49333 4.10918 8.49333 4.25065C8.49333 5.86148 9.79916 7.16732 11.41 7.16732L20.5767 7.16732C22.1875 7.16732 23.4933 5.86148 23.4933 4.25065C23.4933 4.10918 23.4833 3.97007 23.4638 3.83398H23.4868C26.0798 3.91177 27.6258 4.20038 28.6955 5.27111C30.16 6.73694 30.16 9.09616 30.16 13.8146V24.658C30.16 29.3764 30.16 31.7357 28.6955 33.2015C27.2311 34.6673 24.874 34.6673 20.16 34.6673L11.8267 34.6673C7.11262 34.6673 4.75559 34.6673 3.29113 33.2015C1.82666 31.7357 1.82666 29.3764 1.82666 24.658L1.82666 13.8146C1.82666 9.09616 1.82666 6.73694 3.29113 5.27111C4.36086 4.20038 5.90684 3.91177 8.49984 3.83398H8.52286Z" fill="#3EB9B5"/>
<path d="M8.07992 16.334C8.07992 15.6436 8.63956 15.084 9.32992 15.084L22.6633 15.084C23.3536 15.084 23.9133 15.6436 23.9133 16.334C23.9133 17.0243 23.3536 17.584 22.6633 17.584L9.32992 17.584C8.63956 17.584 8.07992 17.0243 8.07992 16.334Z" fill="#3EB9B5"/>
<path d="M8.07992 24.6673C8.07992 23.977 8.63956 23.4173 9.32992 23.4173H15.9966C16.6869 23.4173 17.2466 23.977 17.2466 24.6673C17.2466 25.3577 16.6869 25.9173 15.9966 25.9173H9.32992C8.63956 25.9173 8.07992 25.3577 8.07992 24.6673Z" fill="#3EB9B5"/>
<path fill-rule="evenodd" clip-rule="evenodd" d="M24.4129 2.62184C26.5688 2.74229 28.297 3.10388 29.5798 4.38789C30.5828 5.39181 31.0142 6.65573 31.2158 8.15697C31.4101 9.60312 31.41 11.4419 31.41 13.7235L31.41 24.7496C31.41 27.0312 31.4101 28.87 31.2158 30.3161C31.0142 31.8174 30.5828 33.0813 29.5798 34.0852C28.5767 35.0893 27.3135 35.5213 25.8131 35.7232C24.3681 35.9176 22.5308 35.9176 20.2516 35.9176L11.7352 35.9176C9.45591 35.9176 7.61863 35.9176 6.17359 35.7232C4.6732 35.5213 3.40998 35.0893 2.40683 34.0852C1.40385 33.0813 0.972496 31.8174 0.770848 30.3161C0.576602 28.87 0.576628 27.0312 0.576661 24.7497L0.576661 13.7234C0.576628 11.4419 0.576601 9.6031 0.770847 8.15697C0.972495 6.65573 1.40385 5.39181 2.40683 4.38789C3.68965 3.10388 5.41786 2.74229 7.57372 2.62184C8.2079 1.13006 9.68678 0.0839844 11.41 0.0839844L20.5767 0.0839844C22.2999 0.0839844 23.7788 1.13006 24.4129 2.62184ZM7.33928 5.14379C5.57593 5.27676 4.74455 5.58518 4.17542 6.15483C3.71395 6.61674 3.41306 7.26534 3.24859 8.48978C3.07931 9.75006 3.07666 11.4203 3.07666 13.8148L3.07666 24.6583C3.07666 27.0528 3.07931 28.723 3.2486 29.9833C3.41306 31.2078 3.71395 31.8564 4.17542 32.3183C4.63674 32.78 5.28427 33.081 6.50702 33.2455C7.76584 33.4149 9.43427 33.4176 11.8267 33.4176L20.16 33.4176C22.5524 33.4176 24.2208 33.4149 25.4796 33.2455C26.7024 33.081 27.3499 32.78 27.8112 32.3183C28.2727 31.8564 28.5736 31.2078 28.7381 29.9833C28.9073 28.723 28.91 27.0528 28.91 24.6583L28.91 13.8148C28.91 11.4203 28.9073 9.75006 28.7381 8.48978C28.5736 7.26534 28.2727 6.61674 27.8112 6.15483C27.2421 5.58518 26.4107 5.27676 24.6474 5.14379C24.2385 7.01578 22.5713 8.41732 20.5767 8.41732L11.41 8.41732C9.41538 8.41732 7.74811 7.01578 7.33928 5.14379ZM9.74333 4.25065C9.74333 3.33018 10.4895 2.58398 11.41 2.58398L20.5767 2.58398C21.4971 2.58398 22.2433 3.33018 22.2433 4.25065C22.2433 5.17113 21.4971 5.91732 20.5767 5.91732L11.41 5.91732C10.4895 5.91732 9.74333 5.17113 9.74333 4.25065Z" fill="#3EB9B5"/>
</svg>
