<svg width="40" height="40" viewBox="0 0 40 40" fill="none" xmlns="http://www.w3.org/2000/svg">
<path opacity="0.4" d="M10.3001 25.4946C8.20415 26.7231 2.70869 29.2317 6.05579 32.3706C7.69083 33.904 9.51184 35.0007 11.8013 35.0007H24.8654C27.1548 35.0007 28.9758 33.904 30.6109 32.3706C33.958 29.2317 28.4625 26.7231 26.3666 25.4946C21.4516 22.6138 15.2151 22.6138 10.3001 25.4946Z" fill="#3EB9B5"/>
<path fill-rule="evenodd" clip-rule="evenodd" d="M18.3333 3.75C13.9611 3.75 10.4167 7.29441 10.4167 11.6667C10.4167 16.0389 13.9611 19.5833 18.3333 19.5833C22.7056 19.5833 26.25 16.0389 26.25 11.6667C26.25 7.29441 22.7056 3.75 18.3333 3.75ZM12.9167 11.6667C12.9167 8.67512 15.3418 6.25 18.3333 6.25C21.3249 6.25 23.75 8.67512 23.75 11.6667C23.75 14.6582 21.3249 17.0833 18.3333 17.0833C15.3418 17.0833 12.9167 14.6582 12.9167 11.6667Z" fill="#3EB9B5"/>
<path fill-rule="evenodd" clip-rule="evenodd" d="M26.999 24.4156C21.6936 21.3059 14.9737 21.3059 9.66834 24.4156C9.50049 24.514 9.29153 24.63 9.0538 24.7619C7.9994 25.3472 6.37879 26.2469 5.26981 27.3154C4.57733 27.9826 3.89474 28.8839 3.77012 30.0062C3.63658 31.2087 4.17383 32.3184 5.20103 33.2818C6.95117 34.9231 9.06437 36.25 11.8016 36.25H24.8657C27.6029 36.25 29.7161 34.9231 31.4663 33.2818C32.4935 32.3184 33.0307 31.2087 32.8972 30.0062C32.7726 28.8839 32.09 27.9826 31.3975 27.3154C30.2885 26.2469 28.6687 25.3477 27.6143 24.7623C27.3762 24.6302 27.167 24.5141 26.999 24.4156ZM10.9325 26.5724C15.4572 23.9203 21.2101 23.9203 25.7348 26.5724C25.9889 26.7214 26.2655 26.8758 26.5537 27.0368C27.6077 27.6257 28.8182 28.3019 29.6629 29.1157C30.1879 29.6216 30.3826 30.0128 30.4125 30.2821C30.4334 30.4711 30.4025 30.8521 29.7561 31.4582C28.2362 32.8836 26.7074 33.75 24.8657 33.75H11.8016C9.95995 33.75 8.43112 32.8836 6.9112 31.4582C6.26484 30.8521 6.23386 30.4711 6.25485 30.2821C6.28475 30.0128 6.47944 29.6216 7.00444 29.1157C7.84907 28.3019 9.0595 27.6257 10.1136 27.0369C10.4017 26.8759 10.6784 26.7213 10.9325 26.5724Z" fill="#3EB9B5"/>
<path d="M32.5 7.91667C31.8393 7.91667 31.25 8.47499 31.25 9.23077C31.25 9.92113 30.6904 10.4808 30 10.4808C29.3096 10.4808 28.75 9.92113 28.75 9.23077C28.75 7.15432 30.3993 5.41667 32.5 5.41667C34.6007 5.41667 36.25 7.15432 36.25 9.23077C36.25 9.98137 36.0356 10.6865 35.6628 11.2807C35.4379 11.6392 35.1768 11.9785 34.9434 12.276L34.8159 12.4381C34.6228 12.6833 34.4507 12.9018 34.2913 13.1265C33.8968 13.6826 33.75 14.0527 33.75 14.359V15C33.75 15.6904 33.1904 16.25 32.5 16.25C31.8096 16.25 31.25 15.6904 31.25 15V14.359C31.25 13.2491 31.7816 12.3434 32.2523 11.68C32.4516 11.399 32.6704 11.1215 32.8643 10.8755L32.9765 10.7329C33.2077 10.4382 33.3964 10.189 33.545 9.95209C33.6736 9.74718 33.75 9.50107 33.75 9.23077C33.75 8.47499 33.1607 7.91667 32.5 7.91667Z" fill="#3EB9B5"/>
<path d="M32.5 17.0833C31.8096 17.0833 31.25 17.643 31.25 18.3333C31.25 19.0237 31.8096 19.5833 32.5 19.5833H32.515C33.2053 19.5833 33.765 19.0237 33.765 18.3333C33.765 17.643 33.2053 17.0833 32.515 17.0833H32.5Z" fill="#3EB9B5"/>
</svg>
