<svg width="40" height="40" viewBox="0 0 40 40" fill="none" xmlns="http://www.w3.org/2000/svg">
<g opacity="0.4">
<path d="M23.9113 5.20556C23.3334 6.14858 23.3334 7.43228 23.3334 9.99967C23.3334 12.5671 23.3334 13.8508 23.9113 14.7938C24.2346 15.3215 24.6783 15.7651 25.2059 16.0885C26.1489 16.6663 27.4326 16.6663 30 16.6663C32.5674 16.6663 33.8511 16.6663 34.7942 16.0885C35.3218 15.7651 35.7655 15.3215 36.0888 14.7938C36.6667 13.8508 36.6667 12.5671 36.6667 9.99967C36.6667 7.43228 36.6667 6.14858 36.0888 5.20556C35.7655 4.67789 35.3218 4.23425 34.7942 3.91089C33.8511 3.33301 32.5674 3.33301 30 3.33301C27.4326 3.33301 26.1489 3.33301 25.2059 3.91089C24.6783 4.23425 24.2346 4.67789 23.9113 5.20556Z" fill="#3EB9B5"/>
<path d="M3.91126 25.2056C3.33337 26.1486 3.33337 27.4323 3.33337 29.9997C3.33337 32.5671 3.33337 33.8508 3.91126 34.7938C4.23461 35.3215 4.67826 35.7651 5.20593 36.0885C6.14895 36.6663 7.43264 36.6663 10 36.6663C12.5674 36.6663 13.8511 36.6663 14.7942 36.0885C15.3218 35.7651 15.7655 35.3215 16.0888 34.7938C16.6667 33.8508 16.6667 32.5671 16.6667 29.9997C16.6667 27.4323 16.6667 26.1486 16.0888 25.2056C15.7655 24.6779 15.3218 24.2342 14.7942 23.9109C13.8511 23.333 12.5674 23.333 10 23.333C7.43264 23.333 6.14895 23.333 5.20593 23.9109C4.67826 24.2342 4.23461 24.6779 3.91126 25.2056Z" fill="#3EB9B5"/>
</g>
<path fill-rule="evenodd" clip-rule="evenodd" d="M30.061 2.08301H29.9391C28.7072 2.08299 27.6947 2.08297 26.8755 2.16086C26.0243 2.24179 25.2537 2.41557 24.5528 2.84509C23.8569 3.27152 23.2719 3.85658 22.8455 4.55244C22.4159 5.25336 22.2422 6.02394 22.1612 6.87516C22.0833 7.69432 22.0834 8.70684 22.0834 9.93874V10.0606C22.0834 11.2925 22.0833 12.305 22.1612 13.1242C22.2422 13.9754 22.4159 14.746 22.8455 15.4469C23.2719 16.1428 23.8569 16.7278 24.5528 17.1543C25.2537 17.5838 26.0243 17.7576 26.8755 17.8385C27.6947 17.9164 28.7072 17.9164 29.9391 17.9163H30.061C31.2929 17.9164 32.3054 17.9164 33.1246 17.8385C33.9758 17.7576 34.7464 17.5838 35.4473 17.1543C36.1431 16.7278 36.7282 16.1428 37.1546 15.4469C37.5842 14.746 37.7579 13.9754 37.8389 13.1242C37.9167 12.305 37.9167 11.2925 37.9167 10.0606V9.93874C37.9167 8.70684 37.9167 7.69432 37.8389 6.87516C37.7579 6.02394 37.5842 5.25336 37.1546 4.55244C36.7282 3.85658 36.1431 3.27152 35.4473 2.84509C34.7464 2.41557 33.9758 2.24179 33.1246 2.16086C32.3054 2.08297 31.2929 2.08299 30.061 2.08301ZM25.8591 4.97669C26.1011 4.82834 26.4439 4.71317 27.1122 4.64963C27.799 4.58433 28.6921 4.58301 30 4.58301C31.3079 4.58301 32.2011 4.58433 32.8879 4.64963C33.5562 4.71317 33.8989 4.82834 34.141 4.97669C34.5005 5.19698 34.8027 5.49921 35.023 5.85869C35.1714 6.10078 35.2865 6.44357 35.3501 7.11179C35.4154 7.79863 35.4167 8.69177 35.4167 9.99968C35.4167 11.3076 35.4154 12.2007 35.3501 12.8876C35.2865 13.5558 35.1714 13.8986 35.023 14.1407C34.8027 14.5001 34.5005 14.8024 34.141 15.0227C33.8989 15.171 33.5562 15.2862 32.8879 15.3497C32.2011 15.415 31.3079 15.4163 30 15.4163C28.6921 15.4163 27.799 15.415 27.1122 15.3497C26.4439 15.2862 26.1011 15.171 25.8591 15.0227C25.4996 14.8024 25.1973 14.5001 24.9771 14.1407C24.8287 13.8986 24.7135 13.5558 24.65 12.8876C24.5847 12.2007 24.5834 11.3076 24.5834 9.99968C24.5834 8.69177 24.5847 7.79863 24.65 7.11179C24.7135 6.44357 24.8287 6.10078 24.9771 5.85869C25.1973 5.49921 25.4996 5.19698 25.8591 4.97669Z" fill="#3EB9B5"/>
<path fill-rule="evenodd" clip-rule="evenodd" d="M9.93913 2.08301H10.061C11.2929 2.08299 12.3054 2.08297 13.1246 2.16086C13.9758 2.24179 14.7464 2.41557 15.4473 2.84509C16.1431 3.27152 16.7282 3.85658 17.1546 4.55244C17.5842 5.25336 17.7579 6.02394 17.8389 6.87516C17.9167 7.69431 17.9167 8.70681 17.9167 9.93869V10.0606C17.9167 11.2925 17.9167 12.305 17.8389 13.1242C17.7579 13.9754 17.5842 14.746 17.1546 15.4469C16.7282 16.1428 16.1431 16.7278 15.4473 17.1543C14.7464 17.5838 13.9758 17.7576 13.1246 17.8385C12.3054 17.9164 11.2929 17.9164 10.061 17.9163H9.93911C8.70723 17.9164 7.69467 17.9164 6.87553 17.8385C6.0243 17.7576 5.25373 17.5838 4.55281 17.1543C3.85694 16.7278 3.27188 16.1428 2.84546 15.4469C2.41593 14.746 2.24216 13.9754 2.16122 13.1242C2.08334 12.305 2.08335 11.2925 2.08337 10.0606V9.93876C2.08335 8.70686 2.08334 7.69432 2.16122 6.87516C2.24216 6.02394 2.41593 5.25336 2.84546 4.55244C3.27188 3.85658 3.85694 3.27152 4.55281 2.84509C5.25373 2.41557 6.0243 2.24179 6.87553 2.16086C7.69468 2.08297 8.70723 2.08299 9.93913 2.08301ZM7.11216 4.64963C6.44393 4.71317 6.10115 4.82834 5.85905 4.97669C5.49958 5.19698 5.19734 5.49921 4.97706 5.85869C4.8287 6.10078 4.71353 6.44357 4.65 7.11179C4.58469 7.79863 4.58338 8.69177 4.58338 9.99968C4.58338 11.3076 4.58469 12.2007 4.65 12.8876C4.71353 13.5558 4.8287 13.8986 4.97706 14.1407C5.19734 14.5001 5.49958 14.8024 5.85905 15.0227C6.10115 15.171 6.44393 15.2862 7.11216 15.3497C7.79899 15.415 8.69214 15.4163 10 15.4163C11.3079 15.4163 12.2011 15.415 12.8879 15.3497C13.5562 15.2862 13.8989 15.171 14.141 15.0227C14.5005 14.8024 14.8027 14.5001 15.023 14.1407C15.1714 13.8986 15.2866 13.5558 15.3501 12.8876C15.4154 12.2007 15.4167 11.3076 15.4167 9.99968C15.4167 8.69177 15.4154 7.79863 15.3501 7.11179C15.2866 6.44357 15.1714 6.10078 15.023 5.85869C14.8027 5.49921 14.5005 5.19698 14.141 4.97669C13.8989 4.82834 13.5562 4.71317 12.8879 4.64963C12.2011 4.58433 11.3079 4.58301 10 4.58301C8.69214 4.58301 7.79899 4.58433 7.11216 4.64963Z" fill="#3EB9B5"/>
<path fill-rule="evenodd" clip-rule="evenodd" d="M9.93913 22.083C8.70725 22.083 7.69467 22.083 6.87553 22.1609C6.0243 22.2418 5.25373 22.4156 4.55281 22.8451C3.85694 23.2715 3.27188 23.8566 2.84546 24.5524C2.41593 25.2534 2.24216 26.0239 2.16122 26.8752C2.08334 27.6943 2.08335 28.7069 2.08337 29.9388V30.0606C2.08335 31.2925 2.08334 32.305 2.16122 33.1242C2.24216 33.9754 2.41593 34.746 2.84546 35.4469C3.27188 36.1428 3.85694 36.7278 4.55281 37.1543C5.25373 37.5838 6.0243 37.7576 6.87553 37.8385C7.69468 37.9164 8.70721 37.9164 9.93911 37.9163H10.061C11.2929 37.9164 12.3054 37.9164 13.1246 37.8385C13.9758 37.7576 14.7464 37.5838 15.4473 37.1543C16.1431 36.7278 16.7282 36.1428 17.1546 35.4469C17.5842 34.746 17.7579 33.9754 17.8389 33.1242C17.9167 32.305 17.9167 31.2925 17.9167 30.0606V29.9387C17.9167 28.7068 17.9167 27.6943 17.8389 26.8752C17.7579 26.0239 17.5842 25.2534 17.1546 24.5524C16.7282 23.8566 16.1431 23.2715 15.4473 22.8451C14.7464 22.4156 13.9758 22.2418 13.1246 22.1609C12.3054 22.083 11.2929 22.083 10.061 22.083H9.93913ZM5.85905 24.9767C6.10115 24.8283 6.44393 24.7132 7.11216 24.6496C7.79899 24.5843 8.69214 24.583 10 24.583C11.3079 24.583 12.2011 24.5843 12.8879 24.6496C13.5562 24.7132 13.8989 24.8283 14.141 24.9767C14.5005 25.197 14.8027 25.4992 15.023 25.8587C15.1714 26.1008 15.2866 26.4436 15.3501 27.1118C15.4154 27.7986 15.4167 28.6918 15.4167 29.9997C15.4167 31.3076 15.4154 32.2007 15.3501 32.8876C15.2866 33.5558 15.1714 33.8986 15.023 34.1407C14.8027 34.5001 14.5005 34.8024 14.141 35.0227C13.8989 35.171 13.5562 35.2862 12.8879 35.3497C12.2011 35.415 11.3079 35.4163 10 35.4163C8.69214 35.4163 7.79899 35.415 7.11216 35.3497C6.44393 35.2862 6.10115 35.171 5.85905 35.0227C5.49958 34.8024 5.19734 34.5001 4.97706 34.1407C4.8287 33.8986 4.71353 33.5558 4.65 32.8876C4.58469 32.2007 4.58338 31.3076 4.58338 29.9997C4.58338 28.6918 4.58469 27.7986 4.65 27.1118C4.71353 26.4436 4.8287 26.1008 4.97706 25.8587C5.19734 25.4992 5.49958 25.197 5.85905 24.9767Z" fill="#3EB9B5"/>
<path fill-rule="evenodd" clip-rule="evenodd" d="M33.1246 22.1609C32.3054 22.083 31.2929 22.083 30.061 22.083H29.9391C28.7072 22.083 27.6947 22.083 26.8755 22.1609C26.0243 22.2418 25.2537 22.4156 24.5528 22.8451C23.8569 23.2715 23.2719 23.8566 22.8455 24.5524C22.4159 25.2534 22.2422 26.0239 22.1612 26.8752C22.0833 27.6943 22.0834 28.7069 22.0834 29.9388V30.0606C22.0834 31.2925 22.0833 32.305 22.1612 33.1242C22.2422 33.9754 22.4159 34.746 22.8455 35.4469C23.2719 36.1428 23.8569 36.7278 24.5528 37.1543C25.2537 37.5838 26.0243 37.7576 26.8755 37.8385C27.6947 37.9164 28.7072 37.9164 29.9391 37.9163H30.061C31.2929 37.9164 32.3054 37.9164 33.1246 37.8385C33.9758 37.7576 34.7464 37.5838 35.4473 37.1543C36.1431 36.7278 36.7282 36.1428 37.1546 35.4469C37.5842 34.746 37.7579 33.9754 37.8389 33.1242C37.9167 32.305 37.9167 31.2925 37.9167 30.0606V29.9387C37.9167 28.7068 37.9167 27.6943 37.8389 26.8752C37.7579 26.0239 37.5842 25.2534 37.1546 24.5524C36.7282 23.8566 36.1431 23.2715 35.4473 22.8451C34.7464 22.4156 33.9758 22.2418 33.1246 22.1609ZM25.8591 24.9767C26.1011 24.8283 26.4439 24.7132 27.1122 24.6496C27.799 24.5843 28.6921 24.583 30 24.583C31.3079 24.583 32.2011 24.5843 32.8879 24.6496C33.5562 24.7132 33.8989 24.8283 34.141 24.9767C34.5005 25.197 34.8027 25.4992 35.023 25.8587C35.1714 26.1008 35.2865 26.4436 35.3501 27.1118C35.4154 27.7986 35.4167 28.6918 35.4167 29.9997C35.4167 31.3076 35.4154 32.2007 35.3501 32.8876C35.2865 33.5558 35.1714 33.8986 35.023 34.1407C34.8027 34.5001 34.5005 34.8024 34.141 35.0227C33.8989 35.171 33.5562 35.2862 32.8879 35.3497C32.2011 35.415 31.3079 35.4163 30 35.4163C28.6921 35.4163 27.799 35.415 27.1122 35.3497C26.4439 35.2862 26.1011 35.171 25.8591 35.0227C25.4996 34.8024 25.1973 34.5001 24.9771 34.1407C24.8287 33.8986 24.7135 33.5558 24.65 32.8876C24.5847 32.2007 24.5834 31.3076 24.5834 29.9997C24.5834 28.6918 24.5847 27.7986 24.65 27.1118C24.7135 26.4436 24.8287 26.1008 24.9771 25.8587C25.1973 25.4992 25.4996 25.197 25.8591 24.9767Z" fill="#3EB9B5"/>
</svg>
