<svg width="40" height="40" viewBox="0 0 40 40" fill="none" xmlns="http://www.w3.org/2000/svg">
<path fill-rule="evenodd" clip-rule="evenodd" d="M29.9412 38H10.0588C8.36959 38 7 36.5983 7 34.8696V7.47826C7 5.74948 8.36959 4.34783 10.0588 4.34783H12.3529C12.7758 4.34783 13.1176 4.69843 13.1176 5.13043C13.1176 5.56243 12.7758 5.91304 12.3529 5.91304H10.0588C9.21459 5.91304 8.52941 6.61426 8.52941 7.47826V34.8696C8.52941 35.7336 9.21459 36.4348 10.0588 36.4348H29.9412C30.7854 36.4348 31.4706 35.7336 31.4706 34.8696V7.47826C31.4706 6.61426 30.7854 5.91304 29.9412 5.91304H27.6471C27.2242 5.91304 26.8824 5.56243 26.8824 5.13043C26.8824 4.69843 27.2242 4.34783 27.6471 4.34783H29.9412C31.6304 4.34783 33 5.74948 33 7.47826V34.8696C33 36.5983 31.6304 38 29.9412 38ZM28.4118 8.26087C28.4118 8.69287 28.0699 9.04348 27.6471 9.04348H12.3529C11.9301 9.04348 11.5882 8.69287 11.5882 8.26087C11.5882 7.82887 11.9301 7.47826 12.3529 7.47826C12.3529 7.47826 13.2132 7.38043 13.8824 6.69565L15.4118 5.13043C15.4118 5.13043 16.009 4.34783 16.9412 4.34783H17.7059C17.7059 3.05104 18.7336 2 20 2C21.2671 2 22.2941 3.05104 22.2941 4.34783H23.0588C24.0621 4.34783 24.5882 5.13043 24.5882 5.13043L26.1176 6.69565C26.7868 7.38043 27.6471 7.47826 27.6471 7.47826C28.0699 7.47826 28.4118 7.82887 28.4118 8.26087ZM20 3.56522C19.5771 3.56522 19.2353 3.91583 19.2353 4.34783H20.7647C20.7647 3.91583 20.4229 3.56522 20 3.56522ZM24.1011 6.69565C24.1011 6.69565 23.5819 5.91304 22.7116 5.91304H17.2891C16.4174 5.91304 15.8989 6.69565 15.8989 6.69565L15.2038 7.47826H24.797L24.1011 6.69565Z" fill="url(#paint0_linear_557_7080)"/>
<path d="M12 15H28" stroke="url(#paint1_linear_557_7080)" stroke-width="2" stroke-linecap="round"/>
<path d="M12 21H28" stroke="url(#paint2_linear_557_7080)" stroke-width="2" stroke-linecap="round"/>
<path d="M12 27H28" stroke="url(#paint3_linear_557_7080)" stroke-width="2" stroke-linecap="round"/>
<defs>
<linearGradient id="paint0_linear_557_7080" x1="-46.5241" y1="78.4706" x2="50.9491" y2="12.7312" gradientUnits="userSpaceOnUse">
<stop offset="0.588191" stop-color="#2C65AA"/>
<stop offset="0.893191" stop-color="#3FB6B4"/>
</linearGradient>
<linearGradient id="paint1_linear_557_7080" x1="-20.9379" y1="17.1242" x2="-20.5488" y2="11.3095" gradientUnits="userSpaceOnUse">
<stop offset="0.588191" stop-color="#2C65AA"/>
<stop offset="0.893191" stop-color="#3FB6B4"/>
</linearGradient>
<linearGradient id="paint2_linear_557_7080" x1="-20.9379" y1="23.1242" x2="-20.5488" y2="17.3095" gradientUnits="userSpaceOnUse">
<stop offset="0.588191" stop-color="#2C65AA"/>
<stop offset="0.893191" stop-color="#3FB6B4"/>
</linearGradient>
<linearGradient id="paint3_linear_557_7080" x1="-20.9379" y1="29.1242" x2="-20.5488" y2="23.3095" gradientUnits="userSpaceOnUse">
<stop offset="0.588191" stop-color="#2C65AA"/>
<stop offset="0.893191" stop-color="#3FB6B4"/>
</linearGradient>
</defs>
</svg>
