<svg width="24" height="24" viewBox="0 0 24 24" fill="none" xmlns="http://www.w3.org/2000/svg">
<g clip-path="url(#clip0_557_5878)">
<path d="M12 15.75C11.2583 15.75 10.5333 15.5301 9.91661 15.118C9.29993 14.706 8.81928 14.1203 8.53545 13.4351C8.25162 12.7498 8.17736 11.9958 8.32206 11.2684C8.46675 10.541 8.8239 9.8728 9.34835 9.34835C9.8728 8.8239 10.541 8.46675 11.2684 8.32206C11.9958 8.17736 12.7498 8.25162 13.4351 8.53545C14.1203 8.81928 14.706 9.29993 15.118 9.91661C15.5301 10.5333 15.75 11.2583 15.75 12C15.75 12.9946 15.3549 13.9484 14.6517 14.6517C13.9484 15.3549 12.9946 15.75 12 15.75ZM12 9.5C11.5055 9.5 11.0222 9.64662 10.6111 9.92133C10.2 10.196 9.87952 10.5865 9.6903 11.0433C9.50108 11.5001 9.45158 12.0028 9.54804 12.4877C9.6445 12.9727 9.8826 13.4181 10.2322 13.7678C10.5819 14.1174 11.0273 14.3555 11.5123 14.452C11.9972 14.5484 12.4999 14.4989 12.9567 14.3097C13.4135 14.1205 13.804 13.8 14.0787 13.3889C14.3534 12.9778 14.5 12.4945 14.5 12C14.5 11.337 14.2366 10.7011 13.7678 10.2322C13.2989 9.76339 12.663 9.5 12 9.5Z" fill="url(#paint0_linear_557_5878)"/>
<path d="M15.125 21.3751H8.875C8.21196 21.3751 7.57607 21.1117 7.10723 20.6429C6.63839 20.174 6.375 19.5382 6.375 18.8751V17.2814C6.37612 17.1573 6.41417 17.0363 6.48429 16.9339C6.55442 16.8315 6.65344 16.7523 6.76875 16.7064L9.04375 15.7939C9.12087 15.7597 9.2041 15.7415 9.28845 15.7403C9.3728 15.7391 9.45651 15.7551 9.53453 15.7871C9.61256 15.8192 9.6833 15.8667 9.74247 15.9268C9.80165 15.9869 9.84804 16.0584 9.87886 16.1369C9.90968 16.2154 9.92429 16.2994 9.9218 16.3837C9.9193 16.468 9.89977 16.5509 9.86437 16.6275C9.82897 16.7041 9.77844 16.7727 9.71582 16.8292C9.6532 16.8857 9.57978 16.929 9.5 16.9564L7.625 17.7064V18.8751C7.625 19.2066 7.7567 19.5246 7.99112 19.759C8.22554 19.9934 8.54348 20.1251 8.875 20.1251H15.125C15.4565 20.1251 15.7745 19.9934 16.0089 19.759C16.2433 19.5246 16.375 19.2066 16.375 18.8751V17.7064L14.5 16.9564C14.3458 16.895 14.2224 16.775 14.1567 16.6226C14.0911 16.4702 14.0887 16.298 14.15 16.1439C14.2113 15.9897 14.3314 15.8662 14.4838 15.8006C14.6361 15.735 14.8083 15.7325 14.9625 15.7939L17.2375 16.7064C17.3528 16.7523 17.4518 16.8315 17.522 16.9339C17.5921 17.0363 17.6301 17.1573 17.6313 17.2814V18.8751C17.6313 19.204 17.5664 19.5296 17.4404 19.8333C17.3143 20.137 17.1296 20.4129 16.8968 20.6451C16.664 20.8773 16.3877 21.0613 16.0836 21.1866C15.7796 21.3119 15.4538 21.3759 15.125 21.3751Z" fill="url(#paint1_linear_557_5878)"/>
<path d="M7.625 8.875C7.00693 8.875 6.40275 8.69172 5.88884 8.34834C5.37494 8.00496 4.9744 7.51691 4.73788 6.94589C4.50135 6.37487 4.43947 5.74654 4.56005 5.14034C4.68063 4.53415 4.97825 3.97733 5.41529 3.54029C5.85233 3.10325 6.40915 2.80563 7.01534 2.68505C7.62154 2.56447 8.24987 2.62635 8.82089 2.86288C9.39191 3.0994 9.87996 3.49994 10.2233 4.01384C10.5667 4.52775 10.75 5.13193 10.75 5.75C10.75 6.16038 10.6692 6.56674 10.5121 6.94589C10.3551 7.32503 10.1249 7.66953 9.83471 7.95971C9.54453 8.24989 9.20003 8.48008 8.82089 8.63713C8.44174 8.79417 8.03538 8.875 7.625 8.875ZM7.625 3.875C7.25416 3.875 6.89165 3.98497 6.58331 4.191C6.27496 4.39702 6.03464 4.68986 5.89273 5.03247C5.75081 5.37508 5.71368 5.75208 5.78603 6.1158C5.85838 6.47951 6.03695 6.8136 6.29918 7.07583C6.5614 7.33805 6.89549 7.51663 7.25921 7.58897C7.62292 7.66132 7.99992 7.62419 8.34253 7.48228C8.68514 7.34036 8.97798 7.10004 9.18401 6.7917C9.39003 6.48335 9.5 6.12084 9.5 5.75C9.5 5.25272 9.30246 4.77581 8.95083 4.42418C8.5992 4.07255 8.12228 3.875 7.625 3.875Z" fill="url(#paint2_linear_557_5878)"/>
<path d="M7 14.1195H5.125C4.46196 14.1195 3.82607 13.8561 3.35723 13.3873C2.88839 12.9184 2.625 12.2825 2.625 11.6195V10.5257C2.62488 10.4006 2.66235 10.2782 2.73255 10.1746C2.80275 10.071 2.90246 9.9908 3.01875 9.94449L5.0125 9.16324C5.16434 9.10296 5.33374 9.10453 5.48443 9.16762C5.63512 9.2307 5.75513 9.35027 5.81875 9.50074C5.8492 9.57706 5.86429 9.65864 5.86317 9.7408C5.86206 9.82296 5.84475 9.9041 5.81224 9.97956C5.77973 10.055 5.73266 10.1233 5.67372 10.1806C5.61478 10.2379 5.54513 10.2829 5.46875 10.3132L3.875 10.9507V11.6195C3.875 11.951 4.0067 12.2689 4.24112 12.5034C4.47554 12.7378 4.79348 12.8695 5.125 12.8695H7C7.16576 12.8695 7.32473 12.9353 7.44194 13.0525C7.55915 13.1698 7.625 13.3287 7.625 13.4945C7.625 13.6602 7.55915 13.8192 7.44194 13.9364C7.32473 14.0536 7.16576 14.1195 7 14.1195Z" fill="url(#paint3_linear_557_5878)"/>
<path d="M16.375 8.875C15.7569 8.875 15.1527 8.69172 14.6388 8.34834C14.1249 8.00496 13.7244 7.51691 13.4879 6.94589C13.2514 6.37487 13.1895 5.74654 13.31 5.14034C13.4306 4.53415 13.7283 3.97733 14.1653 3.54029C14.6023 3.10325 15.1592 2.80563 15.7653 2.68505C16.3715 2.56447 16.9999 2.62635 17.5709 2.86288C18.1419 3.0994 18.63 3.49994 18.9733 4.01384C19.3167 4.52775 19.5 5.13193 19.5 5.75C19.5 6.5788 19.1708 7.37366 18.5847 7.95971C17.9987 8.54576 17.2038 8.875 16.375 8.875ZM16.375 3.875C16.0042 3.875 15.6417 3.98497 15.3333 4.191C15.025 4.39702 14.7846 4.68986 14.6427 5.03247C14.5008 5.37508 14.4637 5.75208 14.536 6.1158C14.6084 6.47951 14.787 6.8136 15.0492 7.07583C15.3114 7.33805 15.6455 7.51663 16.0092 7.58897C16.3729 7.66132 16.7499 7.62419 17.0925 7.48228C17.4351 7.34036 17.728 7.10004 17.934 6.7917C18.14 6.48335 18.25 6.12084 18.25 5.75C18.25 5.25272 18.0525 4.77581 17.7008 4.42418C17.3492 4.07255 16.8723 3.875 16.375 3.875Z" fill="url(#paint4_linear_557_5878)"/>
<path d="M18.875 14.1193H17C16.8342 14.1193 16.6753 14.0534 16.5581 13.9362C16.4408 13.819 16.375 13.66 16.375 13.4943C16.375 13.3285 16.4408 13.1695 16.5581 13.0523C16.6753 12.9351 16.8342 12.8693 17 12.8693H18.875C19.2065 12.8693 19.5245 12.7376 19.7589 12.5031C19.9933 12.2687 20.125 11.9508 20.125 11.6193V10.9505L18.5313 10.3255C18.4549 10.2952 18.3852 10.2501 18.3263 10.1929C18.2673 10.1356 18.2203 10.0673 18.1878 9.99184C18.1553 9.91637 18.1379 9.83524 18.1368 9.75307C18.1357 9.67091 18.1508 9.58933 18.1812 9.51301C18.2413 9.35915 18.3598 9.23531 18.5109 9.16856C18.662 9.1018 18.8333 9.09756 18.9875 9.15676L20.9813 9.93801C21.0975 9.98433 21.1972 10.0645 21.2674 10.1681C21.3377 10.2718 21.3751 10.3941 21.375 10.5193V11.613C21.3758 11.9418 21.3118 12.2676 21.1865 12.5716C21.0612 12.8757 20.8772 13.152 20.645 13.3848C20.4128 13.6176 20.1369 13.8023 19.8332 13.9284C19.5294 14.0544 19.2038 14.1193 18.875 14.1193Z" fill="url(#paint5_linear_557_5878)"/>
</g>
<defs>
<linearGradient id="paint0_linear_557_5878" x1="-7.18966" y1="24.1814" x2="14.6617" y2="3.77581" gradientUnits="userSpaceOnUse">
<stop offset="0.588191" stop-color="#2C65AA"/>
<stop offset="0.893191" stop-color="#3FB6B4"/>
</linearGradient>
<linearGradient id="paint1_linear_557_5878" x1="-16.7973" y1="27.7098" x2="-3.09267" y2="2.14475" gradientUnits="userSpaceOnUse">
<stop offset="0.588191" stop-color="#2C65AA"/>
<stop offset="0.893191" stop-color="#3FB6B4"/>
</linearGradient>
<linearGradient id="paint2_linear_557_5878" x1="-8.36638" y1="15.9011" x2="9.84312" y2="-1.10349" gradientUnits="userSpaceOnUse">
<stop offset="0.588191" stop-color="#2C65AA"/>
<stop offset="0.893191" stop-color="#3FB6B4"/>
</linearGradient>
<linearGradient id="paint3_linear_557_5878" x1="-7.6681" y1="19.7408" x2="6.90043" y2="6.13714" gradientUnits="userSpaceOnUse">
<stop offset="0.588191" stop-color="#2C65AA"/>
<stop offset="0.893191" stop-color="#3FB6B4"/>
</linearGradient>
<linearGradient id="paint4_linear_557_5878" x1="0.383617" y1="15.9011" x2="18.5931" y2="-1.1035" gradientUnits="userSpaceOnUse">
<stop offset="0.588191" stop-color="#2C65AA"/>
<stop offset="0.893191" stop-color="#3FB6B4"/>
</linearGradient>
<linearGradient id="paint5_linear_557_5878" x1="6.08188" y1="19.7447" x2="20.6604" y2="6.14172" gradientUnits="userSpaceOnUse">
<stop offset="0.588191" stop-color="#2C65AA"/>
<stop offset="0.893191" stop-color="#3FB6B4"/>
</linearGradient>
<clipPath id="clip0_557_5878">
<rect width="20" height="20" fill="white" transform="translate(2 2)"/>
</clipPath>
</defs>
</svg>
