<svg width="40" height="40" viewBox="0 0 40 40" fill="none" xmlns="http://www.w3.org/2000/svg">
<path d="M33.4375 21H13.6719C13.3267 21 13.0469 20.5523 13.0469 20C13.0469 19.4477 13.3267 19 13.6719 19H33.4375C33.7827 19 34.0625 19.4477 34.0625 20C34.0625 20.5523 33.7827 21 33.4375 21Z" fill="url(#paint0_linear_557_6995)"/>
<path d="M8.39844 19.4141C8.72156 19.4141 8.98438 19.6769 8.98438 20C8.98438 20.3231 8.72156 20.5859 8.39844 20.5859C8.07531 20.5859 7.8125 20.3231 7.8125 20C7.8125 19.6769 8.07531 19.4141 8.39844 19.4141ZM8.39844 18.1641C7.38445 18.1641 6.5625 18.986 6.5625 20C6.5625 21.014 7.38445 21.8359 8.39844 21.8359C9.41242 21.8359 10.2344 21.014 10.2344 20C10.2344 18.986 9.41242 18.1641 8.39844 18.1641Z" fill="url(#paint1_linear_557_6995)"/>
<path d="M33.4375 11H13.6719C13.3267 11 13.0469 10.5523 13.0469 10C13.0469 9.44775 13.3267 9 13.6719 9H33.4375C33.7827 9 34.0625 9.44775 34.0625 10C34.0625 10.5523 33.7827 11 33.4375 11Z" fill="url(#paint2_linear_557_6995)"/>
<path d="M8.39844 9.29688C8.72156 9.29688 8.98438 9.55969 8.98438 9.88281C8.98438 10.2059 8.72156 10.4688 8.39844 10.4688C8.07531 10.4688 7.8125 10.2059 7.8125 9.88281C7.8125 9.55969 8.07531 9.29688 8.39844 9.29688ZM8.39844 8.04688C7.38445 8.04688 6.5625 8.86883 6.5625 9.88281C6.5625 10.8968 7.38445 11.7188 8.39844 11.7188C9.41242 11.7188 10.2344 10.8968 10.2344 9.88281C10.2344 8.86883 9.41242 8.04688 8.39844 8.04688Z" fill="url(#paint3_linear_557_6995)"/>
<path d="M33.4375 31H13.6719C13.3267 31 13.0469 30.5523 13.0469 30C13.0469 29.4477 13.3267 29 13.6719 29H33.4375C33.7827 29 34.0625 29.4477 34.0625 30C34.0625 30.5523 33.7827 31 33.4375 31Z" fill="url(#paint4_linear_557_6995)"/>
<path d="M8.39844 29.5312C8.72156 29.5312 8.98438 29.7941 8.98438 30.1172C8.98438 30.4403 8.72156 30.7031 8.39844 30.7031C8.07531 30.7031 7.8125 30.4403 7.8125 30.1172C7.8125 29.7941 8.07531 29.5312 8.39844 29.5312ZM8.39844 28.2812C7.38445 28.2812 6.5625 29.1032 6.5625 30.1172C6.5625 31.1312 7.38445 31.9531 8.39844 31.9531C9.41242 31.9531 10.2344 31.1312 10.2344 30.1172C10.2344 29.1032 9.41242 28.2812 8.39844 28.2812Z" fill="url(#paint5_linear_557_6995)"/>
<defs>
<linearGradient id="paint0_linear_557_6995" x1="-30.2163" y1="23.2484" x2="-29.0381" y2="11.687" gradientUnits="userSpaceOnUse">
<stop offset="0.588191" stop-color="#2C65AA"/>
<stop offset="0.893191" stop-color="#3FB6B4"/>
</linearGradient>
<linearGradient id="paint1_linear_557_6995" x1="-0.996498" y1="25.9638" x2="9.70158" y2="15.9736" gradientUnits="userSpaceOnUse">
<stop offset="0.588191" stop-color="#2C65AA"/>
<stop offset="0.893191" stop-color="#3FB6B4"/>
</linearGradient>
<linearGradient id="paint2_linear_557_6995" x1="-30.2163" y1="13.2484" x2="-29.0381" y2="1.68704" gradientUnits="userSpaceOnUse">
<stop offset="0.588191" stop-color="#2C65AA"/>
<stop offset="0.893191" stop-color="#3FB6B4"/>
</linearGradient>
<linearGradient id="paint3_linear_557_6995" x1="-0.996498" y1="15.8466" x2="9.70158" y2="5.85638" gradientUnits="userSpaceOnUse">
<stop offset="0.588191" stop-color="#2C65AA"/>
<stop offset="0.893191" stop-color="#3FB6B4"/>
</linearGradient>
<linearGradient id="paint4_linear_557_6995" x1="-30.2163" y1="33.2484" x2="-29.0381" y2="21.687" gradientUnits="userSpaceOnUse">
<stop offset="0.588191" stop-color="#2C65AA"/>
<stop offset="0.893191" stop-color="#3FB6B4"/>
</linearGradient>
<linearGradient id="paint5_linear_557_6995" x1="-0.996498" y1="36.081" x2="9.70158" y2="26.0908" gradientUnits="userSpaceOnUse">
<stop offset="0.588191" stop-color="#2C65AA"/>
<stop offset="0.893191" stop-color="#3FB6B4"/>
</linearGradient>
</defs>
</svg>
