<svg width="36" height="36" viewBox="0 0 36 36" fill="none" xmlns="http://www.w3.org/2000/svg">
<g opacity="0.4">
<path d="M21.9112 3.20654C21.3333 4.14956 21.3333 5.43325 21.3333 8.00065C21.3333 10.568 21.3333 11.8517 21.9112 12.7948C22.2346 13.3224 22.6782 13.7661 23.2059 14.0894C24.1489 14.6673 25.4326 14.6673 28 14.6673C30.5674 14.6673 31.8511 14.6673 32.7941 14.0894C33.3218 13.7661 33.7654 13.3224 34.0888 12.7948C34.6667 11.8517 34.6667 10.568 34.6667 8.00065C34.6667 5.43325 34.6667 4.14956 34.0888 3.20654C33.7654 2.67887 33.3218 2.23522 32.7941 1.91187C31.8511 1.33398 30.5674 1.33398 28 1.33398C25.4326 1.33398 24.1489 1.33398 23.2059 1.91187C22.6782 2.23522 22.2346 2.67887 21.9112 3.20654Z" fill="#3EB9B5"/>
<path d="M1.91121 23.2065C1.33333 24.1496 1.33333 25.4333 1.33333 28.0007C1.33333 30.568 1.33333 31.8517 1.91121 32.7948C2.23457 33.3224 2.67822 33.7661 3.20589 34.0894C4.1489 34.6673 5.4326 34.6673 8 34.6673C10.5674 34.6673 11.8511 34.6673 12.7941 34.0894C13.3218 33.7661 13.7654 33.3224 14.0888 32.7948C14.6667 31.8517 14.6667 30.568 14.6667 28.0007C14.6667 25.4333 14.6667 24.1496 14.0888 23.2065C13.7654 22.6789 13.3218 22.2352 12.7941 21.9119C11.8511 21.334 10.5674 21.334 8 21.334C5.4326 21.334 4.1489 21.334 3.20589 21.9119C2.67822 22.2352 2.23457 22.6789 1.91121 23.2065Z" fill="#3EB9B5"/>
</g>
<path fill-rule="evenodd" clip-rule="evenodd" d="M28.0609 0.083985H27.9391C26.7072 0.0839647 25.6946 0.0839475 24.8755 0.161834C24.0243 0.242769 23.2537 0.416543 22.5528 0.846068C21.8569 1.27249 21.2718 1.85755 20.8454 2.55342C20.4159 3.25434 20.2421 4.02491 20.1612 4.87614C20.0833 5.69529 20.0833 6.70781 20.0833 7.93972V8.06157C20.0833 9.29347 20.0833 10.306 20.1612 11.1252C20.2421 11.9764 20.4159 12.747 20.8454 13.4479C21.2718 14.1438 21.8569 14.7288 22.5528 15.1552C23.2537 15.5848 24.0243 15.7585 24.8755 15.8395C25.6946 15.9174 26.7072 15.9173 27.9391 15.9173H28.0609C29.2928 15.9173 30.3054 15.9174 31.1245 15.8395C31.9757 15.7585 32.7463 15.5848 33.4472 15.1552C34.1431 14.7288 34.7282 14.1438 35.1546 13.4479C35.5841 12.747 35.7579 11.9764 35.8388 11.1252C35.9167 10.306 35.9167 9.29349 35.9167 8.06159V7.93972C35.9167 6.70782 35.9167 5.69529 35.8388 4.87614C35.7579 4.02491 35.5841 3.25434 35.1546 2.55342C34.7282 1.85755 34.1431 1.27249 33.4472 0.846068C32.7463 0.416543 31.9757 0.242769 31.1245 0.161834C30.3054 0.0839476 29.2928 0.0839647 28.0609 0.083985ZM23.859 2.97767C24.1011 2.82931 24.4439 2.71414 25.1121 2.65061C25.799 2.5853 26.6921 2.58399 28 2.58399C29.3079 2.58399 30.201 2.5853 30.8879 2.65061C31.5561 2.71414 31.8989 2.82931 32.141 2.97767C32.5005 3.19795 32.8027 3.50019 33.023 3.85966C33.1713 4.10176 33.2865 4.44454 33.35 5.11277C33.4153 5.7996 33.4167 6.69275 33.4167 8.00065C33.4167 9.30856 33.4153 10.2017 33.35 10.8885C33.2865 11.5568 33.1713 11.8995 33.023 12.1416C32.8027 12.5011 32.5005 12.8034 32.141 13.0236C31.8989 13.172 31.5561 13.2872 30.8879 13.3507C30.201 13.416 29.3079 13.4173 28 13.4173C26.6921 13.4173 25.799 13.416 25.1121 13.3507C24.4439 13.2872 24.1011 13.172 23.859 13.0236C23.4995 12.8034 23.1973 12.5011 22.977 12.1416C22.8287 11.8995 22.7135 11.5568 22.65 10.8885C22.5847 10.2017 22.5833 9.30856 22.5833 8.00065C22.5833 6.69275 22.5847 5.7996 22.65 5.11277C22.7135 4.44454 22.8287 4.10176 22.977 3.85966C23.1973 3.50019 23.4995 3.19795 23.859 2.97767Z" fill="#3EB9B5"/>
<path fill-rule="evenodd" clip-rule="evenodd" d="M7.93909 0.083985H8.06091C9.29282 0.0839647 10.3054 0.0839479 11.1245 0.161834C11.9757 0.242769 12.7463 0.416543 13.4472 0.846068C14.1431 1.27249 14.7282 1.85755 15.1546 2.55342C15.5841 3.25434 15.7579 4.02491 15.8388 4.87614C15.9167 5.69528 15.9167 6.70779 15.9167 7.93967V8.06159C15.9167 9.29347 15.9167 10.306 15.8388 11.1252C15.7579 11.9764 15.5841 12.747 15.1546 13.4479C14.7282 14.1438 14.1431 14.7288 13.4472 15.1552C12.7463 15.5848 11.9757 15.7585 11.1245 15.8395C10.3054 15.9174 9.29286 15.9173 8.06098 15.9173H7.93907C6.70718 15.9173 5.69463 15.9174 4.87549 15.8395C4.02426 15.7585 3.25369 15.5848 2.55277 15.1552C1.8569 14.7288 1.27184 14.1438 0.845416 13.4479C0.41589 12.747 0.242116 11.9764 0.161181 11.1252C0.0832956 10.306 0.0833123 9.29349 0.0833327 8.06159V7.93974C0.0833123 6.70784 0.0832956 5.69529 0.161181 4.87614C0.242116 4.02491 0.41589 3.25434 0.845416 2.55342C1.27184 1.85755 1.8569 1.27249 2.55277 0.846068C3.25369 0.416543 4.02426 0.242769 4.87548 0.161834C5.69464 0.0839479 6.70718 0.0839647 7.93909 0.083985ZM5.11212 2.65061C4.44389 2.71414 4.10111 2.82931 3.85901 2.97767C3.49954 3.19795 3.1973 3.50019 2.97702 3.85966C2.82866 4.10176 2.71349 4.44454 2.64996 5.11277C2.58465 5.7996 2.58333 6.69275 2.58333 8.00065C2.58333 9.30856 2.58465 10.2017 2.64996 10.8885C2.71349 11.5568 2.82866 11.8995 2.97702 12.1416C3.1973 12.5011 3.49954 12.8034 3.85901 13.0236C4.10111 13.172 4.44389 13.2872 5.11212 13.3507C5.79895 13.416 6.6921 13.4173 8 13.4173C9.3079 13.4173 10.2011 13.416 10.8879 13.3507C11.5561 13.2872 11.8989 13.172 12.141 13.0236C12.5005 12.8034 12.8027 12.5011 13.023 12.1416C13.1713 11.8995 13.2865 11.5568 13.35 10.8885C13.4153 10.2017 13.4167 9.30856 13.4167 8.00065C13.4167 6.69275 13.4153 5.7996 13.35 5.11277C13.2865 4.44454 13.1713 4.10176 13.023 3.85966C12.8027 3.50019 12.5005 3.19795 12.141 2.97767C11.8989 2.82931 11.5561 2.71414 10.8879 2.65061C10.2011 2.5853 9.3079 2.58399 8 2.58399C6.6921 2.58399 5.79895 2.5853 5.11212 2.65061Z" fill="#3EB9B5"/>
<path fill-rule="evenodd" clip-rule="evenodd" d="M7.93909 20.084C6.70721 20.084 5.69463 20.0839 4.87548 20.1618C4.02426 20.2428 3.25369 20.4165 2.55277 20.8461C1.8569 21.2725 1.27184 21.8576 0.845416 22.5534C0.41589 23.2543 0.242116 24.0249 0.161181 24.8761C0.0832953 25.6953 0.0833123 26.7078 0.0833327 27.9397V28.0616C0.0833123 29.2935 0.0832952 30.306 0.161181 31.1252C0.242116 31.9764 0.41589 32.747 0.845416 33.4479C1.27184 34.1437 1.8569 34.7288 2.55277 35.1552C3.25369 35.5848 4.02426 35.7585 4.87549 35.8395C5.69464 35.9174 6.70716 35.9173 7.93907 35.9173H8.06094C9.29284 35.9173 10.3054 35.9174 11.1245 35.8395C11.9757 35.7585 12.7463 35.5848 13.4472 35.1552C14.1431 34.7288 14.7282 34.1437 15.1546 33.4479C15.5841 32.747 15.7579 31.9764 15.8388 31.1252C15.9167 30.306 15.9167 29.2935 15.9167 28.0616V27.9397C15.9167 26.7078 15.9167 25.6953 15.8388 24.8761C15.7579 24.0249 15.5841 23.2543 15.1546 22.5534C14.7282 21.8576 14.1431 21.2725 13.4472 20.8461C12.7463 20.4165 11.9757 20.2428 11.1245 20.1618C10.3054 20.0839 9.29287 20.084 8.06099 20.084H7.93909ZM3.85901 22.9777C4.10111 22.8293 4.44389 22.7141 5.11212 22.6506C5.79895 22.5853 6.6921 22.584 8 22.584C9.3079 22.584 10.2011 22.5853 10.8879 22.6506C11.5561 22.7141 11.8989 22.8293 12.141 22.9777C12.5005 23.198 12.8027 23.5002 13.023 23.8597C13.1713 24.1018 13.2865 24.4445 13.35 25.1128C13.4153 25.7996 13.4167 26.6927 13.4167 28.0007C13.4167 29.3086 13.4153 30.2017 13.35 30.8885C13.2865 31.5568 13.1713 31.8995 13.023 32.1416C12.8027 32.5011 12.5005 32.8034 12.141 33.0236C11.8989 33.172 11.5561 33.2872 10.8879 33.3507C10.2011 33.416 9.3079 33.4173 8 33.4173C6.6921 33.4173 5.79895 33.416 5.11212 33.3507C4.44389 33.2872 4.10111 33.172 3.85901 33.0236C3.49954 32.8034 3.1973 32.5011 2.97702 32.1416C2.82866 31.8995 2.71349 31.5568 2.64996 30.8885C2.58465 30.2017 2.58333 29.3086 2.58333 28.0007C2.58333 26.6927 2.58465 25.7996 2.64996 25.1128C2.71349 24.4445 2.82866 24.1018 2.97702 23.8597C3.1973 23.5002 3.49954 23.198 3.85901 22.9777Z" fill="#3EB9B5"/>
<path fill-rule="evenodd" clip-rule="evenodd" d="M31.1245 20.1618C30.3054 20.0839 29.2928 20.084 28.0609 20.084H27.9391C26.7072 20.084 25.6946 20.0839 24.8755 20.1618C24.0243 20.2428 23.2537 20.4165 22.5528 20.8461C21.8569 21.2725 21.2718 21.8576 20.8454 22.5534C20.4159 23.2543 20.2421 24.0249 20.1612 24.8761C20.0833 25.6953 20.0833 26.7078 20.0833 27.9397V28.0616C20.0833 29.2935 20.0833 30.306 20.1612 31.1252C20.2421 31.9764 20.4159 32.747 20.8454 33.4479C21.2718 34.1437 21.8569 34.7288 22.5528 35.1552C23.2537 35.5848 24.0243 35.7585 24.8755 35.8395C25.6946 35.9174 26.7072 35.9173 27.9391 35.9173H28.0609C29.2928 35.9173 30.3054 35.9174 31.1245 35.8395C31.9757 35.7585 32.7463 35.5848 33.4472 35.1552C34.1431 34.7288 34.7282 34.1437 35.1546 33.4479C35.5841 32.747 35.7579 31.9764 35.8388 31.1252C35.9167 30.306 35.9167 29.2935 35.9167 28.0616V27.9397C35.9167 26.7078 35.9167 25.6953 35.8388 24.8761C35.7579 24.0249 35.5841 23.2543 35.1546 22.5534C34.7282 21.8576 34.1431 21.2725 33.4472 20.8461C32.7463 20.4165 31.9757 20.2428 31.1245 20.1618ZM23.859 22.9777C24.1011 22.8293 24.4439 22.7141 25.1121 22.6506C25.799 22.5853 26.6921 22.584 28 22.584C29.3079 22.584 30.201 22.5853 30.8879 22.6506C31.5561 22.7141 31.8989 22.8293 32.141 22.9777C32.5005 23.198 32.8027 23.5002 33.023 23.8597C33.1713 24.1018 33.2865 24.4445 33.35 25.1128C33.4153 25.7996 33.4167 26.6927 33.4167 28.0007C33.4167 29.3086 33.4153 30.2017 33.35 30.8885C33.2865 31.5568 33.1713 31.8995 33.023 32.1416C32.8027 32.5011 32.5005 32.8034 32.141 33.0236C31.8989 33.172 31.5561 33.2872 30.8879 33.3507C30.201 33.416 29.3079 33.4173 28 33.4173C26.6921 33.4173 25.799 33.416 25.1121 33.3507C24.4439 33.2872 24.1011 33.172 23.859 33.0236C23.4995 32.8034 23.1973 32.5011 22.977 32.1416C22.8287 31.8995 22.7135 31.5568 22.65 30.8885C22.5847 30.2017 22.5833 29.3086 22.5833 28.0007C22.5833 26.6927 22.5847 25.7996 22.65 25.1128C22.7135 24.4445 22.8287 24.1018 22.977 23.8597C23.1973 23.5002 23.4995 23.198 23.859 22.9777Z" fill="#3EB9B5"/>
</svg>
