<svg width="40" height="40" viewBox="0 0 40 40" fill="none" xmlns="http://www.w3.org/2000/svg">
<path opacity="0.4" d="M31.6667 22.916V16.2493C31.6667 9.96435 31.6667 6.82105 29.7133 4.86938C27.7617 2.91605 24.6183 2.91602 18.3333 2.91602C12.0483 2.91602 8.90499 2.91605 6.95333 4.86938C5 6.82105 5 9.96435 5 16.2493L5 26.2493C5 29.356 5.00001 30.9093 5.50667 32.1343C6.18334 33.7676 7.48166 35.066 9.11499 35.7427C10.34 36.2493 11.8933 36.2493 15 36.2493H18.3333C24.6183 36.2493 27.7617 36.2494 29.7133 34.2961C29.9567 34.0544 30.1683 33.7944 30.355 33.5111C29.4883 34.0394 28.47 34.3444 27.3817 34.3444C24.225 34.3444 21.6667 31.786 21.6667 28.631C21.6667 25.476 24.225 22.916 27.3817 22.916C29.0867 22.916 30.6167 23.6627 31.665 24.8477C31.6667 24.2393 31.6667 23.596 31.6667 22.916Z" fill="#3EB9B5"/>
<path d="M18.3333 37.4993C11.7117 37.4993 8.38666 37.4993 6.06834 35.1794C3.75001 32.8627 3.75 29.5377 3.75 22.916L3.75 16.2493C3.75 9.62768 3.75001 6.30267 6.07001 3.986C8.38666 1.66602 11.7116 1.66602 18.3332 1.66602C24.9548 1.66602 28.28 1.66602 30.5983 3.986C32.9167 6.30267 32.9167 9.62768 32.9167 16.2493V17.916C32.9167 18.606 32.3567 19.166 31.6667 19.166C30.9767 19.166 30.4167 18.606 30.4167 17.916V16.2493C30.4167 10.3177 30.4167 7.33931 28.83 5.75431C27.2434 4.16602 24.2668 4.16602 18.3337 4.16602C12.4004 4.16602 9.42334 4.16602 7.83834 5.75269C6.25001 7.33935 6.25 10.316 6.25 16.2493L6.25 22.916C6.25 28.8477 6.25 31.826 7.83667 33.411C9.42334 34.9993 12.4 34.9993 18.3333 34.9993C19.0233 34.9993 19.5833 35.5593 19.5833 36.2493C19.5833 36.9393 19.0233 37.4993 18.3333 37.4993Z" fill="#3EB9B5"/>
<path fill-rule="evenodd" clip-rule="evenodd" d="M35 37.4993C34.68 37.4993 34.36 37.3777 34.1167 37.1326L31.34 34.356C30.215 35.136 28.85 35.5926 27.3817 35.5926C23.5417 35.5926 20.4167 32.4694 20.4167 28.6294C20.4167 24.7894 23.5417 21.6644 27.3817 21.6644C31.2217 21.6644 34.345 24.7894 34.345 28.6294C34.345 30.0977 33.8883 31.4627 33.1083 32.5877L35.885 35.3644C36.3733 35.8528 36.3733 36.6443 35.885 37.1326C35.6417 37.376 35.3217 37.4993 35.0017 37.4993H35ZM27.3817 24.166C24.92 24.166 22.9167 26.1694 22.9167 28.631C22.9167 31.0927 24.92 33.0944 27.3817 33.0944C29.8433 33.0944 31.845 31.0927 31.845 28.631C31.845 26.1694 29.8433 24.166 27.3817 24.166Z" fill="#3EB9B5"/>
<path d="M11.6667 19.166H18.3333C19.0233 19.166 19.5833 18.606 19.5833 17.916C19.5833 17.226 19.0233 16.666 18.3333 16.666L11.6667 16.666C10.9767 16.666 10.4167 17.226 10.4167 17.916C10.4167 18.606 10.9767 19.166 11.6667 19.166Z" fill="#3EB9B5"/>
<path d="M11.6667 12.4993L25 12.4993C25.69 12.4993 26.25 11.9393 26.25 11.2493C26.25 10.5593 25.69 9.99935 25 9.99935L11.6667 9.99935C10.9767 9.99935 10.4167 10.5593 10.4167 11.2493C10.4167 11.9393 10.9767 12.4993 11.6667 12.4993Z" fill="#3EB9B5"/>
</svg>
