<svg width="40" height="40" viewBox="0 0 40 40" fill="none" xmlns="http://www.w3.org/2000/svg">
<g opacity="0.4">
<path d="M16.6667 6.66732C16.6667 4.82637 18.159 3.33398 20 3.33398C21.8409 3.33398 23.3333 4.82637 23.3333 6.66732C23.3333 7.20328 23.2068 7.7097 22.9821 8.15836C22.4348 9.25074 21.305 10.0007 20 10.0007C18.9095 10.0007 17.9413 9.477 17.3332 8.66743C16.9147 8.11031 16.6667 7.41777 16.6667 6.66732Z" fill="#3EB9B5"/>
<path d="M33.3333 16.6673C31.4924 16.6673 30 15.1749 30 13.334C30 12.798 30.1265 12.2916 30.3513 11.8429C30.8985 10.7506 32.0284 10.0007 33.3333 10.0007C35.1743 10.0007 36.6667 11.493 36.6667 13.334C36.6667 15.1749 35.1743 16.6673 33.3333 16.6673Z" fill="#3EB9B5"/>
<path d="M6.66667 20.0007C4.82572 20.0007 3.33333 18.5083 3.33333 16.6673C3.33333 14.8264 4.82572 13.334 6.66667 13.334C7.75716 13.334 8.72535 13.8576 9.33349 14.6672C9.752 15.2243 10 15.9169 10 16.6673C10 18.5083 8.50761 20.0007 6.66667 20.0007Z" fill="#3EB9B5"/>
</g>
<path fill-rule="evenodd" clip-rule="evenodd" d="M20 2.08398C17.4687 2.08398 15.4167 4.13601 15.4167 6.66732C15.4167 7.24681 15.5247 7.80222 15.7216 8.31362L9.44439 13.0215C8.67423 12.4341 7.71125 12.084 6.66667 12.084C4.13536 12.084 2.08333 14.136 2.08333 16.6673C2.08333 19.1986 4.13536 21.2507 6.66667 21.2507C9.19797 21.2507 11.25 19.1986 11.25 16.6673C11.25 16.0878 11.142 15.5324 10.9451 15.021L17.2223 10.3131C17.9924 10.9006 18.9554 11.2507 20 11.2507C21.3418 11.2507 22.5476 10.674 23.3849 9.7573L28.8297 12.4797C28.7774 12.7569 28.75 13.0425 28.75 13.334C28.75 15.8653 30.802 17.9173 33.3333 17.9173C35.8646 17.9173 37.9167 15.8653 37.9167 13.334C37.9167 10.8027 35.8646 8.75065 33.3333 8.75065C31.9916 8.75065 30.7857 9.32734 29.9485 10.244L24.5036 7.52159C24.556 7.24441 24.5833 6.95878 24.5833 6.66732C24.5833 4.13601 22.5313 2.08398 20 2.08398ZM17.9167 6.66732C17.9167 5.51672 18.8494 4.58398 20 4.58398C21.1506 4.58398 22.0833 5.51672 22.0833 6.66732C22.0833 7.00454 22.0041 7.31968 21.8645 7.59847C21.5209 8.28426 20.8138 8.75065 20 8.75065C19.3192 8.75065 18.7148 8.42547 18.3326 7.91667C18.0711 7.56858 17.9167 7.13779 17.9167 6.66732ZM31.4689 12.4028C31.8124 11.717 32.5195 11.2507 33.3333 11.2507C34.4839 11.2507 35.4167 12.1834 35.4167 13.334C35.4167 14.4846 34.4839 15.4173 33.3333 15.4173C32.1827 15.4173 31.25 14.4846 31.25 13.334C31.25 12.9968 31.3292 12.6816 31.4689 12.4028ZM4.58333 16.6673C4.58333 15.5167 5.51607 14.584 6.66667 14.584C7.34742 14.584 7.95186 14.9092 8.33406 15.418C8.59555 15.7661 8.75 16.1968 8.75 16.6673C8.75 17.8179 7.81726 18.7507 6.66667 18.7507C5.51607 18.7507 4.58333 17.8179 4.58333 16.6673Z" fill="#3EB9B5"/>
<path d="M20 13.7507C20.6904 13.7507 21.25 14.3103 21.25 15.0007V31.6673C21.25 32.3577 20.6904 32.9173 20 32.9173C19.3096 32.9173 18.75 32.3577 18.75 31.6673V15.0007C18.75 14.3103 19.3096 13.7507 20 13.7507Z" fill="#3EB9B5"/>
<path d="M6.66667 23.7507C7.35702 23.7507 7.91667 24.3103 7.91667 25.0007L7.91667 31.6673C7.91667 32.3577 7.35702 32.9173 6.66667 32.9173C5.97631 32.9173 5.41667 32.3577 5.41667 31.6673L5.41667 25.0007C5.41667 24.3103 5.97631 23.7507 6.66667 23.7507Z" fill="#3EB9B5"/>
<path d="M36.6667 37.9173C37.357 37.9173 37.9167 37.3577 37.9167 36.6673C37.9167 35.977 37.357 35.4173 36.6667 35.4173H3.33333C2.64297 35.4173 2.08333 35.977 2.08333 36.6673C2.08333 37.3577 2.64297 37.9173 3.33333 37.9173H36.6667Z" fill="#3EB9B5"/>
<path d="M33.3333 20.4173C34.0237 20.4173 34.5833 20.977 34.5833 21.6673V31.6673C34.5833 32.3577 34.0237 32.9173 33.3333 32.9173C32.643 32.9173 32.0833 32.3577 32.0833 31.6673V21.6673C32.0833 20.977 32.643 20.4173 33.3333 20.4173Z" fill="#3EB9B5"/>
</svg>
