<svg width="24" height="24" viewBox="0 0 24 24" fill="none" xmlns="http://www.w3.org/2000/svg">
<g clip-path="url(#clip0_492_6147)">
<path d="M22.5 3.9375H16.5C16.1022 3.9375 15.7206 4.09554 15.4393 4.37684C15.158 4.65814 15 5.03968 15 5.4375C15 5.83533 15.158 6.21686 15.4393 6.49816C15.7206 6.77947 16.1022 6.9375 16.5 6.9375H18.8789L13.5 12.3164L8.56055 7.37695C8.4213 7.23763 8.25596 7.12712 8.07399 7.05171C7.89202 6.97631 7.69697 6.9375 7.5 6.9375C7.30302 6.9375 7.10798 6.97631 6.926 7.05171C6.74403 7.12712 6.5787 7.23763 6.43945 7.37695L0.439446 13.377C0.159464 13.6585 0.00254656 14.0396 0.00309899 14.4366C0.00365141 14.8337 0.161628 15.2143 0.442393 15.4951C0.723159 15.7759 1.1038 15.9338 1.50086 15.9344C1.89792 15.9349 2.279 15.778 2.56055 15.498L7.5 10.5586L12.4394 15.498C12.5787 15.6374 12.744 15.7479 12.926 15.8233C13.108 15.8987 13.303 15.9375 13.5 15.9375C13.697 15.9375 13.892 15.8987 14.074 15.8233C14.256 15.7479 14.4213 15.6374 14.5605 15.498L21 9.0586V11.4375C21 11.8353 21.158 12.2169 21.4393 12.4982C21.7206 12.7795 22.1022 12.9375 22.5 12.9375C22.8978 12.9375 23.2794 12.7795 23.5607 12.4982C23.842 12.2169 24 11.8353 24 11.4375V5.4375C24.0001 5.24049 23.9614 5.04538 23.886 4.86334C23.8107 4.6813 23.7002 4.5159 23.5609 4.37659C23.4216 4.23728 23.2562 4.1268 23.0742 4.05145C22.8921 3.97611 22.697 3.93739 22.5 3.9375Z" fill="url(#paint0_linear_492_6147)"/>
</g>
<defs>
<linearGradient id="paint0_linear_492_6147" x1="-49.3974" y1="29.4277" x2="-20.2295" y2="-25.0413" gradientUnits="userSpaceOnUse">
<stop offset="0.588191" stop-color="#2C65AA"/>
<stop offset="0.893191" stop-color="#3FB6B4"/>
</linearGradient>
<clipPath id="clip0_492_6147">
<rect width="24" height="24" fill="white"/>
</clipPath>
</defs>
</svg>
