<svg width="52" height="44" viewBox="0 0 52 44" fill="none" xmlns="http://www.w3.org/2000/svg">
<path opacity="0.4" d="M31.7055 35.9809C30.0135 36.5403 28.5742 37.1719 27.3853 37.8051C25.265 38.9345 24.2044 39.4993 23.6854 39.4993C23.1664 39.4993 22.106 38.9345 19.9856 37.8051C17.8301 36.6571 14.8516 35.5145 11.0358 34.7974L11.0328 34.7969C6.75433 33.9927 4.61485 33.5906 3.64294 32.4032C2.67081 31.2158 2.67081 29.3136 2.67081 25.5096V10.558C2.67081 6.39758 2.67081 4.31739 4.18549 3.03639C5.70019 1.75538 7.47872 2.08959 11.0357 2.75801C18.0571 4.07747 22.242 6.83746 23.6854 8.42201C25.1289 6.83746 29.3137 4.07747 36.3351 2.75801C39.8921 2.08959 41.6707 1.75538 43.1854 3.03639C44.7 4.31739 44.7 6.39758 44.7 10.558V23.1994C43.6495 23.0531 42.5454 23.3836 41.7377 24.1909L33.16 32.7625C32.4936 33.4283 32.0446 34.28 31.8716 35.2055L31.7055 35.9809Z" fill="#3EB9B5"/>
<path fill-rule="evenodd" clip-rule="evenodd" d="M25.4355 39.4993C25.4355 40.4394 24.6943 41.2064 23.7644 41.2476C23.7382 41.2488 23.712 41.2493 23.6855 41.2493L23.6706 41.2493C23.2619 41.2468 22.8903 41.142 22.6181 41.0485C22.3228 40.9471 22.0081 40.8097 21.6857 40.6567C21.0541 40.357 20.2304 39.9182 19.2073 39.3733L19.1626 39.3495C17.1693 38.2879 14.3604 37.2028 10.7127 36.5173L10.6147 36.4989C8.5568 36.1122 6.88158 35.7973 5.60628 35.4232C4.32362 35.047 3.11905 34.5258 2.28896 33.5118C1.49078 32.5368 1.19002 31.3695 1.05302 30.1299C0.920825 28.9338 0.920862 27.4266 0.920907 25.6106L0.920904 10.4214C0.920792 8.45801 0.920696 6.78179 1.13162 5.44472C1.36039 3.99452 1.86967 2.70309 3.05553 1.70018C4.20367 0.729174 5.46486 0.407192 6.8562 0.416199C8.09399 0.424212 9.56064 0.699979 11.2179 1.01159L11.3591 1.03813C17.2704 2.14897 21.3962 4.26727 23.6855 6.06411C25.9748 4.26727 30.1006 2.14897 36.012 1.03813L36.1531 1.01159C37.8104 0.699978 39.2771 0.424212 40.5149 0.416199C41.9062 0.407192 43.1674 0.729174 44.3155 1.70019C45.5014 2.7031 46.0107 3.99452 46.2394 5.44472C46.4503 6.78176 46.4503 8.45794 46.4501 10.4213L46.4501 17.3327C46.4501 18.2992 45.6666 19.0827 44.7001 19.0827C43.7336 19.0827 42.9501 18.2992 42.9501 17.3327V10.558C42.9501 8.41991 42.945 7.02258 42.7822 5.9901C42.6323 5.03986 42.3842 4.65069 42.0554 4.3726C41.6888 4.06259 41.3034 3.91117 40.5375 3.91613C39.6531 3.92185 38.5001 4.13182 36.6583 4.47792C30.6239 5.61189 26.9505 7.82315 25.4345 9.15835L25.4346 9.16602V39.441C25.4352 39.4604 25.4355 39.4798 25.4355 39.4993ZM6.83354 3.91613C6.06767 3.91117 5.68223 4.06258 5.31566 4.3726C4.98684 4.65069 4.73877 5.03986 4.58887 5.9901C4.42599 7.02258 4.42091 8.41991 4.42091 10.558V25.5096C4.42091 27.4524 4.42343 28.7646 4.53183 29.7454C4.63786 30.7047 4.82317 31.0821 4.99714 31.2946C5.13917 31.4682 5.49085 31.7419 6.59141 32.0647C7.6792 32.3838 9.18151 32.6683 11.3592 33.0776C15.3429 33.8262 18.49 35.0259 20.8078 36.2603C21.2311 36.4857 21.6042 36.6844 21.9346 36.8583V9.16602L21.9346 9.15668C20.4175 7.82131 16.7445 5.61142 10.7127 4.47792C8.87091 4.13182 7.71793 3.92185 6.83354 3.91613Z" fill="#3EB9B5"/>
<path fill-rule="evenodd" clip-rule="evenodd" d="M47.9183 22.9512C45.8632 20.9043 42.534 20.9043 40.4789 22.9512L31.8732 31.5226C30.9604 32.4317 30.3423 33.5939 30.1001 34.8585L28.9836 40.0533C28.5358 42.1368 30.396 43.9617 32.4582 43.5158L37.7018 42.382C38.9664 42.1412 40.1305 41.5276 41.0427 40.6191L49.5466 31.9897C51.5992 29.9384 51.597 26.6153 49.5402 24.5667L47.9183 22.9512ZM42.9488 25.431C43.6383 24.7443 44.7589 24.7443 45.4483 25.431L47.0703 27.0465C47.7558 27.7293 47.7558 28.8334 47.0702 29.5162L38.5676 38.1443C38.15 38.5582 37.616 38.838 37.0348 38.9461C37.0272 38.9475 37.0196 38.949 37.0119 38.9505C37.003 38.9523 36.994 38.9542 36.985 38.9561L32.5953 39.9053L33.5264 35.5732L33.5355 35.528C33.6437 34.9509 33.9248 34.4189 34.3431 34.0024L42.9488 25.431Z" fill="#3EB9B5"/>
</svg>
