<svg width="56" height="56" viewBox="0 0 56 56" fill="none" xmlns="http://www.w3.org/2000/svg">
<g opacity="0.4">
<path d="M42 4.66602C47.1547 4.66602 51.3333 8.84469 51.3333 13.9993C51.3333 19.154 47.1547 23.3327 42 23.3327C36.8453 23.3327 32.6667 19.154 32.6667 13.9993C32.6667 8.84469 36.8453 4.66602 42 4.66602Z" fill="#3EB9B5"/>
<path d="M14 32.666C19.1547 32.666 23.3333 36.8447 23.3333 41.9993C23.3333 47.154 19.1547 51.3327 14 51.3327C8.84534 51.3327 4.66667 47.154 4.66667 41.9993C4.66667 36.8447 8.84534 32.666 14 32.666Z" fill="#3EB9B5"/>
</g>
<path fill-rule="evenodd" clip-rule="evenodd" d="M14 25.0827C7.87884 25.0827 2.91667 20.1205 2.91667 13.9993C2.91667 7.87819 7.87884 2.91602 14 2.91602C20.1212 2.91602 25.0833 7.87819 25.0833 13.9993C25.0833 20.1205 20.1212 25.0827 14 25.0827ZM6.41667 13.9993C6.41667 18.1875 9.81184 21.5827 14 21.5827C18.1882 21.5827 21.5833 18.1875 21.5833 13.9993C21.5833 9.81119 18.1882 6.41602 14 6.41602C9.81184 6.41602 6.41667 9.81119 6.41667 13.9993Z" fill="#3EB9B5"/>
<path fill-rule="evenodd" clip-rule="evenodd" d="M14 53.0827C7.87884 53.0827 2.91667 48.1205 2.91667 41.9993C2.91667 35.8782 7.87884 30.916 14 30.916C20.1212 30.916 25.0833 35.8782 25.0833 41.9993C25.0833 48.1205 20.1212 53.0827 14 53.0827ZM6.41667 41.9993C6.41667 46.1875 9.81184 49.5827 14 49.5827C18.1882 49.5827 21.5833 46.1875 21.5833 41.9993C21.5833 37.8112 18.1882 34.416 14 34.416C9.81184 34.416 6.41667 37.8112 6.41667 41.9993Z" fill="#3EB9B5"/>
<path fill-rule="evenodd" clip-rule="evenodd" d="M30.9167 13.9993C30.9167 20.1205 35.8788 25.0827 42 25.0827C48.1212 25.0827 53.0833 20.1205 53.0833 13.9993C53.0833 7.87819 48.1212 2.91602 42 2.91602C35.8788 2.91602 30.9167 7.87819 30.9167 13.9993ZM42 21.5827C37.8118 21.5827 34.4167 18.1875 34.4167 13.9993C34.4167 9.81119 37.8118 6.41602 42 6.41602C46.1882 6.41602 49.5833 9.81119 49.5833 13.9993C49.5833 18.1875 46.1882 21.5827 42 21.5827Z" fill="#3EB9B5"/>
<path fill-rule="evenodd" clip-rule="evenodd" d="M42 53.0827C35.8788 53.0827 30.9167 48.1205 30.9167 41.9993C30.9167 35.8782 35.8788 30.916 42 30.916C48.1212 30.916 53.0833 35.8782 53.0833 41.9993C53.0833 48.1205 48.1212 53.0827 42 53.0827ZM34.4167 41.9993C34.4167 46.1875 37.8118 49.5827 42 49.5827C46.1882 49.5827 49.5833 46.1875 49.5833 41.9993C49.5833 37.8112 46.1882 34.416 42 34.416C37.8118 34.416 34.4167 37.8112 34.4167 41.9993Z" fill="#3EB9B5"/>
</svg>
