<svg width="24" height="24" viewBox="0 0 24 24" fill="none" xmlns="http://www.w3.org/2000/svg">
<g clip-path="url(#clip0_492_5856)">
<path d="M19.2068 20.6936H10.7469C9.98334 20.6936 8.43692 19.6908 8.43692 18.8713V11.4041C8.43692 11.2373 8.52675 11.0833 8.67159 11.0026C10.3592 10.0603 11.2126 8.38642 12.1036 5.81701V3.35484C12.1036 3.27142 12.1256 3.18984 12.1687 3.11834C12.4473 2.65451 12.9295 2.38867 13.4914 2.38867C14.2147 2.38867 14.9755 2.82592 15.5273 3.55376C16.0838 4.29167 16.8776 5.92059 16.2222 8.77509H20.0841C20.9439 8.77509 22.8937 9.66059 22.8937 11.1163C22.8937 11.5957 22.8368 12.3272 22.5316 12.7553C22.7718 13.4272 22.8176 14.5171 22.0797 15.2853C22.1402 16.5796 21.8148 17.5201 21.1282 18.0353C21.1163 18.7191 20.8018 19.5551 20.327 20.0996C19.9924 20.4883 19.6038 20.6936 19.2068 20.6936ZM9.35542 11.6644V18.8694C9.43059 19.1151 10.3601 19.7751 10.7488 19.7751H19.2078C19.3288 19.7751 19.4873 19.6715 19.6432 19.4928C20.0135 19.0665 20.2738 18.3158 20.2097 17.851C20.1831 17.6613 20.2766 17.4779 20.4462 17.3835C21.1905 16.982 21.2107 15.7986 21.1584 15.1276C21.1447 14.9809 21.2079 14.837 21.3216 14.7389C21.9871 14.1853 21.7818 13.1696 21.5911 12.879C21.5095 12.7534 21.4948 12.5948 21.5489 12.4583C21.6058 12.3208 21.7231 12.2153 21.8707 12.1823C21.8514 12.1576 21.9834 11.7836 21.9834 11.1117C21.9834 10.3664 20.6213 9.68717 20.0914 9.68717H15.6383C15.4943 9.68717 15.3596 9.62117 15.2743 9.50659C15.1891 9.39201 15.1598 9.24351 15.1992 9.10509C15.7858 7.03067 15.6401 5.20834 14.805 4.10192C14.3595 3.50976 13.837 3.30076 13.4997 3.30076C13.2989 3.30076 13.1403 3.36584 13.0267 3.49601V5.88576C13.0267 5.93892 13.0175 5.98567 13.0019 6.03517C12.088 8.67792 11.1503 10.5525 9.35542 11.6644Z" fill="url(#paint0_linear_492_5856)" stroke="url(#paint1_linear_492_5856)"/>
<path d="M7.74757 21.6096H2.71324C1.82682 21.6096 1.10541 20.8882 1.10541 20.0018V10.3823C1.10541 9.49589 1.82682 8.77539 2.71324 8.77539H7.74757C8.63399 8.77539 9.35541 9.49589 9.35541 10.3823V20.0018C9.35541 20.8882 8.63399 21.6096 7.74757 21.6096ZM2.71324 9.69206C2.33191 9.69206 2.02207 10.0019 2.02207 10.3823V20.0018C2.02207 20.3831 2.33191 20.693 2.71324 20.693H7.74757C8.12891 20.693 8.43874 20.3831 8.43874 20.0018V10.3823C8.43874 10.0019 8.12891 9.69206 7.74757 9.69206H2.71324Z" fill="url(#paint2_linear_492_5856)" stroke="url(#paint3_linear_492_5856)"/>
</g>
<defs>
<linearGradient id="paint0_linear_492_5856" x1="-21.324" y1="41.2717" x2="29.7472" y2="3.6057" gradientUnits="userSpaceOnUse">
<stop offset="0.588191" stop-color="#2C65AA"/>
<stop offset="0.893191" stop-color="#3FB6B4"/>
</linearGradient>
<linearGradient id="paint1_linear_492_5856" x1="-21.324" y1="41.2717" x2="29.7472" y2="3.6057" gradientUnits="userSpaceOnUse">
<stop offset="0.588191" stop-color="#2C65AA"/>
<stop offset="0.893191" stop-color="#3FB6B4"/>
</linearGradient>
<linearGradient id="paint2_linear_492_5856" x1="-15.8782" y1="36.0377" x2="17.2" y2="16.1815" gradientUnits="userSpaceOnUse">
<stop offset="0.588191" stop-color="#2C65AA"/>
<stop offset="0.893191" stop-color="#3FB6B4"/>
</linearGradient>
<linearGradient id="paint3_linear_492_5856" x1="-15.8782" y1="36.0377" x2="17.2" y2="16.1815" gradientUnits="userSpaceOnUse">
<stop offset="0.588191" stop-color="#2C65AA"/>
<stop offset="0.893191" stop-color="#3FB6B4"/>
</linearGradient>
<clipPath id="clip0_492_5856">
<rect width="22" height="22" fill="white" transform="translate(1 1)"/>
</clipPath>
</defs>
</svg>
