<svg width="52" height="48" viewBox="0 0 52 48" fill="none" xmlns="http://www.w3.org/2000/svg">
<path opacity="0.4" d="M10.4173 18.5941C16.0492 8.62862 18.8652 3.64585 22.7293 2.36321C24.855 1.65758 27.1449 1.65758 29.2707 2.36321C33.1348 3.64585 35.9508 8.62862 41.5827 18.5941C47.2146 28.5597 50.0305 33.5424 49.1858 37.6025C48.7211 39.836 47.5761 41.862 45.9151 43.3899C42.8957 46.1673 37.2638 46.1673 26 46.1673C14.7362 46.1673 9.10426 46.1673 6.0849 43.3899C4.42384 41.862 3.2789 39.836 2.81418 37.6025C1.96944 33.5424 4.7854 28.5597 10.4173 18.5941Z" fill="#3EB9B5"/>
<path d="M24.8124 25.7534C24.6503 25.7508 24.4629 25.7507 24.2318 25.7507C23.2653 25.7507 22.4818 24.9672 22.4818 24.0007C22.4818 23.0342 23.2653 22.2507 24.2318 22.2507L24.3121 22.2507C24.7907 22.2505 25.3083 22.2503 25.7451 22.309C26.2568 22.3778 26.9106 22.5548 27.4608 23.105C28.011 23.6552 28.188 24.3089 28.2568 24.8207C28.3155 25.2575 28.3153 25.7751 28.3151 26.2537L28.3151 35.6674C28.3151 36.6339 27.5316 37.4174 26.5651 37.4174C25.5986 37.4174 24.8151 36.6339 24.8151 35.6674V26.334C24.8151 26.1028 24.815 25.9154 24.8124 25.7534Z" fill="#3EB9B5"/>
<path d="M25.9818 14.6673C24.6931 14.6673 23.6484 15.712 23.6484 17.0007C23.6484 18.2893 24.6931 19.334 25.9818 19.334H26.0027C27.2914 19.334 28.3361 18.2893 28.3361 17.0007C28.3361 15.712 27.2914 14.6673 26.0027 14.6673H25.9818Z" fill="#3EB9B5"/>
<path fill-rule="evenodd" clip-rule="evenodd" d="M22.178 0.70232C24.6617 -0.122128 27.3383 -0.122128 29.822 0.70232C32.2955 1.52336 34.2375 3.47061 36.1886 6.20653C38.1332 8.93339 40.2818 12.7355 43.0516 17.6365L43.1603 17.8289C45.9305 22.7307 48.0791 26.5326 49.4181 29.6158C50.7637 32.714 51.4338 35.3891 50.8991 37.9589C50.3608 40.5464 49.0332 42.8995 47.0998 44.6779C45.1712 46.452 42.545 47.2004 39.2384 47.5599C35.9504 47.9173 31.6494 47.9173 26.1137 47.9173H25.8863C20.3506 47.9173 16.0496 47.9173 12.7616 47.5599C9.45495 47.2004 6.82883 46.452 4.90016 44.6779C2.96678 42.8995 1.63924 40.5464 1.10088 37.9589C0.566186 35.3891 1.23632 32.714 2.58185 29.6158C3.92086 26.5326 6.06948 22.7307 8.83968 17.8289L8.94841 17.6365C11.7181 12.7355 13.8668 8.93339 15.8114 6.20653C17.7625 3.47061 19.7045 1.52336 22.178 0.70232ZM28.7194 4.0241C26.9516 3.43728 25.0484 3.43728 23.2806 4.0241C21.89 4.4857 20.492 5.67116 18.6611 8.23866C16.8364 10.7973 14.7766 14.4373 11.9409 19.4552C9.10528 24.4726 7.04923 28.1155 5.79217 31.01C4.53293 33.9095 4.21746 35.7559 4.5275 37.246C4.91858 39.1256 5.88093 40.8245 7.26967 42.102C8.36035 43.1052 10.0599 43.7455 13.1399 44.0804C16.2162 44.4148 20.3267 44.4173 26 44.4173C31.6733 44.4173 35.7838 44.4148 38.8601 44.0804C41.9401 43.7455 43.6396 43.1052 44.7303 42.102C46.1191 40.8245 47.0814 39.1256 47.4725 37.246C47.7825 35.7559 47.4671 33.9095 46.2078 31.01C44.9508 28.1155 42.8947 24.4726 40.0591 19.4552C37.2234 14.4373 35.1636 10.7973 33.3389 8.23866C31.508 5.67116 30.11 4.4857 28.7194 4.0241Z" fill="#3EB9B5"/>
</svg>
