<svg width="51" height="51" viewBox="0 0 51 51" fill="none" xmlns="http://www.w3.org/2000/svg">
<path opacity="0.4" d="M46.5979 13.802L45.4452 11.8187C44.5749 10.302 44.1385 9.55532 43.3989 9.25199C42.6569 8.94865 41.8192 9.18203 40.1438 9.6487L37.2948 10.4654C36.2262 10.6987 35.1038 10.5587 34.1261 10.0687L33.3399 9.60198C32.5022 9.06532 31.8581 8.27194 31.5011 7.33861L30.7218 5.02874C30.2085 3.48874 29.9541 2.71879 29.3428 2.27546C28.7338 1.83212 27.9242 1.83203 26.3025 1.83203L23.7032 1.83203C22.0815 1.83203 21.2719 1.83212 20.6629 2.27546C20.0515 2.71879 19.7972 3.48874 19.2838 5.02874L18.5045 7.33861C18.1475 8.27194 17.5035 9.06532 16.6658 9.60198L15.8795 10.0687C14.9019 10.5587 13.7795 10.6987 12.7085 10.4654L9.86187 9.6487C8.18654 9.18203 7.34883 8.94865 6.60683 9.25199C5.86716 9.55532 5.43082 10.302 4.56049 11.8187L3.40784 13.802C2.59117 15.2253 2.1828 15.9254 2.26213 16.6954C2.34147 17.4421 2.88749 18.0487 3.98183 19.2621L6.38751 21.9454C6.97551 22.6921 7.39319 23.9987 7.39319 25.1654C7.39319 26.332 6.97551 27.6387 6.38751 28.3621L3.98183 31.0687C2.88749 32.282 2.34147 32.8887 2.26213 33.6353C2.1828 34.4053 2.59117 35.1054 3.40784 36.5287L4.56049 38.5121C5.43082 40.0287 5.86716 40.7754 6.60683 41.0787C7.34883 41.3821 8.18654 41.1487 9.86187 40.682L12.7085 39.8654C13.7795 39.632 14.9019 39.7721 15.8795 40.2621L16.6658 40.7287C17.5035 41.2654 18.1475 42.0588 18.5045 42.9921L19.2838 45.302C19.7972 46.842 20.0515 47.6119 20.6629 48.0553C21.2719 48.4986 22.0815 48.4987 23.7032 48.4987H26.3025C27.9242 48.4987 28.7338 48.4986 29.3428 48.0553C29.8095 47.7286 30.0685 47.192 30.3952 46.282C27.4809 44.1587 25.5861 40.7054 25.5861 36.832C25.5861 35.572 25.7845 34.3819 26.1485 33.2386C25.7682 33.2853 25.3785 33.332 24.9818 33.332C22.8305 33.332 20.4692 32.0953 19.0109 30.7187C17.6529 29.272 16.8222 27.312 16.8222 25.1654C16.8222 20.662 20.4786 16.9987 24.9889 16.9987C27.1379 16.9987 29.0932 17.8388 30.5515 19.1921C31.9095 20.6388 33.1485 23.0187 33.1485 25.1654C33.1485 25.422 33.1345 25.6787 33.1135 25.9121C34.3992 25.4221 35.7945 25.1654 37.2528 25.1654C39.2571 25.1654 41.1448 25.6787 42.7922 26.5654C42.6778 26.0987 42.6125 25.632 42.6125 25.1654C42.6125 23.9987 43.0302 22.6921 43.6182 21.9454L46.0239 19.2621C47.1182 18.0487 47.6642 17.4421 47.7436 16.6954C47.8229 15.9254 47.4145 15.2253 46.5979 13.802Z" fill="#3EB9B5"/>
<path d="M22.4176 50.2513C20.7172 50.2513 19.8562 49.6452 19.5643 49.4396L19.4869 49.3856C18.5583 48.6903 18.1825 47.5633 17.6132 45.8553L16.8479 43.5617C16.6263 42.9993 16.2459 42.5303 15.7489 42.2013L15.0372 41.8C14.4492 41.4967 13.7772 41.4126 13.1356 41.5596L10.3239 42.3437L10.3168 42.3458C8.48445 42.8813 7.26083 43.2389 5.9372 42.6983C4.63167 42.1621 3.99699 41.0575 3.03706 39.387L1.8819 37.376C1.0069 35.878 0.372263 34.786 0.514597 33.449C0.652263 32.1564 1.3896 31.3233 2.6146 29.9397L2.66587 29.8836L5.03429 27.2425C5.33062 26.8388 5.63859 25.9917 5.63859 25.1634C5.63859 24.3351 5.33529 23.4718 5.03429 23.0611L2.67293 20.4291C1.45726 19.0827 0.654597 18.1891 0.514597 16.8498C0.37693 15.5548 0.962592 14.5327 1.85159 12.9834L3.09756 10.818C4.04022 9.19864 4.6632 8.13002 5.9372 7.60736C7.20197 7.09027 8.35982 7.4125 10.107 7.89873L13.138 8.74372C13.7796 8.89072 14.4539 8.80432 15.0396 8.50332L15.7536 8.10205C16.2529 7.77305 16.6309 7.30403 16.8526 6.7417L17.625 4.42705C18.1919 2.72372 18.5699 1.59658 19.6455 0.845248C20.7093 0.0800781 21.8991 0.0800781 23.6951 0.0800781L26.2955 0.0800781C28.0916 0.0800781 29.2825 0.0800781 30.3463 0.845248C31.4288 1.59878 31.8067 2.73739 32.3759 4.45186L33.1416 6.74398C33.3633 7.30631 33.7436 7.77533 34.2406 8.10433L34.9522 8.5056C35.5402 8.8066 36.2122 8.893 36.8539 8.746L39.8756 7.90358C41.6303 7.41358 42.7876 7.09169 44.0522 7.60736C45.3262 8.13002 45.9516 9.19864 46.8943 10.818L48.143 12.9921C48.9895 14.469 49.5612 15.4661 49.489 16.6864C49.5193 17.9814 48.4506 19.2111 46.7566 21.0498L46.6192 21.1993C46.4335 21.4013 46.255 21.5955 46.0939 21.7753C45.4522 22.4986 44.3463 22.564 43.6229 21.92C42.8996 21.2783 42.8342 20.1724 43.4782 19.449C43.6375 19.2687 43.8139 19.0765 43.9975 18.8765L44.1829 18.6743L44.208 18.647C44.7611 18.047 45.7293 16.9964 45.9912 16.5185L45.9959 16.4834C45.9866 16.264 45.5176 15.445 45.1046 14.724L43.8703 12.5773C43.4293 11.819 42.9276 10.9604 42.7246 10.8414C42.5149 10.7959 41.6511 11.0373 40.8718 11.2551L40.8159 11.2707L37.6963 12.1387C36.2146 12.4933 34.6535 12.2998 33.3049 11.5904L33.2583 11.5647L32.388 11.07C31.2283 10.328 30.3532 9.25002 29.8585 7.95736L29.8329 7.8874L29.0536 5.55407C28.7923 4.76307 28.4959 3.87158 28.3325 3.70358L28.3046 3.68512C28.1156 3.5778 27.1474 3.5778 26.2958 3.5778L23.6963 3.5778C22.8423 3.5778 21.8762 3.5778 21.6872 3.68512L21.6476 3.71292C21.4983 3.8715 21.2046 4.75259 20.9457 5.52926L20.9382 5.55407L20.1333 7.95964C19.6386 9.2523 18.7635 10.3279 17.6039 11.0723L17.5199 11.1238L16.6869 11.5927C15.3359 12.302 13.7772 12.498 12.2955 12.141L12.2325 12.1248L9.17596 11.273C8.38263 11.0513 7.48191 10.8016 7.25791 10.8483C7.06424 10.9649 6.56494 11.8213 6.12394 12.5796L6.06788 12.673L4.8896 14.724L4.86784 14.762C4.46023 15.4735 4.00518 16.2679 3.9983 16.4856C4.01908 16.6888 4.67474 17.4173 5.25811 18.0654L5.27697 18.0864L7.75727 20.8584C8.59494 21.9224 9.13859 23.6118 9.13859 25.1611C9.13859 26.7105 8.59727 28.3764 7.75727 29.4404L7.68493 29.5268L5.2372 32.2591C4.67954 32.8891 4.0473 33.6054 3.9983 33.8177C4.00061 34.0504 4.51674 34.9355 4.90035 35.5935L4.91523 35.619L6.07256 37.6351C6.49483 38.37 7.07141 39.3735 7.26497 39.4551C7.45631 39.5321 8.65097 39.1843 9.36497 38.9743L12.2955 38.1576C13.7772 37.803 15.3383 37.9968 16.6869 38.7061L16.7335 38.7316L17.6039 39.2263C18.7635 39.9706 19.6386 41.0463 20.1333 42.3367L20.1589 42.4066L20.9468 44.7656C21.1589 45.3996 21.4657 46.3166 21.6406 46.6066C21.8926 46.7419 22.3125 46.7513 22.5529 46.742C23.5212 46.707 24.3285 47.4654 24.3612 48.4314C24.3939 49.3974 23.6379 50.207 22.6719 50.2397L22.6535 50.2402C22.5736 50.2424 22.4958 50.2445 22.4199 50.2445L22.4176 50.2513Z" fill="#3EB9B5"/>
<path d="M37.2736 43.249H37.2525C36.2865 43.249 35.5025 42.465 35.5025 41.499C35.5025 40.533 36.2865 39.749 37.2525 39.749C38.2185 39.749 39.0119 40.533 39.0119 41.499C39.0119 42.465 38.2396 43.249 37.2736 43.249Z" fill="#3EB9B5"/>
<path d="M37.2525 38.5824C36.2865 38.5824 35.5025 37.7984 35.5025 36.8324V32.1657C35.5025 31.1997 36.2865 30.4157 37.2525 30.4157C38.2185 30.4157 39.0025 31.1997 39.0025 32.1657V36.8324C39.0025 37.7984 38.2185 38.5824 37.2525 38.5824Z" fill="#3EB9B5"/>
<path fill-rule="evenodd" clip-rule="evenodd" d="M37.2525 50.249C29.8535 50.249 23.8359 44.2314 23.8359 36.8324C23.8359 29.4334 29.8535 23.4157 37.2525 23.4157C44.6515 23.4157 50.6692 29.4334 50.6692 36.8324C50.6692 44.2314 44.6515 50.249 37.2525 50.249ZM37.2525 26.9157C31.7855 26.9157 27.3359 31.3654 27.3359 36.8324C27.3359 42.2994 31.7855 46.749 37.2525 46.749C42.7195 46.749 47.1692 42.2994 47.1692 36.8324C47.1692 31.3654 42.7195 26.9157 37.2525 26.9157Z" fill="#3EB9B5"/>
<path d="M17.6991 31.8856C18.0445 32.287 18.5322 32.4925 19.0245 32.4925C19.4282 32.4925 19.8365 32.3524 20.1678 32.0677C20.8982 31.4354 20.9798 30.3317 20.3498 29.599C19.2368 28.3064 18.5904 27.1444 18.5904 25.0258C18.5904 21.6611 21.4792 18.7864 24.8765 18.749C26.6802 18.749 27.8492 19.2041 29.5152 20.5528C30.2665 21.1595 31.3678 21.0451 31.9768 20.2937C32.5858 19.5424 32.4692 18.4411 31.7178 17.8321C29.4218 15.9724 27.5039 15.249 24.8579 15.249C22.3729 15.277 19.8971 16.3108 18.0654 18.0841C16.1474 19.9438 15.0904 22.3028 15.0904 25.0258C15.0904 27.7488 15.8465 29.7366 17.6991 31.8856Z" fill="#3EB9B5"/>
</svg>
