<svg width="52" height="52" viewBox="0 0 52 52" fill="none" xmlns="http://www.w3.org/2000/svg">
<circle opacity="0.4" cx="26" cy="25.9993" r="23.3333" fill="#3EB9B5"/>
<path d="M20.9853 25.4389C19.1554 24.2935 16.0823 22.0235 16.0823 19.7361L16.0788 19.7327C16.0788 17.4418 19.1519 15.1754 20.9853 14.03C21.8269 13.5026 22.9374 13.7575 23.4647 14.5991C23.992 15.4408 23.7371 16.5513 22.8955 17.0786C22.4765 17.3405 22.0574 17.6339 21.6628 17.9343H34.1229C35.1146 17.9343 35.9214 18.7409 35.9214 19.7327C35.9214 20.7245 35.1146 21.5312 34.1229 21.5312L21.6593 21.5312C22.0539 21.8315 22.4765 22.1283 22.8955 22.3902C23.7371 22.9175 23.992 24.0281 23.4647 24.8697C22.9374 25.7113 21.8269 25.9662 20.9853 25.4389Z" fill="#3EB9B5"/>
<path d="M17.8807 34.0681C16.8889 34.0681 16.0823 33.2614 16.0823 32.2696V32.2626C16.0823 31.2709 16.8889 30.4642 17.8807 30.4642H30.3409C29.9463 30.1674 29.5237 29.874 29.1081 29.6121C28.2665 29.0848 28.0115 27.9743 28.5389 27.1326C29.0662 26.291 30.1767 26.0361 31.0183 26.5635C32.8517 27.7124 35.9249 29.9509 35.9249 32.2662C35.9249 34.5815 32.8447 36.8339 31.0113 37.9724C30.1662 38.4962 29.0592 38.2377 28.5354 37.3926C28.0115 36.551 28.2735 35.4406 29.1151 34.9167C29.5342 34.6583 29.9567 34.3649 30.3514 34.0681H17.8807Z" fill="#3EB9B5"/>
<path fill-rule="evenodd" clip-rule="evenodd" d="M26 0.916016C12.1468 0.916016 0.916656 12.1462 0.916656 25.9993C0.916656 39.8525 12.1468 51.0827 26 51.0827C39.8531 51.0827 51.0833 39.8525 51.0833 25.9993C51.0833 12.1462 39.8531 0.916016 26 0.916016ZM4.41666 25.9993C4.41666 14.0792 14.0798 4.41602 26 4.41602C37.9201 4.41602 47.5833 14.0792 47.5833 25.9993C47.5833 37.9195 37.9201 47.5827 26 47.5827C14.0798 47.5827 4.41666 37.9195 4.41666 25.9993Z" fill="#3EB9B5"/>
</svg>
