<svg width="24" height="24" viewBox="0 0 24 24" fill="none" xmlns="http://www.w3.org/2000/svg">
<g clip-path="url(#clip0_492_3664)">
<path d="M6.375 13.25H17.625C20.0375 13.25 22 11.2875 22 8.875C22 6.4625 20.0375 4.5 17.625 4.5H7C7 3.11875 5.88125 2 4.5 2C3.11875 2 2 3.11875 2 4.5C2 5.88125 3.11875 7 4.5 7C5.4225 7 6.22 6.49375 6.65375 5.75H17.625C19.3475 5.75 20.75 7.1525 20.75 8.875C20.75 10.5975 19.3475 12 17.625 12H6.375C3.9625 12 2 13.9625 2 16.375C2 18.7875 3.9625 20.75 6.375 20.75H17.3463C17.7788 21.4937 18.5763 22 19.5 22C20.8813 22 22 20.8813 22 19.5C22 18.1187 20.8813 17 19.5 17C18.1187 17 17 18.1187 17 19.5H6.375C4.6525 19.5 3.25 18.0975 3.25 16.375C3.25 14.6525 4.6525 13.25 6.375 13.25Z" fill="url(#paint0_linear_492_3664)"/>
</g>
<defs>
<linearGradient id="paint0_linear_492_3664" x1="-39.1724" y1="44.4837" x2="19.098" y2="-9.93118" gradientUnits="userSpaceOnUse">
<stop offset="0.588191" stop-color="#2C65AA"/>
<stop offset="0.893191" stop-color="#3FB6B4"/>
</linearGradient>
<clipPath id="clip0_492_3664">
<rect width="20" height="20" fill="white" transform="translate(2 2)"/>
</clipPath>
</defs>
</svg>
