<svg width="25" height="24" viewBox="0 0 25 24" fill="none" xmlns="http://www.w3.org/2000/svg">
<g clip-path="url(#clip0_538_3336)">
<path d="M20.666 17V5C20.666 3.3 19.366 2 17.666 2H16.666H12.666H9.66602C6.86602 2 4.66602 4.2 4.66602 7V19C4.66602 20.7 5.96602 22 7.66602 22H19.666C20.266 22 20.666 21.6 20.666 21C20.666 20.4 20.266 20 19.666 20V18C20.266 18 20.666 17.6 20.666 17ZM15.666 4V6.6L14.966 6.4C14.866 6.4 14.766 6.3 14.666 6.3C14.566 6.3 14.466 6.3 14.366 6.4L13.666 6.6V4H15.666ZM6.66602 7C6.66602 5.3 7.96602 4 9.66602 4H11.666V8C11.666 8.3 11.866 8.6 12.066 8.8C12.266 9 12.666 9 12.966 8.9L14.666 8.3L16.366 8.9C16.466 9 16.566 9 16.666 9C16.866 9 17.066 8.9 17.266 8.8C17.466 8.6 17.666 8.3 17.666 8V4C18.266 4 18.666 4.4 18.666 5V16H7.66602C7.46602 16 7.26602 16 7.06602 16.1C6.96602 16.1 6.96602 16.1 6.86602 16.1C6.76602 16.1 6.66602 16.1 6.56602 16.2V7H6.66602ZM17.666 20H7.66602C7.06602 20 6.66602 19.6 6.66602 19C6.66602 18.7 6.76602 18.5 6.96602 18.3C7.16602 18.1 7.36602 18 7.66602 18H17.666V20Z" fill="url(#paint0_linear_538_3336)"/>
</g>
<defs>
<linearGradient id="paint0_linear_538_3336" x1="-28.2719" y1="44.4837" x2="27.7369" y2="2.64133" gradientUnits="userSpaceOnUse">
<stop offset="0.588191" stop-color="#2C65AA"/>
<stop offset="0.893191" stop-color="#3FB6B4"/>
</linearGradient>
<clipPath id="clip0_538_3336">
<rect width="24" height="24" fill="white" transform="translate(0.666016)"/>
</clipPath>
</defs>
</svg>
