<svg width="40" height="40" viewBox="0 0 40 40" fill="none" xmlns="http://www.w3.org/2000/svg">
<path d="M35.1422 29.5785L29.6127 24.0489C29.0596 23.4957 28.3241 23.1911 27.5418 23.1911C26.8426 23.1911 26.1813 23.435 25.6537 23.8816L23.8532 22.0811C25.4253 20.1155 26.2795 17.6935 26.2795 15.1398C26.2795 12.1642 25.1207 9.36685 23.0167 7.26284C20.9126 5.15879 18.1152 4 15.1397 4C12.1642 4 9.36679 5.15873 7.26279 7.26273C5.15875 9.36673 4 12.1642 4 15.1397C4.00004 18.1153 5.15876 20.9127 7.26279 23.0167C9.36681 25.1208 12.1643 26.2795 15.1397 26.2795C17.6935 26.2795 20.1156 25.4253 22.0812 23.8532L23.8816 25.6537C23.4351 26.1813 23.1912 26.8426 23.1911 27.5417C23.1911 28.3241 23.4958 29.0596 24.049 29.6127L29.5785 35.1423C30.1317 35.6954 30.8671 36 31.6494 36C32.4317 36 33.1671 35.6954 33.7204 35.1423L35.1422 33.7203C35.6954 33.1672 36 32.4318 36 31.6494C36 30.8671 35.6954 30.1316 35.1422 29.5785ZM9.03478 21.2447C7.40413 19.6139 6.50602 17.4458 6.50602 15.1397C6.50602 12.8336 7.40408 10.6656 9.03474 9.03488C10.6654 7.40419 12.8335 6.50612 15.1396 6.50612C17.4458 6.50612 19.614 7.40419 21.2447 9.03501C22.8753 10.6656 23.7734 12.8337 23.7734 15.1398C23.7734 17.4459 22.8754 19.614 21.2446 21.2447C19.614 22.8754 17.4459 23.7734 15.1397 23.7734C12.8336 23.7734 10.6655 22.8753 9.03478 21.2447ZM33.3702 31.9483L31.9485 33.3701C31.8407 33.4778 31.7149 33.4939 31.6494 33.4939C31.584 33.4939 31.4583 33.4778 31.3506 33.3701L25.8209 27.8405C25.7132 27.7329 25.6971 27.6072 25.6971 27.5418C25.6971 27.4765 25.7132 27.3507 25.821 27.243L27.2429 25.821C27.3506 25.7133 27.4764 25.6972 27.5418 25.6972C27.6072 25.6972 27.733 25.7133 27.8407 25.821L33.3702 31.3506C33.4779 31.4583 33.494 31.584 33.494 31.6494C33.494 31.7148 33.4779 31.8405 33.3702 31.9483Z" fill="url(#paint0_linear_538_9109)"/>
<defs>
<linearGradient id="paint0_linear_538_9109" x1="-61.8758" y1="71.9739" x2="31.3569" y2="-15.0898" gradientUnits="userSpaceOnUse">
<stop offset="0.588191" stop-color="#2C65AA"/>
<stop offset="0.893191" stop-color="#3FB6B4"/>
</linearGradient>
</defs>
</svg>
