<svg width="40" height="40" viewBox="0 0 40 40" fill="none" xmlns="http://www.w3.org/2000/svg">
<path opacity="0.4" d="M4.16663 20.0003C4.16663 12.5364 4.16663 8.80447 6.48536 6.48573C8.8041 4.16699 12.5361 4.16699 20 4.16699C27.4639 4.16699 31.1958 4.16699 33.5146 6.48573C35.8333 8.80447 35.8333 12.5364 35.8333 20.0003C35.8333 27.4642 35.8333 31.1962 33.5146 33.5149C31.1958 35.8337 27.4639 35.8337 20 35.8337C12.5361 35.8337 8.8041 35.8337 6.48536 33.5149C4.16663 31.1962 4.16663 27.4642 4.16663 20.0003Z" fill="#3EB9B5"/>
<path d="M25.4799 10.891C25.0512 10.3498 24.2651 10.2585 23.7239 10.6871C23.1827 11.1158 23.0914 11.9019 23.5201 12.4431L24.9154 14.2049H15.5C13.9339 14.2049 12.6503 14.6194 11.9127 15.798C11.2855 16.8002 11.25 18.1167 11.25 19.2428C11.25 19.9332 11.8096 20.4928 12.5 20.4928C13.1903 20.4928 13.75 19.9332 13.75 19.2428C13.75 18.0015 13.8443 17.4241 14.0319 17.1242C14.1092 17.0007 14.3257 16.7049 15.5 16.7049H25.4323C25.8563 16.7049 26.2857 16.6821 26.6588 16.5915C26.9943 16.51 27.6056 16.2962 27.9153 15.6558C28.225 15.0154 28.0131 14.4034 27.8687 14.0899C27.7081 13.7411 27.4593 13.3903 27.1961 13.058L25.4799 10.891Z" fill="#3EB9B5"/>
<path d="M28.75 20.7579C28.75 20.0676 28.1903 19.5079 27.5 19.5079C26.8096 19.5079 26.25 20.0676 26.25 20.7579C26.25 21.9992 26.1557 22.5767 25.968 22.8765C25.8907 23 25.6742 23.2958 24.5 23.2958H14.5676C14.1437 23.2958 13.7142 23.3186 13.3411 23.4092C13.0056 23.4907 12.3943 23.7046 12.0846 24.3449C11.7749 24.9853 11.9868 25.5973 12.1312 25.9109C12.2918 26.2596 12.5406 26.6104 12.8038 26.9428L14.5201 29.1098C14.9487 29.651 15.7349 29.7422 16.276 29.3136C16.8172 28.885 16.9085 28.0988 16.4799 27.5576L15.0845 25.7958H24.5C26.0661 25.7958 27.3496 25.3814 28.0872 24.2028C28.7145 23.2005 28.75 21.884 28.75 20.7579Z" fill="#3EB9B5"/>
<path fill-rule="evenodd" clip-rule="evenodd" d="M20.0953 2.91699H19.9047C16.2535 2.91697 13.3857 2.91695 11.1467 3.21798C8.85224 3.52646 7.03181 4.17152 5.60148 5.60185C4.17115 7.03218 3.52609 8.8526 3.21762 11.147C2.91659 13.3861 2.9166 16.2539 2.91663 19.905V20.0956C2.9166 23.7468 2.91659 26.6146 3.21762 28.8536C3.52609 31.1481 4.17115 32.9685 5.60148 34.3988C7.03181 35.8291 8.85224 36.4742 11.1467 36.7827C13.3857 37.0837 16.2535 37.0837 19.9046 37.0837H20.0952C23.7464 37.0837 26.6142 37.0837 28.8533 36.7827C31.1477 36.4742 32.9681 35.8291 34.3984 34.3988C35.8288 32.9685 36.4738 31.1481 36.7823 28.8536C37.0833 26.6146 37.0833 23.7468 37.0833 20.0957V19.905C37.0833 16.2539 37.0833 13.3861 36.7823 11.147C36.4738 8.8526 35.8288 7.03218 34.3984 5.60185C32.9681 4.17152 31.1477 3.52646 28.8533 3.21798C26.6142 2.91695 23.7464 2.91697 20.0953 2.91699ZM7.36925 7.36961C8.25766 6.48121 9.46258 5.9669 11.4798 5.69569C13.533 5.41965 16.2327 5.41699 20 5.41699C23.7673 5.41699 26.467 5.41965 28.5201 5.69569C30.5373 5.9669 31.7423 6.48121 32.6307 7.36961C33.5191 8.25802 34.0334 9.46294 34.3046 11.4802C34.5806 13.5333 34.5833 16.233 34.5833 20.0003C34.5833 23.7676 34.5806 26.4673 34.3046 28.5205C34.0334 30.5377 33.5191 31.7426 32.6307 32.631C31.7423 33.5194 30.5373 34.0338 28.5201 34.305C26.467 34.581 23.7673 34.5837 20 34.5837C16.2327 34.5837 13.533 34.581 11.4798 34.305C9.46258 34.0338 8.25766 33.5194 7.36925 32.631C6.48084 31.7426 5.96653 30.5377 5.69532 28.5205C5.41928 26.4673 5.41663 23.7676 5.41663 20.0003C5.41663 16.233 5.41928 13.5333 5.69532 11.4802C5.96653 9.46294 6.48084 8.25802 7.36925 7.36961Z" fill="#3EB9B5"/>
</svg>
