<svg width="24" height="24" viewBox="0 0 24 24" fill="none" xmlns="http://www.w3.org/2000/svg">
<g clip-path="url(#clip0_492_4763)">
<path d="M19.2064 20.6936H10.7465C9.98294 20.6936 8.43652 19.6908 8.43652 18.8713V11.4041C8.43652 11.2373 8.52636 11.0833 8.67119 11.0026C10.3588 10.0603 11.2122 8.38642 12.1032 5.81701V3.35484C12.1032 3.27142 12.1252 3.18984 12.1683 3.11834C12.4469 2.65451 12.9291 2.38867 13.491 2.38867C14.2143 2.38867 14.9751 2.82592 15.5269 3.55376C16.0834 4.29167 16.8772 5.92059 16.2218 8.77509H20.0837C20.9435 8.77509 22.8933 9.66059 22.8933 11.1163C22.8933 11.5957 22.8364 12.3272 22.5312 12.7553C22.7714 13.4272 22.8172 14.5171 22.0793 15.2853C22.1398 16.5796 21.8144 17.5201 21.1278 18.0353C21.1159 18.7191 20.8014 19.5551 20.3266 20.0996C19.992 20.4883 19.6034 20.6936 19.2064 20.6936ZM9.35502 11.6644V18.8694C9.43019 19.1151 10.3597 19.7751 10.7484 19.7751H19.2074C19.3284 19.7751 19.4869 19.6715 19.6428 19.4928C20.0131 19.0665 20.2734 18.3158 20.2093 17.851C20.1827 17.6613 20.2762 17.4779 20.4458 17.3835C21.1901 16.982 21.2103 15.7986 21.158 15.1276C21.1443 14.9809 21.2075 14.837 21.3212 14.7389C21.9867 14.1853 21.7814 13.1696 21.5907 12.879C21.5091 12.7534 21.4944 12.5948 21.5485 12.4583C21.6054 12.3208 21.7227 12.2153 21.8703 12.1823C21.851 12.1576 21.983 11.7836 21.983 11.1117C21.983 10.3664 20.6209 9.68717 20.091 9.68717H15.6379C15.4939 9.68717 15.3592 9.62117 15.2739 9.50659C15.1887 9.39201 15.1594 9.24351 15.1988 9.10509C15.7854 7.03067 15.6397 5.20834 14.8046 4.10192C14.3591 3.50976 13.8366 3.30076 13.4993 3.30076C13.2985 3.30076 13.1399 3.36584 13.0263 3.49601V5.88576C13.0263 5.93892 13.0171 5.98567 13.0015 6.03517C12.0876 8.67792 11.1499 10.5525 9.35502 11.6644Z" fill="url(#paint0_linear_492_4763)" stroke="url(#paint1_linear_492_4763)"/>
<path d="M7.74764 21.6096H2.7133C1.82689 21.6096 1.10547 20.8882 1.10547 20.0018V10.3823C1.10547 9.49589 1.82689 8.77539 2.7133 8.77539H7.74764C8.63405 8.77539 9.35547 9.49589 9.35547 10.3823V20.0018C9.35547 20.8882 8.63405 21.6096 7.74764 21.6096ZM2.7133 9.69206C2.33197 9.69206 2.02214 10.0019 2.02214 10.3823V20.0018C2.02214 20.3831 2.33197 20.693 2.7133 20.693H7.74764C8.12897 20.693 8.4388 20.3831 8.4388 20.0018V10.3823C8.4388 10.0019 8.12897 9.69206 7.74764 9.69206H2.7133Z" fill="url(#paint2_linear_492_4763)" stroke="url(#paint3_linear_492_4763)"/>
</g>
<defs>
<linearGradient id="paint0_linear_492_4763" x1="-21.3244" y1="41.2717" x2="29.7468" y2="3.6057" gradientUnits="userSpaceOnUse">
<stop offset="0.588191" stop-color="#2C65AA"/>
<stop offset="0.893191" stop-color="#3FB6B4"/>
</linearGradient>
<linearGradient id="paint1_linear_492_4763" x1="-21.3244" y1="41.2717" x2="29.7468" y2="3.6057" gradientUnits="userSpaceOnUse">
<stop offset="0.588191" stop-color="#2C65AA"/>
<stop offset="0.893191" stop-color="#3FB6B4"/>
</linearGradient>
<linearGradient id="paint2_linear_492_4763" x1="-15.8782" y1="36.0377" x2="17.2001" y2="16.1815" gradientUnits="userSpaceOnUse">
<stop offset="0.588191" stop-color="#2C65AA"/>
<stop offset="0.893191" stop-color="#3FB6B4"/>
</linearGradient>
<linearGradient id="paint3_linear_492_4763" x1="-15.8782" y1="36.0377" x2="17.2001" y2="16.1815" gradientUnits="userSpaceOnUse">
<stop offset="0.588191" stop-color="#2C65AA"/>
<stop offset="0.893191" stop-color="#3FB6B4"/>
</linearGradient>
<clipPath id="clip0_492_4763">
<rect width="22" height="22" fill="white" transform="translate(1 1)"/>
</clipPath>
</defs>
</svg>
