<svg width="24" height="24" viewBox="0 0 24 24" fill="none" xmlns="http://www.w3.org/2000/svg">
<path d="M11.998 2C8.98997 2 7.03997 4.019 4.73397 4.755C3.79597 5.055 3.32697 5.204 3.13697 5.415C2.94697 5.625 2.89197 5.934 2.78097 6.55C1.59097 13.146 4.19097 19.244 10.391 21.618C11.056 21.873 11.389 22 12.001 22C12.613 22 12.947 21.872 13.613 21.617C19.812 19.244 22.409 13.146 21.219 6.55C21.108 5.934 21.052 5.625 20.862 5.414C20.672 5.203 20.204 5.054 19.266 4.755C16.959 4.019 15.006 2 11.998 2Z" stroke="url(#paint0_linear_492_4660)" stroke-width="1.5" stroke-linecap="round" stroke-linejoin="round"/>
<path d="M10.2501 9.95848C10.2501 9.89848 10.2581 9.55248 10.2601 9.11848C10.2601 8.72048 10.2261 8.33848 10.4161 7.98848C11.1261 6.57448 13.1661 6.71848 13.6701 8.15848C13.7571 8.39548 13.7631 8.77048 13.7601 9.11848C13.7571 9.56148 13.7661 9.95848 13.7661 9.95848M10.3371 10.3795C9.25714 10.3795 8.71714 11.1595 8.59714 11.6395C8.47714 12.1195 8.47714 13.8595 8.54914 14.5795C8.78914 15.4795 9.38914 15.8515 9.97714 15.9715C10.5171 16.0195 12.7971 16.0015 13.4571 16.0015C14.4171 16.0195 15.1371 15.6595 15.4371 14.5795C15.4971 14.2195 15.5571 12.2395 15.4071 11.6395C15.0891 10.6795 14.2971 10.3795 13.6971 10.3795H10.3371Z" stroke="url(#paint1_linear_492_4660)" stroke-width="1.5" stroke-linecap="round" stroke-linejoin="round"/>
<defs>
<linearGradient id="paint0_linear_492_4660" x1="-36.6141" y1="44.4837" x2="21.3766" y2="-6.96274" gradientUnits="userSpaceOnUse">
<stop offset="0.588191" stop-color="#2C65AA"/>
<stop offset="0.893191" stop-color="#3FB6B4"/>
</linearGradient>
<linearGradient id="paint1_linear_492_4660" x1="-5.91298" y1="26.1278" x2="19.092" y2="7.97271" gradientUnits="userSpaceOnUse">
<stop offset="0.588191" stop-color="#2C65AA"/>
<stop offset="0.893191" stop-color="#3FB6B4"/>
</linearGradient>
</defs>
</svg>
