<svg width="40" height="40" viewBox="0 0 40 40" fill="none" xmlns="http://www.w3.org/2000/svg">
<path d="M21.9611 36.1563H17.2447C16.9553 36.1563 16.676 36.0492 16.4608 35.8557C16.2456 35.6621 16.1096 35.3957 16.0791 35.1078L15.7299 31.8195C15.2424 31.6536 14.7661 31.4563 14.3041 31.2289L11.7346 33.307C11.5097 33.4882 11.2258 33.5799 10.9375 33.5646C10.6491 33.5493 10.3766 33.4281 10.1721 33.2242L6.83691 29.8891C6.63303 29.6846 6.51182 29.412 6.49653 29.1237C6.48125 28.8353 6.57297 28.5515 6.7541 28.3266L8.83301 25.7539C8.60519 25.292 8.40764 24.8157 8.2416 24.3281L4.94785 23.9766C4.66012 23.9461 4.39384 23.8102 4.20027 23.5952C4.0067 23.3801 3.89954 23.1011 3.89941 22.8117V18.0945C3.89954 17.8052 4.0067 17.5261 4.20027 17.3111C4.39384 17.096 4.66012 16.9602 4.94785 16.9297L8.23613 16.5805C8.40217 16.0929 8.59972 15.6166 8.82754 15.1547L6.74863 12.582C6.5675 12.3571 6.47578 12.0733 6.49107 11.7849C6.50635 11.4966 6.62756 11.224 6.83145 11.0195L10.1666 7.68438C10.3711 7.48049 10.6436 7.35928 10.932 7.344C11.2204 7.32871 11.5042 7.42044 11.7291 7.60156L14.3018 9.67969C14.7638 9.45226 15.24 9.25497 15.7275 9.08907L16.0768 5.80078C16.1067 5.51209 16.2428 5.2448 16.4586 5.05068C16.6743 4.85656 16.9545 4.74942 17.2447 4.75H21.9611C22.2506 4.74994 22.5299 4.85701 22.7451 5.0506C22.9603 5.24418 23.0963 5.51057 23.1268 5.79844L23.4752 9.08672C23.963 9.25263 24.4395 9.44991 24.9018 9.67735L27.4736 7.59922C27.6985 7.41809 27.9824 7.32637 28.2707 7.34165C28.5591 7.35694 28.8316 7.47815 29.0361 7.68203L32.3713 11.0172C32.5752 11.2217 32.6964 11.4942 32.7117 11.7826C32.727 12.071 32.6352 12.3548 32.4541 12.5797L30.3752 15.1523C30.6027 15.6144 30.8002 16.0907 30.9666 16.5781L34.2549 16.9273C34.5425 16.958 34.8086 17.0939 35.002 17.309C35.1954 17.524 35.3024 17.803 35.3025 18.0922V22.8094C35.3031 23.0985 35.1967 23.3777 35.0039 23.5931C34.8111 23.8086 34.5454 23.9451 34.258 23.9766L30.9697 24.3258C30.8034 24.8132 30.6058 25.2895 30.3783 25.7516L32.4572 28.3242C32.6384 28.5491 32.7301 28.833 32.7148 29.1213C32.6995 29.4097 32.5783 29.6822 32.3744 29.8867L29.0393 33.2242C28.8348 33.4281 28.5622 33.5493 28.2739 33.5646C27.9855 33.5799 27.7016 33.4882 27.4768 33.307L24.9049 31.2289C24.4426 31.4563 23.9661 31.6536 23.4783 31.8195L23.1299 35.1078C23.0993 35.3962 22.9629 35.663 22.7471 35.8567C22.5312 36.0504 22.2511 36.1571 21.9611 36.1563ZM18.2971 33.8125H20.9057L21.2252 30.8C21.2503 30.5642 21.3463 30.3416 21.5006 30.1615C21.6548 29.9814 21.8601 29.8524 22.0893 29.7914C22.9147 29.5713 23.7071 29.2421 24.4455 28.8125C24.6511 28.6927 24.8883 28.6383 25.1255 28.6566C25.3628 28.6749 25.5888 28.765 25.7736 28.9148L28.1299 30.8188L29.9744 28.9742L28.0674 26.625C27.9175 26.4402 27.8274 26.2141 27.8092 25.9769C27.7909 25.7397 27.8452 25.5025 27.965 25.2969C28.3937 24.5589 28.7219 23.767 28.9408 22.9422C29.0018 22.7129 29.131 22.5076 29.3112 22.3533C29.4914 22.199 29.7143 22.103 29.9502 22.0781L32.9619 21.7578V19.1492L29.9502 18.8289C29.7143 18.804 29.4914 18.708 29.3112 18.5538C29.131 18.3995 29.0018 18.1941 28.9408 17.9648C28.722 17.1397 28.3938 16.3476 27.965 15.6094C27.8452 15.4038 27.7909 15.1666 27.8092 14.9294C27.8274 14.6921 27.9175 14.4661 28.0674 14.2813L29.9713 11.925L28.1268 10.0805L25.7705 11.9844C25.5857 12.1343 25.3596 12.2243 25.1224 12.2426C24.8852 12.2609 24.648 12.2065 24.4424 12.0867C23.7043 11.6583 22.9124 11.3302 22.0877 11.1109C21.8585 11.05 21.6533 10.9209 21.499 10.7409C21.3447 10.5608 21.2487 10.3381 21.2236 10.1023L20.9072 7.09375H18.2971L17.9775 10.1063C17.9524 10.3421 17.8563 10.5649 17.7019 10.745C17.5474 10.925 17.342 11.054 17.1127 11.1148C16.2885 11.3351 15.4975 11.6643 14.7604 12.0938C14.5548 12.2135 14.3176 12.2679 14.0803 12.2496C13.8431 12.2314 13.617 12.1413 13.4322 11.9914L11.0783 10.0844L9.23457 11.9289L11.1393 14.2852C11.289 14.4701 11.3789 14.6961 11.3971 14.9334C11.4152 15.1706 11.3607 15.4078 11.2408 15.6133C10.8128 16.3515 10.4847 17.1434 10.265 17.968C10.2041 18.1971 10.075 18.4024 9.89496 18.5567C9.71489 18.7109 9.49224 18.807 9.25645 18.832L6.24395 19.1523V21.7602L9.25645 22.0805C9.49224 22.1055 9.71489 22.2016 9.89496 22.3558C10.075 22.5101 10.2041 22.7154 10.265 22.9445C10.4846 23.7683 10.8125 24.5593 11.24 25.2969C11.3599 25.5024 11.4144 25.7395 11.3963 25.9768C11.3782 26.214 11.2882 26.4401 11.1385 26.625L9.23457 28.9773L11.0791 30.8219L13.4361 28.918C13.6209 28.7681 13.847 28.678 14.0842 28.6597C14.3215 28.6415 14.5587 28.6958 14.7643 28.8156C15.502 29.2441 16.2936 29.5723 17.1182 29.7914C17.3475 29.8522 17.5529 29.9812 17.7073 30.1613C17.8618 30.3414 17.9579 30.5641 17.983 30.8L18.2971 33.8125Z" fill="url(#paint0_linear_492_4796)"/>
<path d="M19.6025 27.5914C18.1909 27.5913 16.811 27.1725 15.6374 26.3881C14.4637 25.6038 13.549 24.489 13.0089 23.1848C12.4688 21.8805 12.3276 20.4455 12.6031 19.061C12.8786 17.6765 13.5584 16.4048 14.5566 15.4067C15.5549 14.4085 16.8266 13.7288 18.2112 13.4535C19.5957 13.1782 21.0307 13.3196 22.3349 13.8598C23.6391 14.4 24.7537 15.3149 25.538 16.4886C26.3222 17.6623 26.7408 19.0423 26.7408 20.4539C26.7388 22.3464 25.986 24.1608 24.6477 25.4989C23.3095 26.837 21.495 27.5895 19.6025 27.5914ZM19.6025 15.6602C18.6545 15.6603 17.7277 15.9416 16.9395 16.4684C16.1513 16.9953 15.537 17.744 15.1743 18.62C14.8115 19.4959 14.7167 20.4598 14.9018 21.3896C15.0868 22.3194 15.5435 23.1735 16.2139 23.8439C16.8844 24.5142 17.7385 24.9707 18.6684 25.1556C19.5983 25.3405 20.5621 25.2455 21.438 24.8827C22.3139 24.5198 23.0625 23.9054 23.5892 23.1171C24.1159 22.3288 24.3971 21.402 24.3971 20.4539C24.3956 19.1828 23.89 17.9643 22.9911 17.0655C22.0923 16.1668 20.8736 15.6614 19.6025 15.6602Z" fill="url(#paint1_linear_492_4796)"/>
<defs>
<linearGradient id="paint0_linear_492_4796" x1="-60.7477" y1="71.4626" x2="30.7544" y2="-13.9766" gradientUnits="userSpaceOnUse">
<stop offset="0.588191" stop-color="#2C65AA"/>
<stop offset="0.893191" stop-color="#3FB6B4"/>
</linearGradient>
<linearGradient id="paint1_linear_492_4796" x1="-16.921" y1="43.6391" x2="24.6695" y2="4.80052" gradientUnits="userSpaceOnUse">
<stop offset="0.588191" stop-color="#2C65AA"/>
<stop offset="0.893191" stop-color="#3FB6B4"/>
</linearGradient>
</defs>
</svg>
