<svg width="40" height="40" viewBox="0 0 40 40" fill="none" xmlns="http://www.w3.org/2000/svg">
<g clip-path="url(#clip0_492_4893)">
<g clip-path="url(#clip1_492_4893)">
<g clip-path="url(#clip2_492_4893)">
<path d="M31.6313 11.9429C30.5081 10.6823 27.79 8.08976 23.9625 7.49913C22.5562 7.28951 21.1256 7.72451 19.9994 8.63726C18.875 7.77851 17.4438 7.33788 16.0312 7.55288C11.05 8.32226 7.91875 12.5116 7.7875 12.6929C7.29725 13.361 7.44181 14.3004 8.10781 14.791C8.37538 14.9883 8.68787 15.0821 8.99469 15.0821C9.45756 15.0821 9.91281 14.8711 10.2059 14.4707C10.2313 14.4355 12.7178 11.1013 16.4872 10.5188C16.9533 10.4588 17.4234 10.5607 17.8347 10.799L14.2 14.5116C13.425 15.2804 12.9438 16.2554 12.9438 17.4054C12.9438 18.4991 13.3695 19.5266 14.1412 20.2985C14.9688 21.0741 15.9937 21.4429 17.0875 21.4429C18.1812 21.4429 19.2087 21.0171 19.9819 20.2435L20.6912 19.5341L28.4538 25.8404C28.5983 25.9576 28.6198 26.1686 28.485 26.3385L26.7544 28.5729C26.6391 28.7135 26.4263 28.735 26.3071 28.6393L24.9184 27.4712L23.2815 29.2056C23.135 29.3853 22.9475 29.4283 22.8499 29.438C22.7464 29.4478 22.5648 29.4458 22.4241 29.3306L20.3985 27.6018L19.4188 28.5179L19.243 28.7015C18.8778 29.1488 18.3624 29.4303 17.788 29.489C17.1962 29.5398 16.6474 29.3796 16.2568 29.0651L10.6438 23.9866H6V12.0179H0V27.9929L4 27.9954C4.73375 27.9954 5.34812 27.5763 5.69625 26.9867H9.48625L14.3025 31.3404C15.2312 32.0991 16.3687 32.4991 17.55 32.4991C17.7297 32.4991 17.9113 32.4913 18.091 32.4718C18.9422 32.3839 19.7416 32.0928 20.4329 31.628L20.4895 31.6788C21.2414 32.2961 22.1945 32.5794 23.1576 32.4776C23.982 32.3916 24.7376 32.0381 25.277 31.5182C26.5951 32.0299 28.1576 31.6647 29.1051 30.4888L30.8358 28.2544C31.9901 26.8282 31.7714 24.7244 30.3455 23.5663L22.8268 17.4563L23.3506 16.9324C23.9365 16.3464 23.9365 15.3968 23.3506 14.8112C22.7646 14.2252 21.8156 14.2252 21.2293 14.8112L17.8625 18.1741C17.45 18.5929 16.7313 18.5929 16.3188 18.1741C16.1117 17.969 15.9984 17.6956 15.9984 17.4048C15.9984 17.1118 16.1117 16.8383 16.3285 16.6216L21.6979 11.1441C22.1861 10.6538 22.856 10.4098 23.5066 10.5173C27.241 11.0935 29.7691 14.4379 29.7941 14.4729C29.9871 14.7326 30.2481 14.907 30.5341 14.9964H34V25.9401C34 27.0445 34.8956 27.9433 35.9437 27.9433L40 27.9991V12.0054L31.6313 11.9429ZM3 25.9991C2.45312 25.9991 2 25.5463 2 24.9998C2 24.445 2.45312 24.0004 3 24.0004C3.54688 24.0004 4 24.4491 4 25.0054C4 25.5491 3.54688 25.9991 3 25.9991ZM37 25.9991C36.4531 25.9991 36 25.5463 36 24.9998C36 24.445 36.4531 24.0004 37 24.0004C37.5469 24.0004 38 24.4452 38 24.9998C38 25.5491 37.55 25.9991 37 25.9991Z" fill="url(#paint0_linear_492_4893)"/>
</g>
</g>
</g>
<defs>
<linearGradient id="paint0_linear_492_4893" x1="-82.3448" y1="60.662" x2="-14.6576" y2="-40.2624" gradientUnits="userSpaceOnUse">
<stop offset="0.588191" stop-color="#2C65AA"/>
<stop offset="0.893191" stop-color="#3FB6B4"/>
</linearGradient>
<clipPath id="clip0_492_4893">
<rect width="40" height="40" fill="white"/>
</clipPath>
<clipPath id="clip1_492_4893">
<rect width="40" height="40" fill="white"/>
</clipPath>
<clipPath id="clip2_492_4893">
<rect width="40" height="40" fill="white"/>
</clipPath>
</defs>
</svg>
