<svg width="24" height="24" viewBox="0 0 24 24" fill="none" xmlns="http://www.w3.org/2000/svg">
<g clip-path="url(#clip0_492_4723)">
<path d="M21.9597 10.9698C22.0127 11.7998 22.0127 12.6598 21.9597 13.4898C21.6857 17.7328 18.3537 21.1128 14.1697 21.3898C12.7246 21.485 11.2748 21.485 9.82973 21.3898C9.31975 21.355 8.81835 21.2406 8.34373 21.0508C7.83173 20.8408 7.57573 20.7348 7.44473 20.7508C7.31473 20.7668 7.12573 20.9058 6.74873 21.1848C6.08273 21.6748 5.24373 22.0288 3.99873 21.9978C3.36973 21.9828 3.05573 21.9748 2.91473 21.7348C2.77373 21.4948 2.94873 21.1628 3.29973 20.4978C3.78673 19.5758 4.09473 18.5198 3.62773 17.6748C2.82273 16.4668 2.13973 15.0358 2.03973 13.4908C1.98676 12.6516 1.98676 11.81 2.03973 10.9708C2.31373 6.72779 5.64573 3.34879 9.82973 3.07079C11.0317 2.99079 11.2807 2.97879 12.4997 3.03379" stroke="url(#paint0_linear_492_4723)" stroke-width="1.5" stroke-linecap="round" stroke-linejoin="round"/>
<path d="M22 5.5C22 6.42826 21.6313 7.3185 20.9749 7.97487C20.3185 8.63125 19.4283 9 18.5 9C17.5717 9 16.6815 8.63125 16.0251 7.97487C15.3687 7.3185 15 6.42826 15 5.5C15 4.57174 15.3687 3.6815 16.0251 3.02513C16.6815 2.36875 17.5717 2 18.5 2C19.4283 2 20.3185 2.36875 20.9749 3.02513C21.6313 3.6815 22 4.57174 22 5.5Z" stroke="url(#paint1_linear_492_4723)" stroke-width="1.5" stroke-linecap="round" stroke-linejoin="round"/>
</g>
<defs>
<linearGradient id="paint0_linear_492_4723" x1="-39.1713" y1="43.3588" x2="16.3062" y2="-11.1741" gradientUnits="userSpaceOnUse">
<stop offset="0.588191" stop-color="#2C65AA"/>
<stop offset="0.893191" stop-color="#3FB6B4"/>
</linearGradient>
<linearGradient id="paint1_linear_492_4723" x1="0.589656" y1="16.8693" x2="20.9843" y2="-2.17591" gradientUnits="userSpaceOnUse">
<stop offset="0.588191" stop-color="#2C65AA"/>
<stop offset="0.893191" stop-color="#3FB6B4"/>
</linearGradient>
<clipPath id="clip0_492_4723">
<rect width="24" height="24" fill="white"/>
</clipPath>
</defs>
</svg>
