<svg width="24" height="24" viewBox="0 0 24 24" fill="none" xmlns="http://www.w3.org/2000/svg">
<g clip-path="url(#clip0_492_4710)">
<path d="M6.25 18.1112L10.0625 14.3225L12.5625 16.8225L17.625 11.7662V14.625H18.875V9.625H13.875V10.875H16.7325L12.5625 15.0462L10.0625 12.5462L5.39 17.25L6.25 18.1112ZM4.02 24C3.44417 24 2.96375 23.8075 2.57875 23.4225C2.19375 23.0375 2.00083 22.5567 2 21.98V6.02C2 5.44417 2.19292 4.96375 2.57875 4.57875C2.96458 4.19375 3.445 4.00083 4.02 4H19.9812C20.5562 4 21.0367 4.19292 21.4225 4.57875C21.8083 4.96458 22.0008 5.445 22 6.02V21.9812C22 22.5562 21.8075 23.0367 21.4225 23.4225C21.0375 23.8083 20.5567 24.0008 19.98 24H4.02ZM4.02 22.75H19.9812C20.1729 22.75 20.3492 22.67 20.51 22.51C20.6708 22.35 20.7508 22.1733 20.75 21.98V6.02C20.75 5.8275 20.67 5.65083 20.51 5.49C20.35 5.32917 20.1733 5.24917 19.98 5.25H4.02C3.8275 5.25 3.65083 5.33 3.49 5.49C3.32917 5.65 3.24917 5.82667 3.25 6.02V21.9812C3.25 22.1729 3.33 22.3492 3.49 22.51C3.65 22.6708 3.82625 22.7508 4.01875 22.75" fill="url(#paint0_linear_492_4710)"/>
</g>
<defs>
<linearGradient id="paint0_linear_492_4710" x1="-39.1724" y1="46.4837" x2="19.098" y2="-7.93118" gradientUnits="userSpaceOnUse">
<stop offset="0.588191" stop-color="#2C65AA"/>
<stop offset="0.893191" stop-color="#3FB6B4"/>
</linearGradient>
<clipPath id="clip0_492_4710">
<rect width="24" height="24" fill="white"/>
</clipPath>
</defs>
</svg>
