<svg width="40" height="40" viewBox="0 0 40 40" fill="none" xmlns="http://www.w3.org/2000/svg">
<path d="M33.125 26.875V20.625H20.625V15.625H26.875V1.875H13.125V15.625H19.375V20.625H6.875V26.875H1.875V38.125H13.125V26.875H8.125V21.875H19.375V26.875H14.375V38.125H25.625V26.875H20.625V21.875H31.875V26.875H26.875V38.125H38.125V26.875H33.125ZM14.375 14.375V3.125H25.625V14.375H14.375ZM11.875 28.125V36.875H3.125V28.125H11.875ZM24.375 28.125V36.875H15.625V28.125H24.375ZM36.875 36.875H28.125V28.125H36.875V36.875Z" fill="url(#paint0_linear_492_5267)"/>
<defs>
<linearGradient id="paint0_linear_492_5267" x1="-72.75" y1="78.8766" x2="32.8651" y2="-19.7503" gradientUnits="userSpaceOnUse">
<stop offset="0.588191" stop-color="#2C65AA"/>
<stop offset="0.893191" stop-color="#3FB6B4"/>
</linearGradient>
</defs>
</svg>
