<svg width="40" height="40" viewBox="0 0 40 40" fill="none" xmlns="http://www.w3.org/2000/svg">
<path d="M36.0013 9.60023C36.0013 8.96368 35.7484 8.35321 35.2983 7.9031C34.8482 7.453 34.2377 7.20013 33.6012 7.20013H31.2011V6.4001C31.2011 5.76355 30.9482 5.15308 30.4981 4.70297C30.048 4.25287 29.4376 4 28.801 4H6.4001C5.76355 4 5.15308 4.25287 4.70297 4.70297C4.25287 5.15308 4 5.76355 4 6.4001V33.6012C4 34.2377 4.25287 34.8482 4.70297 35.2983C5.15308 35.7484 5.76355 36.0013 6.4001 36.0013H28.801C29.4376 36.0013 30.048 35.7484 30.4981 35.2983C30.9482 34.8482 31.2011 34.2377 31.2011 33.6012V32.8012H33.6012C34.2377 32.8012 34.8482 32.5483 35.2983 32.0982C35.7484 31.6481 36.0013 31.0376 36.0013 30.4011V25.6009C35.9993 25.0085 35.7768 24.4381 35.3773 24.0008C35.7768 23.5635 35.9993 22.9931 36.0013 22.4007V17.6006C35.9993 17.0082 35.7768 16.4378 35.3773 16.0005C35.7768 15.5632 35.9993 14.9928 36.0013 14.4004V9.60023ZM33.6012 8.80019C33.8134 8.80019 34.0169 8.88448 34.1669 9.03452C34.3169 9.18455 34.4012 9.38805 34.4012 9.60023V14.4004C34.4012 14.6126 34.3169 14.8161 34.1669 14.9661C34.0169 15.1162 33.8134 15.2005 33.6012 15.2005H31.2011V8.80019H33.6012ZM34.4012 17.6006V22.4007C34.4012 22.6129 34.3169 22.8164 34.1669 22.9665C34.0169 23.1165 33.8134 23.2008 33.6012 23.2008H31.2011V16.8005H33.6012C33.8134 16.8005 34.0169 16.8848 34.1669 17.0348C34.3169 17.1849 34.4012 17.3884 34.4012 17.6006ZM24.8008 5.60006V12.4643L22.9608 10.6403C22.8889 10.5637 22.8022 10.5027 22.7059 10.461C22.6096 10.4193 22.5057 10.3978 22.4007 10.3978C22.2958 10.3978 22.1919 10.4193 22.0956 10.461C21.9993 10.5027 21.9126 10.5637 21.8407 10.6403L20.0007 12.4643V5.60006H24.8008ZM29.601 33.6012C29.601 33.8134 29.5168 34.0169 29.3667 34.1669C29.2167 34.3169 29.0132 34.4012 28.801 34.4012H6.4001C6.18792 34.4012 5.98442 34.3169 5.83439 34.1669C5.68435 34.0169 5.60006 33.8134 5.60006 33.6012V6.4001C5.60006 6.18792 5.68435 5.98442 5.83439 5.83439C5.98442 5.68435 6.18792 5.60006 6.4001 5.60006H18.4006V14.4004C18.4014 14.5584 18.4489 14.7125 18.5372 14.8435C18.6254 14.9745 18.7505 15.0764 18.8966 15.1365C19.0413 15.1994 19.2018 15.2163 19.3564 15.1848C19.511 15.1533 19.6521 15.075 19.7606 14.9604L22.4007 12.3363L25.0409 14.9604C25.1123 15.0373 25.199 15.0984 25.2955 15.1397C25.3919 15.181 25.496 15.2017 25.6009 15.2005C25.7009 15.2231 25.8048 15.2231 25.9049 15.2005C26.0615 15.1367 26.1939 15.0248 26.283 14.8811C26.3721 14.7374 26.4134 14.5691 26.4009 14.4004V5.60006H28.801C29.0132 5.60006 29.2167 5.68435 29.3667 5.83439C29.5168 5.98442 29.601 6.18792 29.601 6.4001V33.6012ZM34.4012 30.4011C34.4012 30.6133 34.3169 30.8167 34.1669 30.9668C34.0169 31.1168 33.8134 31.2011 33.6012 31.2011H31.2011V24.8008H33.6012C33.8134 24.8008 34.0169 24.8851 34.1669 25.0352C34.3169 25.1852 34.4012 25.3887 34.4012 25.6009V30.4011Z" fill="url(#paint0_linear_492_6154)" stroke="url(#paint1_linear_492_6154)" stroke-width="0.5"/>
<path d="M25.601 18.4004H9.60033C9.38814 18.4004 9.18465 18.4847 9.03462 18.6347C8.88458 18.7847 8.80029 18.9882 8.80029 19.2004V25.6007C8.80029 25.8129 8.88458 26.0164 9.03462 26.1664C9.18465 26.3164 9.38814 26.4007 9.60033 26.4007H25.601C25.8132 26.4007 26.0167 26.3164 26.1667 26.1664C26.3167 26.0164 26.401 25.8129 26.401 25.6007V19.2004C26.401 18.9882 26.3167 18.7847 26.1667 18.6347C26.0167 18.4847 25.8132 18.4004 25.601 18.4004ZM24.8009 24.8007H10.4004V20.0005H24.8009V24.8007Z" fill="url(#paint2_linear_492_6154)" stroke="url(#paint3_linear_492_6154)" stroke-width="0.5"/>
<path d="M25.601 29.5996H9.60033C9.38814 29.5996 9.18465 29.6839 9.03462 29.8339C8.88458 29.984 8.80029 30.1875 8.80029 30.3996C8.80029 30.6118 8.88458 30.8153 9.03462 30.9654C9.18465 31.1154 9.38814 31.1997 9.60033 31.1997H25.601C25.8132 31.1997 26.0167 31.1154 26.1667 30.9654C26.3167 30.8153 26.401 30.6118 26.401 30.3996C26.401 30.1875 26.3167 29.984 26.1667 29.8339C26.0167 29.6839 25.8132 29.5996 25.601 29.5996Z" fill="url(#paint4_linear_492_6154)" stroke="url(#paint5_linear_492_6154)" stroke-width="0.5"/>
<defs>
<linearGradient id="paint0_linear_492_6154" x1="-61.8785" y1="71.9766" x2="31.3579" y2="-15.0907" gradientUnits="userSpaceOnUse">
<stop offset="0.588191" stop-color="#2C65AA"/>
<stop offset="0.893191" stop-color="#3FB6B4"/>
</linearGradient>
<linearGradient id="paint1_linear_492_6154" x1="-61.8785" y1="71.9766" x2="31.3579" y2="-15.0907" gradientUnits="userSpaceOnUse">
<stop offset="0.588191" stop-color="#2C65AA"/>
<stop offset="0.893191" stop-color="#3FB6B4"/>
</linearGradient>
<linearGradient id="paint2_linear_492_6154" x1="-27.4329" y1="35.3945" x2="-9.04485" y2="-2.38251" gradientUnits="userSpaceOnUse">
<stop offset="0.588191" stop-color="#2C65AA"/>
<stop offset="0.893191" stop-color="#3FB6B4"/>
</linearGradient>
<linearGradient id="paint3_linear_492_6154" x1="-27.4329" y1="35.3945" x2="-9.04485" y2="-2.38251" gradientUnits="userSpaceOnUse">
<stop offset="0.588191" stop-color="#2C65AA"/>
<stop offset="0.893191" stop-color="#3FB6B4"/>
</linearGradient>
<linearGradient id="paint4_linear_492_6154" x1="-27.4329" y1="32.9984" x2="-26.5317" y2="23.7407" gradientUnits="userSpaceOnUse">
<stop offset="0.588191" stop-color="#2C65AA"/>
<stop offset="0.893191" stop-color="#3FB6B4"/>
</linearGradient>
<linearGradient id="paint5_linear_492_6154" x1="-27.4329" y1="32.9984" x2="-26.5317" y2="23.7407" gradientUnits="userSpaceOnUse">
<stop offset="0.588191" stop-color="#2C65AA"/>
<stop offset="0.893191" stop-color="#3FB6B4"/>
</linearGradient>
</defs>
</svg>
