<svg width="24" height="24" viewBox="0 0 24 24" fill="none" xmlns="http://www.w3.org/2000/svg">
<g clip-path="url(#clip0_492_6888)">
<path d="M6.61731 9.80846L4.46458 12.1991L3.60051 11.3354C3.2343 10.9692 2.64114 10.9692 2.27473 11.3354C1.90833 11.7016 1.90852 12.2948 2.27473 12.6612L3.83723 14.2237C4.01301 14.4022 4.25247 14.4999 4.46497 14.4999C4.47351 14.4999 4.48084 14.4999 4.48939 14.4993C4.74697 14.4925 4.98978 14.3809 5.16205 14.1898L7.97455 11.0648C8.32123 10.6797 8.28947 10.0871 7.90498 9.74019C7.55481 9.39439 6.96497 9.42564 6.61731 9.80846ZM6.61731 3.56002L4.46458 5.94908L3.60051 5.08541C3.2343 4.7192 2.64114 4.7192 2.27473 5.08541C1.90833 5.45162 1.90852 6.04478 2.27473 6.41119L3.83723 7.97369C4.01301 8.15221 4.25247 8.24986 4.46497 8.24986C4.47351 8.24986 4.48084 8.24986 4.48939 8.24925C4.74697 8.24254 4.98978 8.13085 5.16205 7.9398L7.97455 4.8148C8.32123 4.42968 8.28947 3.83707 7.90498 3.49019C7.55481 3.14478 6.96497 3.17525 6.61731 3.56002ZM3.87512 16.3397C2.83958 16.3397 2.00012 17.1792 2.00012 18.2147C2.00012 19.2503 2.83958 20.0897 3.87512 20.0897C4.91067 20.0897 5.75012 19.2503 5.75012 18.2147C5.75012 17.2147 4.91067 16.3397 3.87512 16.3397ZM12.0001 6.99986H20.7501C21.4404 6.99986 22.0001 6.4401 22.0001 5.74986C22.0001 5.05963 21.4404 4.49986 20.7501 4.49986H12.0001C11.3087 4.49986 10.7501 5.05963 10.7501 5.74986C10.7501 6.4401 11.3087 6.99986 12.0001 6.99986ZM20.7501 10.7499H12.0001C11.3087 10.7499 10.7501 11.3085 10.7501 11.9999C10.7501 12.6913 11.3099 13.2499 12.0001 13.2499H20.7501C21.4404 13.2499 22.0001 12.6901 22.0001 11.9999C22.0001 11.3096 21.4415 10.7499 20.7501 10.7499ZM20.7501 16.9999H9.50012C8.80989 16.9999 8.25012 17.5596 8.25012 18.2499C8.25012 18.9401 8.80989 19.4999 9.50012 19.4999H20.7501C21.4404 19.4999 22.0001 18.9401 22.0001 18.2499C22.0001 17.5596 21.4415 16.9999 20.7501 16.9999Z" fill="url(#paint0_linear_492_6888)"/>
</g>
<defs>
<linearGradient id="paint0_linear_492_6888" x1="-39.1727" y1="39.0206" x2="9.74271" y2="-15.231" gradientUnits="userSpaceOnUse">
<stop offset="0.588191" stop-color="#2C65AA"/>
<stop offset="0.893191" stop-color="#3FB6B4"/>
</linearGradient>
<clipPath id="clip0_492_6888">
<rect width="20" height="20" fill="white" transform="translate(2 2)"/>
</clipPath>
</defs>
</svg>
