<svg width="24" height="24" viewBox="0 0 24 24" fill="none" xmlns="http://www.w3.org/2000/svg">
<g clip-path="url(#clip0_492_1604)">
<g clip-path="url(#clip1_492_1604)">
<path d="M15.994 4.08449C15.9093 2.91913 14.937 2 13.75 2H10.25C9.09205 2 8.13841 2.87472 8.01379 3.99944L6.25 4C5.00736 4 4 5.00736 4 6.25V19.75C4 20.9926 5.00736 22 6.25 22H17.75C18.9926 22 20 20.9926 20 19.75V6.25C20 5.00736 18.9926 4 17.75 4L15.9862 3.99944C15.9893 4.02764 15.9919 4.05599 15.994 4.08449ZM15.9948 4.09595L16 4.25C16 4.19822 15.9983 4.14685 15.9948 4.09595ZM10.25 6.5H13.75C14.53 6.5 15.2174 6.10307 15.621 5.50016L17.75 5.5C18.1642 5.5 18.5 5.83579 18.5 6.25V19.75C18.5 20.1642 18.1642 20.5 17.75 20.5H6.25C5.83579 20.5 5.5 20.1642 5.5 19.75V6.25C5.5 5.83579 5.83579 5.5 6.25 5.5L8.37902 5.5002C8.78267 6.1031 9.46997 6.5 10.25 6.5ZM10.25 3.5H13.75C14.1642 3.5 14.5 3.83579 14.5 4.25C14.5 4.66421 14.1642 5 13.75 5H10.25C9.83579 5 9.5 4.66421 9.5 4.25C9.5 3.83579 9.83579 3.5 10.25 3.5Z" fill="url(#paint0_linear_492_1604)"/>
<path d="M15.3671 10.1364C14.7721 9.84678 14.3292 10.9805 14 11.5L11.6921 15L10 13.5C9.51939 13.0795 8.84107 12.5877 8.36046 13.0082C7.87985 13.4287 7.87985 14.1103 8.36046 14.5308L10.822 16.6844C11.0546 16.8884 11.3684 17.0004 11.6921 17.0004C11.7487 17.0004 11.8059 16.9972 11.8626 16.9897C12.2447 16.9428 12.5801 16.742 12.7678 16.4464L15.8447 11.6009C16.1751 11.0808 15.961 10.4256 15.3671 10.1364Z" fill="url(#paint1_linear_492_1604)"/>
</g>
</g>
<defs>
<linearGradient id="paint0_linear_492_1604" x1="-28.9379" y1="44.4837" x2="27.0709" y2="2.64133" gradientUnits="userSpaceOnUse">
<stop offset="0.588191" stop-color="#2C65AA"/>
<stop offset="0.893191" stop-color="#3FB6B4"/>
</linearGradient>
<linearGradient id="paint1_linear_492_1604" x1="-8.46897" y1="24.7692" x2="11.6512" y2="3.01829" gradientUnits="userSpaceOnUse">
<stop offset="0.588191" stop-color="#2C65AA"/>
<stop offset="0.893191" stop-color="#3FB6B4"/>
</linearGradient>
<clipPath id="clip0_492_1604">
<rect width="24" height="24" fill="white"/>
</clipPath>
<clipPath id="clip1_492_1604">
<rect width="24" height="24" fill="white"/>
</clipPath>
</defs>
</svg>
