<svg width="24" height="24" viewBox="0 0 24 24" fill="none" xmlns="http://www.w3.org/2000/svg">
<g clip-path="url(#clip0_557_5611)">
<path d="M19.9437 5.93126L16.1937 2.18126C16.1353 2.12333 16.0661 2.07751 15.9899 2.0464C15.9138 2.0153 15.8323 1.99953 15.75 2.00001H5.75C5.25272 2.00001 4.77581 2.19755 4.42417 2.54919C4.07254 2.90082 3.875 3.37773 3.875 3.87501V20.125C3.875 20.6223 4.07254 21.0992 4.42417 21.4508C4.77581 21.8025 5.25272 22 5.75 22H18.25C18.7473 22 19.2242 21.8025 19.5758 21.4508C19.9275 21.0992 20.125 20.6223 20.125 20.125V6.37501C20.1255 6.29276 20.1097 6.21122 20.0786 6.13507C20.0475 6.05892 20.0017 5.98966 19.9437 5.93126ZM18.875 20.125C18.875 20.2908 18.8092 20.4497 18.6919 20.567C18.5747 20.6842 18.4158 20.75 18.25 20.75H5.75C5.58424 20.75 5.42527 20.6842 5.30806 20.567C5.19085 20.4497 5.125 20.2908 5.125 20.125V3.87501C5.125 3.70925 5.19085 3.55028 5.30806 3.43307C5.42527 3.31586 5.58424 3.25001 5.75 3.25001H15.125V5.75001C15.125 6.08153 15.2567 6.39947 15.4911 6.63389C15.7255 6.86831 16.0435 7.00001 16.375 7.00001H18.875V20.125Z" fill="url(#paint0_linear_557_5611)"/>
<path d="M14.1438 12L14.9375 11.2062L14.0563 10.325L13.25 11.1062C13.0546 10.9908 12.8443 10.9025 12.625 10.8437V9.5H11.375V10.8375C11.1557 10.8962 10.9454 10.9845 10.75 11.1L9.95625 10.3062L9.075 11.1875L9.85625 12C9.74078 12.1954 9.65247 12.4057 9.59375 12.625H8.25V13.875H9.5875C9.64622 14.0943 9.73453 14.3046 9.85 14.5L9.05625 15.2938L9.9375 16.175L10.75 15.3938C10.9454 15.5092 11.1557 15.5975 11.375 15.6562V17H12.625V15.6625C12.8443 15.6038 13.0546 15.5155 13.25 15.4L14.0438 16.1937L14.925 15.3125L14.1438 14.5C14.2592 14.3046 14.3475 14.0943 14.4062 13.875H15.75V12.625H14.4125C14.3518 12.4054 14.2614 12.1951 14.1438 12ZM12 14.5C11.7528 14.5 11.5111 14.4267 11.3055 14.2893C11.1 14.152 10.9398 13.9568 10.8452 13.7284C10.7505 13.4999 10.7258 13.2486 10.774 13.0061C10.8222 12.7637 10.9413 12.5409 11.1161 12.3661C11.2909 12.1913 11.5137 12.0722 11.7561 12.024C11.9986 11.9758 12.2499 12.0005 12.4784 12.0952C12.7068 12.1898 12.902 12.35 13.0393 12.5555C13.1767 12.7611 13.25 13.0028 13.25 13.25C13.25 13.5815 13.1183 13.8995 12.8839 14.1339C12.6495 14.3683 12.3315 14.5 12 14.5Z" fill="url(#paint1_linear_557_5611)"/>
</g>
<defs>
<linearGradient id="paint0_linear_557_5611" x1="-29.5776" y1="44.4837" x2="26.6718" y2="1.80499" gradientUnits="userSpaceOnUse">
<stop offset="0.588191" stop-color="#2C65AA"/>
<stop offset="0.893191" stop-color="#3FB6B4"/>
</linearGradient>
<linearGradient id="paint1_linear_557_5611" x1="-7.18965" y1="25.4314" x2="14.6617" y2="5.02581" gradientUnits="userSpaceOnUse">
<stop offset="0.588191" stop-color="#2C65AA"/>
<stop offset="0.893191" stop-color="#3FB6B4"/>
</linearGradient>
<clipPath id="clip0_557_5611">
<rect width="20" height="20" fill="white" transform="translate(2 2)"/>
</clipPath>
</defs>
</svg>
