<svg width="24" height="24" viewBox="0 0 24 24" fill="none" xmlns="http://www.w3.org/2000/svg">
<path d="M21 6.15C21 5.79196 20.8578 5.44858 20.6046 5.19541C20.3514 4.94223 20.008 4.8 19.65 4.8H18.3V4.35C18.3 3.99196 18.1578 3.64858 17.9046 3.39541C17.6514 3.14223 17.308 3 16.95 3H4.35C3.99196 3 3.64858 3.14223 3.39541 3.39541C3.14223 3.64858 3 3.99196 3 4.35V19.65C3 20.008 3.14223 20.3514 3.39541 20.6046C3.64858 20.8578 3.99196 21 4.35 21H16.95C17.308 21 17.6514 20.8578 17.9046 20.6046C18.1578 20.3514 18.3 20.008 18.3 19.65V19.2H19.65C20.008 19.2 20.3514 19.0578 20.6046 18.8046C20.8578 18.5514 21 18.208 21 17.85V15.15C20.9989 14.8168 20.8737 14.496 20.649 14.25C20.8737 14.004 20.9989 13.6832 21 13.35V10.65C20.9989 10.3168 20.8737 9.99598 20.649 9.75C20.8737 9.50402 20.9989 9.18319 21 8.85V6.15ZM19.65 5.7C19.7693 5.7 19.8838 5.74741 19.9682 5.8318C20.0526 5.91619 20.1 6.03065 20.1 6.15V8.85C20.1 8.96935 20.0526 9.08381 19.9682 9.1682C19.8838 9.25259 19.7693 9.3 19.65 9.3H18.3V5.7H19.65ZM20.1 10.65V13.35C20.1 13.4693 20.0526 13.5838 19.9682 13.6682C19.8838 13.7526 19.7693 13.8 19.65 13.8H18.3V10.2H19.65C19.7693 10.2 19.8838 10.2474 19.9682 10.3318C20.0526 10.4162 20.1 10.5307 20.1 10.65ZM14.7 3.9V7.761L13.665 6.735C13.6246 6.69195 13.5758 6.65764 13.5216 6.63419C13.4674 6.61073 13.409 6.59863 13.35 6.59863C13.291 6.59863 13.2326 6.61073 13.1784 6.63419C13.1242 6.65764 13.0754 6.69195 13.035 6.735L12 7.761V3.9H14.7ZM17.4 19.65C17.4 19.7693 17.3526 19.8838 17.2682 19.9682C17.1838 20.0526 17.0693 20.1 16.95 20.1H4.35C4.23065 20.1 4.11619 20.0526 4.0318 19.9682C3.94741 19.8838 3.9 19.7693 3.9 19.65V4.35C3.9 4.23065 3.94741 4.11619 4.0318 4.0318C4.11619 3.94741 4.23065 3.9 4.35 3.9H11.1V8.85C11.1004 8.93884 11.1272 9.02556 11.1768 9.09924C11.2265 9.17291 11.2968 9.23024 11.379 9.264C11.4604 9.29941 11.5507 9.30891 11.6376 9.2912C11.7246 9.27348 11.804 9.22942 11.865 9.165L13.35 7.689L14.835 9.165C14.8752 9.20823 14.924 9.24258 14.9782 9.26583C15.0325 9.28908 15.091 9.30072 15.15 9.3C15.2063 9.31275 15.2647 9.31275 15.321 9.3C15.4091 9.26411 15.4836 9.20123 15.5337 9.12038C15.5838 9.03952 15.607 8.94487 15.6 8.85V3.9H16.95C17.0693 3.9 17.1838 3.94741 17.2682 4.0318C17.3526 4.11619 17.4 4.23065 17.4 4.35V19.65ZM20.1 17.85C20.1 17.9693 20.0526 18.0838 19.9682 18.1682C19.8838 18.2526 19.7693 18.3 19.65 18.3H18.3V14.7H19.65C19.7693 14.7 19.8838 14.7474 19.9682 14.8318C20.0526 14.9162 20.1 15.0307 20.1 15.15V17.85Z" fill="url(#paint0_linear_557_7257)" stroke="url(#paint1_linear_557_7257)" stroke-width="0.5"/>
<path d="M15.1502 11.0996H6.1502C6.03085 11.0996 5.91639 11.147 5.832 11.2314C5.74761 11.3158 5.7002 11.4303 5.7002 11.5496V15.1496C5.7002 15.269 5.74761 15.3834 5.832 15.4678C5.91639 15.5522 6.03085 15.5996 6.1502 15.5996H15.1502C15.2695 15.5996 15.384 15.5522 15.4684 15.4678C15.5528 15.3834 15.6002 15.269 15.6002 15.1496V11.5496C15.6002 11.4303 15.5528 11.3158 15.4684 11.2314C15.384 11.147 15.2695 11.0996 15.1502 11.0996ZM14.7002 14.6996H6.6002V11.9996H14.7002V14.6996Z" fill="url(#paint2_linear_557_7257)" stroke="url(#paint3_linear_557_7257)" stroke-width="0.5"/>
<path d="M15.1502 17.4004H6.1502C6.03085 17.4004 5.91639 17.4478 5.832 17.5322C5.74761 17.6166 5.7002 17.731 5.7002 17.8504C5.7002 17.9697 5.74761 18.0842 5.832 18.1686C5.91639 18.253 6.03085 18.3004 6.1502 18.3004H15.1502C15.2695 18.3004 15.384 18.253 15.4684 18.1686C15.5528 18.0842 15.6002 17.9697 15.6002 17.8504C15.6002 17.731 15.5528 17.6166 15.4684 17.5322C15.384 17.4478 15.2695 17.4004 15.1502 17.4004Z" fill="url(#paint4_linear_557_7257)" stroke="url(#paint5_linear_557_7257)" stroke-width="0.5"/>
<defs>
<linearGradient id="paint0_linear_557_7257" x1="-34.0552" y1="41.2353" x2="18.3882" y2="-7.73806" gradientUnits="userSpaceOnUse">
<stop offset="0.588191" stop-color="#2C65AA"/>
<stop offset="0.893191" stop-color="#3FB6B4"/>
</linearGradient>
<linearGradient id="paint1_linear_557_7257" x1="-34.0552" y1="41.2353" x2="18.3882" y2="-7.73806" gradientUnits="userSpaceOnUse">
<stop offset="0.588191" stop-color="#2C65AA"/>
<stop offset="0.893191" stop-color="#3FB6B4"/>
</linearGradient>
<linearGradient id="paint2_linear_557_7257" x1="-14.6802" y1="20.6584" x2="-4.33729" y2="-0.590297" gradientUnits="userSpaceOnUse">
<stop offset="0.588191" stop-color="#2C65AA"/>
<stop offset="0.893191" stop-color="#3FB6B4"/>
</linearGradient>
<linearGradient id="paint3_linear_557_7257" x1="-14.6802" y1="20.6584" x2="-4.33729" y2="-0.590297" gradientUnits="userSpaceOnUse">
<stop offset="0.588191" stop-color="#2C65AA"/>
<stop offset="0.893191" stop-color="#3FB6B4"/>
</linearGradient>
<linearGradient id="paint4_linear_557_7257" x1="-14.6802" y1="19.3122" x2="-14.1732" y2="14.1049" gradientUnits="userSpaceOnUse">
<stop offset="0.588191" stop-color="#2C65AA"/>
<stop offset="0.893191" stop-color="#3FB6B4"/>
</linearGradient>
<linearGradient id="paint5_linear_557_7257" x1="-14.6802" y1="19.3122" x2="-14.1732" y2="14.1049" gradientUnits="userSpaceOnUse">
<stop offset="0.588191" stop-color="#2C65AA"/>
<stop offset="0.893191" stop-color="#3FB6B4"/>
</linearGradient>
</defs>
</svg>
