<svg width="40" height="40" viewBox="0 0 40 40" fill="none" xmlns="http://www.w3.org/2000/svg">
<path opacity="0.4" d="M5.93984 18.3167C6.50715 16.9232 9.1208 14.1639 15.1009 14.1639C15.6033 14.1639 16.921 13.6584 16.8528 10.9201C16.825 8.4451 17.7271 3.54876 21.5117 3.33758C22.2616 3.33398 23.0769 3.33398 23.9678 3.33398C26.9662 3.33398 28.4655 3.33398 29.6629 3.75432C31.5878 4.43006 33.1062 5.85915 33.8242 7.67089C34.2708 8.79785 34.2708 10.2089 34.2708 13.031V28.334C34.2708 29.8828 34.2708 30.6573 34.1427 31.3013C33.6167 33.9459 31.5494 36.0132 28.9048 36.5392C28.2608 36.6673 27.4863 36.6673 25.9375 36.6673H18.8163C13.3809 36.6673 10.6633 36.6673 8.77595 35.3376C8.2352 34.9566 7.75513 34.5048 7.35033 33.9958C5.9375 32.2195 5.9375 29.6617 5.9375 24.5461V20.3037C5.9375 19.592 5.9375 18.9317 5.93984 18.3167Z" fill="#3EB9B5"/>
<path d="M26.6667 22.9173C27.3571 22.9173 27.9167 22.3577 27.9167 21.6673C27.9167 20.977 27.3571 20.4173 26.6667 20.4173H21.6667C20.9764 20.4173 20.4167 20.977 20.4167 21.6673C20.4167 22.3577 20.9764 22.9173 21.6667 22.9173H26.6667Z" fill="#3EB9B5"/>
<path d="M26.6667 29.584C27.3571 29.584 27.9167 29.0243 27.9167 28.334C27.9167 27.6436 27.3571 27.084 26.6667 27.084L15 27.084C14.3097 27.084 13.75 27.6436 13.75 28.334C13.75 29.0243 14.3097 29.584 15 29.584H26.6667Z" fill="#3EB9B5"/>
<path fill-rule="evenodd" clip-rule="evenodd" d="M20.0896 37.9174H18.6399C15.9835 37.9174 13.8915 37.9174 12.2319 37.7444C10.5373 37.5678 9.14391 37.1994 7.95187 36.3595C7.31554 35.9112 6.74807 35.3777 6.26792 34.774C5.35978 33.6322 4.95919 32.2896 4.76854 30.6694C4.58334 29.0953 4.58335 27.1162 4.58337 24.6263V20.2583C4.58337 17.8276 4.58337 15.9413 4.68378 14.419C4.78555 12.876 4.99428 11.6203 5.45286 10.4631C6.84972 6.93831 9.7911 4.18631 13.4833 2.89021C15.7814 2.08348 18.6013 2.08368 23.5436 2.08405L24.1481 2.08402C26.8733 2.08346 28.5717 2.0831 29.9728 2.57495C32.2212 3.36425 34.0238 5.04443 34.8822 7.21044C35.1733 7.94501 35.2983 8.72485 35.3582 9.63306C35.4167 10.5207 35.4167 11.6132 35.4167 12.9871V23.4332C35.4167 26.4918 35.4168 28.9222 35.1448 30.826C34.8636 32.7944 34.27 34.3815 32.9487 35.625C31.6382 36.8585 29.9835 37.4035 27.9293 37.6634C25.922 37.9174 23.3528 37.9174 20.0896 37.9174ZM27.6155 35.1832C29.419 34.955 30.4712 34.5237 31.2353 33.8045C31.9887 33.0954 32.4325 32.1349 32.6699 30.4724C32.9137 28.7659 32.9167 26.5142 32.9167 23.3341V13.031C32.9167 11.6035 32.9161 10.5933 32.8636 9.7976C32.8118 9.01304 32.7135 8.52388 32.558 8.13148C31.9804 6.67401 30.7462 5.49603 29.1447 4.93384C28.1992 4.60191 26.9679 4.58406 23.8637 4.58406C23.3295 4.58406 22.8251 4.58424 22.3481 4.5852C20.0412 4.66588 18.1958 6.56147 18.1958 8.88808C18.1958 9.1333 18.2066 9.39693 18.2203 9.69293L18.2254 9.80262C18.2376 10.0608 18.2508 10.3418 18.2566 10.622C18.2697 11.2555 18.2497 11.9947 18.0585 12.7083C17.6861 14.0983 16.6004 15.184 15.2105 15.5564C14.4969 15.7476 13.7577 15.7676 13.1242 15.7544C12.844 15.7486 12.563 15.7354 12.3049 15.7233L12.1951 15.7182C11.8991 15.7044 11.6354 15.6936 11.3902 15.6936C9.01233 15.6936 7.08467 17.6213 7.08467 19.9992C7.08467 20.0184 7.08424 20.0375 7.08338 20.0564C7.08338 20.1381 7.08338 20.2206 7.08338 20.3038V24.5462C7.08338 27.1342 7.0854 28.9662 7.25142 30.3772C7.41398 31.7588 7.71981 32.5833 8.2245 33.2178C8.55395 33.632 8.94661 34.0022 9.39177 34.3158C10.0871 34.8057 10.9961 35.1021 12.4911 35.2579C14.0059 35.4158 15.9676 35.4174 18.7122 35.4174H20C23.3725 35.4174 25.7833 35.415 27.6155 35.1832ZM7.17362 14.6569C8.33299 13.7406 9.79773 13.1936 11.3902 13.1936C11.6998 13.1936 12.0158 13.2072 12.3109 13.2208L12.424 13.2261C12.6852 13.2384 12.931 13.2499 13.1761 13.255C13.7438 13.2668 14.1981 13.2395 14.5634 13.1416C15.0906 13.0003 15.5025 12.5885 15.6437 12.0613C15.7416 11.696 15.7689 11.2417 15.7571 10.6739C15.752 10.4289 15.7405 10.1831 15.7283 9.92201L15.723 9.80879C15.7093 9.51369 15.6958 9.19769 15.6958 8.88808C15.6958 7.31712 16.2281 5.87048 17.1221 4.71867C15.9668 4.81341 15.0931 4.97468 14.3113 5.24909C11.2661 6.31809 8.89308 8.56789 7.77701 11.3842C7.45403 12.1992 7.27198 13.1642 7.17836 14.5836C7.17675 14.6079 7.17518 14.6324 7.17362 14.6569Z" fill="#3EB9B5"/>
</svg>
