<svg width="24" height="24" viewBox="0 0 24 24" fill="none" xmlns="http://www.w3.org/2000/svg">
<g clip-path="url(#clip0_456_5128)">
<path d="M19.2069 20.6936H10.747C9.98343 20.6936 8.43701 19.6908 8.43701 18.8713V11.4041C8.43701 11.2373 8.52685 11.0833 8.67168 11.0026C10.3593 10.0603 11.2127 8.38642 12.1037 5.81701V3.35484C12.1037 3.27142 12.1257 3.18984 12.1688 3.11834C12.4474 2.65451 12.9296 2.38867 13.4915 2.38867C14.2148 2.38867 14.9756 2.82592 15.5274 3.55376C16.0838 4.29167 16.8777 5.92059 16.2223 8.77509H20.0842C20.944 8.77509 22.8938 9.66059 22.8938 11.1163C22.8938 11.5957 22.8369 12.3272 22.5317 12.7553C22.7718 13.4272 22.8177 14.5171 22.0798 15.2853C22.1403 16.5796 21.8148 17.5201 21.1283 18.0353C21.1163 18.7191 20.8019 19.5551 20.3271 20.0996C19.9925 20.4883 19.6038 20.6936 19.2069 20.6936ZM9.35551 11.6644V18.8694C9.43068 19.1151 10.3602 19.7751 10.7488 19.7751H19.2078C19.3288 19.7751 19.4874 19.6715 19.6433 19.4928C20.0136 19.0665 20.2739 18.3158 20.2098 17.851C20.1832 17.6613 20.2767 17.4779 20.4463 17.3835C21.1906 16.982 21.2108 15.7986 21.1585 15.1276C21.1448 14.9809 21.208 14.837 21.3217 14.7389C21.9872 14.1853 21.7818 13.1696 21.5912 12.879C21.5096 12.7534 21.4949 12.5948 21.549 12.4583C21.6058 12.3208 21.7232 12.2153 21.8708 12.1823C21.8515 12.1576 21.9835 11.7836 21.9835 11.1117C21.9835 10.3664 20.6213 9.68717 20.0915 9.68717H15.6383C15.4944 9.68717 15.3597 9.62117 15.2744 9.50659C15.1892 9.39201 15.1598 9.24351 15.1993 9.10509C15.7859 7.03067 15.6402 5.20834 14.8051 4.10192C14.3596 3.50976 13.8371 3.30076 13.4998 3.30076C13.299 3.30076 13.1404 3.36584 13.0268 3.49601V5.88576C13.0268 5.93892 13.0176 5.98567 13.002 6.03517C12.0881 8.67792 11.1503 10.5525 9.35551 11.6644Z" fill="url(#paint0_linear_456_5128)" stroke="url(#paint1_linear_456_5128)"/>
<path d="M7.74764 21.6096H2.7133C1.82689 21.6096 1.10547 20.8882 1.10547 20.0018V10.3823C1.10547 9.49589 1.82689 8.77539 2.7133 8.77539H7.74764C8.63405 8.77539 9.35547 9.49589 9.35547 10.3823V20.0018C9.35547 20.8882 8.63405 21.6096 7.74764 21.6096ZM2.7133 9.69206C2.33197 9.69206 2.02214 10.0019 2.02214 10.3823V20.0018C2.02214 20.3831 2.33197 20.693 2.7133 20.693H7.74764C8.12897 20.693 8.4388 20.3831 8.4388 20.0018V10.3823C8.4388 10.0019 8.12897 9.69206 7.74764 9.69206H2.7133Z" fill="url(#paint2_linear_456_5128)" stroke="url(#paint3_linear_456_5128)"/>
</g>
<defs>
<linearGradient id="paint0_linear_456_5128" x1="-21.324" y1="41.2717" x2="29.7473" y2="3.6057" gradientUnits="userSpaceOnUse">
<stop offset="0.588191" stop-color="#2C65AA"/>
<stop offset="0.893191" stop-color="#3FB6B4"/>
</linearGradient>
<linearGradient id="paint1_linear_456_5128" x1="-21.324" y1="41.2717" x2="29.7473" y2="3.6057" gradientUnits="userSpaceOnUse">
<stop offset="0.588191" stop-color="#2C65AA"/>
<stop offset="0.893191" stop-color="#3FB6B4"/>
</linearGradient>
<linearGradient id="paint2_linear_456_5128" x1="-15.8782" y1="36.0377" x2="17.2001" y2="16.1815" gradientUnits="userSpaceOnUse">
<stop offset="0.588191" stop-color="#2C65AA"/>
<stop offset="0.893191" stop-color="#3FB6B4"/>
</linearGradient>
<linearGradient id="paint3_linear_456_5128" x1="-15.8782" y1="36.0377" x2="17.2001" y2="16.1815" gradientUnits="userSpaceOnUse">
<stop offset="0.588191" stop-color="#2C65AA"/>
<stop offset="0.893191" stop-color="#3FB6B4"/>
</linearGradient>
<clipPath id="clip0_456_5128">
<rect width="22" height="22" fill="white" transform="translate(1 1)"/>
</clipPath>
</defs>
</svg>
