<svg width="56" height="56" viewBox="0 0 56 56" fill="none" xmlns="http://www.w3.org/2000/svg">
<path opacity="0.4" d="M4.66663 28.9333C4.66663 21.8937 4.66663 18.3739 6.87459 16.1869C9.08255 14 12.6362 14 19.7435 14H22.2564C29.3637 14 32.9174 14 35.1253 16.1869C37.3333 18.3739 37.3333 21.8937 37.3333 28.9333V36.4C37.3333 43.4396 37.3333 46.9595 35.1253 49.1464C32.9174 51.3333 29.3637 51.3333 22.2564 51.3333H19.7435C12.6362 51.3333 9.08255 51.3333 6.87459 49.1464C4.66663 46.9595 4.66663 43.4396 4.66663 36.4V28.9333Z" fill="#3EB9B5"/>
<path d="M14 26.2494C13.0335 26.2494 12.25 27.0329 12.25 27.9994C12.25 28.9659 13.0335 29.7494 14 29.7494H21C21.9665 29.7494 22.75 28.9659 22.75 27.9994C22.75 27.0329 21.9665 26.2494 21 26.2494H14Z" fill="#3EB9B5"/>
<path d="M14 37.916C13.0335 37.916 12.25 38.6995 12.25 39.666C12.25 40.6325 13.0335 41.416 14 41.416H25.6666C26.6331 41.416 27.4166 40.6325 27.4166 39.666C27.4166 38.6995 26.6331 37.916 25.6666 37.916H14Z" fill="#3EB9B5"/>
<path fill-rule="evenodd" clip-rule="evenodd" d="M38.5365 2.91602H36.1263C33.1888 2.91597 30.8054 2.91592 28.9276 3.17116C26.9703 3.43721 25.3031 4.00943 23.9781 5.34892C22.8249 6.51488 22.2471 7.9433 21.9451 9.60565C21.8008 10.3994 21.7141 11.2796 21.6617 12.2494H19.6156C16.1706 12.2493 13.4092 12.2493 11.2408 12.538C8.99696 12.8368 7.12706 13.4731 5.64309 14.9429C4.15681 16.4151 3.51128 18.2739 3.20853 20.5043C2.91654 22.6554 2.91658 25.3933 2.91663 28.8027V36.5294C2.91658 39.9387 2.91654 42.6767 3.20853 44.8277C3.51128 47.0581 4.15681 48.917 5.64309 50.3891C7.12706 51.8589 8.99696 52.4952 11.2408 52.794C13.4092 53.0828 16.1705 53.0827 19.6155 53.0827H22.3844C25.8294 53.0827 28.5907 53.0828 30.7591 52.794C33.003 52.4952 34.8729 51.8589 36.3568 50.3891C37.8431 48.917 38.4887 47.0581 38.7914 44.8277C39.0066 43.2426 39.0631 41.3389 39.078 39.0826C41.7684 39.0818 43.9741 39.0669 45.7352 38.8275C47.6925 38.5615 49.3597 37.9893 50.6846 36.6498C52.007 35.3129 52.5695 33.6353 52.8314 31.6656C53.0834 29.7709 53.0833 27.3648 53.0833 24.3919V17.6068C53.0833 14.6339 53.0834 12.2278 52.8314 10.3331C52.5695 8.36343 52.007 6.68578 50.6846 5.34892C49.3597 4.00943 47.6925 3.43721 45.7352 3.17116C43.8573 2.91592 41.474 2.91597 38.5365 2.91602ZM39.0833 35.5825C41.8207 35.5809 43.7692 35.5626 45.2638 35.3594C46.826 35.1471 47.6285 34.7625 48.1963 34.1885C48.7668 33.6117 49.1507 32.7927 49.3619 31.2042C49.5796 29.5672 49.5833 27.3948 49.5833 24.266V17.7327C49.5833 14.6039 49.5796 12.4315 49.3619 10.7945C49.1507 9.20602 48.7668 8.38697 48.1963 7.81025C47.6285 7.23618 46.826 6.85161 45.2638 6.63927C43.6492 6.41982 41.5049 6.41602 38.4085 6.41602H36.2543C33.1579 6.41602 31.0136 6.41982 29.399 6.63927C28.5027 6.7611 27.8565 6.93962 27.3612 7.17809L34.9851 13.849L34.9717 13.8642C35.4656 14.162 35.9274 14.5176 36.3568 14.9429C37.8431 16.4151 38.4887 18.2739 38.7914 20.5043C39.0834 22.6554 39.0833 25.3933 39.0833 28.8027V35.5825ZM25.4094 10.1209C25.4024 10.1572 25.3955 10.194 25.3887 10.2313C25.2832 10.8118 25.2131 11.4773 25.1668 12.256C26.1497 12.2635 27.0649 12.2795 27.9153 12.3136L25.4094 10.1209ZM8.1061 17.4296C8.8301 16.7125 9.84101 16.2553 11.7028 16.0074C13.6133 15.753 16.1409 15.7494 19.7436 15.7494H22.2564C25.8591 15.7494 28.3867 15.753 30.2971 16.0074C32.1589 16.2553 33.1698 16.7125 33.8938 17.4296C34.6155 18.1444 35.074 19.139 35.3232 20.9751C35.5795 22.8633 35.5833 25.3629 35.5833 28.9327V36.3994C35.5833 39.9691 35.5795 42.4687 35.3232 44.3569C35.074 46.1931 34.6155 47.1876 33.8938 47.9024C33.1698 48.6195 32.1589 49.0767 30.2971 49.3246C28.3867 49.579 25.8591 49.5827 22.2564 49.5827H19.7436C16.1409 49.5827 13.6133 49.579 11.7028 49.3246C9.84101 49.0767 8.8301 48.6195 8.1061 47.9024C7.38441 47.1876 6.92596 46.1931 6.67672 44.3569C6.42042 42.4687 6.41663 39.9691 6.41663 36.3994V28.9327C6.41663 25.3629 6.42042 22.8633 6.67672 20.9751C6.92596 19.139 7.38441 18.1444 8.1061 17.4296Z" fill="#3EB9B5"/>
</svg>
