<svg width="40" height="40" viewBox="0 0 40 40" fill="none" xmlns="http://www.w3.org/2000/svg">
<path opacity="0.4" d="M12.5 8.4043V17.2824C12.5 18.8411 12.5 19.6205 12.983 19.8995C13.6971 20.312 14.8887 19.359 15.7833 18.6436C16.0605 18.4219 16.3091 18.223 16.5063 18.0946C16.9895 17.7799 17.2311 17.6225 17.5 17.6225C17.7689 17.6225 18.0105 17.7799 18.4937 18.0946C18.6909 18.223 18.9395 18.4219 19.2167 18.6436C20.1113 19.359 21.3029 20.312 22.017 19.8995C22.5 19.6205 22.5 18.8411 22.5 17.2824V8.4043C25.2418 8.54475 26.9522 8.9639 28.1694 10.2148C30 12.096 30 15.1238 30 21.1794V23.821C30 29.8766 30 32.9044 28.1694 34.7856C26.3388 36.6668 23.3926 36.6668 17.5 36.6668C11.6074 36.6668 8.66117 36.6668 6.83058 34.7856C5 32.9044 5 29.8766 5 23.821V21.1794C5 15.1238 5 12.096 6.83058 10.2148C8.04776 8.9639 9.75819 8.54475 12.5 8.4043Z" fill="#3EB9B5"/>
<path d="M18.3333 4.58399C22.297 4.58399 25.1441 4.58664 27.3107 4.87794C29.4414 5.1644 30.7259 5.70922 31.6753 6.65865C32.6248 7.60807 33.1696 8.89261 33.456 11.0233C33.7473 13.1899 33.75 16.0369 33.75 20.0007V30.0007C33.75 30.691 34.3096 31.2507 35 31.2507C35.6904 31.2507 36.25 30.691 36.25 30.0007V19.905C36.25 16.0577 36.25 13.0426 35.9338 10.6902C35.61 8.28227 34.9345 6.38223 33.4431 4.89088C31.9518 3.39953 30.0517 2.72396 27.6438 2.40023C25.2913 2.08395 22.2763 2.08396 18.429 2.08398H15C14.3096 2.08398 13.75 2.64363 13.75 3.33399C13.75 4.02434 14.3096 4.58399 15 4.58399H18.3333Z" fill="#3EB9B5"/>
<path fill-rule="evenodd" clip-rule="evenodd" d="M17.5958 7.08399H17.4042C14.5392 7.08395 12.2585 7.08393 10.471 7.3309C8.62406 7.58608 7.11948 8.12594 5.93472 9.34348C4.7546 10.5563 4.23554 12.0884 3.98939 13.97C3.74996 15.8001 3.74998 18.1382 3.75 21.0883V23.9129C3.74998 26.8631 3.74996 29.2012 3.98939 31.0313C4.23554 32.9129 4.7546 34.445 5.93472 35.6578C7.11948 36.8754 8.62406 37.4152 10.471 37.6704C12.2585 37.9174 14.5392 37.9173 17.4042 37.9173H17.5958C20.4608 37.9173 22.7415 37.9174 24.529 37.6704C26.3759 37.4152 27.8805 36.8754 29.0653 35.6578C30.2454 34.445 30.7645 32.9129 31.0106 31.0313C31.25 29.2012 31.25 26.8631 31.25 23.9129V21.0884C31.25 18.1382 31.25 15.8001 31.0106 13.97C30.7645 12.0884 30.2454 10.5563 29.0653 9.34348C27.8805 8.12594 26.3759 7.58608 24.529 7.3309C22.7415 7.08393 20.4608 7.08395 17.5958 7.08399ZM7.72645 11.087C8.37227 10.4233 9.25612 10.0225 10.8131 9.80738C10.9547 9.78782 11.1002 9.76998 11.25 9.7537L11.25 17.3658C11.2499 18.0732 11.2498 18.7336 11.3228 19.2473C11.398 19.7758 11.6003 20.5449 12.3579 20.9824C13.0319 21.3717 13.7328 21.2636 14.201 21.1098C14.6768 20.9536 15.1245 20.6843 15.4883 20.4356C15.8621 20.1802 16.223 19.8929 16.5163 19.6584C16.8372 19.4019 17.0442 19.2365 17.1885 19.1425C17.3124 19.0618 17.4065 19.0006 17.4882 18.9498L17.5 18.9424L17.5119 18.9498C17.5936 19.0006 17.6876 19.0618 17.8116 19.1425C17.9558 19.2365 18.1629 19.4019 18.4837 19.6584C18.777 19.8929 19.138 20.1802 19.5117 20.4356C19.8755 20.6843 20.3232 20.9536 20.7991 21.1098C21.2672 21.2636 21.9682 21.3717 22.6422 20.9824C23.3997 20.5449 23.602 19.7758 23.6772 19.2473C23.7502 18.7336 23.7501 18.0733 23.75 17.3658L23.75 9.7537C23.8998 9.76998 24.0454 9.78782 24.1869 9.80738C25.7439 10.0225 26.6277 10.4233 27.2736 11.087C27.924 11.7554 28.3203 12.6778 28.5317 14.2943C28.7475 15.9434 28.75 18.1177 28.75 21.1799V23.8214C28.75 26.8837 28.7475 29.0579 28.5317 30.707C28.3203 32.3236 27.924 33.2459 27.2736 33.9143C26.6277 34.578 25.7439 34.9788 24.1869 35.1939C22.5903 35.4145 20.4826 35.4173 17.5 35.4173C14.5174 35.4173 12.4097 35.4145 10.8131 35.1939C9.25612 34.9788 8.37227 34.578 7.72645 33.9143C7.07599 33.2459 6.67975 32.3236 6.46826 30.707C6.25252 29.0579 6.25 26.8837 6.25 23.8214V21.1799C6.25 18.1177 6.25252 15.9434 6.46826 14.2943C6.67975 12.6778 7.07599 11.7554 7.72645 11.087ZM21.25 9.61016C20.1767 9.58464 18.9404 9.58398 17.5 9.58398C16.0596 9.58398 14.8233 9.58464 13.75 9.61016V17.2828C13.75 17.8604 13.7515 18.2678 13.7681 18.5684C13.8597 18.5153 13.9628 18.4501 14.0776 18.3717C14.3636 18.1762 14.656 17.9449 14.9553 17.7057L15.02 17.6539C15.2774 17.4478 15.573 17.2112 15.8241 17.0477L15.8597 17.0245C16.0697 16.8876 16.3009 16.7369 16.516 16.6273C16.7694 16.4982 17.0972 16.373 17.5 16.373C17.9029 16.373 18.2306 16.4982 18.484 16.6273C18.6991 16.7369 18.9303 16.8876 19.1404 17.0245L19.176 17.0477C19.427 17.2112 19.7226 17.4478 19.9801 17.6539L20.0448 17.7057C20.3441 17.9449 20.6365 18.1762 20.9224 18.3717C21.0372 18.4501 21.1404 18.5153 21.2319 18.5684C21.2485 18.2678 21.25 17.8604 21.25 17.2828V9.61016Z" fill="#3EB9B5"/>
</svg>
