<svg width="56" height="56" viewBox="0 0 56 56" fill="none" xmlns="http://www.w3.org/2000/svg">
<path opacity="0.4" d="M7 27.9993C7 16.9999 7 11.5002 9.90452 8.0831C12.809 4.66602 17.4838 4.66602 26.8333 4.66602C36.1829 4.66602 40.9776 4.66638 43.8821 8.08346C46.7866 11.5006 46.7866 17.0003 46.7866 27.9997C46.7866 28.8305 46.7866 29.6299 46.7854 30.3994C45.3536 28.9194 43.3468 27.9993 41.125 27.9993H40.5417C36.1924 27.9993 32.6667 31.5251 32.6667 35.8743C32.6667 38.4932 33.945 40.8135 35.9118 42.2452L34.5519 46.527C34.0333 48.16 33.7739 48.9766 33.8449 49.4852C33.9552 50.2764 34.4656 50.9153 35.1421 51.1888C32.8976 51.333 30.2088 51.333 26.9533 51.333C17.6038 51.333 12.809 51.3327 9.90453 47.9156C7 44.4985 7 38.9988 7 27.9993Z" fill="#3EB9B5"/>
<path d="M26.6809 2.91602H26.9858C31.5311 2.91596 35.1511 2.91592 37.988 3.36464C40.9399 3.83156 43.2825 4.81676 45.0955 6.94972C46.5263 8.63297 47.3162 10.6662 47.7683 13.128C48.2149 15.56 48.3505 18.5235 48.395 22.1445C48.4069 23.1109 47.6331 23.904 46.6666 23.9159C45.7002 23.9278 44.9071 23.154 44.8953 22.1875C44.8508 18.5764 44.714 15.8739 44.3258 13.7601C43.9431 11.6761 43.3361 10.2839 42.4287 9.21649C41.3372 7.93237 39.8902 7.20903 37.4412 6.82167C34.9089 6.42113 31.566 6.41602 26.8333 6.41602C22.1007 6.41602 18.7578 6.42113 16.2255 6.82167C13.7765 7.20903 12.3294 7.93237 11.2379 9.21649C10.1115 10.5417 9.44793 12.3673 9.10175 15.3965C8.7527 18.4509 8.75 22.4574 8.75 27.9994C8.75 33.5413 8.7527 37.5478 9.10175 40.6022C9.44793 43.6314 10.1115 45.457 11.2379 46.7822C12.3294 48.0663 13.7765 48.7897 16.2255 49.177C18.7578 49.5776 22.1007 49.5827 26.8333 49.5827C27.7998 49.5827 28.5833 50.3662 28.5833 51.3327C28.5833 52.2992 27.7998 53.0827 26.8333 53.0827H26.6808C22.1356 53.0827 18.5156 53.0828 15.6787 52.6341C12.7267 52.1671 10.3842 51.182 8.57113 49.049C6.79301 46.9571 6.00433 44.3243 5.62438 40.9996C5.24997 37.7232 5.24998 33.5168 5.25 28.1149V27.8838C5.24998 22.4819 5.24997 18.2755 5.62438 14.9992C6.00433 11.6744 6.79301 9.04163 8.57113 6.94972C10.3841 4.81676 12.7267 3.83156 15.6787 3.36464C18.5156 2.91592 22.1356 2.91596 26.6809 2.91602Z" fill="#3EB9B5"/>
<path d="M16.9167 18.666C16.9167 17.6995 17.7002 16.916 18.6667 16.916H35C35.9665 16.916 36.75 17.6995 36.75 18.666C36.75 19.6325 35.9665 20.416 35 20.416H18.6667C17.7002 20.416 16.9167 19.6325 16.9167 18.666Z" fill="#3EB9B5"/>
<path d="M16.9167 30.3327C16.9167 29.3662 17.7002 28.5827 18.6667 28.5827H25.6667C26.6332 28.5827 27.4167 29.3662 27.4167 30.3327C27.4167 31.2992 26.6332 32.0827 25.6667 32.0827H18.6667C17.7002 32.0827 16.9167 31.2992 16.9167 30.3327Z" fill="#3EB9B5"/>
<path fill-rule="evenodd" clip-rule="evenodd" d="M40.5417 26.2493C35.2259 26.2493 30.9167 30.5586 30.9167 35.8744C30.9167 38.6106 32.0598 41.08 33.8897 42.8307L32.8681 46.0474C32.6223 46.8212 32.4152 47.4732 32.2819 47.9938C32.1553 48.4885 32.0253 49.1078 32.1116 49.7269C32.3707 51.5839 33.9158 53.0755 35.8681 53.0827C36.5184 53.085 37.1224 52.843 37.5701 52.6419C38.0474 52.4275 38.6371 52.118 39.3284 51.7552L39.3778 51.7293C40.0683 51.367 40.2113 51.3003 40.3354 51.2629C40.6614 51.1646 41.0052 51.1646 41.3313 51.2629C41.4554 51.3003 41.5984 51.367 42.2888 51.7293L42.3381 51.7551C43.0295 52.118 43.6193 52.4275 44.0965 52.6419C44.5443 52.843 45.1482 53.085 45.7986 53.0827C47.7509 53.0755 49.296 51.5839 49.555 49.7269C49.6414 49.1078 49.5114 48.4885 49.3847 47.9938C49.2515 47.4733 49.0444 46.8214 48.7987 46.0478L47.777 42.8307C49.6069 41.08 50.75 38.6106 50.75 35.8744C50.75 30.5586 46.4407 26.2493 41.125 26.2493H40.5417ZM36.2198 47.0567L36.9363 44.8008C38.0505 45.2512 39.2681 45.4993 40.5417 45.4993H41.125C42.3986 45.4993 43.6161 45.2512 44.7304 44.8008L45.4469 47.0567C45.7128 47.894 45.8886 48.4499 45.9941 48.8618C46.0612 49.124 46.0769 49.2478 46.0814 49.2834C46.0422 49.4673 45.9259 49.5496 45.84 49.5742C45.7891 49.557 45.6907 49.5211 45.5306 49.4492C45.1633 49.2842 44.6695 49.026 43.9152 48.6301L43.8072 48.5734C43.2852 48.2989 42.8282 48.0587 42.3419 47.912C41.3568 47.6149 40.3099 47.6149 39.3248 47.912C38.8385 48.0586 38.3815 48.2989 37.8595 48.5734L37.7514 48.6301C36.9971 49.026 36.5034 49.2842 36.136 49.4492C35.976 49.5211 35.8775 49.557 35.8266 49.5742C35.7407 49.5496 35.6244 49.4679 35.5852 49.284C35.5897 49.2483 35.6055 49.1238 35.6726 48.8618C35.7781 48.4499 35.9539 47.894 36.2198 47.0567ZM34.4167 35.8744C34.4167 32.4916 37.1589 29.7493 40.5417 29.7493H41.125C44.5077 29.7493 47.25 32.4916 47.25 35.8744C47.25 37.91 46.2587 39.7139 44.725 40.8304C43.7146 41.5659 42.473 41.9993 41.125 41.9993H40.5417C39.1937 41.9993 37.952 41.5659 36.9417 40.8304C35.4079 39.7139 34.4167 37.91 34.4167 35.8744Z" fill="#3EB9B5"/>
</svg>
