<svg width="40" height="40" viewBox="0 0 40 40" fill="none" xmlns="http://www.w3.org/2000/svg">
<path opacity="0.4" d="M34.9976 21.6846C34.4303 23.0781 31.8167 25.8374 25.8365 25.8374C25.3342 25.8374 24.0164 26.3429 24.0846 29.0812C24.1124 31.5562 23.2103 36.4525 19.4258 36.6637C18.6759 36.6673 17.8606 36.6673 16.9697 36.6673C13.9712 36.6673 12.472 36.6673 11.2746 36.247C9.34961 35.5712 7.83121 34.1422 7.11323 32.3304C6.66663 31.2035 6.66663 29.7924 6.66663 26.9703L6.66663 11.6673C6.66663 10.1185 6.66663 9.34404 6.79473 8.70005C7.32077 6.05544 9.38809 3.98813 12.0327 3.46208C12.6767 3.33398 13.4511 3.33398 15 3.33398L22.1212 3.33398C27.5565 3.33399 30.2742 3.33399 32.1615 4.66371C32.7023 5.0447 33.1823 5.49653 33.5871 6.00547C35 7.78177 35 10.3396 35 15.4552V19.6976C35 20.4093 35 21.0696 34.9976 21.6846Z" fill="#3EB9B5"/>
<path d="M12.9167 3.33398C12.9167 2.64363 12.357 2.08398 11.6667 2.08398C10.9763 2.08398 10.4167 2.64363 10.4167 3.33398V8.75065H5C4.30964 8.75065 3.75 9.31029 3.75 10.0007C3.75 10.691 4.30964 11.2507 5 11.2507H10.4167V16.6673C10.4167 17.3577 10.9763 17.9173 11.6667 17.9173C12.357 17.9173 12.9167 17.3577 12.9167 16.6673V11.2507H18.3333C19.0237 11.2507 19.5833 10.691 19.5833 10.0007C19.5833 9.31029 19.0237 8.75065 18.3333 8.75065H12.9167V3.33398Z" fill="#3EB9B5"/>
<path fill-rule="evenodd" clip-rule="evenodd" d="M16.9682 37.9156C13.8317 37.9156 12.2567 37.9156 10.8584 37.424C8.59009 36.6273 6.80176 34.939 5.94843 32.789C5.41343 31.4406 5.41341 29.9457 5.41341 26.969V19.999C5.41341 19.309 5.97341 18.749 6.66341 18.749C7.35341 18.749 7.91341 19.309 7.91341 19.999V26.969C7.91341 29.629 7.91342 30.964 8.27175 31.869C8.85675 33.3456 10.1017 34.5107 11.6851 35.0673C12.6817 35.4173 14.1134 35.4173 16.9667 35.4173C17.4238 35.4173 17.8607 35.4173 18.2783 35.4168C18.2966 35.416 18.3149 35.4156 18.3333 35.4156C20.7067 35.4156 22.6383 33.484 22.6383 31.1107C22.6383 30.8438 22.625 30.5563 22.611 30.2522L22.6079 30.1858C22.5663 29.2782 22.5193 28.2505 22.775 27.2906C23.1467 25.904 24.2383 24.8123 25.625 24.4423C26.5867 24.184 27.6183 24.2323 28.5283 24.2757L28.579 24.278C28.8854 24.2922 29.1764 24.3056 29.445 24.3056C31.7617 24.3056 33.6575 22.4651 33.7467 20.1698L33.7467 15.4556C33.7467 10.6373 33.7467 8.21897 32.6051 6.78398C32.2734 6.36731 31.8817 5.99898 31.4367 5.68565C29.8751 4.58398 27.2818 4.58398 22.1168 4.58398H21.6617C20.9717 4.58398 20.4117 4.02398 20.4117 3.33398C20.4117 2.64398 20.9717 2.08398 21.6617 2.08398H22.1168C27.8084 2.08398 30.6668 2.08398 32.8767 3.64231C33.5151 4.09231 34.0817 4.62565 34.5601 5.22732C36.2451 7.34564 36.2451 10.0556 36.2451 15.4556L36.2451 19.889C36.2483 19.9258 36.25 19.963 36.25 20.0007C36.25 20.0883 36.2483 20.1757 36.245 20.2626C36.2438 24.9812 36.2123 27.4267 35.3751 29.5373C33.9834 33.0473 31.0568 35.8073 27.3451 37.1107C25.2653 37.8406 22.8566 37.91 18.4296 37.9166C18.397 37.9171 18.3644 37.9173 18.3317 37.9173C17.8959 37.9179 17.4413 37.9173 16.9652 37.9173L16.9682 37.9156ZM26.5201 34.7523C25.7383 35.0264 24.8442 35.1875 23.7061 35.2822C24.6024 34.1297 25.1367 32.6824 25.1367 31.1123C25.1367 30.7947 25.1223 30.4699 25.1082 30.1526L25.105 30.0806L25.1047 30.0751C25.0698 29.3135 25.0337 28.5259 25.19 27.939C25.3317 27.414 25.745 26.999 26.2717 26.859C26.8518 26.7024 27.6308 26.7382 28.3862 26.7728L28.4117 26.774L28.4786 26.777C28.7977 26.7911 29.1257 26.8056 29.445 26.8056C31.0339 26.8056 32.4974 26.2583 33.6569 25.3421C33.5692 26.7307 33.3959 27.7529 33.0534 28.6173C31.9301 31.4523 29.5484 33.689 26.5201 34.7523Z" fill="#3EB9B5"/>
</svg>
