<svg width="56" height="56" viewBox="0 0 56 56" fill="none" xmlns="http://www.w3.org/2000/svg">
<path opacity="0.4" d="M22.1576 51.3327L33.8243 51.3327C40.4239 51.3327 43.7238 51.3327 45.774 49.2805C47.8243 47.2284 47.8243 43.9254 47.8243 37.3196L47.8243 22.1389C47.8243 15.5331 47.8243 12.2302 45.774 10.178C44.2789 8.68148 42.1193 8.27628 38.5 8.16657C38.4997 10.4216 36.6626 12.8327 34.4076 12.8327L21.5743 12.8327C19.3191 12.8327 17.5 10.4212 17.5 8.16602C13.8698 8.27492 11.7055 8.67897 10.2078 10.178C8.15759 12.2302 8.15759 15.5331 8.15759 22.1389L8.15759 37.3196C8.15759 43.9254 8.15759 47.2284 10.2078 49.2805C12.2581 51.3327 15.5579 51.3327 22.1576 51.3327Z" fill="#3EB9B5"/>
<path d="M13.4167 23.3327C13.4167 22.3662 14.2002 21.5827 15.1667 21.5827H24.5C25.4665 21.5827 26.25 22.3662 26.25 23.3327C26.25 24.2992 25.4665 25.0827 24.5 25.0827H15.1667C14.2002 25.0827 13.4167 24.2992 13.4167 23.3327Z" fill="#3EB9B5"/>
<path d="M41.4176 22.6494C42.3287 22.3268 42.8056 21.3266 42.483 20.4156C42.1603 19.5045 41.1602 19.0276 40.2491 19.3502C39.1242 19.7486 38.0798 20.495 37.1961 21.27C36.2941 22.061 35.458 22.9727 34.7543 23.8163C34.4133 24.2251 34.0983 24.624 33.8167 24.9938C33.6109 24.8012 33.4046 24.6385 33.1999 24.5021C32.8291 24.2549 32.4813 24.106 32.1813 24.0203C32.0326 23.9778 31.8989 23.9518 31.7837 23.9364C31.7385 23.9304 31.6181 23.9234 31.5458 23.9192L31.5 23.9165C30.5335 23.9165 29.75 24.7 29.75 25.6665C29.75 26.5408 30.3913 27.2654 31.2291 27.3956L31.2425 27.4039L31.2585 27.4142C31.3884 27.5009 31.7886 27.8234 32.2681 28.7824C32.5502 29.3466 33.114 29.7153 33.7439 29.7475C34.3736 29.7798 34.9726 29.4698 35.3109 28.9376L35.3165 28.9288L35.3432 28.8875C35.3677 28.8498 35.4055 28.7921 35.4555 28.7171C35.5556 28.5668 35.7043 28.3475 35.8936 28.0793C36.2735 27.5412 36.8107 26.8149 37.4419 26.0584C38.0764 25.2977 38.7844 24.5324 39.5038 23.9015C40.2413 23.2547 40.8955 22.8343 41.4176 22.6494Z" fill="#3EB9B5"/>
<path d="M13.4167 37.3327C13.4167 36.3662 14.2002 35.5827 15.1667 35.5827L24.5 35.5827C25.4665 35.5827 26.25 36.3662 26.25 37.3327C26.25 38.2992 25.4665 39.0827 24.5 39.0827L15.1667 39.0827C14.2002 39.0827 13.4167 38.2992 13.4167 37.3327Z" fill="#3EB9B5"/>
<path d="M41.4176 36.6494C42.3287 36.3268 42.8056 35.3266 42.483 34.4156C42.1603 33.5045 41.1602 33.0276 40.2491 33.3502C39.1242 33.7486 38.0798 34.495 37.1961 35.2701C36.2941 36.061 35.458 36.9727 34.7543 37.8163C34.4133 38.2251 34.0983 38.624 33.8167 38.9938C33.6109 38.8012 33.4046 38.6385 33.1999 38.5021C32.8291 38.2549 32.4813 38.106 32.1813 38.0203C32.0326 37.9778 31.8989 37.9518 31.7837 37.9364C31.7262 37.9287 31.6735 37.9238 31.6261 37.9207C31.6094 37.9196 31.5933 37.9188 31.5779 37.9181C31.5715 37.9179 31.5652 37.9176 31.559 37.9174L31.5284 37.9167L31.514 37.9165L31.5069 37.9165L31.5035 37.9165L31.5 37.9165C30.5335 37.9165 29.75 38.7 29.75 39.6665C29.75 40.5408 30.3913 41.2654 31.2291 41.3956C31.2366 41.4001 31.2452 41.4055 31.255 41.412C31.2562 41.4127 31.2573 41.4135 31.2585 41.4142C31.3884 41.5009 31.7886 41.8234 32.2681 42.7824C32.5502 43.3466 33.114 43.7153 33.7439 43.7475C34.3736 43.7798 34.9726 43.4698 35.3109 42.9376L35.3165 42.9288L35.3432 42.8875C35.3677 42.8498 35.4055 42.7921 35.4555 42.7171C35.5556 42.5668 35.7043 42.3475 35.8936 42.0793C36.2735 41.5412 36.8107 40.8149 37.4419 40.0584C38.0764 39.2977 38.7844 38.5324 39.5038 37.9015C40.2413 37.2547 40.8955 36.8343 41.4176 36.6494Z" fill="#3EB9B5"/>
<path fill-rule="evenodd" clip-rule="evenodd" d="M39.7779 6.46785C42.7963 6.63645 45.216 7.14264 47.012 8.94034C48.4162 10.3458 49.0201 12.1153 49.3024 14.2171C49.5744 16.2417 49.5743 18.816 49.5743 22.0102V37.4467C49.5743 40.641 49.5744 43.2153 49.3024 45.2399C49.0201 47.3416 48.4162 49.1111 47.012 50.5166C45.6076 51.9223 43.8391 52.5271 41.7386 52.8097C39.7155 53.082 37.1434 53.0819 33.9525 53.0819L22.0295 53.0819C18.8385 53.0819 16.2663 53.082 14.2433 52.8097C12.1427 52.5271 10.3742 51.9223 8.96984 50.5166C7.56565 49.1111 6.96176 47.3416 6.67946 45.2399C6.40751 43.2153 6.40755 40.641 6.40759 37.4469L6.40759 22.0101C6.40755 18.8159 6.40751 16.2416 6.67945 14.2171C6.96176 12.1153 7.56565 10.3458 8.96984 8.94034C10.7659 7.14263 13.1855 6.63645 16.204 6.46785C17.0921 4.37998 19.1622 2.91602 21.5743 2.91602L34.4076 2.91602C36.8196 2.91602 38.8898 4.37998 39.7779 6.46785ZM15.875 9.99862C13.4065 10.1848 12.2426 10.6166 11.4459 11.4141C10.7998 12.0607 10.3786 12.9688 10.1483 14.683C9.91131 16.4474 9.9076 18.7857 9.9076 22.1381L9.9076 37.3189C9.9076 40.6712 9.91131 43.0095 10.1483 44.7739C10.3786 46.4882 10.7998 47.3962 11.4459 48.0429C12.0917 48.6893 12.9982 49.1106 14.7101 49.341C16.4724 49.5782 18.8082 49.5819 22.1576 49.5819L33.8243 49.5819C37.1736 49.5819 39.5094 49.5782 41.2718 49.341C42.9836 49.1106 43.8901 48.6893 44.536 48.0429C45.1821 47.3962 45.6033 46.4882 45.8336 44.7739C46.0705 43.0096 46.0743 40.6712 46.0743 37.3189V22.1381C46.0743 18.7857 46.0705 16.4474 45.8336 14.683C45.6033 12.9688 45.1821 12.0607 44.536 11.4141C43.7392 10.6166 42.5754 10.1848 40.1068 9.99862C39.5349 12.62 37.2005 14.5827 34.4076 14.5827L21.5743 14.5827C18.7814 14.5827 16.447 12.62 15.875 9.99862ZM19.2409 8.74935C19.2409 7.46068 20.2856 6.41602 21.5743 6.41602L34.4076 6.41602C35.6963 6.41602 36.7409 7.46068 36.7409 8.74935C36.7409 10.038 35.6963 11.0827 34.4076 11.0827L21.5743 11.0827C20.2856 11.0827 19.2409 10.038 19.2409 8.74935Z" fill="#3EB9B5"/>
</svg>
