<svg width="48" height="51" viewBox="0 0 48 51" fill="none" xmlns="http://www.w3.org/2000/svg">
<path opacity="0.4" d="M4.9135 5.05799C1.83569 7.44993 1.83569 11.2997 1.83569 18.9993V32.9994C1.83569 40.6989 1.83569 44.5486 4.9135 46.9408C7.9913 49.3327 12.9449 49.3327 22.8522 49.3327C32.7594 49.3327 37.7133 49.3327 40.791 46.9408C43.8688 44.5486 43.8688 40.6989 43.8688 32.9994V18.9993C43.8688 16.3159 43.8688 14.1 43.7385 12.2506C42.5373 12.9771 41.0035 13.7521 39.3827 14.4786L37.472 22.7901C37.3417 23.3692 37.041 23.9105 36.5396 24.2556C33.1629 26.5806 27.3699 26.5806 23.9932 24.2556C23.4918 23.9105 23.1911 23.3692 23.0608 22.7901L21.1592 13.7691C18.2384 12.3398 15.8467 10.8204 15.8467 9.95768C15.8467 8.1235 26.6576 3.3211 30.3794 2.72666C28.246 2.66602 25.7628 2.66602 22.8522 2.66602C12.9449 2.66602 7.9913 2.66602 4.9135 5.05799Z" fill="#3EB9B5"/>
<path d="M20.554 50.9649H25.2347C34.5353 50.9649 39.202 50.9649 42.457 47.7052C45.5207 44.6345 45.6887 40.0542 45.7097 32.8326C45.712 31.8666 44.9303 31.0802 43.9643 31.0779H43.9597C42.996 31.0779 42.212 31.8595 42.2097 32.8232C42.1887 39.7579 41.9623 43.2439 39.979 45.2319C37.7507 47.4649 33.567 47.4649 25.2347 47.4649H20.554C12.2193 47.4649 8.03566 47.4649 5.80733 45.2319C3.57666 42.9965 3.57666 38.8036 3.57666 30.4526V21.0725C3.57666 12.7215 3.57666 8.53089 5.80733 6.29555C6.953 5.14989 8.563 4.56887 11.363 4.2912C12.3267 4.19553 13.029 3.34154 12.9333 2.37788C12.8377 1.41421 11.9813 0.711882 11.02 0.807549C7.38 1.16688 5.08166 2.06753 3.33166 3.8222C0.0766602 7.08186 0.0766602 11.7579 0.0766602 21.0725V30.4526C0.0766602 39.7672 0.0766602 44.4432 3.33166 47.7052C6.58665 50.9649 11.2534 50.9649 20.554 50.9649Z" fill="#3EB9B5"/>
<path fill-rule="evenodd" clip-rule="evenodd" d="M29.8168 27.6282C29.8494 27.6306 29.8844 27.6306 29.9171 27.6306V27.6352H29.9614C33.3518 27.5489 35.7224 27.1476 37.7921 25.3486C39.0474 24.2566 39.8338 22.6699 40.1954 20.5022L41.0028 15.6746C41.0098 15.6349 41.0144 15.5952 41.0191 15.5556C41.9104 15.1379 42.6921 14.7413 43.3781 14.3563V22.3852C43.3781 23.3512 44.1621 24.1352 45.1281 24.1352C46.0941 24.1352 46.8781 23.3512 46.8781 22.3852V11.7172C47.1231 11.4419 47.3401 11.1595 47.5384 10.8679C48.1754 9.91121 47.9538 8.61155 47.0204 7.89988C42.5801 4.56788 39.1058 2.93453 32.7264 1.17987C31.6578 0.883534 30.5261 0.878909 29.4574 1.16358C22.6231 2.97658 18.9598 4.71257 14.9441 8.04224C14.3048 8.5719 14.0178 9.42359 14.2161 10.2169C14.5988 11.7266 15.8494 12.9119 18.8151 14.4285C18.8268 14.5172 18.8454 14.6082 18.8711 14.6969L21.2114 22.8636C21.2418 22.9686 21.2814 23.0712 21.3304 23.1692C23.0758 26.6272 25.5584 27.3856 29.8168 27.6282ZM24.5316 21.7384C25.3943 23.3848 26.2849 23.9137 29.9451 24.1306C32.9971 24.0489 34.3504 23.6989 35.4961 22.7049C36.1144 22.1682 36.5228 21.2582 36.7444 19.9236L37.1994 17.2099C36.2988 17.5786 35.3211 17.9659 34.2594 18.3789C32.2178 19.1723 29.9638 19.1606 27.9151 18.3462C26.0391 17.5996 24.4034 16.9369 22.9824 16.3349L24.5316 21.7384ZM20.2361 11.2225C19.1744 10.6695 18.5421 10.2496 18.1641 9.94855H18.1664C21.4121 7.45889 24.5831 6.07757 30.3604 4.54457C30.8294 4.41857 31.3264 4.42091 31.8001 4.55158C37.1411 6.02158 40.1581 7.32589 43.6558 9.77589C43.5904 9.87622 43.5344 9.98592 43.4924 10.1003C41.8288 11.4256 38.7044 12.8956 32.9924 15.1122C31.7768 15.5836 30.4304 15.5766 29.2054 15.0889C25.2971 13.5349 22.2754 12.2842 20.2361 11.2225Z" fill="#3EB9B5"/>
</svg>
