<svg width="56" height="56" viewBox="0 0 56 56" fill="none" xmlns="http://www.w3.org/2000/svg">
<path opacity="0.4" d="M5.83337 28.0007C5.83337 17.5512 5.83337 12.3265 9.07961 9.08022C12.3258 5.83398 17.5506 5.83398 28 5.83398C38.4495 5.83398 43.6742 5.83398 46.9205 9.08022C50.1667 12.3265 50.1667 17.5512 50.1667 28.0007C50.1667 38.4501 50.1667 43.6749 46.9205 46.9211C43.6742 50.1673 38.4495 50.1673 28 50.1673C17.5506 50.1673 12.3258 50.1673 9.07961 46.9211C5.83337 43.6749 5.83337 38.4501 5.83337 28.0007Z" fill="#3EB9B5"/>
<path d="M29.75 16.334C29.75 15.3675 28.9665 14.584 28 14.584C27.0335 14.584 26.25 15.3675 26.25 16.334V39.6673C26.25 40.6338 27.0335 41.4173 28 41.4173C28.9665 41.4173 29.75 40.6338 29.75 39.6673V16.334Z" fill="#3EB9B5"/>
<path d="M18.0834 30.334C18.0834 29.3675 17.2999 28.584 16.3334 28.584C15.3669 28.584 14.5834 29.3675 14.5834 30.334V39.6673C14.5834 40.6338 15.3669 41.4173 16.3334 41.4173C17.2999 41.4173 18.0834 40.6338 18.0834 39.6673V30.334Z" fill="#3EB9B5"/>
<path d="M39.6667 23.9173C40.6332 23.9173 41.4167 24.7008 41.4167 25.6673V39.6673C41.4167 40.6338 40.6332 41.4173 39.6667 41.4173C38.7002 41.4173 37.9167 40.6338 37.9167 39.6673V25.6673C37.9167 24.7008 38.7002 23.9173 39.6667 23.9173Z" fill="#3EB9B5"/>
<path fill-rule="evenodd" clip-rule="evenodd" d="M28.1334 4.08398H27.8666C22.755 4.08395 18.7401 4.08393 15.6054 4.50537C12.3932 4.93724 9.84463 5.84032 7.84217 7.84278C5.83971 9.84524 4.93663 12.3938 4.50476 15.606C4.08332 18.7407 4.08334 22.7556 4.08337 27.8672V28.1341C4.08334 33.2457 4.08332 37.2606 4.50476 40.3953C4.93663 43.6075 5.83971 46.1561 7.84217 48.1585C9.84463 50.161 12.3932 51.0641 15.6054 51.4959C18.7401 51.9174 22.755 51.9173 27.8666 51.9173H28.1334C33.245 51.9173 37.26 51.9174 40.3946 51.4959C43.6069 51.0641 46.1554 50.161 48.1579 48.1585C50.1604 46.1561 51.0634 43.6075 51.4953 40.3953C51.9168 37.2606 51.9167 33.2457 51.9167 28.1341V27.8673C51.9167 22.7556 51.9168 18.7407 51.4953 15.606C51.0634 12.3938 50.1604 9.84524 48.1579 7.84278C46.1554 5.84032 43.6069 4.93724 40.3946 4.50537C37.26 4.08393 33.2451 4.08395 28.1334 4.08398ZM10.317 10.3177C11.5608 9.07388 13.2477 8.35385 16.0718 7.97416C18.9462 7.5877 22.7258 7.58399 28 7.58399C33.2742 7.58399 37.0539 7.5877 39.9283 7.97416C42.7524 8.35385 44.4393 9.07388 45.683 10.3177C46.9268 11.5614 47.6468 13.2483 48.0265 16.0724C48.413 18.9468 48.4167 22.7264 48.4167 28.0007C48.4167 33.2749 48.413 37.0545 48.0265 39.9289C47.6468 42.753 46.9268 44.4399 45.683 45.6836C44.4393 46.9274 42.7524 47.6475 39.9283 48.0271C37.0539 48.4136 33.2742 48.4173 28 48.4173C22.7258 48.4173 18.9462 48.4136 16.0718 48.0271C13.2477 47.6475 11.5608 46.9274 10.317 45.6836C9.07327 44.4399 8.35324 42.753 7.97355 39.9289C7.58709 37.0545 7.58338 33.2749 7.58338 28.0007C7.58338 22.7264 7.58709 18.9468 7.97355 16.0724C8.35324 13.2483 9.07327 11.5614 10.317 10.3177Z" fill="#3EB9B5"/>
</svg>
