<svg width="40" height="40" viewBox="0 0 40 40" fill="none" xmlns="http://www.w3.org/2000/svg">
<g clip-path="url(#clip0_557_6895)">
<g clip-path="url(#clip1_557_6895)">
<g clip-path="url(#clip2_557_6895)">
<path d="M32.8025 13.9025L24.3185 6.83C23.7004 6.32322 22.9812 5.90997 22.193 5.60875C22.1405 5.58625 22.094 5.55875 22.043 5.54C21.0898 5.18581 20.0582 5.00187 19.0145 5H11C9.4087 5 7.88258 5.52678 6.75736 6.46447C5.63214 7.40215 5 8.67392 5 10V30C5 31.3261 5.63214 32.5979 6.75736 33.5355C7.88258 34.4732 9.4087 35 11 35H29C30.5913 35 32.1174 34.4732 33.2426 33.5355C34.3679 32.5979 35 31.3261 35 30V18.3212C34.9974 17.4526 34.7761 16.5942 34.3505 15.8012C34.3264 15.7581 34.2988 15.7163 34.268 15.6763C33.907 15.0185 33.411 14.4182 32.8025 13.9025ZM29.879 15H26C25.2044 15 24.4413 14.7366 23.8787 14.2678C23.3161 13.7989 23 13.163 23 12.5V9.2675L29.879 15ZM32 30C32 30.663 31.6839 31.2989 31.1213 31.7678C30.5587 32.2366 29.7956 32.5 29 32.5H11C10.2044 32.5 9.44129 32.2366 8.87868 31.7678C8.31607 31.2989 8 30.663 8 30V10C8 9.33696 8.31607 8.70107 8.87868 8.23223C9.44129 7.76339 10.2044 7.5 11 7.5H19.0145C19.3463 7.50212 19.6768 7.53482 20 7.5975V12.5C20 13.8261 20.6321 15.0979 21.7574 16.0355C22.8826 16.9732 24.4087 17.5 26 17.5H31.88C31.9568 17.7691 31.9971 18.0446 32 18.3212V30Z" fill="url(#paint0_linear_557_6895)"/>
<path d="M23.875 21.375H21.625V19.125C21.625 18.8266 21.5065 18.5405 21.2955 18.3295C21.0845 18.1185 20.7984 18 20.5 18C20.2016 18 19.9155 18.1185 19.7045 18.3295C19.4935 18.5405 19.375 18.8266 19.375 19.125V21.375H17.125C16.8266 21.375 16.5405 21.4935 16.3295 21.7045C16.1185 21.9155 16 22.2016 16 22.5C16 22.7984 16.1185 23.0845 16.3295 23.2955C16.5405 23.5065 16.8266 23.625 17.125 23.625H19.375V25.875C19.375 26.1734 19.4935 26.4595 19.7045 26.6705C19.9155 26.8815 20.2016 27 20.5 27C20.7984 27 21.0845 26.8815 21.2955 26.6705C21.5065 26.4595 21.625 26.1734 21.625 25.875V23.625H23.875C24.1734 23.625 24.4595 23.5065 24.6705 23.2955C24.8815 23.0845 25 22.7984 25 22.5C25 22.2016 24.8815 21.9155 24.6705 21.7045C24.4595 21.4935 24.1734 21.375 23.875 21.375Z" fill="url(#paint1_linear_557_6895)"/>
</g>
</g>
</g>
<defs>
<linearGradient id="paint0_linear_557_6895" x1="-56.7586" y1="68.7255" x2="30.647" y2="-12.8968" gradientUnits="userSpaceOnUse">
<stop offset="0.588191" stop-color="#2C65AA"/>
<stop offset="0.893191" stop-color="#3FB6B4"/>
</linearGradient>
<linearGradient id="paint1_linear_557_6895" x1="-2.52759" y1="37.1176" x2="23.6941" y2="12.631" gradientUnits="userSpaceOnUse">
<stop offset="0.588191" stop-color="#2C65AA"/>
<stop offset="0.893191" stop-color="#3FB6B4"/>
</linearGradient>
<clipPath id="clip0_557_6895">
<rect width="40" height="40" fill="white"/>
</clipPath>
<clipPath id="clip1_557_6895">
<rect width="40" height="40" fill="white"/>
</clipPath>
<clipPath id="clip2_557_6895">
<rect width="40" height="40" fill="white"/>
</clipPath>
</defs>
</svg>
