<svg width="44" height="40" viewBox="0 0 44 40" fill="none" xmlns="http://www.w3.org/2000/svg">
<g opacity="0.4">
<path d="M17.5853 5.95823C20.7993 9.17023 20.7993 14.3782 17.5853 17.5902C14.3733 20.8042 9.16527 20.8042 5.95327 17.5902C1.10527 12.7442 2.07534 2.0802 2.07534 2.0802C2.07534 2.0802 12.7393 1.11023 17.5853 5.95823Z" fill="#3EB9B5"/>
<path d="M38.4781 21.8579C35.6241 24.7139 30.9941 24.7139 28.1381 21.8579C25.2821 19.0019 25.2821 14.3719 28.1381 11.5179C32.4461 7.20788 41.9262 8.06988 41.9262 8.06988C41.9262 8.06988 42.7881 17.5499 38.4781 21.8579Z" fill="#3EB9B5"/>
</g>
<path d="M4.89199 18.6499C6.76799 20.5279 9.26998 21.4878 11.784 21.4878C13.2717 21.4878 14.7626 21.1517 16.1287 20.4694C18.349 24.6523 20.4945 30.6082 20.4945 38C20.4945 38.8105 21.1384 39.4715 21.9422 39.4991C21.9601 39.4997 21.978 39.5 21.9961 39.5V39.498C22.8241 39.498 23.4961 38.826 23.4961 37.998C23.4961 25.016 34.6901 17.34 34.8301 17.246C35.5181 16.786 35.7041 15.8541 35.2441 15.1661C34.7841 14.4761 33.8541 14.29 33.1641 14.75C33.0504 14.8258 30.7379 16.3828 28.1122 19.2958C27.009 17.1105 27.3823 14.3949 29.2011 12.5761C31.1091 10.6681 34.3653 9.94412 36.7613 9.67212C38.2313 9.50412 39.5673 9.4841 40.4933 9.5021C40.5093 10.4281 40.4892 11.7661 40.3232 13.2341C40.0532 15.6321 39.3273 18.8881 37.4193 20.7961C36.2713 21.9441 34.6893 22.5641 33.0613 22.4941H32.9972C32.1972 22.4941 31.5332 23.1241 31.4992 23.9301C31.4632 24.7581 32.1052 25.4561 32.9332 25.4921C33.0572 25.4981 33.1812 25.5001 33.3052 25.5001V25.4981C35.6352 25.4981 37.8892 24.5681 39.5392 22.9161C44.2912 18.1661 43.4593 8.34808 43.4213 7.93208C43.3553 7.21008 42.7852 6.64013 42.0632 6.57413C41.6492 6.53813 31.8293 5.70411 27.0793 10.4561C24.0027 13.5327 23.6539 18.2974 26.0977 21.755C24.5237 23.878 23.2694 26.1195 22.3501 28.4373C21.2982 24.1285 19.667 20.5539 18.0867 17.8135C18.0386 17.6922 17.9739 17.5752 17.892 17.4659C17.8808 17.4509 17.8694 17.4362 17.8578 17.4218C17.6576 17.0835 17.4587 16.7589 17.2625 16.448C14.1725 11.554 11.0845 8.95397 10.9545 8.84597C10.3185 8.31797 9.3745 8.40397 8.8445 9.03797C8.3145 9.67197 8.39859 10.618 9.03259 11.15C9.03259 11.15 9.03639 11.1533 9.04158 11.1578C9.21815 11.311 11.9072 13.6437 14.6112 17.8702C12.1018 19.0361 9.03117 18.5508 7.01191 16.5298C4.82591 14.3458 3.99999 10.6359 3.69199 7.90786C3.49399 6.15186 3.47986 4.56186 3.50586 3.51186C4.55586 3.48586 6.14595 3.49985 7.90195 3.69785C10.63 4.00585 14.34 4.83387 16.526 7.01987C18.028 8.51987 18.7359 10.6738 18.4199 12.7778C18.2959 13.5978 18.8599 14.3618 19.6799 14.4838C20.4979 14.6078 21.2619 14.0439 21.3859 13.2239C21.8439 10.1799 20.8179 7.06785 18.6459 4.89785C13.3639 -0.38815 2.40384 0.543839 1.93984 0.585839C1.21784 0.651839 0.647835 1.22385 0.581835 1.94385C0.537835 2.40785 -0.392009 13.3679 4.89199 18.6499Z" fill="#3EB9B5"/>
</svg>
