<svg width="36" height="44" viewBox="0 0 36 44" fill="none" xmlns="http://www.w3.org/2000/svg">
<path opacity="0.4" d="M4.15186 32C2.17909 7.09005 19.8247 0.0241958 33.9469 2.44834C34.517 10.7037 30.4778 13.795 22.7854 15.2225C24.2708 16.7746 26.8955 18.7278 26.6124 21.1694C26.4109 22.9069 25.2309 23.7594 22.8711 25.4643C17.6995 29.2007 11.7086 31.5569 4.15186 32Z" fill="#3EB9B5"/>
<path fill-rule="evenodd" clip-rule="evenodd" d="M34.2006 0.970457C26.8377 -0.293402 18.4397 0.891328 12.097 5.78695C5.88168 10.5843 1.89124 18.7478 2.57627 30.9393C1.30553 34.0514 0.5 37.6965 0.5 42C0.5 42.8285 1.17157 43.5 2 43.5C2.82843 43.5 3.5 42.8285 3.5 42C3.5 38.7574 4.00249 35.9355 4.83895 33.4587C12.4081 32.911 18.4901 30.4804 23.7494 26.6807L23.8454 26.6113C24.943 25.8185 25.9242 25.1098 26.6352 24.3661C27.4377 23.5267 27.958 22.5869 28.1023 21.3427C28.3145 19.5129 27.4161 18.0069 26.5237 16.9141C26.2856 16.6226 26.0342 16.3439 25.783 16.0804C28.529 15.3238 30.8519 14.2039 32.5476 12.4341C34.8383 10.0433 35.746 6.72861 35.4433 2.34548C35.3956 1.65545 34.8823 1.08747 34.2006 0.970457ZM6.15138 30.3261C12.4397 29.6235 17.5303 27.4728 21.9925 24.2489C23.216 23.365 23.9682 22.8145 24.4668 22.293C24.8945 21.8456 25.065 21.4904 25.1222 20.9971C25.1932 20.3853 24.9207 19.694 24.2001 18.8117C23.8519 18.3853 23.4425 17.9669 23.0022 17.5373C22.8836 17.4216 22.7589 17.3015 22.6321 17.1794C22.3147 16.8737 21.9833 16.5545 21.7015 16.2601C21.3206 15.862 21.1885 15.2871 21.3576 14.7626C21.5267 14.2382 21.9698 13.8487 22.5115 13.7482C26.2651 13.0516 28.8129 11.9957 30.3814 10.3586C31.729 8.95213 32.5325 6.92156 32.4992 3.74724C26.064 2.91063 19.1246 4.15233 13.93 8.16181C9.52764 11.5598 6.20626 17.0805 5.59905 25.4426C8.25765 21.6701 11.4809 18.9532 14.0469 16.8418C14.6866 16.3154 15.6319 16.4072 16.1583 17.0469C16.6847 17.6866 16.5928 18.6319 15.9531 19.1583C12.7075 21.829 8.7251 25.2299 6.15138 30.3261Z" fill="#3EB9B5"/>
</svg>
