<svg width="44" height="44" viewBox="0 0 44 44" fill="none" xmlns="http://www.w3.org/2000/svg">
<path opacity="0.4" fill-rule="evenodd" clip-rule="evenodd" d="M4.96126 10.1686C2.96476 11.2796 2 12.7458 2 15.1381C2 15.7869 2 16.1112 2.07084 16.3779C2.44304 17.7789 3.71254 18 4.93857 18H6V35H8C4.68629 35 2 37.6863 2 41C2 41.5523 2.44771 42 3 42H20V35H14V18H39.0614C40.2875 18 41.557 17.7789 41.9292 16.3779C42 16.1112 42 15.7869 42 15.1381C42 12.7458 41.0352 11.2796 39.0387 10.1686L30.8202 5.59488C26.5138 3.19829 24.3606 2 22 2C19.6394 2 17.4862 3.1983 13.1797 5.59489L4.96126 10.1686Z" fill="#3EB9B5"/>
<path fill-rule="evenodd" clip-rule="evenodd" d="M13.9095 6.90559C16.0875 5.6935 17.63 4.83694 18.9203 4.27331C20.1809 3.72269 21.0977 3.5 22.0003 3.5C22.9029 3.5 23.8197 3.72269 25.0803 4.27331C26.3707 4.83694 27.9131 5.69349 30.0911 6.90559L38.3096 11.4793C39.1533 11.9488 39.6691 12.4316 39.9878 12.954C40.3032 13.4711 40.5003 14.1493 40.5003 15.1381C40.5003 15.476 40.5 15.6797 40.493 15.8334C40.488 15.9445 40.4807 15.987 40.4792 15.9947C40.4399 16.142 40.3926 16.2064 40.3679 16.2347C40.3414 16.2649 40.2968 16.3034 40.2054 16.3442C39.9859 16.4419 39.6233 16.5 39.0618 16.5H4.93889C4.37734 16.5 4.01477 16.4419 3.79528 16.3442C3.70388 16.3034 3.65922 16.2649 3.63276 16.2347C3.60804 16.2064 3.56079 16.142 3.52139 15.9947C3.51991 15.987 3.51267 15.9445 3.50764 15.8334C3.50068 15.6797 3.50032 15.476 3.50032 15.1381C3.50032 14.1493 3.6974 13.4711 4.0128 12.954C4.33151 12.4316 4.84733 11.9488 5.691 11.4793L13.9095 6.90559ZM22.0003 0.5C20.5423 0.5 19.2023 0.876457 17.7195 1.52413C16.2815 2.15224 14.6139 3.08027 12.5165 4.24754L12.5165 4.24756L4.23216 8.85786C3.07934 9.49942 2.11453 10.3052 1.45173 11.3917C0.785626 12.4836 0.500321 13.7346 0.500321 15.1381L0.500161 15.2703C0.499233 15.7812 0.498291 16.2994 0.621449 16.763C0.931366 17.9296 1.66989 18.6815 2.5744 19.0845C3.22038 19.3723 3.9106 19.4649 4.5 19.4909V34.365C2.1211 35.6225 0.5 38.122 0.5 41C0.5 42.3807 1.61929 43.5 3 43.5H20C20.8284 43.5 21.5 42.8284 21.5 42C21.5 41.1716 20.8284 40.5 20 40.5H3.52746C3.77619 38.25 5.68372 36.5 8 36.5H20C20.8284 36.5 21.5 35.8284 21.5 35C21.5 34.1716 20.8284 33.5 20 33.5H15.5V19.5H39.0618C39.7262 19.5 40.6114 19.4475 41.4262 19.0845C42.3308 18.6815 43.0693 17.9296 43.3792 16.763C43.5023 16.2994 43.5014 15.7812 43.5005 15.2703L43.5003 15.1381C43.5003 13.7346 43.215 12.4836 42.5489 11.3917C41.8861 10.3052 40.9213 9.49942 39.7685 8.85786L31.4842 4.24757C29.3867 3.08029 27.7192 2.15225 26.2812 1.52413C24.7984 0.876457 23.4583 0.5 22.0003 0.5ZM8 33.5C7.83199 33.5 7.66526 33.5055 7.5 33.5164V19.5H12.5V33.5H8ZM39.9393 25.9393L25.9393 39.9393C25.3536 40.5251 25.3536 41.4749 25.9393 42.0607C26.5251 42.6464 27.4749 42.6464 28.0607 42.0607L42.0607 28.0607C42.6464 27.4749 42.6464 26.5251 42.0607 25.9393C41.4749 25.3536 40.5251 25.3536 39.9393 25.9393ZM25.5 28.5C25.5 26.8431 26.8431 25.5 28.5 25.5C30.1569 25.5 31.5 26.8431 31.5 28.5C31.5 30.1569 30.1569 31.5 28.5 31.5C26.8431 31.5 25.5 30.1569 25.5 28.5ZM39.5 36.5C37.8431 36.5 36.5 37.8431 36.5 39.5C36.5 41.1569 37.8431 42.5 39.5 42.5C41.1569 42.5 42.5 41.1569 42.5 39.5C42.5 37.8431 41.1569 36.5 39.5 36.5Z" fill="#3EB9B5"/>
</svg>
