<svg width="40" height="44" viewBox="0 0 40 44" fill="none" xmlns="http://www.w3.org/2000/svg">
<path opacity="0.4" d="M8 2L20 2C24.964 2 26 3.036 26 8L26 42H19L19 34C19 32.1144 19 31.1716 18.4142 30.5858C17.8284 30 16.8856 30 15 30H13C11.1144 30 10.1716 30 9.58579 30.5858C9 31.1716 9 32.1144 9 34L9 42H2L2 8C2 3.036 3.036 2 8 2Z" fill="#3EB9B5"/>
<path d="M10.5 10C10.5 9.17157 11.1716 8.5 12 8.5H16C16.8284 8.5 17.5 9.17157 17.5 10C17.5 10.8284 16.8284 11.5 16 11.5H12C11.1716 11.5 10.5 10.8284 10.5 10Z" fill="#3EB9B5"/>
<path d="M10.5 16C10.5 15.1716 11.1716 14.5 12 14.5H16C16.8284 14.5 17.5 15.1716 17.5 16C17.5 16.8284 16.8284 17.5 16 17.5H12C11.1716 17.5 10.5 16.8284 10.5 16Z" fill="#3EB9B5"/>
<path d="M10.5 22C10.5 21.1716 11.1716 20.5 12 20.5H16C16.8284 20.5 17.5 21.1716 17.5 22C17.5 22.8284 16.8284 23.5 16 23.5H12C11.1716 23.5 10.5 22.8284 10.5 22Z" fill="#3EB9B5"/>
<path fill-rule="evenodd" clip-rule="evenodd" d="M8 0.5C6.72654 0.5 5.60197 0.564468 4.64647 0.774372C3.67398 0.98801 2.78345 1.37223 2.07784 2.07784C1.37223 2.78345 0.98801 3.67398 0.774373 4.64647C0.564467 5.60197 0.5 6.72654 0.5 8L0.5 42C0.5 42.8284 1.17157 43.5 2 43.5L38 43.5C38.8284 43.5 39.5 42.8284 39.5 42V20C39.5 18.7265 39.4355 17.602 39.2256 16.6465C39.012 15.674 38.6278 14.7834 37.9222 14.0778C37.2166 13.3722 36.326 12.988 35.3535 12.7744C34.398 12.5645 33.2735 12.5 32 12.5H27.5V8C27.5 6.72654 27.4355 5.60197 27.2256 4.64647C27.012 3.67398 26.6278 2.78345 25.9222 2.07784C25.2166 1.37223 24.326 0.98801 23.3535 0.774372C22.398 0.564468 21.2735 0.5 20 0.5L8 0.5ZM24.5 40.5H20.5L20.5 33.9105C20.5001 33.0449 20.5002 32.2512 20.4134 31.6056C20.3178 30.8946 20.0929 30.1432 19.4749 29.5251C18.8568 28.9071 18.1054 28.6822 17.3944 28.5866C16.7488 28.4998 15.9551 28.4999 15.0895 28.5H12.9105C12.0449 28.4999 11.2512 28.4998 10.6056 28.5866C9.89464 28.6822 9.14319 28.9071 8.52514 29.5251C7.90709 30.1432 7.6822 30.8946 7.58661 31.6056C7.49981 32.2512 7.49991 33.0449 7.50001 33.9105L7.50001 40.5H3.5L3.5 8C3.5 6.79146 3.56503 5.92503 3.7045 5.29016C3.84024 4.67227 4.02527 4.37305 4.19916 4.19916C4.37305 4.02527 4.67227 3.84024 5.29016 3.7045C5.92503 3.56503 6.79146 3.5 8 3.5L20 3.5C21.2085 3.5 22.075 3.56503 22.7098 3.7045C23.3277 3.84024 23.6269 4.02527 23.8008 4.19916C23.9747 4.37305 24.1598 4.67228 24.2955 5.29016C24.435 5.92503 24.5 6.79146 24.5 8L24.5 40.5ZM10.5 40.5L10.5 34C10.5 33.0148 10.5032 32.4268 10.5599 32.0053C10.5858 31.8122 10.6164 31.7155 10.6343 31.6719C10.6385 31.6619 10.6417 31.6552 10.6437 31.6514L10.6465 31.6465L10.6514 31.6437C10.6552 31.6417 10.6619 31.6385 10.6719 31.6343C10.7155 31.6164 10.8122 31.5858 11.0053 31.5599C11.4268 31.5032 12.0148 31.5 13 31.5H15C15.9852 31.5 16.5732 31.5032 16.9947 31.5599C17.1878 31.5858 17.2845 31.6164 17.3281 31.6343C17.3382 31.6385 17.3448 31.6417 17.3487 31.6437L17.3535 31.6465L17.3563 31.6514C17.3583 31.6552 17.3615 31.6619 17.3657 31.6719C17.3836 31.7155 17.4142 31.8122 17.4402 32.0053C17.4968 32.4268 17.5 33.0148 17.5 34L17.5 40.5L10.5 40.5ZM27.5 15.5H32C33.2085 15.5 34.075 15.565 34.7098 15.7045C35.3277 15.8402 35.6269 16.0253 35.8008 16.1992C35.9747 16.3731 36.1598 16.6723 36.2955 17.2902C36.435 17.925 36.5 18.7915 36.5 20V40.5H27.5L27.5 15.5Z" fill="#3EB9B5"/>
</svg>
