<svg width="44" height="44" viewBox="0 0 44 44" fill="none" xmlns="http://www.w3.org/2000/svg">
<g opacity="0.4">
<path d="M2 10C2 6.6669 2 5.00036 2.84881 3.83207C3.12294 3.45476 3.45476 3.12294 3.83207 2.84881C5.00036 2 6.6669 2 10 2C13.3331 2 14.9996 2 16.1679 2.84881C16.5452 3.12294 16.8771 3.45476 17.1512 3.83207C18 5.00036 18 6.6669 18 10C18 13.3331 18 14.9996 17.1512 16.1679C16.8771 16.5452 16.5452 16.8771 16.1679 17.1512C14.9996 18 13.3331 18 10 18C6.6669 18 5.00036 18 3.83207 17.1512C3.45476 16.8771 3.12294 16.5452 2.84881 16.1679C2 14.9996 2 13.3331 2 10Z" fill="#3EB9B5"/>
<path d="M27.2341 7.53311C29.2549 4.33175 30.2653 2.73108 31.5893 2.24889C32.5005 1.91704 33.4995 1.91704 34.4107 2.24889C35.7347 2.73108 36.7451 4.33175 38.7659 7.5331C41.0404 11.1364 42.1777 12.9382 41.9774 14.4248C41.84 15.4445 41.3269 16.376 40.5386 17.0367C39.3893 18 37.2596 18 33 18C28.7404 18 26.6107 18 25.4614 17.0367C24.6731 16.376 24.16 15.4445 24.0226 14.4248C23.8223 12.9382 24.9596 11.1365 27.2341 7.53311Z" fill="#3EB9B5"/>
<path d="M33 42C37.4183 42 41 38.4183 41 34C41 29.5817 37.4183 26 33 26C28.5817 26 25 29.5817 25 34C25 38.4183 28.5817 42 33 42Z" fill="#3EB9B5"/>
</g>
<path fill-rule="evenodd" clip-rule="evenodd" d="M10.0834 0.500001H9.91664C8.32104 0.499968 7.00311 0.49994 5.94267 0.614832C4.83573 0.734761 3.83286 0.994143 2.95039 1.63529C2.44574 2.00194 2.00194 2.44574 1.63529 2.95039C0.994143 3.83286 0.734761 4.83573 0.614832 5.94267C0.49994 7.00311 0.499968 8.32101 0.500001 9.9166V10.0834C0.499968 11.679 0.49994 12.9969 0.614832 14.0573C0.734761 15.1643 0.994143 16.1672 1.63529 17.0496C2.00194 17.5543 2.44574 17.9981 2.95039 18.3647C3.83286 19.0059 4.83573 19.2652 5.94267 19.3852C7.00309 19.5001 8.32095 19.5 9.91651 19.5H10.0834C11.679 19.5 12.9969 19.5001 14.0573 19.3852C15.1643 19.2652 16.1671 19.0059 17.0496 18.3647C17.5543 17.9981 17.9981 17.5543 18.3647 17.0496C19.0059 16.1672 19.2652 15.1643 19.3852 14.0573C19.5001 12.9969 19.5 11.679 19.5 10.0834V9.91667C19.5 8.32108 19.5001 7.0031 19.3852 5.94266C19.2652 4.83573 19.0059 3.83286 18.3647 2.95039C17.9981 2.44574 17.5543 2.00194 17.0496 1.63529C16.1671 0.994143 15.1643 0.734761 14.0573 0.614832C12.9969 0.49994 11.679 0.499968 10.0834 0.500001ZM4.71375 4.06234C4.99957 3.85468 5.41412 3.68965 6.2658 3.59738C7.14556 3.50206 8.30004 3.5 10 3.5C11.7 3.5 12.8544 3.50206 13.7342 3.59738C14.5859 3.68965 15.0004 3.85468 15.2863 4.06234C15.5362 4.24395 15.7561 4.46378 15.9377 4.71375C16.1453 4.99957 16.3104 5.41412 16.4026 6.2658C16.4979 7.14556 16.5 8.30004 16.5 10C16.5 11.7 16.4979 12.8544 16.4026 13.7342C16.3104 14.5859 16.1453 15.0004 15.9377 15.2863C15.7561 15.5362 15.5362 15.7561 15.2863 15.9377C15.0004 16.1453 14.5859 16.3104 13.7342 16.4026C12.8544 16.4979 11.7 16.5 10 16.5C8.30004 16.5 7.14556 16.4979 6.2658 16.4026C5.41412 16.3104 4.99957 16.1453 4.71375 15.9377C4.46378 15.7561 4.24395 15.5362 4.06234 15.2863C3.85468 15.0004 3.68965 14.5859 3.59738 13.7342C3.50206 12.8544 3.5 11.7 3.5 10C3.5 8.30004 3.50206 7.14556 3.59738 6.2658C3.68965 5.41412 3.85468 4.99957 4.06234 4.71375C4.24395 4.46378 4.46378 4.24395 4.71375 4.06234Z" fill="#3EB9B5"/>
<path fill-rule="evenodd" clip-rule="evenodd" d="M34.924 0.839452C33.6812 0.386851 32.3188 0.386851 31.076 0.839452C30.0154 1.22573 29.2177 2.01531 28.4899 2.94926C27.7732 3.86882 26.9826 5.12136 26.0092 6.66344L25.9207 6.80367C24.8216 8.54488 23.9359 9.94798 23.3588 11.1016C22.779 12.2606 22.3738 13.4216 22.536 14.6251C22.7233 16.0152 23.4229 17.2853 24.4978 18.1863C25.4286 18.9664 26.6265 19.2438 27.9156 19.3722C29.1988 19.5 30.8575 19.5 32.9157 19.5H33.0843C35.1425 19.5 36.8012 19.5 38.0844 19.3722C39.3734 19.2438 40.5714 18.9664 41.5022 18.1863C42.5771 17.2853 43.2767 16.0152 43.464 14.6251C43.6261 13.4216 43.221 12.2606 42.6412 11.1016C42.0641 9.94799 41.1784 8.54491 40.0793 6.80372L39.9907 6.66339C39.0174 5.12135 38.2267 3.8688 37.5101 2.94926C36.7822 2.01531 35.9846 1.22573 34.924 0.839452ZM32.1026 3.65833C32.6823 3.44723 33.3177 3.44723 33.8974 3.65833C34.1607 3.75424 34.5303 4.00609 35.1438 4.79337C35.7579 5.58135 36.47 6.70618 37.4974 8.33378C38.652 10.1629 39.456 11.4398 39.9582 12.4438C40.4656 13.4582 40.529 13.9413 40.4908 14.2245C40.4034 14.8737 40.0766 15.4667 39.575 15.8871C39.3565 16.0703 38.915 16.2746 37.7869 16.387C36.6705 16.4982 35.1623 16.5 33 16.5C30.8377 16.5 29.3295 16.4982 28.213 16.387C27.085 16.2746 26.6434 16.0703 26.425 15.8871C25.9233 15.4667 25.5966 14.8737 25.5091 14.2245C25.471 13.9413 25.5343 13.4582 26.0418 12.4438C26.544 11.4398 27.3479 10.1629 28.5025 8.33378C29.5299 6.70618 30.2421 5.58135 30.8562 4.79337C31.4697 4.00609 31.8393 3.75424 32.1026 3.65833Z" fill="#3EB9B5"/>
<path fill-rule="evenodd" clip-rule="evenodd" d="M23.5 34C23.5 28.7533 27.7533 24.5 33 24.5C38.2467 24.5 42.5 28.7533 42.5 34C42.5 39.2467 38.2467 43.5 33 43.5C27.7533 43.5 23.5 39.2467 23.5 34ZM33 27.5C29.4102 27.5 26.5 30.4102 26.5 34C26.5 37.5899 29.4102 40.5 33 40.5C36.5899 40.5 39.5 37.5899 39.5 34C39.5 30.4102 36.5899 27.5 33 27.5Z" fill="#3EB9B5"/>
<path d="M4.06078 25.9393C3.475 25.3536 2.52525 25.3536 1.93946 25.9393C1.35367 26.5251 1.35367 27.4749 1.93945 28.0607L7.87869 33.9999L1.93934 39.9393C1.35355 40.5251 1.35356 41.4749 1.93935 42.0607C2.52513 42.6464 3.47488 42.6464 4.06067 42.0607L10 36.1213L15.9393 42.0607C16.5251 42.6464 17.4749 42.6464 18.0607 42.0607C18.6464 41.4749 18.6464 40.5251 18.0607 39.9393L12.1213 33.9999L18.0606 28.0607C18.6463 27.4749 18.6463 26.5251 18.0605 25.9393C17.4748 25.3536 16.525 25.3536 15.9392 25.9393L10 31.8786L4.06078 25.9393Z" fill="#3EB9B5"/>
</svg>
