<svg width="45" height="42" viewBox="0 0 45 42" fill="none" xmlns="http://www.w3.org/2000/svg">
<path opacity="0.4" d="M37.5987 28.1756L38.7839 21.4268C38.9965 20.2162 39.8065 19.1753 40.9632 18.6264C41.2421 18.4941 41.441 18.2469 41.5021 17.9567C41.8425 16.3415 42.7472 14.0938 40.7238 13.2017C40.2663 13 39.6416 13 38.3921 13L21 13L13 13L5.60795 13C4.35844 13 3.73368 13 3.27623 13.2017C1.25281 14.0938 2.15749 16.3415 2.49788 17.9567C2.55903 18.2469 2.75793 18.4941 3.03683 18.6264C4.19346 19.1753 5.00354 20.2162 5.21613 21.4268L6.40132 28.1756C6.92276 31.1449 7.10104 35.3885 9.7032 37.4805C11.6124 39 14.3632 39 19.8649 39L24.1351 39C29.6368 39 32.3876 39 34.2968 37.4805C36.899 35.3885 37.0772 31.1449 37.5987 28.1756Z" fill="#3EB9B5"/>
<path d="M19.3746 3.60148C19.7067 2.84251 19.3606 1.95807 18.6016 1.62602C17.8426 1.29397 16.9582 1.64006 16.6261 2.39903L12.6445 11.4999L5.56031 11.4999C4.97629 11.4999 4.4641 11.4998 4.04296 11.5286C3.60292 11.5586 3.13204 11.6258 2.67108 11.829C1.89562 12.1709 1.30248 12.6946 0.932099 13.3832C0.575824 14.0455 0.490133 14.7404 0.500859 15.335C0.511512 15.9256 0.619701 16.5031 0.727514 16.9851C0.793297 17.2792 0.84378 17.4818 0.889273 17.6644C0.93772 17.8588 0.980506 18.0306 1.0301 18.2659C1.19235 19.0359 1.71201 19.658 2.39375 19.9815C3.13277 20.3321 3.61429 20.9775 3.73873 21.6861L4.92391 28.435C4.99448 28.8368 5.06337 29.3048 5.13791 29.8112C5.3072 30.9614 5.50564 32.3096 5.81914 33.5301C6.28402 35.3399 7.08723 37.3019 8.76333 38.6494L8.76909 38.654C10.0282 39.6561 11.5043 40.0929 13.2616 40.2997C14.9634 40.4999 17.0996 40.4999 19.7697 40.4999L24 40.4999C24.8284 40.4999 25.5 39.8283 25.5 38.9999C25.5 38.1715 24.8284 37.4999 24 37.4999L19.8649 37.4999C17.0777 37.4999 15.1183 37.4975 13.6122 37.3202C12.1435 37.1474 11.29 36.8251 10.6403 36.3091C9.71581 35.5644 9.12957 34.3595 8.72481 32.7837C8.44966 31.7126 8.29618 30.6611 8.14074 29.5962C8.05976 29.0414 7.97823 28.4829 7.8787 27.9161L6.69352 21.1672C6.40743 19.5382 5.36314 18.1589 3.90695 17.3853C3.86748 17.2155 3.82061 17.0222 3.77667 16.8409C3.72783 16.6395 3.6826 16.4529 3.65516 16.3302C3.56085 15.9086 3.5055 15.5656 3.50037 15.2809C3.4953 15.0001 3.54156 14.8649 3.57411 14.8044C3.59256 14.7701 3.64511 14.6782 3.88136 14.5741C3.88136 14.5741 3.94807 14.542 4.24715 14.5216C4.55372 14.5007 4.96225 14.4999 5.60793 14.4999L11.332 14.4999L9.62613 18.399C9.29408 19.158 9.64017 20.0424 10.3991 20.3745C11.1581 20.7065 12.0426 20.3605 12.3746 19.6015L19.3746 3.60148Z" fill="#3EB9B5"/>
<path d="M29.342 2.32943C28.9715 1.58847 28.0705 1.28813 27.3296 1.65861C26.5886 2.0291 26.2882 2.93011 26.6587 3.67108L30.5731 11.4999L21 11.4999C20.1716 11.4999 19.5 12.1715 19.5 12.9999C19.5 13.8283 20.1716 14.4999 21 14.4999L32.9557 14.4999C32.9862 14.5008 33.0168 14.5008 33.0474 14.4999L38.392 14.4999C39.0377 14.4999 39.4463 14.5007 39.7528 14.5216C40.0496 14.5419 40.1187 14.5741 40.1187 14.5741C40.3549 14.6783 40.4074 14.7701 40.4259 14.8044C40.4584 14.8649 40.5047 15.0001 40.4996 15.2809C40.4945 15.5656 40.4391 15.9086 40.3448 16.3302C40.3174 16.4529 40.2721 16.6395 40.2233 16.8409L40.2228 16.843C40.179 17.0236 40.1323 17.2162 40.093 17.3852C39.2869 17.8134 38.608 18.4261 38.1131 19.1652C37.6521 19.8536 37.8364 20.7853 38.5248 21.2462C39.2131 21.7072 40.1448 21.5229 40.6057 20.8345C40.8414 20.4827 41.1821 20.1827 41.6062 19.9815C42.288 19.658 42.8076 19.0359 42.9699 18.2659C43.0195 18.0306 43.0623 17.8588 43.1107 17.6644C43.1562 17.4819 43.2067 17.2791 43.2725 16.9851C43.3803 16.5031 43.4885 15.9256 43.4991 15.335C43.5098 14.7404 43.4242 14.0455 43.0679 13.3832C42.6975 12.6946 42.1044 12.1709 41.3289 11.829C40.8679 11.6258 40.3971 11.5586 39.957 11.5286C39.5359 11.4998 39.0237 11.4999 38.4397 11.4999L33.9272 11.4999L29.342 2.32943Z" fill="#3EB9B5"/>
<path d="M35 23.4999C35.8284 23.4999 36.5 24.1714 36.5 24.9999L36.5 30.4999L42 30.4999C42.8284 30.4999 43.5 31.1715 43.5 31.9999C43.5 32.8283 42.8284 33.4999 42 33.4999L36.5 33.4999L36.5 38.9999C36.5 39.8283 35.8284 40.4999 35 40.4999C34.1716 40.4999 33.5 39.8283 33.5 38.9999L33.5 33.4999L28 33.4999C27.1716 33.4999 26.5 32.8283 26.5 31.9999C26.5 31.1715 27.1716 30.4999 28 30.4999L33.5 30.4999L33.5 24.9999C33.5 24.1714 34.1716 23.4999 35 23.4999Z" fill="#3EB9B5"/>
</svg>
