<svg width="44" height="44" viewBox="0 0 44 44" fill="none" xmlns="http://www.w3.org/2000/svg">
<path opacity="0.4" d="M12 22.5514V26C11.7855 26.0715 11.5771 26.1403 11.3746 26.2071C7.6968 27.4206 6 27.9805 6 32.3246V42H18V36C18 34.1144 18 33.1716 18.5858 32.5858C19.1716 32 20.1144 32 22 32C23.8856 32 24.8284 32 25.4142 32.5858C26 33.1716 26 34.1144 26 36V42H38V32.3246C38 27.9805 36.3032 27.4206 32.6254 26.2071C32.4229 26.1403 32.2145 26.0715 32 26V22.5514C32 20.3877 32 19.3059 31.5108 18.3985C31.0217 17.4912 30.1232 16.9062 28.3261 15.7362L24.163 13.0258C23.1126 12.3419 22.5874 12 22 12C21.4126 12 20.8874 12.3419 19.837 13.0258L15.6739 15.7362C13.8768 16.9062 12.9783 17.4912 12.4892 18.3985C12 19.3059 12 20.3877 12 22.5514Z" fill="#3EB9B5"/>
<path d="M20 23.9998C20 22.8952 20.8954 21.9998 22 21.9998H22.018C23.1225 21.9998 24.018 22.8952 24.018 23.9998C24.018 25.1043 23.1225 25.9998 22.018 25.9998H22C20.8954 25.9998 20 25.1043 20 23.9998Z" fill="#3EB9B5"/>
<path fill-rule="evenodd" clip-rule="evenodd" d="M23.5 9.46418H30C30.8285 9.46418 31.5 8.7926 31.5 7.96417C31.5 6.49026 31.1415 4.27435 29.2271 3.09554C28.4906 2.64205 27.1118 1.82901 25.7713 1.2439C25.1103 0.955358 24.3783 0.686138 23.6978 0.566806C23.1439 0.469683 22.0294 0.360663 21.2291 1.1657C20.7591 1.63851 20.6085 2.19931 20.5499 2.63796C20.4997 3.0134 20.4999 3.45849 20.5 3.87157L20.5 10.8754C20.4704 10.8899 20.441 10.9045 20.4119 10.9193C20.0035 11.1271 19.5512 11.4217 19.0729 11.7331L14.7996 14.5152C13.9488 15.0692 13.224 15.541 12.6574 15.9916C12.0533 16.472 11.5426 16.9931 11.1688 17.6865C10.7955 18.379 10.6397 19.0933 10.5677 19.8641C10.4999 20.5886 10.5 21.4595 10.5 22.4851V24.9159C9.88354 25.1205 9.29846 25.3199 8.77573 25.5269C7.95917 25.8503 7.1629 26.2404 6.48765 26.8135C5.01372 28.0645 4.5 29.841 4.5 32.3242V40.4998H2C1.17157 40.4998 0.5 41.1713 0.5 41.9998C0.5 42.8282 1.17157 43.4998 2 43.4998H17.9932C17.9955 43.4998 17.9977 43.4998 18 43.4998C18.0023 43.4998 18.0046 43.4998 18.0069 43.4998H25.9932C25.9955 43.4998 25.9977 43.4998 26 43.4998C26.0023 43.4998 26.0046 43.4998 26.0069 43.4998H42C42.8284 43.4998 43.5 42.8282 43.5 41.9998C43.5 41.1713 42.8284 40.4998 42 40.4998H39.5004V32.3242C39.5004 29.841 38.9867 28.0645 37.5128 26.8135C36.8375 26.2404 36.0412 25.8503 35.2247 25.5269C34.7018 25.3198 34.1166 25.1204 33.5 24.9158V22.4851C33.5 21.4595 33.5001 20.5886 33.4324 19.8641C33.3603 19.0933 33.2045 18.379 32.8312 17.6865C32.4574 16.9931 31.9467 16.472 31.3426 15.9916C30.776 15.541 30.0513 15.0692 29.2004 14.5153L24.9271 11.7331C24.4488 11.4217 23.9965 11.1271 23.5881 10.9193C23.559 10.9045 23.5296 10.8899 23.5 10.8755V9.46418ZM22.9437 3.50036C22.9429 3.49948 22.9531 3.49789 22.9768 3.49827C22.9563 3.50144 22.9445 3.50125 22.9437 3.50036ZM23.5007 3.59672C23.795 3.67937 24.1567 3.81247 24.5712 3.99338C25.7146 4.49249 26.95 5.21658 27.6541 5.65009C27.912 5.80893 28.1227 6.08092 28.2693 6.46417H23.5V3.94045C23.5 3.8116 23.5001 3.69844 23.5007 3.59672ZM27.5 40.4998H30.5V22.5511C30.5 21.4418 30.4985 20.7118 30.4454 20.1432C30.3951 19.6053 30.3063 19.325 30.1905 19.1101C30.0751 18.8961 29.892 18.671 29.4753 18.3396C29.0334 17.9882 28.4296 17.5932 27.5077 16.993L23.3446 14.2826C22.7926 13.9232 22.4759 13.7194 22.2277 13.5931C22.1162 13.5364 22.0534 13.5141 22.0225 13.5052C22.0082 13.501 22.0013 13.5 22.0002 13.4998L21.997 13.5003L21.9871 13.5026L21.9775 13.5052C21.9466 13.5141 21.8838 13.5364 21.7723 13.5931C21.5241 13.7194 21.2074 13.9232 20.6554 14.2826L16.4924 16.993C15.5704 17.5932 14.9666 17.9882 14.5247 18.3396C14.108 18.671 13.9249 18.8961 13.8095 19.1101C13.6937 19.325 13.6049 19.6053 13.5546 20.1432C13.5015 20.7118 13.5 21.4418 13.5 22.5511V25.9652C13.5005 25.9884 13.5005 26.0115 13.5 26.0346V40.4998H16.5L16.5 35.9103C16.4999 35.0446 16.4998 34.251 16.5866 33.6054C16.6822 32.8944 16.9071 32.1429 17.5251 31.5249C18.1432 30.9069 18.8946 30.682 19.6056 30.5864C20.2512 30.4996 21.0449 30.4997 21.9105 30.4998H22.0895C22.9551 30.4997 23.7488 30.4996 24.3944 30.5864C25.1054 30.682 25.8568 30.9068 26.4749 31.5249C27.0929 32.1429 27.3178 32.8944 27.4134 33.6054C27.5002 34.251 27.5001 35.0446 27.5 35.9102L27.5 40.4998ZM19.5 40.4998H24.5V35.9998C24.5 35.0146 24.4968 34.4265 24.4402 34.0051C24.4142 33.812 24.3836 33.7153 24.3657 33.6717C24.3615 33.6616 24.3583 33.655 24.3563 33.6511L24.3535 33.6462L24.3487 33.6435C24.3448 33.6415 24.3382 33.6382 24.3281 33.6341C24.2845 33.6162 24.1878 33.5856 23.9947 33.5596C23.5732 33.503 22.9852 33.4998 22 33.4998C21.0148 33.4998 20.4268 33.503 20.0053 33.5596C19.8122 33.5856 19.7155 33.6162 19.6719 33.6341C19.6619 33.6382 19.6552 33.6415 19.6514 33.6435L19.6465 33.6462L19.6437 33.6511C19.6428 33.6528 19.6417 33.6551 19.6403 33.658C19.6387 33.6616 19.6366 33.6661 19.6343 33.6717C19.6164 33.7153 19.5858 33.812 19.5599 34.0051C19.5032 34.4265 19.5 35.0146 19.5 35.9998L19.5 40.4998ZM36.5004 40.4998H33.5V28.0848C33.7177 28.162 33.9235 28.2383 34.12 28.3161C34.8139 28.5909 35.2607 28.837 35.5715 29.1008C36.0698 29.5237 36.5004 30.2243 36.5004 32.3242V40.4998ZM7.5 40.4998H10.5L10.5 28.0849C10.2824 28.1621 10.0768 28.2383 9.8804 28.3161C9.18653 28.5909 8.73975 28.837 8.42891 29.1008C7.93065 29.5237 7.5 30.2243 7.5 32.3242V40.4998Z" fill="#3EB9B5"/>
</svg>
