<svg width="44" height="44" viewBox="0 0 44 44" fill="none" xmlns="http://www.w3.org/2000/svg">
<g opacity="0.4">
<path fill-rule="evenodd" clip-rule="evenodd" d="M9 38L12 27L15 17L22 21.1176L29 17L32 27L35 38L22 31.7826L9 38ZM22 31.7826L32 27L22 21.1176L12 27L22 31.7826Z" fill="#3EB9B5"/>
<path d="M16 12L16 2L28 2L28 12L16 12Z" fill="#3EB9B5"/>
</g>
<path fill-rule="evenodd" clip-rule="evenodd" d="M0.5 42C0.5 41.1716 1.17157 40.5 2 40.5H5.88397L13.984 13.5L5.5 13.5V16C5.5 16.8285 4.82843 17.5 4 17.5C3.17157 17.5 2.5 16.8285 2.5 16L2.5 12C2.5 11.5549 2.69773 11.1327 3.03972 10.8477L15.0295 0.856239C15.1264 0.773922 15.2339 0.703701 15.3497 0.647915C15.3755 0.635494 15.4016 0.623791 15.4282 0.612827C15.5368 0.568005 15.6519 0.535572 15.7716 0.517284C15.846 0.505905 15.9223 0.5 16 0.5L28.004 0.500004C28.0526 0.50013 28.1006 0.502567 28.1479 0.507206C28.4601 0.537769 28.7442 0.664028 28.9705 0.856262L40.9603 10.8477C41.3023 11.1327 41.5 11.5549 41.5 12L41.5 16C41.5 16.8285 40.8284 17.5 40 17.5C39.1716 17.5 38.5 16.8285 38.5 16L38.5 13.5L30.0161 13.5L38.1161 40.5H42C42.8284 40.5 43.5 41.1716 43.5 42C43.5 42.8284 42.8284 43.5 42 43.5L2 43.5C1.17157 43.5 0.5 42.8284 0.5 42ZM14.5 10.5L8.14308 10.5L14.5 5.2026V10.5ZM29.5 10.5L35.8569 10.5L29.5 5.2026L29.5 10.5ZM26.884 13.5L27.6501 16.0536L22 19.3772L16.35 16.0536L17.116 13.5L26.884 13.5ZM15.4624 19.0121L19.0415 21.1174L13.9285 24.1251L15.4624 19.0121ZM24.9585 21.1174L28.5376 19.0121L30.0715 24.1251L24.9585 21.1174ZM31.504 28.9001L33.5233 35.6312L25.4766 31.7828L31.504 28.9001ZM22 30.12L28.8095 26.8633L22 22.8577L15.1905 26.8633L22 30.12ZM18.5234 31.7828L12.496 28.9001L10.4767 35.6312L18.5234 31.7828ZM22 33.4455L9.64753 39.3532C9.54288 39.4032 9.43532 39.4401 9.32674 39.4644L9.01606 40.5L34.984 40.5L34.6733 39.4644C34.5647 39.4401 34.4571 39.4033 34.3525 39.3532L22 33.4455ZM26.5 3.5L26.5 10.5L17.5 10.5L17.5 3.5L26.5 3.5Z" fill="#3EB9B5"/>
</svg>
