<svg width="40" height="44" viewBox="0 0 40 44" fill="none" xmlns="http://www.w3.org/2000/svg">
<path opacity="0.4" d="M13.4713 3.75C8.74032 8.04633 2 15.489 2 23.0205C2 30.4048 8.05887 38 18 38C20.3342 38 22.4544 37.5812 24.3324 36.8448C23.5924 36.6343 22.8154 36.3547 21.9998 36C17.127 25.2821 25.9101 21.1794 33.7041 20.2207C32.3547 13.6865 26.6714 7.51206 22.5287 3.75C19.9593 1.41667 16.0407 1.41667 13.4713 3.75Z" fill="#3EB9B5"/>
<path d="M14.4797 4.86044C16.4772 3.04652 19.5228 3.04652 21.5203 4.86044C24.4554 7.52587 27.9295 11.4035 30.173 15.6949C30.5568 16.4291 31.463 16.7131 32.1972 16.3293C32.9314 15.9455 33.2154 15.0392 32.8316 14.3051C30.3703 9.5969 26.6293 5.44764 23.5371 2.63956C20.3958 -0.213186 15.6042 -0.213186 12.4629 2.63956C10.0505 4.83035 7.08976 7.85426 4.72215 11.3271C2.36777 14.7805 0.5 18.8235 0.5 23.0205C0.5 29.9816 5.37298 37.5531 13.6635 39.4618C14.4708 39.6476 15.2759 39.1438 15.4618 38.3365C15.6476 37.5292 15.1438 36.7241 14.3365 36.5382C7.54282 34.9742 3.5 28.7273 3.5 23.0205C3.5 19.686 5.00239 16.2418 7.20091 13.017C9.38622 9.81156 12.1612 6.96598 14.4797 4.86044Z" fill="#3EB9B5"/>
<path fill-rule="evenodd" clip-rule="evenodd" d="M29.8145 38.6353C27.7038 39.0772 25.305 38.8465 22.6069 37.8586C21.4735 39.2849 20.3525 40.9069 19.3026 42.7442C18.8916 43.4635 17.9753 43.7134 17.256 43.3023C16.5368 42.8913 16.2869 41.9751 16.6979 41.2558C17.8488 39.2416 19.0801 37.4662 20.3255 35.9076C19.1552 33.07 18.8443 30.5445 19.2965 28.3237C19.7893 25.9027 21.1522 24.024 22.9254 22.6125C26.3944 19.8511 31.5658 18.7595 35.7695 18.5337L35.8442 18.5297C36.2712 18.5065 36.7461 18.4808 37.156 18.5223C37.6629 18.5736 38.2334 18.7386 38.7266 19.2142C39.2259 19.6958 39.4085 20.268 39.4696 20.7813C39.5184 21.1908 39.4982 21.6655 39.4804 22.0851L39.4772 22.1608C39.3027 26.3263 38.281 31.4883 35.5364 34.972C34.1326 36.7537 32.2522 38.125 29.8145 38.6353ZM35.9305 21.5294C36.163 21.5169 36.3439 21.5073 36.4988 21.5027C36.4959 21.6486 36.4889 21.8187 36.4798 22.0352C36.3148 25.9752 35.3421 30.371 33.1799 33.1154C32.1302 34.4476 30.8291 35.3579 29.1998 35.699C28 35.9501 26.5314 35.9114 24.7396 35.4011C27.0383 32.9746 29.2355 31.3126 30.8323 30.2481C31.5216 29.7885 31.7079 28.8572 31.2483 28.1679C30.7888 27.4786 29.8575 27.2924 29.1682 27.7519C27.4303 28.9105 25.0572 30.7073 22.58 33.3185C22.0471 31.5558 21.9948 30.1077 22.2362 28.9221C22.5625 27.319 23.4612 26.0205 24.7938 24.9596C27.5366 22.7763 31.9539 21.743 35.9305 21.5294Z" fill="#3EB9B5"/>
</svg>
