<svg width="40" height="44" viewBox="0 0 40 44" fill="none" xmlns="http://www.w3.org/2000/svg">
<path opacity="0.4" d="M12 10C12 9.26451 12 8.60074 12.0087 8H12C9.16111 8.17358 7.35331 8.64985 6.05025 9.95672C4 12.013 4 15.3225 4 21.9415L4 42H15L15 37C15 35.1308 15 34.1962 15.4019 33.5C15.6652 33.0439 16.0439 32.6652 16.5 32.4019C17.1962 32 18.1308 32 20 32C21.8692 32 22.8038 32 23.5 32.4019C23.9561 32.6652 24.3348 33.0439 24.5981 33.5C25 34.1962 25 35.1308 25 37V42H36L36 21.9415C36 15.3225 36 12.013 33.9497 9.95672C32.6467 8.64985 30.8389 8.17358 28 8H27.9913C28 8.60074 28 9.26451 28 10C28 13.7712 28 15.6569 26.8284 16.8284C25.6569 18 23.7712 18 20 18C16.2288 18 14.3431 18 13.1716 16.8284C12 15.6569 12 13.7712 12 10Z" fill="#3EB9B5"/>
<path d="M12 22C10.8954 22 10 22.8954 10 24C10 25.1046 10.8954 26 12 26H12.0179C13.1225 26 14.0179 25.1046 14.0179 24C14.0179 22.8954 13.1225 22 12.0179 22H12Z" fill="#3EB9B5"/>
<path d="M19.9821 22C18.8775 22 17.9821 22.8954 17.9821 24C17.9821 25.1046 18.8775 26 19.9821 26H20C21.1046 26 22 25.1046 22 24C22 22.8954 21.1046 22 20 22H19.9821Z" fill="#3EB9B5"/>
<path d="M27.9844 22C26.8798 22 25.9844 22.8954 25.9844 24C25.9844 25.1046 26.8798 26 27.9844 26H28.0023C29.1069 26 30.0023 25.1046 30.0023 24C30.0023 22.8954 29.1069 22 28.0023 22H27.9844Z" fill="#3EB9B5"/>
<path d="M21.5 7C21.5 6.17157 20.8284 5.5 20 5.5C19.1716 5.5 18.5 6.17157 18.5 7L18.5 8.5H17C16.1716 8.5 15.5 9.17157 15.5 10C15.5 10.8284 16.1716 11.5 17 11.5H18.5V13C18.5 13.8284 19.1716 14.5 20 14.5C20.8284 14.5 21.5 13.8284 21.5 13V11.5H23C23.8284 11.5 24.5 10.8284 24.5 10C24.5 9.17157 23.8284 8.5 23 8.5H21.5L21.5 7Z" fill="#3EB9B5"/>
<path fill-rule="evenodd" clip-rule="evenodd" d="M19.896 0.500002H20.104C21.9009 0.499946 23.3994 0.499898 24.589 0.659829C25.8446 0.828638 26.9782 1.19998 27.8891 2.11092C28.8 3.02186 29.1714 4.15546 29.3402 5.41105C29.3902 5.78303 29.4246 6.18521 29.4482 6.61728C31.7245 6.87243 33.5734 7.45487 35.012 8.89766C36.3615 10.2511 36.9519 11.9615 37.2304 14.0388C37.5001 16.0503 37.5 18.6152 37.5 21.8302V40.5H38C38.8284 40.5 39.5 41.1716 39.5 42C39.5 42.8284 38.8284 43.5 38 43.5H36.0123L36 43.5001L4 43.5001L3.98768 43.5H2C1.17157 43.5 0.5 42.8284 0.5 42C0.5 41.1716 1.17157 40.5 2 40.5H2.5L2.5 21.8303C2.49997 18.6152 2.49994 16.0503 2.76958 14.0388C3.04805 11.9615 3.63854 10.2511 4.98804 8.89766C6.42663 7.45487 8.27547 6.87243 10.5518 6.61728C10.5754 6.18521 10.6098 5.78303 10.6598 5.41105C10.8286 4.15546 11.2 3.02186 12.1109 2.11092C13.0219 1.19998 14.1555 0.828638 15.411 0.659829C16.6006 0.499898 18.0991 0.499946 19.896 0.500002ZM29.5 9.64713C31.2233 9.88194 32.1871 10.3134 32.8875 11.0159C33.5883 11.7187 34.0229 12.6912 34.257 14.4374C34.4968 16.2264 34.5 18.5897 34.5 21.9415V40.5H26.5V36.9356C26.5 36.056 26.5001 35.2973 26.4436 34.6747C26.384 34.0163 26.2519 33.3644 25.8971 32.75C25.5022 32.0659 24.9341 31.4978 24.25 31.1029C23.6356 30.7482 22.9837 30.616 22.3253 30.5564C21.7027 30.4999 20.944 30.5 20.0645 30.5H19.9356C19.056 30.5 18.2973 30.4999 17.6747 30.5564C17.0163 30.616 16.3644 30.7482 15.75 31.1029C15.0659 31.4978 14.4978 32.0659 14.1029 32.75C13.7481 33.3644 13.616 34.0163 13.5564 34.6747C13.4999 35.2973 13.5 36.056 13.5 36.9356L13.5 40.5H5.5L5.5 21.9415C5.5 18.5897 5.50317 16.2264 5.74298 14.4374C5.97708 12.6912 6.41171 11.7187 7.11246 11.0159C7.81291 10.3134 8.77673 9.88194 10.5 9.64713L10.5 10.104C10.4999 11.9009 10.4999 13.3994 10.6598 14.589C10.8286 15.8446 11.2 16.9782 12.1109 17.8891C13.0219 18.8 14.1555 19.1714 15.411 19.3402C16.6006 19.5001 18.099 19.5001 19.896 19.5H20.104C21.9009 19.5001 23.3994 19.5001 24.589 19.3402C25.8446 19.1714 26.9782 18.8 27.8891 17.8891C28.8 16.9782 29.1714 15.8446 29.3402 14.589C29.5001 13.3994 29.5001 11.901 29.5 10.1041L29.5 9.64713ZM15.8108 3.63308C14.8879 3.75716 14.4929 3.97161 14.2322 4.23224C13.9716 4.49287 13.7572 4.88787 13.6331 5.81079C13.5032 6.77686 13.5 8.07198 13.5 10C13.5 11.928 13.5032 13.2231 13.6331 14.1892C13.7572 15.1121 13.9716 15.5071 14.2322 15.7678C14.4929 16.0284 14.8879 16.2429 15.8108 16.3669C16.7769 16.4968 18.072 16.5 20 16.5C21.928 16.5 23.2231 16.4968 24.1892 16.3669C25.1121 16.2429 25.5071 16.0284 25.7678 15.7678C26.0284 15.5071 26.2429 15.1121 26.3669 14.1892C26.4968 13.2231 26.5 11.928 26.5 10C26.5 8.07198 26.4968 6.77686 26.3669 5.81079C26.2429 4.88787 26.0284 4.49287 25.7678 4.23224C25.5071 3.97161 25.1121 3.75716 24.1892 3.63308C23.2231 3.50319 21.928 3.50001 20 3.50001C18.072 3.50001 16.7769 3.50319 15.8108 3.63308ZM23.5 37V40.5H16.5V37C16.5 36.0378 16.5014 35.4164 16.5441 34.9455C16.5849 34.4952 16.6538 34.3317 16.701 34.25C16.8326 34.022 17.022 33.8326 17.25 33.701C17.3317 33.6538 17.4952 33.5849 17.9455 33.5441C18.4164 33.5014 19.0378 33.5 20 33.5C20.9622 33.5 21.5836 33.5014 22.0545 33.5441C22.5048 33.5849 22.6683 33.6538 22.75 33.701C22.978 33.8326 23.1674 34.022 23.299 34.25C23.3462 34.3317 23.4151 34.4952 23.4559 34.9455C23.4986 35.4164 23.5 36.0378 23.5 37Z" fill="#3EB9B5"/>
</svg>
