<svg width="44" height="40" viewBox="0 0 44 40" fill="none" xmlns="http://www.w3.org/2000/svg">
<path opacity="0.4" d="M4 38C7 32 9 24 9 12L23 12C23 24 25 32 28 38L4 38Z" fill="#3EB9B5"/>
<path d="M35.5844 5.31936C36.5821 3.90302 37.5079 3.5 38.1662 3.5C38.8278 3.5 39.7638 3.90666 40.7799 5.32791C41.2617 6.00181 42.1986 6.15752 42.8725 5.67571C43.5464 5.19389 43.7021 4.25699 43.2203 3.58309C41.8957 1.73034 40.1638 0.5 38.1662 0.5C36.1677 0.5 34.4447 1.73097 33.1366 3.58484C32.5592 4.38497 32.126 4.49631 31.9701 4.49987C31.8425 4.50279 31.4475 4.44146 30.9039 3.66763L30.8967 3.65749C29.5715 1.80393 27.8395 0.5744 25.8383 0.5744C23.8371 0.5744 22.1051 1.80393 20.7799 3.65749C20.2981 4.33139 20.4538 5.26829 21.1277 5.75011C21.8016 6.23192 22.7385 6.07621 23.2203 5.40231C24.2359 3.98186 25.1717 3.5744 25.8383 3.5744C26.5042 3.5744 27.4387 3.981 28.4531 5.39776C29.3206 6.63011 30.5421 7.53332 32.0387 7.49909C33.509 7.46546 34.7092 6.53558 35.5756 5.33167L35.5844 5.31936Z" fill="#3EB9B5"/>
<path fill-rule="evenodd" clip-rule="evenodd" d="M9.00033 10.5C8.1719 10.5 7.50033 11.1716 7.50033 12C7.50033 23.2699 5.71186 30.8436 3.06023 36.5H2C1.17157 36.5 0.5 37.1716 0.5 38C0.5 38.8284 1.17157 39.5 2 39.5H3.96785C3.98876 39.5004 4.00964 39.5004 4.03049 39.5L27.9702 39.5C27.991 39.5004 28.0119 39.5004 28.0328 39.5H40C40.8284 39.5 41.5 38.8284 41.5 38C41.5 37.1716 40.8284 36.5 40 36.5H38.3841C35.3277 33.0332 33.8925 29.841 33.1763 27.1115C32.5878 24.8687 32.4778 22.9484 32.3817 21.2703C32.3571 20.8408 32.3334 20.4271 32.3028 20.028C32.243 19.2463 31.5912 18.6426 30.8072 18.6426H24.7295C24.5796 16.5811 24.5003 14.3725 24.5003 12C24.5003 11.1716 23.8288 10.5 23.0003 10.5L9.00033 10.5ZM30.2745 27.8728C30.9608 30.4884 32.2067 33.4074 34.519 36.5H28.9404C27.1277 32.6331 25.7183 27.87 25.008 21.6426H29.3961C29.4906 23.2962 29.6417 25.4612 30.2745 27.8728ZM25.654 36.5C23.2218 30.8052 21.6526 23.5318 21.5108 13.5L10.4898 13.5C10.3481 23.5318 8.77882 30.8052 6.34666 36.5L25.654 36.5Z" fill="#3EB9B5"/>
</svg>
