<svg width="43" height="43" viewBox="0 0 43 43" fill="none" xmlns="http://www.w3.org/2000/svg">
<path fill-rule="evenodd" clip-rule="evenodd" d="M25.4003 6.74324C25.7817 6.08256 26 5.31638 26 4.5C26 2.018 23.982 0 21.5 0C19.018 0 17 2.018 17 4.5C17 5.31638 17.2183 6.08256 17.5997 6.74324C16.135 7.31095 14.7402 8.20722 13.496 9.43207C11.814 11.0881 9.718 12 7.596 12H5.5C4.672 12 4 12.672 4 13.5C4 14.328 4.672 15 5.5 15H6.0776L2.46004 22.2352C1.69473 22.4482 1.05292 22.8542 0.554786 23.628C-0.507214 25.282 0.158747 26.62 0.864747 28.038C2.38875 31.098 5.31478 33 8.50078 33C11.6868 33 14.6148 31.098 16.1388 28.038C16.8448 26.622 17.5108 25.282 16.4468 23.626C15.951 22.8568 15.313 22.4515 14.5525 22.2379L10.7004 14.5336C12.4859 13.9896 14.165 12.9813 15.6 11.568C16.9184 10.2708 18.4353 9.46597 20 9.15338V40H15.5C14.672 40 14 40.672 14 41.5C14 42.328 14.672 43 15.5 43H27.5C28.328 43 29 42.328 29 41.5C29 40.672 28.328 40 27.5 40H23V9.15338C24.5647 9.46597 26.0816 10.2708 27.4 11.568C28.8376 12.9851 30.5201 13.9941 32.3091 14.537L28.46 22.2352C27.6947 22.4482 27.0529 22.8542 26.5548 23.628C25.4928 25.282 26.1587 26.62 26.8647 28.038C28.3887 31.098 31.3148 33 34.5008 33C37.6868 33 40.6148 31.098 42.1388 28.038C42.8448 26.622 43.5108 25.282 42.4468 23.626C41.951 22.8568 41.313 22.4515 40.5525 22.2379L36.9336 15H37.5C38.328 15 39 14.328 39 13.5C39 12.672 38.328 12 37.5 12H35.404C33.282 12 31.186 11.0881 29.504 9.43207C28.2598 8.20722 26.865 7.31095 25.4003 6.74324ZM20 4.5C20 3.672 20.672 3 21.5 3C22.328 3 23 3.672 23 4.5C23 5.328 22.328 6 21.5 6C20.672 6 20 5.328 20 4.5ZM8.50355 16.854L11.0765 22H5.93062L8.50355 16.854ZM31.9306 22H37.0765L34.5036 16.854L31.9306 22ZM29.0788 25.25C29.2308 25.012 30.0268 25 31.4188 25H37.5848C38.9768 25 39.7728 25.012 39.9248 25.248C39.9948 25.356 40.0027 25.402 40.0027 25.402C40.0187 25.5694 39.6949 26.2197 39.4571 26.6972L39.4548 26.702C38.4408 28.736 36.5447 30 34.5027 30C32.4607 30 30.5648 28.736 29.5508 26.702C29.3128 26.224 28.9867 25.568 29.0027 25.402C29.0027 25.402 29.0108 25.356 29.0788 25.25ZM5.41875 25C4.02675 25 3.23081 25.012 3.07881 25.25C3.01081 25.356 3.00273 25.402 3.00273 25.402C2.98674 25.568 3.31278 26.224 3.55078 26.702C4.56478 28.736 6.46073 30 8.50274 30C10.5447 30 12.4408 28.736 13.4548 26.702L13.4571 26.6974C13.6948 26.2198 14.0187 25.5694 14.0027 25.402C14.0027 25.402 13.9948 25.356 13.9248 25.248C13.7728 25.012 12.9768 25 11.5848 25H5.41875Z" fill="#3EB9B5"/>
</svg>
