<svg width="44" height="44" viewBox="0 0 44 44" fill="none" xmlns="http://www.w3.org/2000/svg">
<path opacity="0.4" d="M17.5976 13.4199L11.8796 15.8801C8.58157 17.3201 6.93364 18.0399 6.29764 19.5199C6.23764 19.6599 6.18363 19.8 6.13963 19.94C5.66563 21.5 6.42955 23.2 7.95955 26.6L8.25955 27.2801C9.28955 29.5601 9.80358 30.72 10.7956 31.36C11.7876 32 13.0436 32 15.5576 32L28.4416 32C30.9556 32 32.2116 32 33.2036 31.36C34.1956 30.72 34.7096 29.5601 35.7396 27.2801L36.0396 26.6C37.5696 23.2 38.3335 21.5 37.8595 19.94C37.8155 19.8 37.7615 19.6599 37.7015 19.5199C37.0655 18.0399 35.4176 17.3201 32.1196 15.8801L26.4015 13.4199C24.2295 12.4799 23.1436 12 21.9996 12C20.8556 12 19.7696 12.4799 17.5976 13.4199Z" fill="#3EB9B5"/>
<path fill-rule="evenodd" clip-rule="evenodd" d="M20.5 4.5V2C20.5 1.172 21.172 0.5 22 0.5C22.828 0.5 23.5 1.172 23.5 2V4.5L26 4.5C30.05 4.5 32.28 4.50002 33.892 6.12402C35.5 7.71602 35.5 9.948 35.5 14L35.5 15.7592C37.3381 16.6662 38.4735 17.5086 39.0827 18.924C39.1687 19.124 39.2387 19.3081 39.2947 19.4881C39.9347 21.5941 39.0447 23.582 37.4247 27.182C37.4195 27.1951 37.4134 27.2082 37.4076 27.2207C37.4045 27.2273 37.4015 27.2338 37.3988 27.24L34.9927 32.61C34.7427 33.166 34.1967 33.4961 33.6227 33.4961L33.6207 33.5C33.4147 33.5 33.2067 33.458 33.0087 33.368C32.2527 33.03 31.9147 32.1419 32.2527 31.3859L33.7247 28.1H30.0007C29.1727 28.1 28.5007 27.428 28.5007 26.6C28.5007 25.772 29.1727 25.1 30.0007 25.1H35.0687C36.2147 22.526 36.6947 21.262 36.4247 20.376C36.4027 20.308 36.3687 20.218 36.3227 20.11C35.9367 19.214 34.5707 18.5859 31.5187 17.2539L25.6767 14.74C23.7687 13.914 22.8108 13.5 21.9988 13.5C21.1881 13.5 20.234 13.9126 18.3304 14.7359L18.3207 14.74L18.1927 14.7961L12.4727 17.258C9.42668 18.588 8.06268 19.2139 7.67668 20.1119C7.63068 20.2179 7.59668 20.3081 7.57268 20.3881C7.30668 21.2621 7.78674 22.526 8.93274 25.098H14.0007C14.8287 25.098 15.5007 25.77 15.5007 26.598C15.5007 27.426 14.8287 28.098 14.0007 28.098H10.2767L11.7488 31.384C12.0868 32.14 11.7487 33.028 10.9927 33.366C10.2367 33.704 9.34867 33.366 9.01067 32.61L6.60471 27.24C6.59471 27.22 6.58673 27.202 6.57873 27.182C4.95873 23.584 4.06871 21.596 4.70471 19.502C4.76471 19.31 4.83267 19.126 4.91867 18.926C5.52676 17.5099 6.6625 16.6673 8.5 15.7605V14C8.5 9.946 8.50002 7.71406 10.116 6.11406C11.718 4.50006 13.95 4.5 18 4.5L20.5 4.5ZM18 7.5L26 7.5C29.488 7.5 31.06 7.53009 31.772 8.24609C32.47 8.93609 32.5 10.51 32.5 14V14.4057L26.9988 12.04L26.8707 11.984C24.6527 11.024 23.4327 10.4961 22.0007 10.4961C20.5687 10.4961 19.3467 11.024 17.1307 11.984L11.5 14.4067V14C11.5 10.51 11.53 8.93809 12.236 8.23809C12.938 7.53009 14.51 7.5 18 7.5Z" fill="#3EB9B5"/>
<path d="M12.845 41.466C13.785 42.778 14.9971 43.5 16.2731 43.5L16.2811 43.502C17.5951 43.502 18.841 42.7381 19.783 41.3641C20.593 40.2081 21.4811 39.5721 22.2811 39.5721C23.0811 39.5721 23.969 40.2081 24.779 41.3641C24.851 41.4681 24.9331 41.5579 25.0231 41.6359C26.1691 43.0979 27.3951 43.4239 28.2491 43.4279H28.2691C29.1891 43.4279 30.5391 43.056 31.7771 41.31L31.7891 41.292C32.5811 40.138 33.455 39.5 34.245 39.498H34.2491C35.0151 39.498 35.8631 40.0901 36.6491 41.1721C36.7051 41.2781 36.773 41.378 36.851 41.468C37.945 42.994 39.147 43.408 39.971 43.484C40.743 43.554 41.9091 43.398 43.0651 42.242C43.6511 41.656 43.6511 40.7059 43.0651 40.1199C42.4791 39.5339 41.5291 39.5339 40.9431 40.1199C40.7911 40.2699 40.4991 40.5221 40.2431 40.4961C40.0011 40.4741 39.691 40.24 39.391 39.858L39.1991 39.582C39.1391 39.498 39.0811 39.4181 39.0231 39.3381L38.791 39H38.763C37.111 36.942 35.4151 36.4961 34.2311 36.4961C32.9571 36.5001 31.0691 37.0381 29.3191 39.5801C28.8751 40.2021 28.4811 40.424 28.2611 40.424C28.0451 40.424 27.663 40.2019 27.237 39.5859C27.165 39.4839 27.085 39.3921 26.995 39.3141C25.287 37.0561 23.5551 36.5699 22.2771 36.5699C20.9991 36.5699 19.101 37.102 17.313 39.652C16.885 40.278 16.4971 40.5 16.2771 40.5C16.0851 40.5 15.7631 40.33 15.3991 39.868L15.201 39.584C15.147 39.506 15.091 39.4279 15.037 39.3539L14.795 39.002H14.7651C13.1131 36.944 11.421 36.498 10.233 36.498C8.95903 36.502 7.07102 37.04 5.32102 39.582C4.87702 40.204 4.48301 40.426 4.26301 40.426C4.04701 40.426 3.66509 40.2041 3.23909 39.5881C2.76709 38.9061 1.833 38.736 1.151 39.208C0.469002 39.678 0.299022 40.6119 0.771022 41.2939C1.98302 43.0459 3.32905 43.42 4.24505 43.426H4.26507C5.18507 43.426 6.53507 43.054 7.77307 41.308L7.78509 41.29C8.57709 40.136 9.45104 39.4981 10.241 39.4961H10.245C11.011 39.4961 11.859 40.0879 12.645 41.1699C12.701 41.2759 12.767 41.376 12.845 41.466Z" fill="#3EB9B5"/>
</svg>
