<svg width="44" height="40" viewBox="0 0 44 40" fill="none" xmlns="http://www.w3.org/2000/svg">
<path opacity="0.4" d="M28.0005 2C25.6111 2 23.4664 3.04751 22.0005 4.70835C23.2452 6.11862 24.0005 7.97111 24.0005 10C24.0005 10.6906 23.913 11.3608 23.7485 12H6.17806C4.10343 12 3.06611 12 2.4636 12.6513C1.86109 13.3026 1.955 14.3225 2.14283 16.3621L3.21681 28.0246C3.26155 28.5105 3.28392 28.7534 3.31819 28.9618C3.77021 31.7096 6.233 33.7895 9.04592 33.9852C9.25921 34 9.5063 34 10.0005 34C10.0005 31.7909 11.7913 30 14.0005 30C16.2096 30 18.0005 31.7909 18.0005 34H26.0005C26.0005 31.7909 27.7913 30 30.0005 30C32.2096 30 34.0005 31.7909 34.0005 34C34.1819 34 34.3509 34.002 34.5028 34.0038C34.7647 34.0069 34.9757 34.0094 35.1107 34C37.9236 33.8044 40.2308 31.7096 40.6828 28.9618C40.7171 28.7535 40.7394 28.5104 40.7842 28.0246L41.8582 16.3621C42.046 14.3225 42.1399 13.3026 41.5374 12.6513C40.9349 12 39.8975 12 37.8229 12H35.7485C35.913 11.3608 36.0005 10.6906 36.0005 10C36.0005 5.58172 32.4188 2 28.0005 2Z" fill="#3EB9B5"/>
<path fill-rule="evenodd" clip-rule="evenodd" d="M25.488 10.5C25.4963 10.335 25.5005 10.1683 25.5005 10C25.5005 4.762 21.2385 0.5 16.0005 0.5C10.7625 0.5 6.50049 4.762 6.50049 10C6.50049 10.1683 6.50464 10.335 6.51294 10.5H6.18143C3.82549 10.5 2.40335 10.5 1.35936 11.634C0.31845 12.7608 0.439184 14.1311 0.638811 16.3969L0.639438 16.404L1.72733 28.148C1.76933 28.656 1.7933 28.942 1.8453 29.222C2.38439 32.5229 5.2394 35.1105 8.698 35.4626C9.34028 37.7873 11.4747 39.5 14.0005 39.5C16.5127 39.5 18.6377 37.8056 19.2925 35.5H24.7085C25.3632 37.8056 27.4883 39.5 30.0005 39.5C32.5161 39.5 34.6434 37.8011 35.2951 35.4908C38.7323 35.2186 41.6091 32.5932 42.1594 29.22C42.2114 28.94 42.2354 28.656 42.2754 28.162L43.3553 16.494L43.3639 16.3971C43.5635 14.1312 43.6842 12.7609 42.6453 11.636C41.5993 10.5 40.1773 10.5 37.8213 10.5H37.4892C37.4974 10.3357 37.5015 10.1696 37.5015 10.002C37.5015 4.76395 33.2395 0.501953 28.0015 0.501953C27.8095 0.501953 27.5996 0.50802 27.4056 0.52002C26.5796 0.57202 25.9515 1.28601 26.0035 2.11201C26.0555 2.93801 26.7637 3.56596 27.5957 3.51396C27.7257 3.50396 27.8716 3.5 27.9996 3.5C31.5836 3.5 34.4996 6.416 34.4996 10C34.4996 10.1703 34.4937 10.3371 34.4818 10.5H25.488ZM6.18143 13.502C5.06543 13.502 3.80127 13.502 3.56327 13.672C3.43127 13.916 3.53533 15.098 3.62733 16.142L3.63534 16.232L4.71541 27.888C4.74941 28.308 4.7693 28.552 4.7953 28.682L4.80331 28.728C5.10221 30.5925 6.75014 32.127 8.72486 32.4435C9.39805 30.1667 11.5088 28.5 14.0005 28.5C16.5127 28.5 18.6377 30.1944 19.2925 32.5H24.7085C25.3632 30.1944 27.4883 28.5 30.0005 28.5C32.5048 28.5 34.6244 30.1838 35.2863 32.4783C37.2594 32.2248 38.8889 30.683 39.2013 28.726L39.2094 28.68C39.2323 28.5556 39.2515 28.3269 39.2829 27.9536L39.2873 27.902L40.3754 16.142C40.4674 15.098 40.5713 13.914 40.4353 13.666C40.2013 13.502 38.9373 13.502 37.8213 13.502H6.18143ZM27.5008 34.0405C27.5012 34.0271 27.5014 34.0136 27.5014 34C27.5014 33.9864 27.5012 33.9729 27.5008 33.9595C27.5226 32.6001 28.636 31.5 30.0005 31.5C31.3785 31.5 32.5005 32.622 32.5005 34C32.5005 35.378 31.3785 36.5 30.0005 36.5C28.636 36.5 27.5226 35.3999 27.5008 34.0405ZM11.5016 34.0744C11.5027 34.0504 11.5033 34.0262 11.5033 34.002C11.5033 33.9772 11.5027 33.9525 11.5015 33.928C11.5398 32.5831 12.6466 31.5 14.0005 31.5C15.3785 31.5 16.5005 32.622 16.5005 34C16.5005 35.378 15.3785 36.5 14.0005 36.5C12.6474 36.5 11.5411 35.4182 11.5016 34.0744ZM9.5183 10.5H22.4827C22.4946 10.3371 22.5005 10.1703 22.5005 10C22.5005 6.416 19.5845 3.5 16.0005 3.5C12.4165 3.5 9.50049 6.416 9.50049 10C9.50049 10.1703 9.50642 10.3371 9.5183 10.5Z" fill="#3EB9B5"/>
</svg>
