<svg width="44" height="44" viewBox="0 0 44 44" fill="none" xmlns="http://www.w3.org/2000/svg">
<path opacity="0.4" d="M30 16C30 8.26801 23.732 2 16 2C8.26801 2 2 8.26801 2 16C2 23.732 8.26801 30 16 30C23.732 30 30 23.732 30 16Z" fill="#3EB9B5"/>
<path fill-rule="evenodd" clip-rule="evenodd" d="M16 0.5C7.43959 0.5 0.5 7.43959 0.5 16C0.5 24.5604 7.43959 31.5 16 31.5C19.74 31.5 23.1706 30.1754 25.8483 27.9697L28.928 31.0495C28.1443 32.7043 28.4369 34.742 29.8058 36.111L35.889 42.1942C37.6301 43.9353 40.453 43.9353 42.1942 42.1942C43.9353 40.453 43.9353 37.6301 42.1942 35.889L36.111 29.8058C34.742 28.4368 32.7042 28.1442 31.0493 28.9281L27.9696 25.8484C30.1754 23.1707 31.5 19.7401 31.5 16C31.5 7.43959 24.5604 0.5 16 0.5ZM3.5 16C3.5 9.09644 9.09644 3.5 16 3.5C22.9036 3.5 28.5 9.09644 28.5 16C28.5 22.9036 22.9036 28.5 16 28.5C9.09644 28.5 3.5 22.9036 3.5 16ZM33.9897 31.9272C33.4201 31.3576 32.4967 31.3576 31.9272 31.9272C31.3576 32.4967 31.3576 33.4201 31.9272 33.9897L38.0103 40.0728C38.5799 40.6424 39.5033 40.6424 40.0728 40.0728C40.6424 39.5033 40.6424 38.5799 40.0728 38.0103L33.9897 31.9272Z" fill="#3EB9B5"/>
</svg>
