<svg width="44" height="44" viewBox="0 0 44 44" fill="none" xmlns="http://www.w3.org/2000/svg">
<path opacity="0.4" d="M8.19096 29.5171C8.54691 29.3157 8.87373 29.1307 9.15515 28.9632C15.3155 25.295 23.0136 25.0325 29.3941 28.1756C28.9558 28.2993 28.4994 28.4933 28.0299 28.7732C25.2145 30.4523 24.5774 35.9916 31.0716 40.6648C31.4715 40.9526 31.8068 41.1939 32.1137 41.3886C31.0938 41.7792 30.0024 42 28.8183 42H11.1817C8.09098 42 5.63262 40.496 3.42532 38.3931C-0.643862 34.5164 4.96796 31.3409 8.19096 29.5171Z" fill="#3EB9B5"/>
<path fill-rule="evenodd" clip-rule="evenodd" d="M9.5 11C9.5 5.20101 14.201 0.5 20 0.5C25.799 0.5 30.5 5.20101 30.5 11C30.5 16.799 25.799 21.5 20 21.5C14.201 21.5 9.5 16.799 9.5 11ZM20 3.5C15.8579 3.5 12.5 6.85786 12.5 11C12.5 15.1421 15.8579 18.5 20 18.5C24.1421 18.5 27.5 15.1421 27.5 11C27.5 6.85786 24.1421 3.5 20 3.5Z" fill="#3EB9B5"/>
<path d="M21.8608 27.5867C17.7518 27.2027 13.5468 28.0942 9.92292 30.252C9.58728 30.4518 9.21952 30.6605 8.8343 30.879C7.40908 31.6876 5.74447 32.632 4.58428 33.7676C3.86403 34.4726 3.55701 35.0541 3.50789 35.5035C3.4689 35.8602 3.55908 36.4484 4.46034 37.3071C6.53204 39.2808 8.6372 40.5 11.1821 40.5H24.0004C24.8288 40.5 25.5004 41.1716 25.5004 42C25.5004 42.8284 24.8288 43.5 24.0004 43.5H11.1821C7.54547 43.5 4.7339 41.7112 2.39101 39.4791C1.03297 38.1853 0.356044 36.7292 0.525657 35.1775C0.685148 33.7184 1.56246 32.5274 2.48579 31.6237C3.96213 30.1786 6.11715 28.9628 7.54277 28.1585C7.86811 27.975 8.15545 27.8128 8.38808 27.6743C12.5762 25.1805 17.4197 24.1586 22.1399 24.5997C22.9647 24.6768 23.5709 25.4079 23.4938 26.2327C23.4168 27.0576 22.6856 27.6638 21.8608 27.5867Z" fill="#3EB9B5"/>
<path fill-rule="evenodd" clip-rule="evenodd" d="M27.2629 27.4845C29.9615 25.8751 32.4556 26.4785 34.0012 27.5777C35.5469 26.4785 38.0409 25.8751 40.7396 27.4845C42.7522 28.6848 43.7955 31.1331 43.4275 33.8008C43.0567 36.4885 41.292 39.3732 37.8057 41.8819L37.6577 41.9887C36.5498 42.7881 35.5638 43.4996 34.0012 43.4996C32.4386 43.4996 31.4526 42.7881 30.3448 41.9887L30.1967 41.8819C26.7105 39.3732 24.9457 36.4885 24.5749 33.8008C24.2069 31.1331 25.2502 28.6848 27.2629 27.4845ZM28.7995 30.0611C30.358 29.1317 31.5805 29.5242 32.2892 30.0417L32.3207 30.0647C32.5236 30.2129 32.7305 30.364 32.9041 30.4745C32.9981 30.5343 33.1274 30.6117 33.2762 30.6771C33.4144 30.7378 33.6728 30.8354 34.0012 30.8354C34.3296 30.8354 34.5881 30.7378 34.7262 30.6771C34.875 30.6117 35.0043 30.5343 35.0983 30.4745C35.272 30.364 35.4789 30.2129 35.6818 30.0647L35.7132 30.0417C36.422 29.5242 37.6444 29.1317 39.203 30.0611C40.0058 30.5399 40.6888 31.7007 40.4557 33.3908C40.2253 35.0607 39.0615 37.2823 36.0535 39.4469C34.7492 40.3854 34.5153 40.4996 34.0012 40.4996C33.4872 40.4996 33.2532 40.3854 31.949 39.4469C28.941 37.2823 27.7772 35.0607 27.5468 33.3908C27.3136 31.7007 27.9966 30.5399 28.7995 30.0611Z" fill="#3EB9B5"/>
</svg>
