<svg width="24" height="40" viewBox="0 0 24 40" fill="none" xmlns="http://www.w3.org/2000/svg">
<path opacity="0.4" d="M14.7446 16.0068C13.1386 18.0868 12.0306 20.0469 11.2046 21.7869C10.3266 23.6469 9.88646 24.5668 9.96846 25.6268L3.99854 24.0068L4.0165 23.9268C5.2525 19.2268 7.06049 14.8268 9.45049 12.4268L9.49248 12.4668L14.7446 16.0068Z" fill="#3EB9B5"/>
<path fill-rule="evenodd" clip-rule="evenodd" d="M15.6456 27.0561C15.5599 26.9688 15.4835 26.8694 15.4189 26.7587C15.0029 26.0427 15.2449 25.1248 15.9609 24.7068L17.8488 23.6068L17.8571 23.602C19.0304 22.9255 20.2334 22.2319 20.4888 21.8907C20.4484 21.8281 20.3787 21.752 20.2854 21.6651C19.8645 21.2748 18.9714 20.6688 18.101 20.0788L18.0271 20.0288L15.101 18.0586C14.139 19.4326 13.3031 20.8747 12.5631 22.4307L12.5391 22.4807C11.7511 24.1507 11.427 24.8647 11.465 25.4887C11.465 25.5047 11.4671 25.5227 11.4691 25.5387C11.5328 26.2073 12.2122 27.2124 13.328 28.8634L13.3451 28.8887C13.6102 29.2795 13.8776 29.6772 14.1456 30.0757C14.2314 30.2033 14.3172 30.331 14.4031 30.4586L14.4078 30.4655C15.9803 32.8094 17.6046 35.2304 19.1451 37.0346C19.6831 37.6646 19.6071 38.6107 18.9771 39.1487C18.6951 39.3907 18.3491 39.5067 18.0031 39.5067H17.9971C17.5731 39.5067 17.1531 39.3287 16.8551 38.9807C15.2011 37.0427 13.5251 34.5448 11.9051 32.1288C11.8418 32.0346 11.7786 31.9405 11.7155 31.8465C11.4274 31.4174 11.1405 30.9902 10.8551 30.5686C9.76508 28.9566 9.03916 27.8826 8.69316 26.8346L5.08105 25.8547C4.10706 30.0247 3.49707 34.6427 3.49707 38.0067C3.49707 38.8347 2.82507 39.5067 1.99707 39.5067C1.16907 39.5067 0.49707 38.8347 0.49707 38.0067C0.49707 33.9867 1.30709 28.3126 2.56309 23.5506C2.56309 23.5506 2.56499 23.5427 2.56699 23.5387C3.46499 20.1227 4.98102 15.6706 7.29902 12.6266C5.85702 11.2646 4.91703 9.54067 4.60703 7.64867C4.54701 7.28253 4.5118 6.91589 4.50094 6.55044C4.44148 4.61152 5.06755 2.70587 6.31089 1.08683C6.81489 0.430832 7.75679 0.306855 8.41479 0.810855C8.79329 1.10165 8.99474 1.53822 9.00064 1.98193C9.00667 2.30985 8.90594 2.6421 8.69102 2.9227C7.87731 3.98069 7.46671 5.21609 7.50211 6.46271C7.50901 6.69338 7.53118 6.92443 7.5689 7.1548C7.8289 8.7468 8.79487 10.1747 10.2869 11.1747L19.7837 17.5907C22.0919 19.1535 23.3649 20.0154 23.4888 21.6247C23.4941 21.6836 23.4976 21.7437 23.4992 21.8047C23.5047 21.9986 23.4913 22.2013 23.459 22.4028C23.1952 23.9932 21.8337 24.7791 19.3643 26.2044L19.357 26.2086L17.475 27.3047C16.8677 27.6576 16.1152 27.5385 15.6456 27.0561ZM8.73516 23.7368L5.84101 22.9528H5.84316C6.92316 19.2588 8.26108 16.3066 9.70508 14.4186L12.6111 16.3766C11.5631 17.8766 10.6531 19.4468 9.84707 21.1448L9.82305 21.1967L9.7889 21.2692C9.33089 22.2411 8.96546 23.0166 8.73516 23.7368Z" fill="#3EB9B5"/>
<path fill-rule="evenodd" clip-rule="evenodd" d="M16.9971 11.5049C14.5151 11.5049 12.4971 9.48688 12.4971 7.00488C12.4971 4.52288 14.5151 2.50488 16.9971 2.50488C19.4791 2.50488 21.4971 4.52288 21.4971 7.00488C21.4971 9.48688 19.4791 11.5049 16.9971 11.5049ZM16.9971 5.50488C16.1691 5.50488 15.4971 6.17688 15.4971 7.00488C15.4971 7.83288 16.1691 8.50488 16.9971 8.50488C17.8251 8.50488 18.4971 7.83288 18.4971 7.00488C18.4971 6.17688 17.8251 5.50488 16.9971 5.50488Z" fill="#3EB9B5"/>
</svg>
