<svg width="44" height="44" viewBox="0 0 44 44" fill="none" xmlns="http://www.w3.org/2000/svg">
<path opacity="0.4" fill-rule="evenodd" clip-rule="evenodd" d="M22 26C24.2091 26 26 24.2091 26 22C26 19.7909 24.2091 18 22 18C19.7909 18 18 19.7909 18 22C18 24.2091 19.7909 26 22 26ZM22 26L26.4656 35.6973C27.7607 38.5098 28.4083 39.9161 27.7224 40.9311C27.7036 40.9589 27.6842 40.9864 27.6641 41.0134C26.9318 42 25.2879 42 22 42C18.7121 42 17.0682 42 16.3359 41.0134C16.3158 40.9864 16.2964 40.9589 16.2776 40.9311C15.5917 39.9161 16.2393 38.5098 17.5344 35.6973L22 26Z" fill="#3EB9B5"/>
<path d="M22 3.5C11.7827 3.5 3.5 11.7827 3.5 22C3.5 26.1673 4.87608 30.0088 7.19924 33.1009C7.69686 33.7633 7.56333 34.7036 6.90101 35.2012C6.23869 35.6988 5.29838 35.5653 4.80076 34.903C2.10064 31.3091 0.5 26.8393 0.5 22C0.5 10.1259 10.1259 0.5 22 0.5C33.8741 0.5 43.5 10.1259 43.5 22C43.5 26.8393 41.8994 31.3091 39.1992 34.903C38.7016 35.5653 37.7613 35.6988 37.099 35.2012C36.4367 34.7036 36.3031 33.7633 36.8008 33.1009C39.1239 30.0088 40.5 26.1673 40.5 22C40.5 11.7827 32.2173 3.5 22 3.5Z" fill="#3EB9B5"/>
<path fill-rule="evenodd" clip-rule="evenodd" d="M22 16.5C18.9624 16.5 16.5 18.9624 16.5 22C16.5 24.2774 17.8841 26.2314 19.857 27.0669L16.1221 35.1774C15.5169 36.4914 14.9909 37.6334 14.721 38.5747C14.4343 39.5741 14.3245 40.7203 15.0345 41.771C15.0657 41.8172 15.0979 41.8626 15.1311 41.9074C15.8623 42.8925 16.9628 43.222 18.0086 43.3632C19.023 43.5001 20.3401 43.5001 21.8921 43.5H22.1073C23.6593 43.5001 24.9764 43.5001 25.9908 43.3632C27.0366 43.222 28.1371 42.8925 28.8683 41.9074C28.9015 41.8626 28.9337 41.8172 28.9649 41.771C29.675 40.7203 29.5651 39.5741 29.2785 38.5747C29.0085 37.6334 28.4825 36.4915 27.8773 35.1775L24.1425 27.0671C26.1157 26.2317 27.5 24.2775 27.5 22C27.5 18.9624 25.0376 16.5 22 16.5ZM19.5 22C19.5 20.6193 20.6193 19.5 22 19.5C23.3807 19.5 24.5 20.6193 24.5 22C24.5 23.3807 23.3807 24.5 22 24.5C20.6193 24.5 19.5 23.3807 19.5 22ZM18.8966 36.3247L21.9997 29.5861L25.1028 36.3247C25.772 37.7779 26.1959 38.7087 26.3947 39.4018C26.4891 39.7309 26.5035 39.9144 26.499 40.0077C26.4961 40.0678 26.4872 40.0801 26.4809 40.0889L26.4792 40.0913L26.474 40.0989L26.4592 40.1196C26.4552 40.1262 26.3579 40.2864 25.5894 40.3902C24.8002 40.4967 23.6888 40.5 21.9997 40.5C20.3106 40.5 19.1993 40.4967 18.41 40.3902C17.6416 40.2864 17.5441 40.126 17.5401 40.1194L17.5309 40.1067L17.5202 40.0913L17.5185 40.0889C17.5122 40.0801 17.5034 40.0678 17.5004 40.0077C17.4959 39.9144 17.5103 39.7309 17.6047 39.4018C17.8035 38.7087 18.2274 37.7779 18.8966 36.3247Z" fill="#3EB9B5"/>
<path d="M11.5 22C11.5 16.201 16.201 11.5 22 11.5C27.799 11.5 32.5 16.201 32.5 22C32.5 24.6902 31.4903 27.141 29.8267 28.9996C29.2742 29.6169 29.3268 30.5652 29.9441 31.1177C30.5613 31.6702 31.5096 31.6177 32.0621 31.0004C34.1989 28.613 35.5 25.4566 35.5 22C35.5 14.5442 29.4558 8.5 22 8.5C14.5442 8.5 8.5 14.5442 8.5 22C8.5 25.4566 9.80108 28.613 11.9379 31.0004C12.4904 31.6177 13.4387 31.6702 14.0559 31.1177C14.6732 30.5652 14.7258 29.6169 14.1733 28.9996C12.5097 27.141 11.5 24.6902 11.5 22Z" fill="#3EB9B5"/>
</svg>
