<svg width="44" height="42" viewBox="0 0 44 42" fill="none" xmlns="http://www.w3.org/2000/svg">
<path opacity="0.4" d="M23.1881 4.45522C17.4968 6.08736 13.7974 11.7045 14.0086 17.7501C14.0525 19.0057 14.0744 19.6336 14.6109 19.9112C15.1475 20.1889 15.7044 19.7954 16.8182 19.0083L19.3013 17.2536C19.6742 16.9901 20.117 16.8631 20.5631 16.8917L26.3954 17.2664L31.2714 13.8208C31.6443 13.5573 32.0871 13.4303 32.5332 13.459L35.5758 13.6545C36.8814 13.7383 37.5341 13.7803 37.8582 13.2777C38.1823 12.7751 37.9188 12.2317 37.3919 11.1448C34.7712 5.73978 28.9106 2.81414 23.1881 4.45522Z" fill="#3EB9B5"/>
<path fill-rule="evenodd" clip-rule="evenodd" d="M23.4422 1.5883C23.2146 0.791752 22.3844 0.330514 21.5878 0.5581C20.7913 0.785687 20.33 1.61592 20.5576 2.41247L20.9237 3.69378C15.5787 6.11502 12.2997 11.8115 12.509 17.8029L12.5123 17.8989C12.5309 18.4406 12.5513 19.037 12.6607 19.5255C12.7996 20.1459 13.1325 20.8358 13.921 21.2439C14.764 21.6801 15.5633 21.4854 16.1345 21.2175C16.6035 20.9976 17.1177 20.6338 17.6024 20.2909L20.1664 18.479C20.2658 18.4088 20.3705 18.3829 20.4664 18.3891L25.9111 18.7389L28.9884 30.279C28.2221 30.0481 27.4611 29.8099 26.7016 29.5701L25.9951 29.3465C21.5315 27.9325 17.0108 26.5005 11.9999 26.5005C8.67766 26.5005 6.06908 26.8893 4.27305 27.2858C3.37517 27.4841 2.68053 27.6842 2.20134 27.8385C1.96173 27.9156 1.77595 27.9813 1.64551 28.0297C1.58029 28.0538 1.5289 28.0737 1.49153 28.0884L1.44601 28.1066L1.43117 28.1127L1.42575 28.1149L1.42353 28.1158C1.42307 28.116 1.42165 28.1166 1.9999 29.5007L1.42165 28.1166C0.657252 28.436 0.296481 29.3145 0.615843 30.0789C0.934819 30.8424 1.81164 31.2032 2.57539 30.8859L2.59206 30.8792C2.61041 30.872 2.64242 30.8596 2.6879 30.8427C2.77887 30.809 2.92368 30.7576 3.12085 30.6941C3.5152 30.5671 4.1188 30.3921 4.91977 30.2153C6.5214 29.8617 8.91282 29.5005 11.9999 29.5005C16.5344 29.5005 20.6483 30.8019 25.2207 32.2483L25.7982 32.4309C30.5544 33.9328 35.7482 35.5005 41.9999 35.5005C42.8283 35.5005 43.4999 34.8289 43.4999 34.0005C43.4999 33.1721 42.8283 32.5005 41.9999 32.5005C38.4974 32.5005 35.3447 31.9687 32.3427 31.2143L28.6822 17.4873L32.1365 15.0463C32.2359 14.976 32.3406 14.9502 32.4365 14.9564L35.5755 15.158C36.1423 15.1947 36.7512 15.2342 37.2546 15.1768C37.876 15.1059 38.6243 14.8571 39.1183 14.091C39.5798 13.3753 39.5557 12.6407 39.3908 12.0361C39.2619 11.5633 39.009 11.0427 38.7818 10.5747L38.741 10.4909C35.9833 4.80325 29.9322 1.50455 23.7789 2.76686L23.4422 1.5883ZM36.0416 11.7997C33.708 6.98669 28.5561 4.47654 23.601 5.89755C18.6445 7.31896 15.3173 12.2621 15.5071 17.6982C15.5121 17.8413 15.5167 17.9695 15.5214 18.0862C15.6489 17.9979 15.7904 17.8979 15.952 17.7837L18.4351 16.029C19.0816 15.5722 19.8624 15.3441 20.6587 15.3953L25.9621 15.736L30.4052 12.5963C31.0517 12.1395 31.8325 11.9114 32.6288 11.9625L35.6715 12.158C35.8854 12.1717 36.0685 12.1834 36.2305 12.1919C36.1755 12.0761 36.1131 11.9472 36.0416 11.7997Z" fill="#3EB9B5"/>
<path d="M1.99951 38.5005C1.17108 38.5005 0.499512 39.1721 0.499512 40.0005C0.499512 40.8289 1.17108 41.5005 1.99951 41.5005H41.9995C42.8279 41.5005 43.4995 40.8289 43.4995 40.0005C43.4995 39.1721 42.8279 38.5005 41.9995 38.5005H1.99951Z" fill="#3EB9B5"/>
</svg>
