<svg width="44" height="44" viewBox="0 0 44 44" fill="none" xmlns="http://www.w3.org/2000/svg">
<path opacity="0.4" fill-rule="evenodd" clip-rule="evenodd" d="M5.88283 10.0332L5.88281 25.9747L5.9702 25.9969C6.82786 26.214 8.08082 26.5055 9.64279 26.7977C12.7702 27.3827 17.1179 27.9668 22.0008 27.9668C26.8836 27.9668 31.2313 27.3827 34.3587 26.7977C35.9207 26.5055 37.1737 26.214 38.0313 25.9969L38.1172 25.9751L38.1172 10.0332L5.88283 10.0332Z" fill="#3EB9B5"/>
<path d="M18.5 33C18.5 32.1716 19.1716 31.5 20 31.5L24 31.5C24.8284 31.5 25.5 32.1716 25.5 33C25.5 33.8284 24.8284 34.5 24 34.5H20C19.1716 34.5 18.5 33.8284 18.5 33Z" fill="#3EB9B5"/>
<path fill-rule="evenodd" clip-rule="evenodd" d="M6.75379 6.02221C9.26829 3.76882 14.262 0.5 22.0001 0.5C29.7383 0.5 34.732 3.76882 37.2465 6.02221L37.2892 6.06047C37.9862 6.68485 38.5435 7.18407 39.022 8.25539C39.5018 9.32951 39.5011 10.2659 39.5002 11.4165L39.5001 26.1097C39.5002 28.8449 39.5002 31.0496 39.2671 32.7835C39.0251 34.5837 38.5073 36.0995 37.3034 37.3033C36.2628 38.3439 34.9891 38.8719 33.5 39.1523V42C33.5 42.8284 32.8284 43.5 32 43.5C31.1716 43.5 30.5 42.8284 30.5 42V39.4486C29.2215 39.5 27.7625 39.5 26.1099 39.5H17.8904C16.2376 39.5 14.7785 39.5 13.5 39.4486L13.5 42C13.5 42.8284 12.8284 43.5 12 43.5C11.1716 43.5 10.5 42.8284 10.5 42L10.5 39.1522C9.01105 38.8719 7.73742 38.3439 6.69684 37.3033C5.49301 36.0995 4.97522 34.5837 4.73319 32.7835C4.50007 31.0496 4.5001 28.8449 4.50014 26.1098L4.50007 11.4165C4.49922 10.2659 4.49853 9.32951 4.97827 8.25539C5.45676 7.18407 6.01407 6.68485 6.71109 6.06047L6.75379 6.02221ZM22.0001 3.5C15.1795 3.5 10.8695 6.36227 8.75594 8.25635C8.65472 8.34707 8.56535 8.42744 8.48589 8.5L35.5144 8.5C35.4349 8.42744 35.3456 8.34707 35.2443 8.25635C33.1308 6.36227 28.8208 3.5 22.0001 3.5ZM7.50016 11.5L7.50014 24.8338L7.57876 24.8523C8.35037 25.0339 9.4776 25.2778 10.8828 25.5221C13.6965 26.0115 17.6079 26.5 22.0008 26.5C26.3937 26.5 30.3052 26.0115 33.1188 25.5221C34.5241 25.2778 35.6513 25.0339 36.4229 24.8523L36.5001 24.8341L36.5001 11.5L7.50016 11.5ZM36.4969 27.9128C35.7368 28.0819 34.77 28.28 33.6328 28.4778C30.6965 28.9885 26.6079 29.5 22.0008 29.5C17.3937 29.5 13.3052 28.9885 10.3688 28.4778C9.23101 28.2799 8.2637 28.0817 7.50336 27.9125C7.51072 29.344 7.53481 30.5156 7.61359 31.5L10 31.5C10.8284 31.5 11.5 32.1716 11.5 33C11.5 33.8284 10.8284 34.5 10 34.5H8.30729C8.45489 34.7679 8.62477 34.9886 8.81816 35.182C9.37169 35.7355 10.1488 36.0964 11.6164 36.2937C13.1271 36.4968 15.1293 36.5 18.0001 36.5H26.0001C28.871 36.5 30.8732 36.4968 32.3839 36.2937C33.8515 36.0964 34.6286 35.7355 35.1821 35.182C35.3755 34.9886 35.5454 34.7679 35.693 34.5H34C33.1716 34.5 32.5 33.8284 32.5 33C32.5 32.1716 33.1716 31.5 34 31.5H36.3867C36.4655 30.5157 36.4896 29.3442 36.4969 27.9128Z" fill="#3EB9B5"/>
<path d="M2 14.5C2.82843 14.5 3.5 15.1716 3.5 16L3.5 18C3.5 18.8284 2.82843 19.5 2 19.5C1.17157 19.5 0.5 18.8284 0.5 18L0.5 16C0.5 15.1716 1.17157 14.5 2 14.5Z" fill="#3EB9B5"/>
<path d="M43.5 16C43.5 15.1716 42.8284 14.5 42 14.5C41.1716 14.5 40.5 15.1716 40.5 16V18C40.5 18.8284 41.1716 19.5 42 19.5C42.8284 19.5 43.5 18.8284 43.5 18V16Z" fill="#3EB9B5"/>
</svg>
